M48
; DRILL file {KiCad 9.0.3} date 2026-05-04T11:16:02+0700
; FORMAT={-:-/ absolute / metric / decimal}
; #@! TF.CreationDate,2026-05-04T11:16:02+07:00
; #@! TF.GenerationSoftware,Kicad,Pcbnew,9.0.3
; #@! TF.FileFunction,Plated,1,4,PTH
FMAT,2
METRIC
; #@! TA.AperFunction,Plated,PTH,ViaDrill
T1C0.300
; #@! TA.AperFunction,Plated,PTH,ComponentDrill
T2C1.000
%
G90
G05
T1
X110.25Y-88.75
X112.25Y-89.25
X114.5Y-86.75
X114.5Y-87.75
X114.5Y-88.75
X115.0Y-102.0
X115.0Y-102.9
X115.0Y-103.8
X115.0Y-104.7
X115.0Y-105.6
X115.0Y-106.5
X115.05Y-97.3
X115.9Y-102.0
X115.9Y-102.9
X115.9Y-103.8
X115.9Y-104.7
X115.9Y-105.6
X116.8Y-102.0
X116.8Y-102.9
X116.8Y-103.8
X116.8Y-104.7
X117.7Y-102.0
X117.7Y-102.9
X117.7Y-103.8
X118.25Y-98.75
X118.6Y-102.0
X118.6Y-102.9
X119.4Y-95.025
X119.5Y-102.0
X119.75Y-97.25
X123.75Y-97.0
X125.25Y-94.25
X128.25Y-94.5
X130.9Y-94.1
X132.4Y-95.0
X132.75Y-96.55
X133.365Y-97.535
X133.7Y-113.5
X134.5Y-103.75
X135.5Y-92.2
X135.5Y-93.1
X136.375Y-110.5
X136.6Y-92.2
X136.6Y-93.1
X137.7Y-92.2
X137.7Y-93.1
X138.4Y-109.4
X140.25Y-93.0
X140.5Y-108.7
X140.575Y-113.925
X140.75Y-101.0
X143.0Y-103.3
X143.2Y-97.1
X143.4Y-109.3
X143.5Y-91.25
X143.9Y-97.7
X144.4Y-96.3
X144.75Y-92.5
X145.25Y-112.825
X145.3Y-108.9
X145.625Y-98.925
X145.7Y-95.7
X146.4Y-99.5
X147.4Y-102.2
X148.7Y-102.9
X148.9Y-109.6
X149.1Y-102.1
X149.225Y-114.5
X149.5Y-90.3
X150.675Y-98.425
X150.7Y-101.2
X151.5Y-109.1
X151.6Y-89.5
X151.8Y-101.5
X152.0Y-113.75
X152.7Y-101.6
X152.75Y-89.6
X153.0Y-96.0
X153.0Y-112.0
X153.7Y-101.4
X153.7Y-108.8
X153.75Y-96.0
X153.75Y-96.75
X154.5Y-96.0
X154.5Y-96.75
X154.5Y-97.5
X154.9Y-89.6
X155.25Y-96.0
X155.25Y-96.75
X155.25Y-97.5
X155.75Y-88.75
X156.0Y-96.0
X156.0Y-96.75
X156.0Y-97.5
X156.5Y-89.7
X156.75Y-96.0
X156.75Y-96.75
X156.75Y-97.5
X157.4Y-100.425
X157.5Y-96.0
X157.5Y-96.75
X157.5Y-97.5
X157.5Y-109.0
X158.2Y-89.7
X158.45Y-101.35
X158.6Y-88.4
X158.75Y-112.8
X160.5Y-111.5
X161.4Y-94.1
X161.9Y-100.6
X162.4Y-94.3
X162.7Y-99.6
X162.75Y-109.75
X163.4Y-94.0
X163.4Y-99.1
X163.4Y-100.4
X163.5Y-89.5
X164.0Y-98.6
X164.7Y-97.8
X164.8Y-95.3
X164.9Y-91.1
X165.3Y-96.9
X165.75Y-104.0
X166.0Y-96.0
X168.75Y-107.5
X168.875Y-113.125
X169.0Y-97.75
X169.85Y-87.25
X170.5Y-107.0
X173.1Y-113.4
X174.95Y-117.35
X175.213Y-87.412
X175.75Y-95.25
X177.5Y-98.25
X178.062Y-90.062
X180.5Y-102.0
X180.75Y-111.25
X181.0Y-116.25
X181.25Y-97.625
X183.8Y-113.0
X184.5Y-107.75
X186.5Y-92.75
X186.6Y-113.0
X188.7Y-86.9
X189.5Y-86.9
X190.0Y-92.75
X190.25Y-106.825
X190.3Y-86.9
X190.5Y-97.65
X195.75Y-92.75
X199.0Y-119.25
X199.0Y-120.0
X199.0Y-120.75
X199.25Y-92.75
X199.5Y-97.75
X199.75Y-119.25
X199.75Y-120.0
X199.75Y-120.75
X200.5Y-119.25
X200.5Y-120.0
X200.5Y-120.75
T2
X107.35Y-103.095
X107.35Y-105.635
X107.35Y-108.175
X107.35Y-110.715
X107.35Y-113.255
X107.35Y-115.795
X107.35Y-118.335
X107.75Y-92.425
X107.75Y-94.925
X107.75Y-97.425
X133.615Y-117.285
X133.615Y-119.825
X136.155Y-117.285
X136.155Y-119.825
X138.695Y-117.285
X138.695Y-119.825
X141.235Y-117.285
X141.235Y-119.825
X143.775Y-117.285
X143.775Y-119.825
X146.315Y-117.285
X146.315Y-119.825
X148.855Y-117.285
X148.855Y-119.825
X151.395Y-117.285
X151.395Y-119.825
X153.935Y-117.285
X153.935Y-119.825
X156.475Y-117.285
X156.475Y-119.825
X159.015Y-117.285
X159.015Y-119.825
X161.555Y-117.285
X161.555Y-119.825
X164.095Y-117.285
X164.095Y-119.825
X166.635Y-117.285
X166.635Y-119.825
X169.175Y-117.285
X169.175Y-119.825
X171.715Y-117.285
X171.715Y-119.825
M30
