%TF.GenerationSoftware,KiCad,Pcbnew,10.0.3*%
%TF.CreationDate,2026-08-04T01:15:28+07:00*%
%TF.ProjectId,STM32 V2,53544d33-3220-4563-922e-6b696361645f,rev?*%
%TF.SameCoordinates,Original*%
%TF.FileFunction,Paste,Top*%
%TF.FilePolarity,Positive*%
%FSLAX46Y46*%
G04 Gerber Fmt 4.6, Leading zero omitted, Abs format (unit mm)*
G04 Created by KiCad (PCBNEW 10.0.3) date 2026-08-04 01:15:28*
%MOMM*%
%LPD*%
G01*
G04 APERTURE LIST*
G04 Aperture macros list*
%AMRoundRect*
0 Rectangle with rounded corners*
0 $1 Rounding radius*
0 $2 $3 $4 $5 $6 $7 $8 $9 X,Y pos of 4 corners*
0 Add a 4 corners polygon primitive as box body*
4,1,4,$2,$3,$4,$5,$6,$7,$8,$9,$2,$3,0*
0 Add four circle primitives for the rounded corners*
1,1,$1+$1,$2,$3*
1,1,$1+$1,$4,$5*
1,1,$1+$1,$6,$7*
1,1,$1+$1,$8,$9*
0 Add four rect primitives between the rounded corners*
20,1,$1+$1,$2,$3,$4,$5,0*
20,1,$1+$1,$4,$5,$6,$7,0*
20,1,$1+$1,$6,$7,$8,$9,0*
20,1,$1+$1,$8,$9,$2,$3,0*%
G04 Aperture macros list end*
%ADD10RoundRect,0.250000X0.450000X-0.350000X0.450000X0.350000X-0.450000X0.350000X-0.450000X-0.350000X0*%
%ADD11RoundRect,0.250000X0.475000X-0.337500X0.475000X0.337500X-0.475000X0.337500X-0.475000X-0.337500X0*%
%ADD12RoundRect,0.250000X-0.475000X0.337500X-0.475000X-0.337500X0.475000X-0.337500X0.475000X0.337500X0*%
%ADD13RoundRect,0.250000X0.337500X0.475000X-0.337500X0.475000X-0.337500X-0.475000X0.337500X-0.475000X0*%
%ADD14RoundRect,0.250000X0.350000X0.450000X-0.350000X0.450000X-0.350000X-0.450000X0.350000X-0.450000X0*%
%ADD15RoundRect,0.250000X0.325000X0.450000X-0.325000X0.450000X-0.325000X-0.450000X0.325000X-0.450000X0*%
%ADD16RoundRect,0.075000X-0.700000X-0.075000X0.700000X-0.075000X0.700000X0.075000X-0.700000X0.075000X0*%
%ADD17RoundRect,0.075000X-0.075000X-0.700000X0.075000X-0.700000X0.075000X0.700000X-0.075000X0.700000X0*%
%ADD18RoundRect,0.250000X-0.350000X-0.450000X0.350000X-0.450000X0.350000X0.450000X-0.350000X0.450000X0*%
%ADD19RoundRect,0.250000X-0.525000X-0.250000X0.525000X-0.250000X0.525000X0.250000X-0.525000X0.250000X0*%
%ADD20RoundRect,0.150000X-0.825000X-0.150000X0.825000X-0.150000X0.825000X0.150000X-0.825000X0.150000X0*%
%ADD21RoundRect,0.250000X-0.337500X-0.475000X0.337500X-0.475000X0.337500X0.475000X-0.337500X0.475000X0*%
G04 APERTURE END LIST*
D10*
%TO.C,R8*%
X177700000Y-102800000D03*
X177700000Y-100800000D03*
%TD*%
D11*
%TO.C,C14*%
X163850000Y-107475000D03*
X163850000Y-105400000D03*
%TD*%
D10*
%TO.C,R25*%
X176575000Y-96900000D03*
X176575000Y-94900000D03*
%TD*%
D12*
%TO.C,C3*%
X140600000Y-105375000D03*
X140600000Y-107450000D03*
%TD*%
D10*
%TO.C,R2*%
X177700000Y-106975000D03*
X177700000Y-104975000D03*
%TD*%
%TO.C,R3*%
X195550000Y-106875000D03*
X195550000Y-104875000D03*
%TD*%
D13*
%TO.C,C17*%
X169537500Y-100225000D03*
X167462500Y-100225000D03*
%TD*%
D10*
%TO.C,R12*%
X124825000Y-98875000D03*
X124825000Y-96875000D03*
%TD*%
%TO.C,R5*%
X157625000Y-112800000D03*
X157625000Y-110800000D03*
%TD*%
D14*
%TO.C,R13*%
X118225000Y-93850000D03*
X116225000Y-93850000D03*
%TD*%
D10*
%TO.C,R14*%
X144025000Y-112825000D03*
X144025000Y-110825000D03*
%TD*%
%TO.C,R11*%
X186925000Y-107000000D03*
X186925000Y-105000000D03*
%TD*%
D12*
%TO.C,C7*%
X148850000Y-105375000D03*
X148850000Y-107450000D03*
%TD*%
D10*
%TO.C,R6*%
X140575000Y-112850000D03*
X140575000Y-110850000D03*
%TD*%
D11*
%TO.C,C15*%
X157100000Y-107450000D03*
X157100000Y-105375000D03*
%TD*%
D10*
%TO.C,R18*%
X186950000Y-102875000D03*
X186950000Y-100875000D03*
%TD*%
D15*
%TO.C,D3*%
X196500000Y-88725000D03*
X194450000Y-88725000D03*
%TD*%
D12*
%TO.C,C2*%
X154350000Y-105375000D03*
X154350000Y-107450000D03*
%TD*%
D16*
%TO.C,U1*%
X148325000Y-93425000D03*
X148325000Y-93925000D03*
X148325000Y-94425000D03*
X148325000Y-94925000D03*
X148325000Y-95425000D03*
X148325000Y-95925000D03*
X148325000Y-96425000D03*
X148325000Y-96925000D03*
X148325000Y-97425000D03*
X148325000Y-97925000D03*
X148325000Y-98425000D03*
X148325000Y-98925000D03*
X148325000Y-99425000D03*
X148325000Y-99925000D03*
X148325000Y-100425000D03*
X148325000Y-100925000D03*
D17*
X150250000Y-102850000D03*
X150750000Y-102850000D03*
X151250000Y-102850000D03*
X151750000Y-102850000D03*
X152250000Y-102850000D03*
X152750000Y-102850000D03*
X153250000Y-102850000D03*
X153750000Y-102850000D03*
X154250000Y-102850000D03*
X154750000Y-102850000D03*
X155250000Y-102850000D03*
X155750000Y-102850000D03*
X156250000Y-102850000D03*
X156750000Y-102850000D03*
X157250000Y-102850000D03*
X157750000Y-102850000D03*
D16*
X159675000Y-100925000D03*
X159675000Y-100425000D03*
X159675000Y-99925000D03*
X159675000Y-99425000D03*
X159675000Y-98925000D03*
X159675000Y-98425000D03*
X159675000Y-97925000D03*
X159675000Y-97425000D03*
X159675000Y-96925000D03*
X159675000Y-96425000D03*
X159675000Y-95925000D03*
X159675000Y-95425000D03*
X159675000Y-94925000D03*
X159675000Y-94425000D03*
X159675000Y-93925000D03*
X159675000Y-93425000D03*
D17*
X157750000Y-91500000D03*
X157250000Y-91500000D03*
X156750000Y-91500000D03*
X156250000Y-91500000D03*
X155750000Y-91500000D03*
X155250000Y-91500000D03*
X154750000Y-91500000D03*
X154250000Y-91500000D03*
X153750000Y-91500000D03*
X153250000Y-91500000D03*
X152750000Y-91500000D03*
X152250000Y-91500000D03*
X151750000Y-91500000D03*
X151250000Y-91500000D03*
X150750000Y-91500000D03*
X150250000Y-91500000D03*
%TD*%
D10*
%TO.C,R15*%
X147525000Y-112800000D03*
X147525000Y-110800000D03*
%TD*%
D11*
%TO.C,C13*%
X159825000Y-107450000D03*
X159825000Y-105375000D03*
%TD*%
D12*
%TO.C,C5*%
X143325000Y-105375000D03*
X143325000Y-107450000D03*
%TD*%
D18*
%TO.C,R24*%
X134375000Y-108950000D03*
X136375000Y-108950000D03*
%TD*%
D10*
%TO.C,R17*%
X124800000Y-103400000D03*
X124800000Y-101400000D03*
%TD*%
D11*
%TO.C,C12*%
X141800000Y-93100000D03*
X141800000Y-91025000D03*
%TD*%
%TO.C,C16*%
X167250000Y-107575000D03*
X167250000Y-105500000D03*
%TD*%
D19*
%TO.C,SW1*%
X116375000Y-86875000D03*
X121625000Y-86875000D03*
X116375000Y-90075000D03*
X121625000Y-90075000D03*
%TD*%
D20*
%TO.C,U2*%
X167725000Y-93995000D03*
X167725000Y-95265000D03*
X167725000Y-96535000D03*
X167725000Y-97805000D03*
X172675000Y-97805000D03*
X172675000Y-96535000D03*
X172675000Y-95265000D03*
X172675000Y-93995000D03*
%TD*%
D10*
%TO.C,R16*%
X151075000Y-112800000D03*
X151075000Y-110800000D03*
%TD*%
D21*
%TO.C,C4*%
X116225000Y-97300000D03*
X118300000Y-97300000D03*
%TD*%
D18*
%TO.C,R20*%
X183475000Y-92125000D03*
X185475000Y-92125000D03*
%TD*%
D13*
%TO.C,C8*%
X163425000Y-91050000D03*
X161350000Y-91050000D03*
%TD*%
D12*
%TO.C,C6*%
X146100000Y-105375000D03*
X146100000Y-107450000D03*
%TD*%
D15*
%TO.C,D2*%
X190975000Y-88750000D03*
X188925000Y-88750000D03*
%TD*%
D18*
%TO.C,R23*%
X134450000Y-105450000D03*
X136450000Y-105450000D03*
%TD*%
D10*
%TO.C,R9*%
X195625000Y-102200000D03*
X195625000Y-100200000D03*
%TD*%
%TO.C,R19*%
X124800000Y-94400000D03*
X124800000Y-92400000D03*
%TD*%
D21*
%TO.C,C11*%
X143685000Y-101270000D03*
X145760000Y-101270000D03*
%TD*%
D10*
%TO.C,R1*%
X124850000Y-117975000D03*
X124850000Y-115975000D03*
%TD*%
D18*
%TO.C,R21*%
X188950000Y-92175000D03*
X190950000Y-92175000D03*
%TD*%
D21*
%TO.C,C10*%
X144600000Y-91050000D03*
X146675000Y-91050000D03*
%TD*%
D10*
%TO.C,R4*%
X154325000Y-112800000D03*
X154325000Y-110800000D03*
%TD*%
D15*
%TO.C,D1*%
X185500000Y-88700000D03*
X183450000Y-88700000D03*
%TD*%
D10*
%TO.C,R10*%
X124850000Y-107875000D03*
X124850000Y-105875000D03*
%TD*%
D13*
%TO.C,C9*%
X162700000Y-102750000D03*
X160625000Y-102750000D03*
%TD*%
D18*
%TO.C,R22*%
X194450000Y-92050000D03*
X196450000Y-92050000D03*
%TD*%
D10*
%TO.C,R7*%
X124850000Y-113175000D03*
X124850000Y-111175000D03*
%TD*%
D12*
%TO.C,C1*%
X151575000Y-105375000D03*
X151575000Y-107450000D03*
%TD*%
M02*
