%TF.GenerationSoftware,KiCad,Pcbnew,10.0.3*%
%TF.CreationDate,2026-08-04T01:15:28+07:00*%
%TF.ProjectId,STM32 V2,53544d33-3220-4563-922e-6b696361645f,rev?*%
%TF.SameCoordinates,Original*%
%TF.FileFunction,Legend,Top*%
%TF.FilePolarity,Positive*%
%FSLAX46Y46*%
G04 Gerber Fmt 4.6, Leading zero omitted, Abs format (unit mm)*
G04 Created by KiCad (PCBNEW 10.0.3) date 2026-08-04 01:15:28*
%MOMM*%
%LPD*%
G01*
G04 APERTURE LIST*
%ADD10C,0.100000*%
%ADD11C,0.150000*%
%ADD12C,0.120000*%
G04 APERTURE END LIST*
D10*
X109337217Y-105233609D02*
X109646741Y-105233609D01*
X109646741Y-105233609D02*
X109480074Y-105424085D01*
X109480074Y-105424085D02*
X109551503Y-105424085D01*
X109551503Y-105424085D02*
X109599122Y-105447895D01*
X109599122Y-105447895D02*
X109622931Y-105471704D01*
X109622931Y-105471704D02*
X109646741Y-105519323D01*
X109646741Y-105519323D02*
X109646741Y-105638371D01*
X109646741Y-105638371D02*
X109622931Y-105685990D01*
X109622931Y-105685990D02*
X109599122Y-105709800D01*
X109599122Y-105709800D02*
X109551503Y-105733609D01*
X109551503Y-105733609D02*
X109408646Y-105733609D01*
X109408646Y-105733609D02*
X109361027Y-105709800D01*
X109361027Y-105709800D02*
X109337217Y-105685990D01*
X109861026Y-105685990D02*
X109884836Y-105709800D01*
X109884836Y-105709800D02*
X109861026Y-105733609D01*
X109861026Y-105733609D02*
X109837217Y-105709800D01*
X109837217Y-105709800D02*
X109861026Y-105685990D01*
X109861026Y-105685990D02*
X109861026Y-105733609D01*
X110051502Y-105233609D02*
X110361026Y-105233609D01*
X110361026Y-105233609D02*
X110194359Y-105424085D01*
X110194359Y-105424085D02*
X110265788Y-105424085D01*
X110265788Y-105424085D02*
X110313407Y-105447895D01*
X110313407Y-105447895D02*
X110337216Y-105471704D01*
X110337216Y-105471704D02*
X110361026Y-105519323D01*
X110361026Y-105519323D02*
X110361026Y-105638371D01*
X110361026Y-105638371D02*
X110337216Y-105685990D01*
X110337216Y-105685990D02*
X110313407Y-105709800D01*
X110313407Y-105709800D02*
X110265788Y-105733609D01*
X110265788Y-105733609D02*
X110122931Y-105733609D01*
X110122931Y-105733609D02*
X110075312Y-105709800D01*
X110075312Y-105709800D02*
X110051502Y-105685990D01*
X110503883Y-105233609D02*
X110670549Y-105733609D01*
X110670549Y-105733609D02*
X110837216Y-105233609D01*
X109670550Y-108333609D02*
X109503884Y-108095514D01*
X109384836Y-108333609D02*
X109384836Y-107833609D01*
X109384836Y-107833609D02*
X109575312Y-107833609D01*
X109575312Y-107833609D02*
X109622931Y-107857419D01*
X109622931Y-107857419D02*
X109646741Y-107881228D01*
X109646741Y-107881228D02*
X109670550Y-107928847D01*
X109670550Y-107928847D02*
X109670550Y-108000276D01*
X109670550Y-108000276D02*
X109646741Y-108047895D01*
X109646741Y-108047895D02*
X109622931Y-108071704D01*
X109622931Y-108071704D02*
X109575312Y-108095514D01*
X109575312Y-108095514D02*
X109384836Y-108095514D01*
X109861027Y-108309800D02*
X109932455Y-108333609D01*
X109932455Y-108333609D02*
X110051503Y-108333609D01*
X110051503Y-108333609D02*
X110099122Y-108309800D01*
X110099122Y-108309800D02*
X110122931Y-108285990D01*
X110122931Y-108285990D02*
X110146741Y-108238371D01*
X110146741Y-108238371D02*
X110146741Y-108190752D01*
X110146741Y-108190752D02*
X110122931Y-108143133D01*
X110122931Y-108143133D02*
X110099122Y-108119323D01*
X110099122Y-108119323D02*
X110051503Y-108095514D01*
X110051503Y-108095514D02*
X109956265Y-108071704D01*
X109956265Y-108071704D02*
X109908646Y-108047895D01*
X109908646Y-108047895D02*
X109884836Y-108024085D01*
X109884836Y-108024085D02*
X109861027Y-107976466D01*
X109861027Y-107976466D02*
X109861027Y-107928847D01*
X109861027Y-107928847D02*
X109884836Y-107881228D01*
X109884836Y-107881228D02*
X109908646Y-107857419D01*
X109908646Y-107857419D02*
X109956265Y-107833609D01*
X109956265Y-107833609D02*
X110075312Y-107833609D01*
X110075312Y-107833609D02*
X110146741Y-107857419D01*
X110289598Y-107833609D02*
X110575312Y-107833609D01*
X110432455Y-108333609D02*
X110432455Y-107833609D01*
X109361027Y-110709800D02*
X109432455Y-110733609D01*
X109432455Y-110733609D02*
X109551503Y-110733609D01*
X109551503Y-110733609D02*
X109599122Y-110709800D01*
X109599122Y-110709800D02*
X109622931Y-110685990D01*
X109622931Y-110685990D02*
X109646741Y-110638371D01*
X109646741Y-110638371D02*
X109646741Y-110590752D01*
X109646741Y-110590752D02*
X109622931Y-110543133D01*
X109622931Y-110543133D02*
X109599122Y-110519323D01*
X109599122Y-110519323D02*
X109551503Y-110495514D01*
X109551503Y-110495514D02*
X109456265Y-110471704D01*
X109456265Y-110471704D02*
X109408646Y-110447895D01*
X109408646Y-110447895D02*
X109384836Y-110424085D01*
X109384836Y-110424085D02*
X109361027Y-110376466D01*
X109361027Y-110376466D02*
X109361027Y-110328847D01*
X109361027Y-110328847D02*
X109384836Y-110281228D01*
X109384836Y-110281228D02*
X109408646Y-110257419D01*
X109408646Y-110257419D02*
X109456265Y-110233609D01*
X109456265Y-110233609D02*
X109575312Y-110233609D01*
X109575312Y-110233609D02*
X109646741Y-110257419D01*
X109813407Y-110233609D02*
X109932455Y-110733609D01*
X109932455Y-110733609D02*
X110027693Y-110376466D01*
X110027693Y-110376466D02*
X110122931Y-110733609D01*
X110122931Y-110733609D02*
X110241979Y-110233609D01*
X110718169Y-110685990D02*
X110694360Y-110709800D01*
X110694360Y-110709800D02*
X110622931Y-110733609D01*
X110622931Y-110733609D02*
X110575312Y-110733609D01*
X110575312Y-110733609D02*
X110503884Y-110709800D01*
X110503884Y-110709800D02*
X110456265Y-110662180D01*
X110456265Y-110662180D02*
X110432455Y-110614561D01*
X110432455Y-110614561D02*
X110408646Y-110519323D01*
X110408646Y-110519323D02*
X110408646Y-110447895D01*
X110408646Y-110447895D02*
X110432455Y-110352657D01*
X110432455Y-110352657D02*
X110456265Y-110305038D01*
X110456265Y-110305038D02*
X110503884Y-110257419D01*
X110503884Y-110257419D02*
X110575312Y-110233609D01*
X110575312Y-110233609D02*
X110622931Y-110233609D01*
X110622931Y-110233609D02*
X110694360Y-110257419D01*
X110694360Y-110257419D02*
X110718169Y-110281228D01*
X111170550Y-110733609D02*
X110932455Y-110733609D01*
X110932455Y-110733609D02*
X110932455Y-110233609D01*
X111337217Y-110733609D02*
X111337217Y-110233609D01*
X111622931Y-110733609D02*
X111408646Y-110447895D01*
X111622931Y-110233609D02*
X111337217Y-110519323D01*
X109361027Y-113309800D02*
X109432455Y-113333609D01*
X109432455Y-113333609D02*
X109551503Y-113333609D01*
X109551503Y-113333609D02*
X109599122Y-113309800D01*
X109599122Y-113309800D02*
X109622931Y-113285990D01*
X109622931Y-113285990D02*
X109646741Y-113238371D01*
X109646741Y-113238371D02*
X109646741Y-113190752D01*
X109646741Y-113190752D02*
X109622931Y-113143133D01*
X109622931Y-113143133D02*
X109599122Y-113119323D01*
X109599122Y-113119323D02*
X109551503Y-113095514D01*
X109551503Y-113095514D02*
X109456265Y-113071704D01*
X109456265Y-113071704D02*
X109408646Y-113047895D01*
X109408646Y-113047895D02*
X109384836Y-113024085D01*
X109384836Y-113024085D02*
X109361027Y-112976466D01*
X109361027Y-112976466D02*
X109361027Y-112928847D01*
X109361027Y-112928847D02*
X109384836Y-112881228D01*
X109384836Y-112881228D02*
X109408646Y-112857419D01*
X109408646Y-112857419D02*
X109456265Y-112833609D01*
X109456265Y-112833609D02*
X109575312Y-112833609D01*
X109575312Y-112833609D02*
X109646741Y-112857419D01*
X109813407Y-112833609D02*
X109932455Y-113333609D01*
X109932455Y-113333609D02*
X110027693Y-112976466D01*
X110027693Y-112976466D02*
X110122931Y-113333609D01*
X110122931Y-113333609D02*
X110241979Y-112833609D01*
X110432455Y-113333609D02*
X110432455Y-112833609D01*
X110432455Y-112833609D02*
X110551503Y-112833609D01*
X110551503Y-112833609D02*
X110622931Y-112857419D01*
X110622931Y-112857419D02*
X110670550Y-112905038D01*
X110670550Y-112905038D02*
X110694360Y-112952657D01*
X110694360Y-112952657D02*
X110718169Y-113047895D01*
X110718169Y-113047895D02*
X110718169Y-113119323D01*
X110718169Y-113119323D02*
X110694360Y-113214561D01*
X110694360Y-113214561D02*
X110670550Y-113262180D01*
X110670550Y-113262180D02*
X110622931Y-113309800D01*
X110622931Y-113309800D02*
X110551503Y-113333609D01*
X110551503Y-113333609D02*
X110432455Y-113333609D01*
X110932455Y-113333609D02*
X110932455Y-112833609D01*
X111265788Y-112833609D02*
X111361026Y-112833609D01*
X111361026Y-112833609D02*
X111408645Y-112857419D01*
X111408645Y-112857419D02*
X111456264Y-112905038D01*
X111456264Y-112905038D02*
X111480074Y-113000276D01*
X111480074Y-113000276D02*
X111480074Y-113166942D01*
X111480074Y-113166942D02*
X111456264Y-113262180D01*
X111456264Y-113262180D02*
X111408645Y-113309800D01*
X111408645Y-113309800D02*
X111361026Y-113333609D01*
X111361026Y-113333609D02*
X111265788Y-113333609D01*
X111265788Y-113333609D02*
X111218169Y-113309800D01*
X111218169Y-113309800D02*
X111170550Y-113262180D01*
X111170550Y-113262180D02*
X111146741Y-113166942D01*
X111146741Y-113166942D02*
X111146741Y-113000276D01*
X111146741Y-113000276D02*
X111170550Y-112905038D01*
X111170550Y-112905038D02*
X111218169Y-112857419D01*
X111218169Y-112857419D02*
X111265788Y-112833609D01*
X109313408Y-115333609D02*
X109599122Y-115333609D01*
X109456265Y-115833609D02*
X109456265Y-115333609D01*
X109718169Y-115333609D02*
X110051502Y-115833609D01*
X110051502Y-115333609D02*
X109718169Y-115833609D01*
X109670550Y-118433609D02*
X109503884Y-118195514D01*
X109384836Y-118433609D02*
X109384836Y-117933609D01*
X109384836Y-117933609D02*
X109575312Y-117933609D01*
X109575312Y-117933609D02*
X109622931Y-117957419D01*
X109622931Y-117957419D02*
X109646741Y-117981228D01*
X109646741Y-117981228D02*
X109670550Y-118028847D01*
X109670550Y-118028847D02*
X109670550Y-118100276D01*
X109670550Y-118100276D02*
X109646741Y-118147895D01*
X109646741Y-118147895D02*
X109622931Y-118171704D01*
X109622931Y-118171704D02*
X109575312Y-118195514D01*
X109575312Y-118195514D02*
X109384836Y-118195514D01*
X109837217Y-117933609D02*
X110170550Y-118433609D01*
X110170550Y-117933609D02*
X109837217Y-118433609D01*
X109646741Y-102757419D02*
X109599122Y-102733609D01*
X109599122Y-102733609D02*
X109527693Y-102733609D01*
X109527693Y-102733609D02*
X109456265Y-102757419D01*
X109456265Y-102757419D02*
X109408646Y-102805038D01*
X109408646Y-102805038D02*
X109384836Y-102852657D01*
X109384836Y-102852657D02*
X109361027Y-102947895D01*
X109361027Y-102947895D02*
X109361027Y-103019323D01*
X109361027Y-103019323D02*
X109384836Y-103114561D01*
X109384836Y-103114561D02*
X109408646Y-103162180D01*
X109408646Y-103162180D02*
X109456265Y-103209800D01*
X109456265Y-103209800D02*
X109527693Y-103233609D01*
X109527693Y-103233609D02*
X109575312Y-103233609D01*
X109575312Y-103233609D02*
X109646741Y-103209800D01*
X109646741Y-103209800D02*
X109670550Y-103185990D01*
X109670550Y-103185990D02*
X109670550Y-103019323D01*
X109670550Y-103019323D02*
X109575312Y-103019323D01*
X109884836Y-103233609D02*
X109884836Y-102733609D01*
X109884836Y-102733609D02*
X110170550Y-103233609D01*
X110170550Y-103233609D02*
X110170550Y-102733609D01*
X110408646Y-103233609D02*
X110408646Y-102733609D01*
X110408646Y-102733609D02*
X110527694Y-102733609D01*
X110527694Y-102733609D02*
X110599122Y-102757419D01*
X110599122Y-102757419D02*
X110646741Y-102805038D01*
X110646741Y-102805038D02*
X110670551Y-102852657D01*
X110670551Y-102852657D02*
X110694360Y-102947895D01*
X110694360Y-102947895D02*
X110694360Y-103019323D01*
X110694360Y-103019323D02*
X110670551Y-103114561D01*
X110670551Y-103114561D02*
X110646741Y-103162180D01*
X110646741Y-103162180D02*
X110599122Y-103209800D01*
X110599122Y-103209800D02*
X110527694Y-103233609D01*
X110527694Y-103233609D02*
X110408646Y-103233609D01*
X196370550Y-123785990D02*
X196346741Y-123809800D01*
X196346741Y-123809800D02*
X196275312Y-123833609D01*
X196275312Y-123833609D02*
X196227693Y-123833609D01*
X196227693Y-123833609D02*
X196156265Y-123809800D01*
X196156265Y-123809800D02*
X196108646Y-123762180D01*
X196108646Y-123762180D02*
X196084836Y-123714561D01*
X196084836Y-123714561D02*
X196061027Y-123619323D01*
X196061027Y-123619323D02*
X196061027Y-123547895D01*
X196061027Y-123547895D02*
X196084836Y-123452657D01*
X196084836Y-123452657D02*
X196108646Y-123405038D01*
X196108646Y-123405038D02*
X196156265Y-123357419D01*
X196156265Y-123357419D02*
X196227693Y-123333609D01*
X196227693Y-123333609D02*
X196275312Y-123333609D01*
X196275312Y-123333609D02*
X196346741Y-123357419D01*
X196346741Y-123357419D02*
X196370550Y-123381228D01*
X196656265Y-123833609D02*
X196608646Y-123809800D01*
X196608646Y-123809800D02*
X196584836Y-123785990D01*
X196584836Y-123785990D02*
X196561027Y-123738371D01*
X196561027Y-123738371D02*
X196561027Y-123595514D01*
X196561027Y-123595514D02*
X196584836Y-123547895D01*
X196584836Y-123547895D02*
X196608646Y-123524085D01*
X196608646Y-123524085D02*
X196656265Y-123500276D01*
X196656265Y-123500276D02*
X196727693Y-123500276D01*
X196727693Y-123500276D02*
X196775312Y-123524085D01*
X196775312Y-123524085D02*
X196799122Y-123547895D01*
X196799122Y-123547895D02*
X196822931Y-123595514D01*
X196822931Y-123595514D02*
X196822931Y-123738371D01*
X196822931Y-123738371D02*
X196799122Y-123785990D01*
X196799122Y-123785990D02*
X196775312Y-123809800D01*
X196775312Y-123809800D02*
X196727693Y-123833609D01*
X196727693Y-123833609D02*
X196656265Y-123833609D01*
X197108646Y-123833609D02*
X197061027Y-123809800D01*
X197061027Y-123809800D02*
X197037217Y-123762180D01*
X197037217Y-123762180D02*
X197037217Y-123333609D01*
X197370551Y-123833609D02*
X197322932Y-123809800D01*
X197322932Y-123809800D02*
X197299122Y-123762180D01*
X197299122Y-123762180D02*
X197299122Y-123333609D01*
X197561027Y-123833609D02*
X197561027Y-123500276D01*
X197561027Y-123333609D02*
X197537218Y-123357419D01*
X197537218Y-123357419D02*
X197561027Y-123381228D01*
X197561027Y-123381228D02*
X197584837Y-123357419D01*
X197584837Y-123357419D02*
X197561027Y-123333609D01*
X197561027Y-123333609D02*
X197561027Y-123381228D01*
X198013408Y-123809800D02*
X197965789Y-123833609D01*
X197965789Y-123833609D02*
X197870551Y-123833609D01*
X197870551Y-123833609D02*
X197822932Y-123809800D01*
X197822932Y-123809800D02*
X197799122Y-123785990D01*
X197799122Y-123785990D02*
X197775313Y-123738371D01*
X197775313Y-123738371D02*
X197775313Y-123595514D01*
X197775313Y-123595514D02*
X197799122Y-123547895D01*
X197799122Y-123547895D02*
X197822932Y-123524085D01*
X197822932Y-123524085D02*
X197870551Y-123500276D01*
X197870551Y-123500276D02*
X197965789Y-123500276D01*
X197965789Y-123500276D02*
X198013408Y-123524085D01*
X198441979Y-123500276D02*
X198441979Y-123833609D01*
X198227693Y-123500276D02*
X198227693Y-123762180D01*
X198227693Y-123762180D02*
X198251503Y-123809800D01*
X198251503Y-123809800D02*
X198299122Y-123833609D01*
X198299122Y-123833609D02*
X198370550Y-123833609D01*
X198370550Y-123833609D02*
X198418169Y-123809800D01*
X198418169Y-123809800D02*
X198441979Y-123785990D01*
X198751503Y-123833609D02*
X198703884Y-123809800D01*
X198703884Y-123809800D02*
X198680074Y-123762180D01*
X198680074Y-123762180D02*
X198680074Y-123333609D01*
X198941979Y-123833609D02*
X198941979Y-123500276D01*
X198941979Y-123333609D02*
X198918170Y-123357419D01*
X198918170Y-123357419D02*
X198941979Y-123381228D01*
X198941979Y-123381228D02*
X198965789Y-123357419D01*
X198965789Y-123357419D02*
X198941979Y-123333609D01*
X198941979Y-123333609D02*
X198941979Y-123381228D01*
X199489598Y-123595514D02*
X199465788Y-123571704D01*
X199465788Y-123571704D02*
X199418169Y-123547895D01*
X199418169Y-123547895D02*
X199370550Y-123547895D01*
X199370550Y-123547895D02*
X199322931Y-123571704D01*
X199322931Y-123571704D02*
X199299122Y-123595514D01*
X199299122Y-123595514D02*
X199275312Y-123643133D01*
X199275312Y-123643133D02*
X199275312Y-123690752D01*
X199275312Y-123690752D02*
X199299122Y-123738371D01*
X199299122Y-123738371D02*
X199322931Y-123762180D01*
X199322931Y-123762180D02*
X199370550Y-123785990D01*
X199370550Y-123785990D02*
X199418169Y-123785990D01*
X199418169Y-123785990D02*
X199465788Y-123762180D01*
X199465788Y-123762180D02*
X199489598Y-123738371D01*
X199489598Y-123547895D02*
X199489598Y-123738371D01*
X199489598Y-123738371D02*
X199513407Y-123762180D01*
X199513407Y-123762180D02*
X199537217Y-123762180D01*
X199537217Y-123762180D02*
X199584836Y-123738371D01*
X199584836Y-123738371D02*
X199608646Y-123690752D01*
X199608646Y-123690752D02*
X199608646Y-123571704D01*
X199608646Y-123571704D02*
X199561027Y-123500276D01*
X199561027Y-123500276D02*
X199489598Y-123452657D01*
X199489598Y-123452657D02*
X199394360Y-123428847D01*
X199394360Y-123428847D02*
X199299122Y-123452657D01*
X199299122Y-123452657D02*
X199227693Y-123500276D01*
X199227693Y-123500276D02*
X199180074Y-123571704D01*
X199180074Y-123571704D02*
X199156265Y-123666942D01*
X199156265Y-123666942D02*
X199180074Y-123762180D01*
X199180074Y-123762180D02*
X199227693Y-123833609D01*
X199227693Y-123833609D02*
X199299122Y-123881228D01*
X199299122Y-123881228D02*
X199394360Y-123905038D01*
X199394360Y-123905038D02*
X199489598Y-123881228D01*
X199489598Y-123881228D02*
X199561027Y-123833609D01*
X199799122Y-123381228D02*
X199822931Y-123357419D01*
X199822931Y-123357419D02*
X199870550Y-123333609D01*
X199870550Y-123333609D02*
X199989598Y-123333609D01*
X199989598Y-123333609D02*
X200037217Y-123357419D01*
X200037217Y-123357419D02*
X200061026Y-123381228D01*
X200061026Y-123381228D02*
X200084836Y-123428847D01*
X200084836Y-123428847D02*
X200084836Y-123476466D01*
X200084836Y-123476466D02*
X200061026Y-123547895D01*
X200061026Y-123547895D02*
X199775312Y-123833609D01*
X199775312Y-123833609D02*
X200084836Y-123833609D01*
X200513407Y-123333609D02*
X200418169Y-123333609D01*
X200418169Y-123333609D02*
X200370550Y-123357419D01*
X200370550Y-123357419D02*
X200346740Y-123381228D01*
X200346740Y-123381228D02*
X200299121Y-123452657D01*
X200299121Y-123452657D02*
X200275312Y-123547895D01*
X200275312Y-123547895D02*
X200275312Y-123738371D01*
X200275312Y-123738371D02*
X200299121Y-123785990D01*
X200299121Y-123785990D02*
X200322931Y-123809800D01*
X200322931Y-123809800D02*
X200370550Y-123833609D01*
X200370550Y-123833609D02*
X200465788Y-123833609D01*
X200465788Y-123833609D02*
X200513407Y-123809800D01*
X200513407Y-123809800D02*
X200537216Y-123785990D01*
X200537216Y-123785990D02*
X200561026Y-123738371D01*
X200561026Y-123738371D02*
X200561026Y-123619323D01*
X200561026Y-123619323D02*
X200537216Y-123571704D01*
X200537216Y-123571704D02*
X200513407Y-123547895D01*
X200513407Y-123547895D02*
X200465788Y-123524085D01*
X200465788Y-123524085D02*
X200370550Y-123524085D01*
X200370550Y-123524085D02*
X200322931Y-123547895D01*
X200322931Y-123547895D02*
X200299121Y-123571704D01*
X200299121Y-123571704D02*
X200275312Y-123619323D01*
X200799121Y-123333609D02*
X200751502Y-123428847D01*
X110821428Y-92207419D02*
X110773809Y-92183609D01*
X110773809Y-92183609D02*
X110702380Y-92183609D01*
X110702380Y-92183609D02*
X110630952Y-92207419D01*
X110630952Y-92207419D02*
X110583333Y-92255038D01*
X110583333Y-92255038D02*
X110559523Y-92302657D01*
X110559523Y-92302657D02*
X110535714Y-92397895D01*
X110535714Y-92397895D02*
X110535714Y-92469323D01*
X110535714Y-92469323D02*
X110559523Y-92564561D01*
X110559523Y-92564561D02*
X110583333Y-92612180D01*
X110583333Y-92612180D02*
X110630952Y-92659800D01*
X110630952Y-92659800D02*
X110702380Y-92683609D01*
X110702380Y-92683609D02*
X110749999Y-92683609D01*
X110749999Y-92683609D02*
X110821428Y-92659800D01*
X110821428Y-92659800D02*
X110845237Y-92635990D01*
X110845237Y-92635990D02*
X110845237Y-92469323D01*
X110845237Y-92469323D02*
X110749999Y-92469323D01*
X111059523Y-92683609D02*
X111059523Y-92183609D01*
X111059523Y-92183609D02*
X111345237Y-92683609D01*
X111345237Y-92683609D02*
X111345237Y-92183609D01*
X111583333Y-92683609D02*
X111583333Y-92183609D01*
X111583333Y-92183609D02*
X111702381Y-92183609D01*
X111702381Y-92183609D02*
X111773809Y-92207419D01*
X111773809Y-92207419D02*
X111821428Y-92255038D01*
X111821428Y-92255038D02*
X111845238Y-92302657D01*
X111845238Y-92302657D02*
X111869047Y-92397895D01*
X111869047Y-92397895D02*
X111869047Y-92469323D01*
X111869047Y-92469323D02*
X111845238Y-92564561D01*
X111845238Y-92564561D02*
X111821428Y-92612180D01*
X111821428Y-92612180D02*
X111773809Y-92659800D01*
X111773809Y-92659800D02*
X111702381Y-92683609D01*
X111702381Y-92683609D02*
X111583333Y-92683609D01*
X110535715Y-97183609D02*
X110845239Y-97183609D01*
X110845239Y-97183609D02*
X110678572Y-97374085D01*
X110678572Y-97374085D02*
X110750001Y-97374085D01*
X110750001Y-97374085D02*
X110797620Y-97397895D01*
X110797620Y-97397895D02*
X110821429Y-97421704D01*
X110821429Y-97421704D02*
X110845239Y-97469323D01*
X110845239Y-97469323D02*
X110845239Y-97588371D01*
X110845239Y-97588371D02*
X110821429Y-97635990D01*
X110821429Y-97635990D02*
X110797620Y-97659800D01*
X110797620Y-97659800D02*
X110750001Y-97683609D01*
X110750001Y-97683609D02*
X110607144Y-97683609D01*
X110607144Y-97683609D02*
X110559525Y-97659800D01*
X110559525Y-97659800D02*
X110535715Y-97635990D01*
X111059524Y-97635990D02*
X111083334Y-97659800D01*
X111083334Y-97659800D02*
X111059524Y-97683609D01*
X111059524Y-97683609D02*
X111035715Y-97659800D01*
X111035715Y-97659800D02*
X111059524Y-97635990D01*
X111059524Y-97635990D02*
X111059524Y-97683609D01*
X111250000Y-97183609D02*
X111559524Y-97183609D01*
X111559524Y-97183609D02*
X111392857Y-97374085D01*
X111392857Y-97374085D02*
X111464286Y-97374085D01*
X111464286Y-97374085D02*
X111511905Y-97397895D01*
X111511905Y-97397895D02*
X111535714Y-97421704D01*
X111535714Y-97421704D02*
X111559524Y-97469323D01*
X111559524Y-97469323D02*
X111559524Y-97588371D01*
X111559524Y-97588371D02*
X111535714Y-97635990D01*
X111535714Y-97635990D02*
X111511905Y-97659800D01*
X111511905Y-97659800D02*
X111464286Y-97683609D01*
X111464286Y-97683609D02*
X111321429Y-97683609D01*
X111321429Y-97683609D02*
X111273810Y-97659800D01*
X111273810Y-97659800D02*
X111250000Y-97635990D01*
X111726190Y-97350276D02*
X111845238Y-97683609D01*
X111845238Y-97683609D02*
X111964285Y-97350276D01*
D11*
X123869819Y-88991792D02*
X123393628Y-89325125D01*
X123869819Y-89563220D02*
X122869819Y-89563220D01*
X122869819Y-89563220D02*
X122869819Y-89182268D01*
X122869819Y-89182268D02*
X122917438Y-89087030D01*
X122917438Y-89087030D02*
X122965057Y-89039411D01*
X122965057Y-89039411D02*
X123060295Y-88991792D01*
X123060295Y-88991792D02*
X123203152Y-88991792D01*
X123203152Y-88991792D02*
X123298390Y-89039411D01*
X123298390Y-89039411D02*
X123346009Y-89087030D01*
X123346009Y-89087030D02*
X123393628Y-89182268D01*
X123393628Y-89182268D02*
X123393628Y-89563220D01*
X123822200Y-88610839D02*
X123869819Y-88467982D01*
X123869819Y-88467982D02*
X123869819Y-88229887D01*
X123869819Y-88229887D02*
X123822200Y-88134649D01*
X123822200Y-88134649D02*
X123774580Y-88087030D01*
X123774580Y-88087030D02*
X123679342Y-88039411D01*
X123679342Y-88039411D02*
X123584104Y-88039411D01*
X123584104Y-88039411D02*
X123488866Y-88087030D01*
X123488866Y-88087030D02*
X123441247Y-88134649D01*
X123441247Y-88134649D02*
X123393628Y-88229887D01*
X123393628Y-88229887D02*
X123346009Y-88420363D01*
X123346009Y-88420363D02*
X123298390Y-88515601D01*
X123298390Y-88515601D02*
X123250771Y-88563220D01*
X123250771Y-88563220D02*
X123155533Y-88610839D01*
X123155533Y-88610839D02*
X123060295Y-88610839D01*
X123060295Y-88610839D02*
X122965057Y-88563220D01*
X122965057Y-88563220D02*
X122917438Y-88515601D01*
X122917438Y-88515601D02*
X122869819Y-88420363D01*
X122869819Y-88420363D02*
X122869819Y-88182268D01*
X122869819Y-88182268D02*
X122917438Y-88039411D01*
X122869819Y-87753696D02*
X122869819Y-87182268D01*
X123869819Y-87467982D02*
X122869819Y-87467982D01*
X182479819Y-106358333D02*
X183194104Y-106358333D01*
X183194104Y-106358333D02*
X183336961Y-106405952D01*
X183336961Y-106405952D02*
X183432200Y-106501190D01*
X183432200Y-106501190D02*
X183479819Y-106644047D01*
X183479819Y-106644047D02*
X183479819Y-106739285D01*
X183479819Y-105882142D02*
X182479819Y-105882142D01*
X182479819Y-105882142D02*
X182479819Y-105501190D01*
X182479819Y-105501190D02*
X182527438Y-105405952D01*
X182527438Y-105405952D02*
X182575057Y-105358333D01*
X182575057Y-105358333D02*
X182670295Y-105310714D01*
X182670295Y-105310714D02*
X182813152Y-105310714D01*
X182813152Y-105310714D02*
X182908390Y-105358333D01*
X182908390Y-105358333D02*
X182956009Y-105405952D01*
X182956009Y-105405952D02*
X183003628Y-105501190D01*
X183003628Y-105501190D02*
X183003628Y-105882142D01*
X182575057Y-104929761D02*
X182527438Y-104882142D01*
X182527438Y-104882142D02*
X182479819Y-104786904D01*
X182479819Y-104786904D02*
X182479819Y-104548809D01*
X182479819Y-104548809D02*
X182527438Y-104453571D01*
X182527438Y-104453571D02*
X182575057Y-104405952D01*
X182575057Y-104405952D02*
X182670295Y-104358333D01*
X182670295Y-104358333D02*
X182765533Y-104358333D01*
X182765533Y-104358333D02*
X182908390Y-104405952D01*
X182908390Y-104405952D02*
X183479819Y-104977380D01*
X183479819Y-104977380D02*
X183479819Y-104358333D01*
X181679819Y-102639285D02*
X181679819Y-103210713D01*
X181679819Y-102924999D02*
X180679819Y-102924999D01*
X180679819Y-102924999D02*
X180822676Y-103020237D01*
X180822676Y-103020237D02*
X180917914Y-103115475D01*
X180917914Y-103115475D02*
X180965533Y-103210713D01*
X180679819Y-108458332D02*
X180679819Y-107839285D01*
X180679819Y-107839285D02*
X181060771Y-108172618D01*
X181060771Y-108172618D02*
X181060771Y-108029761D01*
X181060771Y-108029761D02*
X181108390Y-107934523D01*
X181108390Y-107934523D02*
X181156009Y-107886904D01*
X181156009Y-107886904D02*
X181251247Y-107839285D01*
X181251247Y-107839285D02*
X181489342Y-107839285D01*
X181489342Y-107839285D02*
X181584580Y-107886904D01*
X181584580Y-107886904D02*
X181632200Y-107934523D01*
X181632200Y-107934523D02*
X181679819Y-108029761D01*
X181679819Y-108029761D02*
X181679819Y-108315475D01*
X181679819Y-108315475D02*
X181632200Y-108410713D01*
X181632200Y-108410713D02*
X181584580Y-108458332D01*
X176504819Y-101966666D02*
X176028628Y-102299999D01*
X176504819Y-102538094D02*
X175504819Y-102538094D01*
X175504819Y-102538094D02*
X175504819Y-102157142D01*
X175504819Y-102157142D02*
X175552438Y-102061904D01*
X175552438Y-102061904D02*
X175600057Y-102014285D01*
X175600057Y-102014285D02*
X175695295Y-101966666D01*
X175695295Y-101966666D02*
X175838152Y-101966666D01*
X175838152Y-101966666D02*
X175933390Y-102014285D01*
X175933390Y-102014285D02*
X175981009Y-102061904D01*
X175981009Y-102061904D02*
X176028628Y-102157142D01*
X176028628Y-102157142D02*
X176028628Y-102538094D01*
X175933390Y-101395237D02*
X175885771Y-101490475D01*
X175885771Y-101490475D02*
X175838152Y-101538094D01*
X175838152Y-101538094D02*
X175742914Y-101585713D01*
X175742914Y-101585713D02*
X175695295Y-101585713D01*
X175695295Y-101585713D02*
X175600057Y-101538094D01*
X175600057Y-101538094D02*
X175552438Y-101490475D01*
X175552438Y-101490475D02*
X175504819Y-101395237D01*
X175504819Y-101395237D02*
X175504819Y-101204761D01*
X175504819Y-101204761D02*
X175552438Y-101109523D01*
X175552438Y-101109523D02*
X175600057Y-101061904D01*
X175600057Y-101061904D02*
X175695295Y-101014285D01*
X175695295Y-101014285D02*
X175742914Y-101014285D01*
X175742914Y-101014285D02*
X175838152Y-101061904D01*
X175838152Y-101061904D02*
X175885771Y-101109523D01*
X175885771Y-101109523D02*
X175933390Y-101204761D01*
X175933390Y-101204761D02*
X175933390Y-101395237D01*
X175933390Y-101395237D02*
X175981009Y-101490475D01*
X175981009Y-101490475D02*
X176028628Y-101538094D01*
X176028628Y-101538094D02*
X176123866Y-101585713D01*
X176123866Y-101585713D02*
X176314342Y-101585713D01*
X176314342Y-101585713D02*
X176409580Y-101538094D01*
X176409580Y-101538094D02*
X176457200Y-101490475D01*
X176457200Y-101490475D02*
X176504819Y-101395237D01*
X176504819Y-101395237D02*
X176504819Y-101204761D01*
X176504819Y-101204761D02*
X176457200Y-101109523D01*
X176457200Y-101109523D02*
X176409580Y-101061904D01*
X176409580Y-101061904D02*
X176314342Y-101014285D01*
X176314342Y-101014285D02*
X176123866Y-101014285D01*
X176123866Y-101014285D02*
X176028628Y-101061904D01*
X176028628Y-101061904D02*
X175981009Y-101109523D01*
X175981009Y-101109523D02*
X175933390Y-101204761D01*
X162529580Y-107080357D02*
X162577200Y-107127976D01*
X162577200Y-107127976D02*
X162624819Y-107270833D01*
X162624819Y-107270833D02*
X162624819Y-107366071D01*
X162624819Y-107366071D02*
X162577200Y-107508928D01*
X162577200Y-107508928D02*
X162481961Y-107604166D01*
X162481961Y-107604166D02*
X162386723Y-107651785D01*
X162386723Y-107651785D02*
X162196247Y-107699404D01*
X162196247Y-107699404D02*
X162053390Y-107699404D01*
X162053390Y-107699404D02*
X161862914Y-107651785D01*
X161862914Y-107651785D02*
X161767676Y-107604166D01*
X161767676Y-107604166D02*
X161672438Y-107508928D01*
X161672438Y-107508928D02*
X161624819Y-107366071D01*
X161624819Y-107366071D02*
X161624819Y-107270833D01*
X161624819Y-107270833D02*
X161672438Y-107127976D01*
X161672438Y-107127976D02*
X161720057Y-107080357D01*
X162624819Y-106127976D02*
X162624819Y-106699404D01*
X162624819Y-106413690D02*
X161624819Y-106413690D01*
X161624819Y-106413690D02*
X161767676Y-106508928D01*
X161767676Y-106508928D02*
X161862914Y-106604166D01*
X161862914Y-106604166D02*
X161910533Y-106699404D01*
X161958152Y-105270833D02*
X162624819Y-105270833D01*
X161577200Y-105508928D02*
X162291485Y-105747023D01*
X162291485Y-105747023D02*
X162291485Y-105127976D01*
X178754819Y-96542857D02*
X178278628Y-96876190D01*
X178754819Y-97114285D02*
X177754819Y-97114285D01*
X177754819Y-97114285D02*
X177754819Y-96733333D01*
X177754819Y-96733333D02*
X177802438Y-96638095D01*
X177802438Y-96638095D02*
X177850057Y-96590476D01*
X177850057Y-96590476D02*
X177945295Y-96542857D01*
X177945295Y-96542857D02*
X178088152Y-96542857D01*
X178088152Y-96542857D02*
X178183390Y-96590476D01*
X178183390Y-96590476D02*
X178231009Y-96638095D01*
X178231009Y-96638095D02*
X178278628Y-96733333D01*
X178278628Y-96733333D02*
X178278628Y-97114285D01*
X177850057Y-96161904D02*
X177802438Y-96114285D01*
X177802438Y-96114285D02*
X177754819Y-96019047D01*
X177754819Y-96019047D02*
X177754819Y-95780952D01*
X177754819Y-95780952D02*
X177802438Y-95685714D01*
X177802438Y-95685714D02*
X177850057Y-95638095D01*
X177850057Y-95638095D02*
X177945295Y-95590476D01*
X177945295Y-95590476D02*
X178040533Y-95590476D01*
X178040533Y-95590476D02*
X178183390Y-95638095D01*
X178183390Y-95638095D02*
X178754819Y-96209523D01*
X178754819Y-96209523D02*
X178754819Y-95590476D01*
X177754819Y-94685714D02*
X177754819Y-95161904D01*
X177754819Y-95161904D02*
X178231009Y-95209523D01*
X178231009Y-95209523D02*
X178183390Y-95161904D01*
X178183390Y-95161904D02*
X178135771Y-95066666D01*
X178135771Y-95066666D02*
X178135771Y-94828571D01*
X178135771Y-94828571D02*
X178183390Y-94733333D01*
X178183390Y-94733333D02*
X178231009Y-94685714D01*
X178231009Y-94685714D02*
X178326247Y-94638095D01*
X178326247Y-94638095D02*
X178564342Y-94638095D01*
X178564342Y-94638095D02*
X178659580Y-94685714D01*
X178659580Y-94685714D02*
X178707200Y-94733333D01*
X178707200Y-94733333D02*
X178754819Y-94828571D01*
X178754819Y-94828571D02*
X178754819Y-95066666D01*
X178754819Y-95066666D02*
X178707200Y-95161904D01*
X178707200Y-95161904D02*
X178659580Y-95209523D01*
X140433333Y-109384580D02*
X140385714Y-109432200D01*
X140385714Y-109432200D02*
X140242857Y-109479819D01*
X140242857Y-109479819D02*
X140147619Y-109479819D01*
X140147619Y-109479819D02*
X140004762Y-109432200D01*
X140004762Y-109432200D02*
X139909524Y-109336961D01*
X139909524Y-109336961D02*
X139861905Y-109241723D01*
X139861905Y-109241723D02*
X139814286Y-109051247D01*
X139814286Y-109051247D02*
X139814286Y-108908390D01*
X139814286Y-108908390D02*
X139861905Y-108717914D01*
X139861905Y-108717914D02*
X139909524Y-108622676D01*
X139909524Y-108622676D02*
X140004762Y-108527438D01*
X140004762Y-108527438D02*
X140147619Y-108479819D01*
X140147619Y-108479819D02*
X140242857Y-108479819D01*
X140242857Y-108479819D02*
X140385714Y-108527438D01*
X140385714Y-108527438D02*
X140433333Y-108575057D01*
X140766667Y-108479819D02*
X141385714Y-108479819D01*
X141385714Y-108479819D02*
X141052381Y-108860771D01*
X141052381Y-108860771D02*
X141195238Y-108860771D01*
X141195238Y-108860771D02*
X141290476Y-108908390D01*
X141290476Y-108908390D02*
X141338095Y-108956009D01*
X141338095Y-108956009D02*
X141385714Y-109051247D01*
X141385714Y-109051247D02*
X141385714Y-109289342D01*
X141385714Y-109289342D02*
X141338095Y-109384580D01*
X141338095Y-109384580D02*
X141290476Y-109432200D01*
X141290476Y-109432200D02*
X141195238Y-109479819D01*
X141195238Y-109479819D02*
X140909524Y-109479819D01*
X140909524Y-109479819D02*
X140814286Y-109432200D01*
X140814286Y-109432200D02*
X140766667Y-109384580D01*
X176504819Y-106141666D02*
X176028628Y-106474999D01*
X176504819Y-106713094D02*
X175504819Y-106713094D01*
X175504819Y-106713094D02*
X175504819Y-106332142D01*
X175504819Y-106332142D02*
X175552438Y-106236904D01*
X175552438Y-106236904D02*
X175600057Y-106189285D01*
X175600057Y-106189285D02*
X175695295Y-106141666D01*
X175695295Y-106141666D02*
X175838152Y-106141666D01*
X175838152Y-106141666D02*
X175933390Y-106189285D01*
X175933390Y-106189285D02*
X175981009Y-106236904D01*
X175981009Y-106236904D02*
X176028628Y-106332142D01*
X176028628Y-106332142D02*
X176028628Y-106713094D01*
X175600057Y-105760713D02*
X175552438Y-105713094D01*
X175552438Y-105713094D02*
X175504819Y-105617856D01*
X175504819Y-105617856D02*
X175504819Y-105379761D01*
X175504819Y-105379761D02*
X175552438Y-105284523D01*
X175552438Y-105284523D02*
X175600057Y-105236904D01*
X175600057Y-105236904D02*
X175695295Y-105189285D01*
X175695295Y-105189285D02*
X175790533Y-105189285D01*
X175790533Y-105189285D02*
X175933390Y-105236904D01*
X175933390Y-105236904D02*
X176504819Y-105808332D01*
X176504819Y-105808332D02*
X176504819Y-105189285D01*
X194354819Y-106041666D02*
X193878628Y-106374999D01*
X194354819Y-106613094D02*
X193354819Y-106613094D01*
X193354819Y-106613094D02*
X193354819Y-106232142D01*
X193354819Y-106232142D02*
X193402438Y-106136904D01*
X193402438Y-106136904D02*
X193450057Y-106089285D01*
X193450057Y-106089285D02*
X193545295Y-106041666D01*
X193545295Y-106041666D02*
X193688152Y-106041666D01*
X193688152Y-106041666D02*
X193783390Y-106089285D01*
X193783390Y-106089285D02*
X193831009Y-106136904D01*
X193831009Y-106136904D02*
X193878628Y-106232142D01*
X193878628Y-106232142D02*
X193878628Y-106613094D01*
X193354819Y-105708332D02*
X193354819Y-105089285D01*
X193354819Y-105089285D02*
X193735771Y-105422618D01*
X193735771Y-105422618D02*
X193735771Y-105279761D01*
X193735771Y-105279761D02*
X193783390Y-105184523D01*
X193783390Y-105184523D02*
X193831009Y-105136904D01*
X193831009Y-105136904D02*
X193926247Y-105089285D01*
X193926247Y-105089285D02*
X194164342Y-105089285D01*
X194164342Y-105089285D02*
X194259580Y-105136904D01*
X194259580Y-105136904D02*
X194307200Y-105184523D01*
X194307200Y-105184523D02*
X194354819Y-105279761D01*
X194354819Y-105279761D02*
X194354819Y-105565475D01*
X194354819Y-105565475D02*
X194307200Y-105660713D01*
X194307200Y-105660713D02*
X194259580Y-105708332D01*
X129954819Y-113433333D02*
X130669104Y-113433333D01*
X130669104Y-113433333D02*
X130811961Y-113480952D01*
X130811961Y-113480952D02*
X130907200Y-113576190D01*
X130907200Y-113576190D02*
X130954819Y-113719047D01*
X130954819Y-113719047D02*
X130954819Y-113814285D01*
X130954819Y-112957142D02*
X129954819Y-112957142D01*
X129954819Y-112957142D02*
X129954819Y-112576190D01*
X129954819Y-112576190D02*
X130002438Y-112480952D01*
X130002438Y-112480952D02*
X130050057Y-112433333D01*
X130050057Y-112433333D02*
X130145295Y-112385714D01*
X130145295Y-112385714D02*
X130288152Y-112385714D01*
X130288152Y-112385714D02*
X130383390Y-112433333D01*
X130383390Y-112433333D02*
X130431009Y-112480952D01*
X130431009Y-112480952D02*
X130478628Y-112576190D01*
X130478628Y-112576190D02*
X130478628Y-112957142D01*
X130954819Y-111433333D02*
X130954819Y-112004761D01*
X130954819Y-111719047D02*
X129954819Y-111719047D01*
X129954819Y-111719047D02*
X130097676Y-111814285D01*
X130097676Y-111814285D02*
X130192914Y-111909523D01*
X130192914Y-111909523D02*
X130240533Y-112004761D01*
X129154819Y-109714285D02*
X129154819Y-110285713D01*
X129154819Y-109999999D02*
X128154819Y-109999999D01*
X128154819Y-109999999D02*
X128297676Y-110095237D01*
X128297676Y-110095237D02*
X128392914Y-110190475D01*
X128392914Y-110190475D02*
X128440533Y-110285713D01*
X128154819Y-115533332D02*
X128154819Y-114914285D01*
X128154819Y-114914285D02*
X128535771Y-115247618D01*
X128535771Y-115247618D02*
X128535771Y-115104761D01*
X128535771Y-115104761D02*
X128583390Y-115009523D01*
X128583390Y-115009523D02*
X128631009Y-114961904D01*
X128631009Y-114961904D02*
X128726247Y-114914285D01*
X128726247Y-114914285D02*
X128964342Y-114914285D01*
X128964342Y-114914285D02*
X129059580Y-114961904D01*
X129059580Y-114961904D02*
X129107200Y-115009523D01*
X129107200Y-115009523D02*
X129154819Y-115104761D01*
X129154819Y-115104761D02*
X129154819Y-115390475D01*
X129154819Y-115390475D02*
X129107200Y-115485713D01*
X129107200Y-115485713D02*
X129059580Y-115533332D01*
X167857142Y-102264580D02*
X167809523Y-102312200D01*
X167809523Y-102312200D02*
X167666666Y-102359819D01*
X167666666Y-102359819D02*
X167571428Y-102359819D01*
X167571428Y-102359819D02*
X167428571Y-102312200D01*
X167428571Y-102312200D02*
X167333333Y-102216961D01*
X167333333Y-102216961D02*
X167285714Y-102121723D01*
X167285714Y-102121723D02*
X167238095Y-101931247D01*
X167238095Y-101931247D02*
X167238095Y-101788390D01*
X167238095Y-101788390D02*
X167285714Y-101597914D01*
X167285714Y-101597914D02*
X167333333Y-101502676D01*
X167333333Y-101502676D02*
X167428571Y-101407438D01*
X167428571Y-101407438D02*
X167571428Y-101359819D01*
X167571428Y-101359819D02*
X167666666Y-101359819D01*
X167666666Y-101359819D02*
X167809523Y-101407438D01*
X167809523Y-101407438D02*
X167857142Y-101455057D01*
X168809523Y-102359819D02*
X168238095Y-102359819D01*
X168523809Y-102359819D02*
X168523809Y-101359819D01*
X168523809Y-101359819D02*
X168428571Y-101502676D01*
X168428571Y-101502676D02*
X168333333Y-101597914D01*
X168333333Y-101597914D02*
X168238095Y-101645533D01*
X169142857Y-101359819D02*
X169809523Y-101359819D01*
X169809523Y-101359819D02*
X169380952Y-102359819D01*
X123629819Y-98517857D02*
X123153628Y-98851190D01*
X123629819Y-99089285D02*
X122629819Y-99089285D01*
X122629819Y-99089285D02*
X122629819Y-98708333D01*
X122629819Y-98708333D02*
X122677438Y-98613095D01*
X122677438Y-98613095D02*
X122725057Y-98565476D01*
X122725057Y-98565476D02*
X122820295Y-98517857D01*
X122820295Y-98517857D02*
X122963152Y-98517857D01*
X122963152Y-98517857D02*
X123058390Y-98565476D01*
X123058390Y-98565476D02*
X123106009Y-98613095D01*
X123106009Y-98613095D02*
X123153628Y-98708333D01*
X123153628Y-98708333D02*
X123153628Y-99089285D01*
X123629819Y-97565476D02*
X123629819Y-98136904D01*
X123629819Y-97851190D02*
X122629819Y-97851190D01*
X122629819Y-97851190D02*
X122772676Y-97946428D01*
X122772676Y-97946428D02*
X122867914Y-98041666D01*
X122867914Y-98041666D02*
X122915533Y-98136904D01*
X122725057Y-97184523D02*
X122677438Y-97136904D01*
X122677438Y-97136904D02*
X122629819Y-97041666D01*
X122629819Y-97041666D02*
X122629819Y-96803571D01*
X122629819Y-96803571D02*
X122677438Y-96708333D01*
X122677438Y-96708333D02*
X122725057Y-96660714D01*
X122725057Y-96660714D02*
X122820295Y-96613095D01*
X122820295Y-96613095D02*
X122915533Y-96613095D01*
X122915533Y-96613095D02*
X123058390Y-96660714D01*
X123058390Y-96660714D02*
X123629819Y-97232142D01*
X123629819Y-97232142D02*
X123629819Y-96613095D01*
X129954819Y-103733333D02*
X130669104Y-103733333D01*
X130669104Y-103733333D02*
X130811961Y-103780952D01*
X130811961Y-103780952D02*
X130907200Y-103876190D01*
X130907200Y-103876190D02*
X130954819Y-104019047D01*
X130954819Y-104019047D02*
X130954819Y-104114285D01*
X130954819Y-103257142D02*
X129954819Y-103257142D01*
X129954819Y-103257142D02*
X129954819Y-102876190D01*
X129954819Y-102876190D02*
X130002438Y-102780952D01*
X130002438Y-102780952D02*
X130050057Y-102733333D01*
X130050057Y-102733333D02*
X130145295Y-102685714D01*
X130145295Y-102685714D02*
X130288152Y-102685714D01*
X130288152Y-102685714D02*
X130383390Y-102733333D01*
X130383390Y-102733333D02*
X130431009Y-102780952D01*
X130431009Y-102780952D02*
X130478628Y-102876190D01*
X130478628Y-102876190D02*
X130478628Y-103257142D01*
X130288152Y-101828571D02*
X130954819Y-101828571D01*
X129907200Y-102066666D02*
X130621485Y-102304761D01*
X130621485Y-102304761D02*
X130621485Y-101685714D01*
X129154819Y-100014285D02*
X129154819Y-100585713D01*
X129154819Y-100299999D02*
X128154819Y-100299999D01*
X128154819Y-100299999D02*
X128297676Y-100395237D01*
X128297676Y-100395237D02*
X128392914Y-100490475D01*
X128392914Y-100490475D02*
X128440533Y-100585713D01*
X128154819Y-105833332D02*
X128154819Y-105214285D01*
X128154819Y-105214285D02*
X128535771Y-105547618D01*
X128535771Y-105547618D02*
X128535771Y-105404761D01*
X128535771Y-105404761D02*
X128583390Y-105309523D01*
X128583390Y-105309523D02*
X128631009Y-105261904D01*
X128631009Y-105261904D02*
X128726247Y-105214285D01*
X128726247Y-105214285D02*
X128964342Y-105214285D01*
X128964342Y-105214285D02*
X129059580Y-105261904D01*
X129059580Y-105261904D02*
X129107200Y-105309523D01*
X129107200Y-105309523D02*
X129154819Y-105404761D01*
X129154819Y-105404761D02*
X129154819Y-105690475D01*
X129154819Y-105690475D02*
X129107200Y-105785713D01*
X129107200Y-105785713D02*
X129059580Y-105833332D01*
X191704819Y-106358333D02*
X192419104Y-106358333D01*
X192419104Y-106358333D02*
X192561961Y-106405952D01*
X192561961Y-106405952D02*
X192657200Y-106501190D01*
X192657200Y-106501190D02*
X192704819Y-106644047D01*
X192704819Y-106644047D02*
X192704819Y-106739285D01*
X192704819Y-105882142D02*
X191704819Y-105882142D01*
X191704819Y-105882142D02*
X191704819Y-105501190D01*
X191704819Y-105501190D02*
X191752438Y-105405952D01*
X191752438Y-105405952D02*
X191800057Y-105358333D01*
X191800057Y-105358333D02*
X191895295Y-105310714D01*
X191895295Y-105310714D02*
X192038152Y-105310714D01*
X192038152Y-105310714D02*
X192133390Y-105358333D01*
X192133390Y-105358333D02*
X192181009Y-105405952D01*
X192181009Y-105405952D02*
X192228628Y-105501190D01*
X192228628Y-105501190D02*
X192228628Y-105882142D01*
X191704819Y-104405952D02*
X191704819Y-104882142D01*
X191704819Y-104882142D02*
X192181009Y-104929761D01*
X192181009Y-104929761D02*
X192133390Y-104882142D01*
X192133390Y-104882142D02*
X192085771Y-104786904D01*
X192085771Y-104786904D02*
X192085771Y-104548809D01*
X192085771Y-104548809D02*
X192133390Y-104453571D01*
X192133390Y-104453571D02*
X192181009Y-104405952D01*
X192181009Y-104405952D02*
X192276247Y-104358333D01*
X192276247Y-104358333D02*
X192514342Y-104358333D01*
X192514342Y-104358333D02*
X192609580Y-104405952D01*
X192609580Y-104405952D02*
X192657200Y-104453571D01*
X192657200Y-104453571D02*
X192704819Y-104548809D01*
X192704819Y-104548809D02*
X192704819Y-104786904D01*
X192704819Y-104786904D02*
X192657200Y-104882142D01*
X192657200Y-104882142D02*
X192609580Y-104929761D01*
X190904819Y-102639285D02*
X190904819Y-103210713D01*
X190904819Y-102924999D02*
X189904819Y-102924999D01*
X189904819Y-102924999D02*
X190047676Y-103020237D01*
X190047676Y-103020237D02*
X190142914Y-103115475D01*
X190142914Y-103115475D02*
X190190533Y-103210713D01*
X189904819Y-108458332D02*
X189904819Y-107839285D01*
X189904819Y-107839285D02*
X190285771Y-108172618D01*
X190285771Y-108172618D02*
X190285771Y-108029761D01*
X190285771Y-108029761D02*
X190333390Y-107934523D01*
X190333390Y-107934523D02*
X190381009Y-107886904D01*
X190381009Y-107886904D02*
X190476247Y-107839285D01*
X190476247Y-107839285D02*
X190714342Y-107839285D01*
X190714342Y-107839285D02*
X190809580Y-107886904D01*
X190809580Y-107886904D02*
X190857200Y-107934523D01*
X190857200Y-107934523D02*
X190904819Y-108029761D01*
X190904819Y-108029761D02*
X190904819Y-108315475D01*
X190904819Y-108315475D02*
X190857200Y-108410713D01*
X190857200Y-108410713D02*
X190809580Y-108458332D01*
X156429819Y-111966666D02*
X155953628Y-112299999D01*
X156429819Y-112538094D02*
X155429819Y-112538094D01*
X155429819Y-112538094D02*
X155429819Y-112157142D01*
X155429819Y-112157142D02*
X155477438Y-112061904D01*
X155477438Y-112061904D02*
X155525057Y-112014285D01*
X155525057Y-112014285D02*
X155620295Y-111966666D01*
X155620295Y-111966666D02*
X155763152Y-111966666D01*
X155763152Y-111966666D02*
X155858390Y-112014285D01*
X155858390Y-112014285D02*
X155906009Y-112061904D01*
X155906009Y-112061904D02*
X155953628Y-112157142D01*
X155953628Y-112157142D02*
X155953628Y-112538094D01*
X155429819Y-111061904D02*
X155429819Y-111538094D01*
X155429819Y-111538094D02*
X155906009Y-111585713D01*
X155906009Y-111585713D02*
X155858390Y-111538094D01*
X155858390Y-111538094D02*
X155810771Y-111442856D01*
X155810771Y-111442856D02*
X155810771Y-111204761D01*
X155810771Y-111204761D02*
X155858390Y-111109523D01*
X155858390Y-111109523D02*
X155906009Y-111061904D01*
X155906009Y-111061904D02*
X156001247Y-111014285D01*
X156001247Y-111014285D02*
X156239342Y-111014285D01*
X156239342Y-111014285D02*
X156334580Y-111061904D01*
X156334580Y-111061904D02*
X156382200Y-111109523D01*
X156382200Y-111109523D02*
X156429819Y-111204761D01*
X156429819Y-111204761D02*
X156429819Y-111442856D01*
X156429819Y-111442856D02*
X156382200Y-111538094D01*
X156382200Y-111538094D02*
X156334580Y-111585713D01*
X116587142Y-92714819D02*
X116253809Y-92238628D01*
X116015714Y-92714819D02*
X116015714Y-91714819D01*
X116015714Y-91714819D02*
X116396666Y-91714819D01*
X116396666Y-91714819D02*
X116491904Y-91762438D01*
X116491904Y-91762438D02*
X116539523Y-91810057D01*
X116539523Y-91810057D02*
X116587142Y-91905295D01*
X116587142Y-91905295D02*
X116587142Y-92048152D01*
X116587142Y-92048152D02*
X116539523Y-92143390D01*
X116539523Y-92143390D02*
X116491904Y-92191009D01*
X116491904Y-92191009D02*
X116396666Y-92238628D01*
X116396666Y-92238628D02*
X116015714Y-92238628D01*
X117539523Y-92714819D02*
X116968095Y-92714819D01*
X117253809Y-92714819D02*
X117253809Y-91714819D01*
X117253809Y-91714819D02*
X117158571Y-91857676D01*
X117158571Y-91857676D02*
X117063333Y-91952914D01*
X117063333Y-91952914D02*
X116968095Y-92000533D01*
X117872857Y-91714819D02*
X118491904Y-91714819D01*
X118491904Y-91714819D02*
X118158571Y-92095771D01*
X118158571Y-92095771D02*
X118301428Y-92095771D01*
X118301428Y-92095771D02*
X118396666Y-92143390D01*
X118396666Y-92143390D02*
X118444285Y-92191009D01*
X118444285Y-92191009D02*
X118491904Y-92286247D01*
X118491904Y-92286247D02*
X118491904Y-92524342D01*
X118491904Y-92524342D02*
X118444285Y-92619580D01*
X118444285Y-92619580D02*
X118396666Y-92667200D01*
X118396666Y-92667200D02*
X118301428Y-92714819D01*
X118301428Y-92714819D02*
X118015714Y-92714819D01*
X118015714Y-92714819D02*
X117920476Y-92667200D01*
X117920476Y-92667200D02*
X117872857Y-92619580D01*
X142829819Y-112467857D02*
X142353628Y-112801190D01*
X142829819Y-113039285D02*
X141829819Y-113039285D01*
X141829819Y-113039285D02*
X141829819Y-112658333D01*
X141829819Y-112658333D02*
X141877438Y-112563095D01*
X141877438Y-112563095D02*
X141925057Y-112515476D01*
X141925057Y-112515476D02*
X142020295Y-112467857D01*
X142020295Y-112467857D02*
X142163152Y-112467857D01*
X142163152Y-112467857D02*
X142258390Y-112515476D01*
X142258390Y-112515476D02*
X142306009Y-112563095D01*
X142306009Y-112563095D02*
X142353628Y-112658333D01*
X142353628Y-112658333D02*
X142353628Y-113039285D01*
X142829819Y-111515476D02*
X142829819Y-112086904D01*
X142829819Y-111801190D02*
X141829819Y-111801190D01*
X141829819Y-111801190D02*
X141972676Y-111896428D01*
X141972676Y-111896428D02*
X142067914Y-111991666D01*
X142067914Y-111991666D02*
X142115533Y-112086904D01*
X142163152Y-110658333D02*
X142829819Y-110658333D01*
X141782200Y-110896428D02*
X142496485Y-111134523D01*
X142496485Y-111134523D02*
X142496485Y-110515476D01*
X185729819Y-106642857D02*
X185253628Y-106976190D01*
X185729819Y-107214285D02*
X184729819Y-107214285D01*
X184729819Y-107214285D02*
X184729819Y-106833333D01*
X184729819Y-106833333D02*
X184777438Y-106738095D01*
X184777438Y-106738095D02*
X184825057Y-106690476D01*
X184825057Y-106690476D02*
X184920295Y-106642857D01*
X184920295Y-106642857D02*
X185063152Y-106642857D01*
X185063152Y-106642857D02*
X185158390Y-106690476D01*
X185158390Y-106690476D02*
X185206009Y-106738095D01*
X185206009Y-106738095D02*
X185253628Y-106833333D01*
X185253628Y-106833333D02*
X185253628Y-107214285D01*
X185729819Y-105690476D02*
X185729819Y-106261904D01*
X185729819Y-105976190D02*
X184729819Y-105976190D01*
X184729819Y-105976190D02*
X184872676Y-106071428D01*
X184872676Y-106071428D02*
X184967914Y-106166666D01*
X184967914Y-106166666D02*
X185015533Y-106261904D01*
X185729819Y-104738095D02*
X185729819Y-105309523D01*
X185729819Y-105023809D02*
X184729819Y-105023809D01*
X184729819Y-105023809D02*
X184872676Y-105119047D01*
X184872676Y-105119047D02*
X184967914Y-105214285D01*
X184967914Y-105214285D02*
X185015533Y-105309523D01*
X148583333Y-109409580D02*
X148535714Y-109457200D01*
X148535714Y-109457200D02*
X148392857Y-109504819D01*
X148392857Y-109504819D02*
X148297619Y-109504819D01*
X148297619Y-109504819D02*
X148154762Y-109457200D01*
X148154762Y-109457200D02*
X148059524Y-109361961D01*
X148059524Y-109361961D02*
X148011905Y-109266723D01*
X148011905Y-109266723D02*
X147964286Y-109076247D01*
X147964286Y-109076247D02*
X147964286Y-108933390D01*
X147964286Y-108933390D02*
X148011905Y-108742914D01*
X148011905Y-108742914D02*
X148059524Y-108647676D01*
X148059524Y-108647676D02*
X148154762Y-108552438D01*
X148154762Y-108552438D02*
X148297619Y-108504819D01*
X148297619Y-108504819D02*
X148392857Y-108504819D01*
X148392857Y-108504819D02*
X148535714Y-108552438D01*
X148535714Y-108552438D02*
X148583333Y-108600057D01*
X148916667Y-108504819D02*
X149583333Y-108504819D01*
X149583333Y-108504819D02*
X149154762Y-109504819D01*
X139379819Y-112016666D02*
X138903628Y-112349999D01*
X139379819Y-112588094D02*
X138379819Y-112588094D01*
X138379819Y-112588094D02*
X138379819Y-112207142D01*
X138379819Y-112207142D02*
X138427438Y-112111904D01*
X138427438Y-112111904D02*
X138475057Y-112064285D01*
X138475057Y-112064285D02*
X138570295Y-112016666D01*
X138570295Y-112016666D02*
X138713152Y-112016666D01*
X138713152Y-112016666D02*
X138808390Y-112064285D01*
X138808390Y-112064285D02*
X138856009Y-112111904D01*
X138856009Y-112111904D02*
X138903628Y-112207142D01*
X138903628Y-112207142D02*
X138903628Y-112588094D01*
X138379819Y-111159523D02*
X138379819Y-111349999D01*
X138379819Y-111349999D02*
X138427438Y-111445237D01*
X138427438Y-111445237D02*
X138475057Y-111492856D01*
X138475057Y-111492856D02*
X138617914Y-111588094D01*
X138617914Y-111588094D02*
X138808390Y-111635713D01*
X138808390Y-111635713D02*
X139189342Y-111635713D01*
X139189342Y-111635713D02*
X139284580Y-111588094D01*
X139284580Y-111588094D02*
X139332200Y-111540475D01*
X139332200Y-111540475D02*
X139379819Y-111445237D01*
X139379819Y-111445237D02*
X139379819Y-111254761D01*
X139379819Y-111254761D02*
X139332200Y-111159523D01*
X139332200Y-111159523D02*
X139284580Y-111111904D01*
X139284580Y-111111904D02*
X139189342Y-111064285D01*
X139189342Y-111064285D02*
X138951247Y-111064285D01*
X138951247Y-111064285D02*
X138856009Y-111111904D01*
X138856009Y-111111904D02*
X138808390Y-111159523D01*
X138808390Y-111159523D02*
X138760771Y-111254761D01*
X138760771Y-111254761D02*
X138760771Y-111445237D01*
X138760771Y-111445237D02*
X138808390Y-111540475D01*
X138808390Y-111540475D02*
X138856009Y-111588094D01*
X138856009Y-111588094D02*
X138951247Y-111635713D01*
X156532142Y-109484580D02*
X156484523Y-109532200D01*
X156484523Y-109532200D02*
X156341666Y-109579819D01*
X156341666Y-109579819D02*
X156246428Y-109579819D01*
X156246428Y-109579819D02*
X156103571Y-109532200D01*
X156103571Y-109532200D02*
X156008333Y-109436961D01*
X156008333Y-109436961D02*
X155960714Y-109341723D01*
X155960714Y-109341723D02*
X155913095Y-109151247D01*
X155913095Y-109151247D02*
X155913095Y-109008390D01*
X155913095Y-109008390D02*
X155960714Y-108817914D01*
X155960714Y-108817914D02*
X156008333Y-108722676D01*
X156008333Y-108722676D02*
X156103571Y-108627438D01*
X156103571Y-108627438D02*
X156246428Y-108579819D01*
X156246428Y-108579819D02*
X156341666Y-108579819D01*
X156341666Y-108579819D02*
X156484523Y-108627438D01*
X156484523Y-108627438D02*
X156532142Y-108675057D01*
X157484523Y-109579819D02*
X156913095Y-109579819D01*
X157198809Y-109579819D02*
X157198809Y-108579819D01*
X157198809Y-108579819D02*
X157103571Y-108722676D01*
X157103571Y-108722676D02*
X157008333Y-108817914D01*
X157008333Y-108817914D02*
X156913095Y-108865533D01*
X158389285Y-108579819D02*
X157913095Y-108579819D01*
X157913095Y-108579819D02*
X157865476Y-109056009D01*
X157865476Y-109056009D02*
X157913095Y-109008390D01*
X157913095Y-109008390D02*
X158008333Y-108960771D01*
X158008333Y-108960771D02*
X158246428Y-108960771D01*
X158246428Y-108960771D02*
X158341666Y-109008390D01*
X158341666Y-109008390D02*
X158389285Y-109056009D01*
X158389285Y-109056009D02*
X158436904Y-109151247D01*
X158436904Y-109151247D02*
X158436904Y-109389342D01*
X158436904Y-109389342D02*
X158389285Y-109484580D01*
X158389285Y-109484580D02*
X158341666Y-109532200D01*
X158341666Y-109532200D02*
X158246428Y-109579819D01*
X158246428Y-109579819D02*
X158008333Y-109579819D01*
X158008333Y-109579819D02*
X157913095Y-109532200D01*
X157913095Y-109532200D02*
X157865476Y-109484580D01*
X185754819Y-102517857D02*
X185278628Y-102851190D01*
X185754819Y-103089285D02*
X184754819Y-103089285D01*
X184754819Y-103089285D02*
X184754819Y-102708333D01*
X184754819Y-102708333D02*
X184802438Y-102613095D01*
X184802438Y-102613095D02*
X184850057Y-102565476D01*
X184850057Y-102565476D02*
X184945295Y-102517857D01*
X184945295Y-102517857D02*
X185088152Y-102517857D01*
X185088152Y-102517857D02*
X185183390Y-102565476D01*
X185183390Y-102565476D02*
X185231009Y-102613095D01*
X185231009Y-102613095D02*
X185278628Y-102708333D01*
X185278628Y-102708333D02*
X185278628Y-103089285D01*
X185754819Y-101565476D02*
X185754819Y-102136904D01*
X185754819Y-101851190D02*
X184754819Y-101851190D01*
X184754819Y-101851190D02*
X184897676Y-101946428D01*
X184897676Y-101946428D02*
X184992914Y-102041666D01*
X184992914Y-102041666D02*
X185040533Y-102136904D01*
X185183390Y-100994047D02*
X185135771Y-101089285D01*
X185135771Y-101089285D02*
X185088152Y-101136904D01*
X185088152Y-101136904D02*
X184992914Y-101184523D01*
X184992914Y-101184523D02*
X184945295Y-101184523D01*
X184945295Y-101184523D02*
X184850057Y-101136904D01*
X184850057Y-101136904D02*
X184802438Y-101089285D01*
X184802438Y-101089285D02*
X184754819Y-100994047D01*
X184754819Y-100994047D02*
X184754819Y-100803571D01*
X184754819Y-100803571D02*
X184802438Y-100708333D01*
X184802438Y-100708333D02*
X184850057Y-100660714D01*
X184850057Y-100660714D02*
X184945295Y-100613095D01*
X184945295Y-100613095D02*
X184992914Y-100613095D01*
X184992914Y-100613095D02*
X185088152Y-100660714D01*
X185088152Y-100660714D02*
X185135771Y-100708333D01*
X185135771Y-100708333D02*
X185183390Y-100803571D01*
X185183390Y-100803571D02*
X185183390Y-100994047D01*
X185183390Y-100994047D02*
X185231009Y-101089285D01*
X185231009Y-101089285D02*
X185278628Y-101136904D01*
X185278628Y-101136904D02*
X185373866Y-101184523D01*
X185373866Y-101184523D02*
X185564342Y-101184523D01*
X185564342Y-101184523D02*
X185659580Y-101136904D01*
X185659580Y-101136904D02*
X185707200Y-101089285D01*
X185707200Y-101089285D02*
X185754819Y-100994047D01*
X185754819Y-100994047D02*
X185754819Y-100803571D01*
X185754819Y-100803571D02*
X185707200Y-100708333D01*
X185707200Y-100708333D02*
X185659580Y-100660714D01*
X185659580Y-100660714D02*
X185564342Y-100613095D01*
X185564342Y-100613095D02*
X185373866Y-100613095D01*
X185373866Y-100613095D02*
X185278628Y-100660714D01*
X185278628Y-100660714D02*
X185231009Y-100708333D01*
X185231009Y-100708333D02*
X185183390Y-100803571D01*
X194736905Y-87529819D02*
X194736905Y-86529819D01*
X194736905Y-86529819D02*
X194975000Y-86529819D01*
X194975000Y-86529819D02*
X195117857Y-86577438D01*
X195117857Y-86577438D02*
X195213095Y-86672676D01*
X195213095Y-86672676D02*
X195260714Y-86767914D01*
X195260714Y-86767914D02*
X195308333Y-86958390D01*
X195308333Y-86958390D02*
X195308333Y-87101247D01*
X195308333Y-87101247D02*
X195260714Y-87291723D01*
X195260714Y-87291723D02*
X195213095Y-87386961D01*
X195213095Y-87386961D02*
X195117857Y-87482200D01*
X195117857Y-87482200D02*
X194975000Y-87529819D01*
X194975000Y-87529819D02*
X194736905Y-87529819D01*
X195641667Y-86529819D02*
X196260714Y-86529819D01*
X196260714Y-86529819D02*
X195927381Y-86910771D01*
X195927381Y-86910771D02*
X196070238Y-86910771D01*
X196070238Y-86910771D02*
X196165476Y-86958390D01*
X196165476Y-86958390D02*
X196213095Y-87006009D01*
X196213095Y-87006009D02*
X196260714Y-87101247D01*
X196260714Y-87101247D02*
X196260714Y-87339342D01*
X196260714Y-87339342D02*
X196213095Y-87434580D01*
X196213095Y-87434580D02*
X196165476Y-87482200D01*
X196165476Y-87482200D02*
X196070238Y-87529819D01*
X196070238Y-87529819D02*
X195784524Y-87529819D01*
X195784524Y-87529819D02*
X195689286Y-87482200D01*
X195689286Y-87482200D02*
X195641667Y-87434580D01*
X154083333Y-109384580D02*
X154035714Y-109432200D01*
X154035714Y-109432200D02*
X153892857Y-109479819D01*
X153892857Y-109479819D02*
X153797619Y-109479819D01*
X153797619Y-109479819D02*
X153654762Y-109432200D01*
X153654762Y-109432200D02*
X153559524Y-109336961D01*
X153559524Y-109336961D02*
X153511905Y-109241723D01*
X153511905Y-109241723D02*
X153464286Y-109051247D01*
X153464286Y-109051247D02*
X153464286Y-108908390D01*
X153464286Y-108908390D02*
X153511905Y-108717914D01*
X153511905Y-108717914D02*
X153559524Y-108622676D01*
X153559524Y-108622676D02*
X153654762Y-108527438D01*
X153654762Y-108527438D02*
X153797619Y-108479819D01*
X153797619Y-108479819D02*
X153892857Y-108479819D01*
X153892857Y-108479819D02*
X154035714Y-108527438D01*
X154035714Y-108527438D02*
X154083333Y-108575057D01*
X154464286Y-108575057D02*
X154511905Y-108527438D01*
X154511905Y-108527438D02*
X154607143Y-108479819D01*
X154607143Y-108479819D02*
X154845238Y-108479819D01*
X154845238Y-108479819D02*
X154940476Y-108527438D01*
X154940476Y-108527438D02*
X154988095Y-108575057D01*
X154988095Y-108575057D02*
X155035714Y-108670295D01*
X155035714Y-108670295D02*
X155035714Y-108765533D01*
X155035714Y-108765533D02*
X154988095Y-108908390D01*
X154988095Y-108908390D02*
X154416667Y-109479819D01*
X154416667Y-109479819D02*
X155035714Y-109479819D01*
X153238095Y-89229819D02*
X153238095Y-90039342D01*
X153238095Y-90039342D02*
X153285714Y-90134580D01*
X153285714Y-90134580D02*
X153333333Y-90182200D01*
X153333333Y-90182200D02*
X153428571Y-90229819D01*
X153428571Y-90229819D02*
X153619047Y-90229819D01*
X153619047Y-90229819D02*
X153714285Y-90182200D01*
X153714285Y-90182200D02*
X153761904Y-90134580D01*
X153761904Y-90134580D02*
X153809523Y-90039342D01*
X153809523Y-90039342D02*
X153809523Y-89229819D01*
X154809523Y-90229819D02*
X154238095Y-90229819D01*
X154523809Y-90229819D02*
X154523809Y-89229819D01*
X154523809Y-89229819D02*
X154428571Y-89372676D01*
X154428571Y-89372676D02*
X154333333Y-89467914D01*
X154333333Y-89467914D02*
X154238095Y-89515533D01*
X200404819Y-106208333D02*
X201119104Y-106208333D01*
X201119104Y-106208333D02*
X201261961Y-106255952D01*
X201261961Y-106255952D02*
X201357200Y-106351190D01*
X201357200Y-106351190D02*
X201404819Y-106494047D01*
X201404819Y-106494047D02*
X201404819Y-106589285D01*
X201404819Y-105732142D02*
X200404819Y-105732142D01*
X200404819Y-105732142D02*
X200404819Y-105351190D01*
X200404819Y-105351190D02*
X200452438Y-105255952D01*
X200452438Y-105255952D02*
X200500057Y-105208333D01*
X200500057Y-105208333D02*
X200595295Y-105160714D01*
X200595295Y-105160714D02*
X200738152Y-105160714D01*
X200738152Y-105160714D02*
X200833390Y-105208333D01*
X200833390Y-105208333D02*
X200881009Y-105255952D01*
X200881009Y-105255952D02*
X200928628Y-105351190D01*
X200928628Y-105351190D02*
X200928628Y-105732142D01*
X200404819Y-104827380D02*
X200404819Y-104208333D01*
X200404819Y-104208333D02*
X200785771Y-104541666D01*
X200785771Y-104541666D02*
X200785771Y-104398809D01*
X200785771Y-104398809D02*
X200833390Y-104303571D01*
X200833390Y-104303571D02*
X200881009Y-104255952D01*
X200881009Y-104255952D02*
X200976247Y-104208333D01*
X200976247Y-104208333D02*
X201214342Y-104208333D01*
X201214342Y-104208333D02*
X201309580Y-104255952D01*
X201309580Y-104255952D02*
X201357200Y-104303571D01*
X201357200Y-104303571D02*
X201404819Y-104398809D01*
X201404819Y-104398809D02*
X201404819Y-104684523D01*
X201404819Y-104684523D02*
X201357200Y-104779761D01*
X201357200Y-104779761D02*
X201309580Y-104827380D01*
X199604819Y-102489285D02*
X199604819Y-103060713D01*
X199604819Y-102774999D02*
X198604819Y-102774999D01*
X198604819Y-102774999D02*
X198747676Y-102870237D01*
X198747676Y-102870237D02*
X198842914Y-102965475D01*
X198842914Y-102965475D02*
X198890533Y-103060713D01*
X198604819Y-108308332D02*
X198604819Y-107689285D01*
X198604819Y-107689285D02*
X198985771Y-108022618D01*
X198985771Y-108022618D02*
X198985771Y-107879761D01*
X198985771Y-107879761D02*
X199033390Y-107784523D01*
X199033390Y-107784523D02*
X199081009Y-107736904D01*
X199081009Y-107736904D02*
X199176247Y-107689285D01*
X199176247Y-107689285D02*
X199414342Y-107689285D01*
X199414342Y-107689285D02*
X199509580Y-107736904D01*
X199509580Y-107736904D02*
X199557200Y-107784523D01*
X199557200Y-107784523D02*
X199604819Y-107879761D01*
X199604819Y-107879761D02*
X199604819Y-108165475D01*
X199604819Y-108165475D02*
X199557200Y-108260713D01*
X199557200Y-108260713D02*
X199509580Y-108308332D01*
X146329819Y-112442857D02*
X145853628Y-112776190D01*
X146329819Y-113014285D02*
X145329819Y-113014285D01*
X145329819Y-113014285D02*
X145329819Y-112633333D01*
X145329819Y-112633333D02*
X145377438Y-112538095D01*
X145377438Y-112538095D02*
X145425057Y-112490476D01*
X145425057Y-112490476D02*
X145520295Y-112442857D01*
X145520295Y-112442857D02*
X145663152Y-112442857D01*
X145663152Y-112442857D02*
X145758390Y-112490476D01*
X145758390Y-112490476D02*
X145806009Y-112538095D01*
X145806009Y-112538095D02*
X145853628Y-112633333D01*
X145853628Y-112633333D02*
X145853628Y-113014285D01*
X146329819Y-111490476D02*
X146329819Y-112061904D01*
X146329819Y-111776190D02*
X145329819Y-111776190D01*
X145329819Y-111776190D02*
X145472676Y-111871428D01*
X145472676Y-111871428D02*
X145567914Y-111966666D01*
X145567914Y-111966666D02*
X145615533Y-112061904D01*
X145329819Y-110585714D02*
X145329819Y-111061904D01*
X145329819Y-111061904D02*
X145806009Y-111109523D01*
X145806009Y-111109523D02*
X145758390Y-111061904D01*
X145758390Y-111061904D02*
X145710771Y-110966666D01*
X145710771Y-110966666D02*
X145710771Y-110728571D01*
X145710771Y-110728571D02*
X145758390Y-110633333D01*
X145758390Y-110633333D02*
X145806009Y-110585714D01*
X145806009Y-110585714D02*
X145901247Y-110538095D01*
X145901247Y-110538095D02*
X146139342Y-110538095D01*
X146139342Y-110538095D02*
X146234580Y-110585714D01*
X146234580Y-110585714D02*
X146282200Y-110633333D01*
X146282200Y-110633333D02*
X146329819Y-110728571D01*
X146329819Y-110728571D02*
X146329819Y-110966666D01*
X146329819Y-110966666D02*
X146282200Y-111061904D01*
X146282200Y-111061904D02*
X146234580Y-111109523D01*
X159607142Y-109459580D02*
X159559523Y-109507200D01*
X159559523Y-109507200D02*
X159416666Y-109554819D01*
X159416666Y-109554819D02*
X159321428Y-109554819D01*
X159321428Y-109554819D02*
X159178571Y-109507200D01*
X159178571Y-109507200D02*
X159083333Y-109411961D01*
X159083333Y-109411961D02*
X159035714Y-109316723D01*
X159035714Y-109316723D02*
X158988095Y-109126247D01*
X158988095Y-109126247D02*
X158988095Y-108983390D01*
X158988095Y-108983390D02*
X159035714Y-108792914D01*
X159035714Y-108792914D02*
X159083333Y-108697676D01*
X159083333Y-108697676D02*
X159178571Y-108602438D01*
X159178571Y-108602438D02*
X159321428Y-108554819D01*
X159321428Y-108554819D02*
X159416666Y-108554819D01*
X159416666Y-108554819D02*
X159559523Y-108602438D01*
X159559523Y-108602438D02*
X159607142Y-108650057D01*
X160559523Y-109554819D02*
X159988095Y-109554819D01*
X160273809Y-109554819D02*
X160273809Y-108554819D01*
X160273809Y-108554819D02*
X160178571Y-108697676D01*
X160178571Y-108697676D02*
X160083333Y-108792914D01*
X160083333Y-108792914D02*
X159988095Y-108840533D01*
X160892857Y-108554819D02*
X161511904Y-108554819D01*
X161511904Y-108554819D02*
X161178571Y-108935771D01*
X161178571Y-108935771D02*
X161321428Y-108935771D01*
X161321428Y-108935771D02*
X161416666Y-108983390D01*
X161416666Y-108983390D02*
X161464285Y-109031009D01*
X161464285Y-109031009D02*
X161511904Y-109126247D01*
X161511904Y-109126247D02*
X161511904Y-109364342D01*
X161511904Y-109364342D02*
X161464285Y-109459580D01*
X161464285Y-109459580D02*
X161416666Y-109507200D01*
X161416666Y-109507200D02*
X161321428Y-109554819D01*
X161321428Y-109554819D02*
X161035714Y-109554819D01*
X161035714Y-109554819D02*
X160940476Y-109507200D01*
X160940476Y-109507200D02*
X160892857Y-109459580D01*
X143083333Y-109434580D02*
X143035714Y-109482200D01*
X143035714Y-109482200D02*
X142892857Y-109529819D01*
X142892857Y-109529819D02*
X142797619Y-109529819D01*
X142797619Y-109529819D02*
X142654762Y-109482200D01*
X142654762Y-109482200D02*
X142559524Y-109386961D01*
X142559524Y-109386961D02*
X142511905Y-109291723D01*
X142511905Y-109291723D02*
X142464286Y-109101247D01*
X142464286Y-109101247D02*
X142464286Y-108958390D01*
X142464286Y-108958390D02*
X142511905Y-108767914D01*
X142511905Y-108767914D02*
X142559524Y-108672676D01*
X142559524Y-108672676D02*
X142654762Y-108577438D01*
X142654762Y-108577438D02*
X142797619Y-108529819D01*
X142797619Y-108529819D02*
X142892857Y-108529819D01*
X142892857Y-108529819D02*
X143035714Y-108577438D01*
X143035714Y-108577438D02*
X143083333Y-108625057D01*
X143988095Y-108529819D02*
X143511905Y-108529819D01*
X143511905Y-108529819D02*
X143464286Y-109006009D01*
X143464286Y-109006009D02*
X143511905Y-108958390D01*
X143511905Y-108958390D02*
X143607143Y-108910771D01*
X143607143Y-108910771D02*
X143845238Y-108910771D01*
X143845238Y-108910771D02*
X143940476Y-108958390D01*
X143940476Y-108958390D02*
X143988095Y-109006009D01*
X143988095Y-109006009D02*
X144035714Y-109101247D01*
X144035714Y-109101247D02*
X144035714Y-109339342D01*
X144035714Y-109339342D02*
X143988095Y-109434580D01*
X143988095Y-109434580D02*
X143940476Y-109482200D01*
X143940476Y-109482200D02*
X143845238Y-109529819D01*
X143845238Y-109529819D02*
X143607143Y-109529819D01*
X143607143Y-109529819D02*
X143511905Y-109482200D01*
X143511905Y-109482200D02*
X143464286Y-109434580D01*
X134732142Y-107754819D02*
X134398809Y-107278628D01*
X134160714Y-107754819D02*
X134160714Y-106754819D01*
X134160714Y-106754819D02*
X134541666Y-106754819D01*
X134541666Y-106754819D02*
X134636904Y-106802438D01*
X134636904Y-106802438D02*
X134684523Y-106850057D01*
X134684523Y-106850057D02*
X134732142Y-106945295D01*
X134732142Y-106945295D02*
X134732142Y-107088152D01*
X134732142Y-107088152D02*
X134684523Y-107183390D01*
X134684523Y-107183390D02*
X134636904Y-107231009D01*
X134636904Y-107231009D02*
X134541666Y-107278628D01*
X134541666Y-107278628D02*
X134160714Y-107278628D01*
X135113095Y-106850057D02*
X135160714Y-106802438D01*
X135160714Y-106802438D02*
X135255952Y-106754819D01*
X135255952Y-106754819D02*
X135494047Y-106754819D01*
X135494047Y-106754819D02*
X135589285Y-106802438D01*
X135589285Y-106802438D02*
X135636904Y-106850057D01*
X135636904Y-106850057D02*
X135684523Y-106945295D01*
X135684523Y-106945295D02*
X135684523Y-107040533D01*
X135684523Y-107040533D02*
X135636904Y-107183390D01*
X135636904Y-107183390D02*
X135065476Y-107754819D01*
X135065476Y-107754819D02*
X135684523Y-107754819D01*
X136541666Y-107088152D02*
X136541666Y-107754819D01*
X136303571Y-106707200D02*
X136065476Y-107421485D01*
X136065476Y-107421485D02*
X136684523Y-107421485D01*
X123604819Y-103042857D02*
X123128628Y-103376190D01*
X123604819Y-103614285D02*
X122604819Y-103614285D01*
X122604819Y-103614285D02*
X122604819Y-103233333D01*
X122604819Y-103233333D02*
X122652438Y-103138095D01*
X122652438Y-103138095D02*
X122700057Y-103090476D01*
X122700057Y-103090476D02*
X122795295Y-103042857D01*
X122795295Y-103042857D02*
X122938152Y-103042857D01*
X122938152Y-103042857D02*
X123033390Y-103090476D01*
X123033390Y-103090476D02*
X123081009Y-103138095D01*
X123081009Y-103138095D02*
X123128628Y-103233333D01*
X123128628Y-103233333D02*
X123128628Y-103614285D01*
X123604819Y-102090476D02*
X123604819Y-102661904D01*
X123604819Y-102376190D02*
X122604819Y-102376190D01*
X122604819Y-102376190D02*
X122747676Y-102471428D01*
X122747676Y-102471428D02*
X122842914Y-102566666D01*
X122842914Y-102566666D02*
X122890533Y-102661904D01*
X122604819Y-101757142D02*
X122604819Y-101090476D01*
X122604819Y-101090476D02*
X123604819Y-101519047D01*
X140259580Y-92642857D02*
X140307200Y-92690476D01*
X140307200Y-92690476D02*
X140354819Y-92833333D01*
X140354819Y-92833333D02*
X140354819Y-92928571D01*
X140354819Y-92928571D02*
X140307200Y-93071428D01*
X140307200Y-93071428D02*
X140211961Y-93166666D01*
X140211961Y-93166666D02*
X140116723Y-93214285D01*
X140116723Y-93214285D02*
X139926247Y-93261904D01*
X139926247Y-93261904D02*
X139783390Y-93261904D01*
X139783390Y-93261904D02*
X139592914Y-93214285D01*
X139592914Y-93214285D02*
X139497676Y-93166666D01*
X139497676Y-93166666D02*
X139402438Y-93071428D01*
X139402438Y-93071428D02*
X139354819Y-92928571D01*
X139354819Y-92928571D02*
X139354819Y-92833333D01*
X139354819Y-92833333D02*
X139402438Y-92690476D01*
X139402438Y-92690476D02*
X139450057Y-92642857D01*
X140354819Y-91690476D02*
X140354819Y-92261904D01*
X140354819Y-91976190D02*
X139354819Y-91976190D01*
X139354819Y-91976190D02*
X139497676Y-92071428D01*
X139497676Y-92071428D02*
X139592914Y-92166666D01*
X139592914Y-92166666D02*
X139640533Y-92261904D01*
X139450057Y-91309523D02*
X139402438Y-91261904D01*
X139402438Y-91261904D02*
X139354819Y-91166666D01*
X139354819Y-91166666D02*
X139354819Y-90928571D01*
X139354819Y-90928571D02*
X139402438Y-90833333D01*
X139402438Y-90833333D02*
X139450057Y-90785714D01*
X139450057Y-90785714D02*
X139545295Y-90738095D01*
X139545295Y-90738095D02*
X139640533Y-90738095D01*
X139640533Y-90738095D02*
X139783390Y-90785714D01*
X139783390Y-90785714D02*
X140354819Y-91357142D01*
X140354819Y-91357142D02*
X140354819Y-90738095D01*
X130299819Y-118888333D02*
X131014104Y-118888333D01*
X131014104Y-118888333D02*
X131156961Y-118935952D01*
X131156961Y-118935952D02*
X131252200Y-119031190D01*
X131252200Y-119031190D02*
X131299819Y-119174047D01*
X131299819Y-119174047D02*
X131299819Y-119269285D01*
X130299819Y-118507380D02*
X130299819Y-117888333D01*
X130299819Y-117888333D02*
X130680771Y-118221666D01*
X130680771Y-118221666D02*
X130680771Y-118078809D01*
X130680771Y-118078809D02*
X130728390Y-117983571D01*
X130728390Y-117983571D02*
X130776009Y-117935952D01*
X130776009Y-117935952D02*
X130871247Y-117888333D01*
X130871247Y-117888333D02*
X131109342Y-117888333D01*
X131109342Y-117888333D02*
X131204580Y-117935952D01*
X131204580Y-117935952D02*
X131252200Y-117983571D01*
X131252200Y-117983571D02*
X131299819Y-118078809D01*
X131299819Y-118078809D02*
X131299819Y-118364523D01*
X131299819Y-118364523D02*
X131252200Y-118459761D01*
X131252200Y-118459761D02*
X131204580Y-118507380D01*
X165934580Y-107117857D02*
X165982200Y-107165476D01*
X165982200Y-107165476D02*
X166029819Y-107308333D01*
X166029819Y-107308333D02*
X166029819Y-107403571D01*
X166029819Y-107403571D02*
X165982200Y-107546428D01*
X165982200Y-107546428D02*
X165886961Y-107641666D01*
X165886961Y-107641666D02*
X165791723Y-107689285D01*
X165791723Y-107689285D02*
X165601247Y-107736904D01*
X165601247Y-107736904D02*
X165458390Y-107736904D01*
X165458390Y-107736904D02*
X165267914Y-107689285D01*
X165267914Y-107689285D02*
X165172676Y-107641666D01*
X165172676Y-107641666D02*
X165077438Y-107546428D01*
X165077438Y-107546428D02*
X165029819Y-107403571D01*
X165029819Y-107403571D02*
X165029819Y-107308333D01*
X165029819Y-107308333D02*
X165077438Y-107165476D01*
X165077438Y-107165476D02*
X165125057Y-107117857D01*
X166029819Y-106165476D02*
X166029819Y-106736904D01*
X166029819Y-106451190D02*
X165029819Y-106451190D01*
X165029819Y-106451190D02*
X165172676Y-106546428D01*
X165172676Y-106546428D02*
X165267914Y-106641666D01*
X165267914Y-106641666D02*
X165315533Y-106736904D01*
X165029819Y-105308333D02*
X165029819Y-105498809D01*
X165029819Y-105498809D02*
X165077438Y-105594047D01*
X165077438Y-105594047D02*
X165125057Y-105641666D01*
X165125057Y-105641666D02*
X165267914Y-105736904D01*
X165267914Y-105736904D02*
X165458390Y-105784523D01*
X165458390Y-105784523D02*
X165839342Y-105784523D01*
X165839342Y-105784523D02*
X165934580Y-105736904D01*
X165934580Y-105736904D02*
X165982200Y-105689285D01*
X165982200Y-105689285D02*
X166029819Y-105594047D01*
X166029819Y-105594047D02*
X166029819Y-105403571D01*
X166029819Y-105403571D02*
X165982200Y-105308333D01*
X165982200Y-105308333D02*
X165934580Y-105260714D01*
X165934580Y-105260714D02*
X165839342Y-105213095D01*
X165839342Y-105213095D02*
X165601247Y-105213095D01*
X165601247Y-105213095D02*
X165506009Y-105260714D01*
X165506009Y-105260714D02*
X165458390Y-105308333D01*
X165458390Y-105308333D02*
X165410771Y-105403571D01*
X165410771Y-105403571D02*
X165410771Y-105594047D01*
X165410771Y-105594047D02*
X165458390Y-105689285D01*
X165458390Y-105689285D02*
X165506009Y-105736904D01*
X165506009Y-105736904D02*
X165601247Y-105784523D01*
X169438095Y-91954819D02*
X169438095Y-92764342D01*
X169438095Y-92764342D02*
X169485714Y-92859580D01*
X169485714Y-92859580D02*
X169533333Y-92907200D01*
X169533333Y-92907200D02*
X169628571Y-92954819D01*
X169628571Y-92954819D02*
X169819047Y-92954819D01*
X169819047Y-92954819D02*
X169914285Y-92907200D01*
X169914285Y-92907200D02*
X169961904Y-92859580D01*
X169961904Y-92859580D02*
X170009523Y-92764342D01*
X170009523Y-92764342D02*
X170009523Y-91954819D01*
X170438095Y-92050057D02*
X170485714Y-92002438D01*
X170485714Y-92002438D02*
X170580952Y-91954819D01*
X170580952Y-91954819D02*
X170819047Y-91954819D01*
X170819047Y-91954819D02*
X170914285Y-92002438D01*
X170914285Y-92002438D02*
X170961904Y-92050057D01*
X170961904Y-92050057D02*
X171009523Y-92145295D01*
X171009523Y-92145295D02*
X171009523Y-92240533D01*
X171009523Y-92240533D02*
X170961904Y-92383390D01*
X170961904Y-92383390D02*
X170390476Y-92954819D01*
X170390476Y-92954819D02*
X171009523Y-92954819D01*
X149879819Y-112442857D02*
X149403628Y-112776190D01*
X149879819Y-113014285D02*
X148879819Y-113014285D01*
X148879819Y-113014285D02*
X148879819Y-112633333D01*
X148879819Y-112633333D02*
X148927438Y-112538095D01*
X148927438Y-112538095D02*
X148975057Y-112490476D01*
X148975057Y-112490476D02*
X149070295Y-112442857D01*
X149070295Y-112442857D02*
X149213152Y-112442857D01*
X149213152Y-112442857D02*
X149308390Y-112490476D01*
X149308390Y-112490476D02*
X149356009Y-112538095D01*
X149356009Y-112538095D02*
X149403628Y-112633333D01*
X149403628Y-112633333D02*
X149403628Y-113014285D01*
X149879819Y-111490476D02*
X149879819Y-112061904D01*
X149879819Y-111776190D02*
X148879819Y-111776190D01*
X148879819Y-111776190D02*
X149022676Y-111871428D01*
X149022676Y-111871428D02*
X149117914Y-111966666D01*
X149117914Y-111966666D02*
X149165533Y-112061904D01*
X148879819Y-110633333D02*
X148879819Y-110823809D01*
X148879819Y-110823809D02*
X148927438Y-110919047D01*
X148927438Y-110919047D02*
X148975057Y-110966666D01*
X148975057Y-110966666D02*
X149117914Y-111061904D01*
X149117914Y-111061904D02*
X149308390Y-111109523D01*
X149308390Y-111109523D02*
X149689342Y-111109523D01*
X149689342Y-111109523D02*
X149784580Y-111061904D01*
X149784580Y-111061904D02*
X149832200Y-111014285D01*
X149832200Y-111014285D02*
X149879819Y-110919047D01*
X149879819Y-110919047D02*
X149879819Y-110728571D01*
X149879819Y-110728571D02*
X149832200Y-110633333D01*
X149832200Y-110633333D02*
X149784580Y-110585714D01*
X149784580Y-110585714D02*
X149689342Y-110538095D01*
X149689342Y-110538095D02*
X149451247Y-110538095D01*
X149451247Y-110538095D02*
X149356009Y-110585714D01*
X149356009Y-110585714D02*
X149308390Y-110633333D01*
X149308390Y-110633333D02*
X149260771Y-110728571D01*
X149260771Y-110728571D02*
X149260771Y-110919047D01*
X149260771Y-110919047D02*
X149308390Y-111014285D01*
X149308390Y-111014285D02*
X149356009Y-111061904D01*
X149356009Y-111061904D02*
X149451247Y-111109523D01*
X117095833Y-95979580D02*
X117048214Y-96027200D01*
X117048214Y-96027200D02*
X116905357Y-96074819D01*
X116905357Y-96074819D02*
X116810119Y-96074819D01*
X116810119Y-96074819D02*
X116667262Y-96027200D01*
X116667262Y-96027200D02*
X116572024Y-95931961D01*
X116572024Y-95931961D02*
X116524405Y-95836723D01*
X116524405Y-95836723D02*
X116476786Y-95646247D01*
X116476786Y-95646247D02*
X116476786Y-95503390D01*
X116476786Y-95503390D02*
X116524405Y-95312914D01*
X116524405Y-95312914D02*
X116572024Y-95217676D01*
X116572024Y-95217676D02*
X116667262Y-95122438D01*
X116667262Y-95122438D02*
X116810119Y-95074819D01*
X116810119Y-95074819D02*
X116905357Y-95074819D01*
X116905357Y-95074819D02*
X117048214Y-95122438D01*
X117048214Y-95122438D02*
X117095833Y-95170057D01*
X117952976Y-95408152D02*
X117952976Y-96074819D01*
X117714881Y-95027200D02*
X117476786Y-95741485D01*
X117476786Y-95741485D02*
X118095833Y-95741485D01*
X183832142Y-90929819D02*
X183498809Y-90453628D01*
X183260714Y-90929819D02*
X183260714Y-89929819D01*
X183260714Y-89929819D02*
X183641666Y-89929819D01*
X183641666Y-89929819D02*
X183736904Y-89977438D01*
X183736904Y-89977438D02*
X183784523Y-90025057D01*
X183784523Y-90025057D02*
X183832142Y-90120295D01*
X183832142Y-90120295D02*
X183832142Y-90263152D01*
X183832142Y-90263152D02*
X183784523Y-90358390D01*
X183784523Y-90358390D02*
X183736904Y-90406009D01*
X183736904Y-90406009D02*
X183641666Y-90453628D01*
X183641666Y-90453628D02*
X183260714Y-90453628D01*
X184213095Y-90025057D02*
X184260714Y-89977438D01*
X184260714Y-89977438D02*
X184355952Y-89929819D01*
X184355952Y-89929819D02*
X184594047Y-89929819D01*
X184594047Y-89929819D02*
X184689285Y-89977438D01*
X184689285Y-89977438D02*
X184736904Y-90025057D01*
X184736904Y-90025057D02*
X184784523Y-90120295D01*
X184784523Y-90120295D02*
X184784523Y-90215533D01*
X184784523Y-90215533D02*
X184736904Y-90358390D01*
X184736904Y-90358390D02*
X184165476Y-90929819D01*
X184165476Y-90929819D02*
X184784523Y-90929819D01*
X185403571Y-89929819D02*
X185498809Y-89929819D01*
X185498809Y-89929819D02*
X185594047Y-89977438D01*
X185594047Y-89977438D02*
X185641666Y-90025057D01*
X185641666Y-90025057D02*
X185689285Y-90120295D01*
X185689285Y-90120295D02*
X185736904Y-90310771D01*
X185736904Y-90310771D02*
X185736904Y-90548866D01*
X185736904Y-90548866D02*
X185689285Y-90739342D01*
X185689285Y-90739342D02*
X185641666Y-90834580D01*
X185641666Y-90834580D02*
X185594047Y-90882200D01*
X185594047Y-90882200D02*
X185498809Y-90929819D01*
X185498809Y-90929819D02*
X185403571Y-90929819D01*
X185403571Y-90929819D02*
X185308333Y-90882200D01*
X185308333Y-90882200D02*
X185260714Y-90834580D01*
X185260714Y-90834580D02*
X185213095Y-90739342D01*
X185213095Y-90739342D02*
X185165476Y-90548866D01*
X185165476Y-90548866D02*
X185165476Y-90310771D01*
X185165476Y-90310771D02*
X185213095Y-90120295D01*
X185213095Y-90120295D02*
X185260714Y-90025057D01*
X185260714Y-90025057D02*
X185308333Y-89977438D01*
X185308333Y-89977438D02*
X185403571Y-89929819D01*
X162220833Y-93089580D02*
X162173214Y-93137200D01*
X162173214Y-93137200D02*
X162030357Y-93184819D01*
X162030357Y-93184819D02*
X161935119Y-93184819D01*
X161935119Y-93184819D02*
X161792262Y-93137200D01*
X161792262Y-93137200D02*
X161697024Y-93041961D01*
X161697024Y-93041961D02*
X161649405Y-92946723D01*
X161649405Y-92946723D02*
X161601786Y-92756247D01*
X161601786Y-92756247D02*
X161601786Y-92613390D01*
X161601786Y-92613390D02*
X161649405Y-92422914D01*
X161649405Y-92422914D02*
X161697024Y-92327676D01*
X161697024Y-92327676D02*
X161792262Y-92232438D01*
X161792262Y-92232438D02*
X161935119Y-92184819D01*
X161935119Y-92184819D02*
X162030357Y-92184819D01*
X162030357Y-92184819D02*
X162173214Y-92232438D01*
X162173214Y-92232438D02*
X162220833Y-92280057D01*
X162792262Y-92613390D02*
X162697024Y-92565771D01*
X162697024Y-92565771D02*
X162649405Y-92518152D01*
X162649405Y-92518152D02*
X162601786Y-92422914D01*
X162601786Y-92422914D02*
X162601786Y-92375295D01*
X162601786Y-92375295D02*
X162649405Y-92280057D01*
X162649405Y-92280057D02*
X162697024Y-92232438D01*
X162697024Y-92232438D02*
X162792262Y-92184819D01*
X162792262Y-92184819D02*
X162982738Y-92184819D01*
X162982738Y-92184819D02*
X163077976Y-92232438D01*
X163077976Y-92232438D02*
X163125595Y-92280057D01*
X163125595Y-92280057D02*
X163173214Y-92375295D01*
X163173214Y-92375295D02*
X163173214Y-92422914D01*
X163173214Y-92422914D02*
X163125595Y-92518152D01*
X163125595Y-92518152D02*
X163077976Y-92565771D01*
X163077976Y-92565771D02*
X162982738Y-92613390D01*
X162982738Y-92613390D02*
X162792262Y-92613390D01*
X162792262Y-92613390D02*
X162697024Y-92661009D01*
X162697024Y-92661009D02*
X162649405Y-92708628D01*
X162649405Y-92708628D02*
X162601786Y-92803866D01*
X162601786Y-92803866D02*
X162601786Y-92994342D01*
X162601786Y-92994342D02*
X162649405Y-93089580D01*
X162649405Y-93089580D02*
X162697024Y-93137200D01*
X162697024Y-93137200D02*
X162792262Y-93184819D01*
X162792262Y-93184819D02*
X162982738Y-93184819D01*
X162982738Y-93184819D02*
X163077976Y-93137200D01*
X163077976Y-93137200D02*
X163125595Y-93089580D01*
X163125595Y-93089580D02*
X163173214Y-92994342D01*
X163173214Y-92994342D02*
X163173214Y-92803866D01*
X163173214Y-92803866D02*
X163125595Y-92708628D01*
X163125595Y-92708628D02*
X163077976Y-92661009D01*
X163077976Y-92661009D02*
X162982738Y-92613390D01*
X145933333Y-109409580D02*
X145885714Y-109457200D01*
X145885714Y-109457200D02*
X145742857Y-109504819D01*
X145742857Y-109504819D02*
X145647619Y-109504819D01*
X145647619Y-109504819D02*
X145504762Y-109457200D01*
X145504762Y-109457200D02*
X145409524Y-109361961D01*
X145409524Y-109361961D02*
X145361905Y-109266723D01*
X145361905Y-109266723D02*
X145314286Y-109076247D01*
X145314286Y-109076247D02*
X145314286Y-108933390D01*
X145314286Y-108933390D02*
X145361905Y-108742914D01*
X145361905Y-108742914D02*
X145409524Y-108647676D01*
X145409524Y-108647676D02*
X145504762Y-108552438D01*
X145504762Y-108552438D02*
X145647619Y-108504819D01*
X145647619Y-108504819D02*
X145742857Y-108504819D01*
X145742857Y-108504819D02*
X145885714Y-108552438D01*
X145885714Y-108552438D02*
X145933333Y-108600057D01*
X146790476Y-108504819D02*
X146600000Y-108504819D01*
X146600000Y-108504819D02*
X146504762Y-108552438D01*
X146504762Y-108552438D02*
X146457143Y-108600057D01*
X146457143Y-108600057D02*
X146361905Y-108742914D01*
X146361905Y-108742914D02*
X146314286Y-108933390D01*
X146314286Y-108933390D02*
X146314286Y-109314342D01*
X146314286Y-109314342D02*
X146361905Y-109409580D01*
X146361905Y-109409580D02*
X146409524Y-109457200D01*
X146409524Y-109457200D02*
X146504762Y-109504819D01*
X146504762Y-109504819D02*
X146695238Y-109504819D01*
X146695238Y-109504819D02*
X146790476Y-109457200D01*
X146790476Y-109457200D02*
X146838095Y-109409580D01*
X146838095Y-109409580D02*
X146885714Y-109314342D01*
X146885714Y-109314342D02*
X146885714Y-109076247D01*
X146885714Y-109076247D02*
X146838095Y-108981009D01*
X146838095Y-108981009D02*
X146790476Y-108933390D01*
X146790476Y-108933390D02*
X146695238Y-108885771D01*
X146695238Y-108885771D02*
X146504762Y-108885771D01*
X146504762Y-108885771D02*
X146409524Y-108933390D01*
X146409524Y-108933390D02*
X146361905Y-108981009D01*
X146361905Y-108981009D02*
X146314286Y-109076247D01*
X189211905Y-87604819D02*
X189211905Y-86604819D01*
X189211905Y-86604819D02*
X189450000Y-86604819D01*
X189450000Y-86604819D02*
X189592857Y-86652438D01*
X189592857Y-86652438D02*
X189688095Y-86747676D01*
X189688095Y-86747676D02*
X189735714Y-86842914D01*
X189735714Y-86842914D02*
X189783333Y-87033390D01*
X189783333Y-87033390D02*
X189783333Y-87176247D01*
X189783333Y-87176247D02*
X189735714Y-87366723D01*
X189735714Y-87366723D02*
X189688095Y-87461961D01*
X189688095Y-87461961D02*
X189592857Y-87557200D01*
X189592857Y-87557200D02*
X189450000Y-87604819D01*
X189450000Y-87604819D02*
X189211905Y-87604819D01*
X190164286Y-86700057D02*
X190211905Y-86652438D01*
X190211905Y-86652438D02*
X190307143Y-86604819D01*
X190307143Y-86604819D02*
X190545238Y-86604819D01*
X190545238Y-86604819D02*
X190640476Y-86652438D01*
X190640476Y-86652438D02*
X190688095Y-86700057D01*
X190688095Y-86700057D02*
X190735714Y-86795295D01*
X190735714Y-86795295D02*
X190735714Y-86890533D01*
X190735714Y-86890533D02*
X190688095Y-87033390D01*
X190688095Y-87033390D02*
X190116667Y-87604819D01*
X190116667Y-87604819D02*
X190735714Y-87604819D01*
X134807142Y-104254819D02*
X134473809Y-103778628D01*
X134235714Y-104254819D02*
X134235714Y-103254819D01*
X134235714Y-103254819D02*
X134616666Y-103254819D01*
X134616666Y-103254819D02*
X134711904Y-103302438D01*
X134711904Y-103302438D02*
X134759523Y-103350057D01*
X134759523Y-103350057D02*
X134807142Y-103445295D01*
X134807142Y-103445295D02*
X134807142Y-103588152D01*
X134807142Y-103588152D02*
X134759523Y-103683390D01*
X134759523Y-103683390D02*
X134711904Y-103731009D01*
X134711904Y-103731009D02*
X134616666Y-103778628D01*
X134616666Y-103778628D02*
X134235714Y-103778628D01*
X135188095Y-103350057D02*
X135235714Y-103302438D01*
X135235714Y-103302438D02*
X135330952Y-103254819D01*
X135330952Y-103254819D02*
X135569047Y-103254819D01*
X135569047Y-103254819D02*
X135664285Y-103302438D01*
X135664285Y-103302438D02*
X135711904Y-103350057D01*
X135711904Y-103350057D02*
X135759523Y-103445295D01*
X135759523Y-103445295D02*
X135759523Y-103540533D01*
X135759523Y-103540533D02*
X135711904Y-103683390D01*
X135711904Y-103683390D02*
X135140476Y-104254819D01*
X135140476Y-104254819D02*
X135759523Y-104254819D01*
X136092857Y-103254819D02*
X136711904Y-103254819D01*
X136711904Y-103254819D02*
X136378571Y-103635771D01*
X136378571Y-103635771D02*
X136521428Y-103635771D01*
X136521428Y-103635771D02*
X136616666Y-103683390D01*
X136616666Y-103683390D02*
X136664285Y-103731009D01*
X136664285Y-103731009D02*
X136711904Y-103826247D01*
X136711904Y-103826247D02*
X136711904Y-104064342D01*
X136711904Y-104064342D02*
X136664285Y-104159580D01*
X136664285Y-104159580D02*
X136616666Y-104207200D01*
X136616666Y-104207200D02*
X136521428Y-104254819D01*
X136521428Y-104254819D02*
X136235714Y-104254819D01*
X136235714Y-104254819D02*
X136140476Y-104207200D01*
X136140476Y-104207200D02*
X136092857Y-104159580D01*
X194429819Y-101366666D02*
X193953628Y-101699999D01*
X194429819Y-101938094D02*
X193429819Y-101938094D01*
X193429819Y-101938094D02*
X193429819Y-101557142D01*
X193429819Y-101557142D02*
X193477438Y-101461904D01*
X193477438Y-101461904D02*
X193525057Y-101414285D01*
X193525057Y-101414285D02*
X193620295Y-101366666D01*
X193620295Y-101366666D02*
X193763152Y-101366666D01*
X193763152Y-101366666D02*
X193858390Y-101414285D01*
X193858390Y-101414285D02*
X193906009Y-101461904D01*
X193906009Y-101461904D02*
X193953628Y-101557142D01*
X193953628Y-101557142D02*
X193953628Y-101938094D01*
X194429819Y-100890475D02*
X194429819Y-100699999D01*
X194429819Y-100699999D02*
X194382200Y-100604761D01*
X194382200Y-100604761D02*
X194334580Y-100557142D01*
X194334580Y-100557142D02*
X194191723Y-100461904D01*
X194191723Y-100461904D02*
X194001247Y-100414285D01*
X194001247Y-100414285D02*
X193620295Y-100414285D01*
X193620295Y-100414285D02*
X193525057Y-100461904D01*
X193525057Y-100461904D02*
X193477438Y-100509523D01*
X193477438Y-100509523D02*
X193429819Y-100604761D01*
X193429819Y-100604761D02*
X193429819Y-100795237D01*
X193429819Y-100795237D02*
X193477438Y-100890475D01*
X193477438Y-100890475D02*
X193525057Y-100938094D01*
X193525057Y-100938094D02*
X193620295Y-100985713D01*
X193620295Y-100985713D02*
X193858390Y-100985713D01*
X193858390Y-100985713D02*
X193953628Y-100938094D01*
X193953628Y-100938094D02*
X194001247Y-100890475D01*
X194001247Y-100890475D02*
X194048866Y-100795237D01*
X194048866Y-100795237D02*
X194048866Y-100604761D01*
X194048866Y-100604761D02*
X194001247Y-100509523D01*
X194001247Y-100509523D02*
X193953628Y-100461904D01*
X193953628Y-100461904D02*
X193858390Y-100414285D01*
X106916666Y-120204819D02*
X106916666Y-120919104D01*
X106916666Y-120919104D02*
X106869047Y-121061961D01*
X106869047Y-121061961D02*
X106773809Y-121157200D01*
X106773809Y-121157200D02*
X106630952Y-121204819D01*
X106630952Y-121204819D02*
X106535714Y-121204819D01*
X107916666Y-121204819D02*
X107345238Y-121204819D01*
X107630952Y-121204819D02*
X107630952Y-120204819D01*
X107630952Y-120204819D02*
X107535714Y-120347676D01*
X107535714Y-120347676D02*
X107440476Y-120442914D01*
X107440476Y-120442914D02*
X107345238Y-120490533D01*
X123604819Y-94042857D02*
X123128628Y-94376190D01*
X123604819Y-94614285D02*
X122604819Y-94614285D01*
X122604819Y-94614285D02*
X122604819Y-94233333D01*
X122604819Y-94233333D02*
X122652438Y-94138095D01*
X122652438Y-94138095D02*
X122700057Y-94090476D01*
X122700057Y-94090476D02*
X122795295Y-94042857D01*
X122795295Y-94042857D02*
X122938152Y-94042857D01*
X122938152Y-94042857D02*
X123033390Y-94090476D01*
X123033390Y-94090476D02*
X123081009Y-94138095D01*
X123081009Y-94138095D02*
X123128628Y-94233333D01*
X123128628Y-94233333D02*
X123128628Y-94614285D01*
X123604819Y-93090476D02*
X123604819Y-93661904D01*
X123604819Y-93376190D02*
X122604819Y-93376190D01*
X122604819Y-93376190D02*
X122747676Y-93471428D01*
X122747676Y-93471428D02*
X122842914Y-93566666D01*
X122842914Y-93566666D02*
X122890533Y-93661904D01*
X123604819Y-92614285D02*
X123604819Y-92423809D01*
X123604819Y-92423809D02*
X123557200Y-92328571D01*
X123557200Y-92328571D02*
X123509580Y-92280952D01*
X123509580Y-92280952D02*
X123366723Y-92185714D01*
X123366723Y-92185714D02*
X123176247Y-92138095D01*
X123176247Y-92138095D02*
X122795295Y-92138095D01*
X122795295Y-92138095D02*
X122700057Y-92185714D01*
X122700057Y-92185714D02*
X122652438Y-92233333D01*
X122652438Y-92233333D02*
X122604819Y-92328571D01*
X122604819Y-92328571D02*
X122604819Y-92519047D01*
X122604819Y-92519047D02*
X122652438Y-92614285D01*
X122652438Y-92614285D02*
X122700057Y-92661904D01*
X122700057Y-92661904D02*
X122795295Y-92709523D01*
X122795295Y-92709523D02*
X123033390Y-92709523D01*
X123033390Y-92709523D02*
X123128628Y-92661904D01*
X123128628Y-92661904D02*
X123176247Y-92614285D01*
X123176247Y-92614285D02*
X123223866Y-92519047D01*
X123223866Y-92519047D02*
X123223866Y-92328571D01*
X123223866Y-92328571D02*
X123176247Y-92233333D01*
X123176247Y-92233333D02*
X123128628Y-92185714D01*
X123128628Y-92185714D02*
X123033390Y-92138095D01*
X144079642Y-99949580D02*
X144032023Y-99997200D01*
X144032023Y-99997200D02*
X143889166Y-100044819D01*
X143889166Y-100044819D02*
X143793928Y-100044819D01*
X143793928Y-100044819D02*
X143651071Y-99997200D01*
X143651071Y-99997200D02*
X143555833Y-99901961D01*
X143555833Y-99901961D02*
X143508214Y-99806723D01*
X143508214Y-99806723D02*
X143460595Y-99616247D01*
X143460595Y-99616247D02*
X143460595Y-99473390D01*
X143460595Y-99473390D02*
X143508214Y-99282914D01*
X143508214Y-99282914D02*
X143555833Y-99187676D01*
X143555833Y-99187676D02*
X143651071Y-99092438D01*
X143651071Y-99092438D02*
X143793928Y-99044819D01*
X143793928Y-99044819D02*
X143889166Y-99044819D01*
X143889166Y-99044819D02*
X144032023Y-99092438D01*
X144032023Y-99092438D02*
X144079642Y-99140057D01*
X145032023Y-100044819D02*
X144460595Y-100044819D01*
X144746309Y-100044819D02*
X144746309Y-99044819D01*
X144746309Y-99044819D02*
X144651071Y-99187676D01*
X144651071Y-99187676D02*
X144555833Y-99282914D01*
X144555833Y-99282914D02*
X144460595Y-99330533D01*
X145984404Y-100044819D02*
X145412976Y-100044819D01*
X145698690Y-100044819D02*
X145698690Y-99044819D01*
X145698690Y-99044819D02*
X145603452Y-99187676D01*
X145603452Y-99187676D02*
X145508214Y-99282914D01*
X145508214Y-99282914D02*
X145412976Y-99330533D01*
X127004819Y-116941666D02*
X126528628Y-117274999D01*
X127004819Y-117513094D02*
X126004819Y-117513094D01*
X126004819Y-117513094D02*
X126004819Y-117132142D01*
X126004819Y-117132142D02*
X126052438Y-117036904D01*
X126052438Y-117036904D02*
X126100057Y-116989285D01*
X126100057Y-116989285D02*
X126195295Y-116941666D01*
X126195295Y-116941666D02*
X126338152Y-116941666D01*
X126338152Y-116941666D02*
X126433390Y-116989285D01*
X126433390Y-116989285D02*
X126481009Y-117036904D01*
X126481009Y-117036904D02*
X126528628Y-117132142D01*
X126528628Y-117132142D02*
X126528628Y-117513094D01*
X127004819Y-115989285D02*
X127004819Y-116560713D01*
X127004819Y-116274999D02*
X126004819Y-116274999D01*
X126004819Y-116274999D02*
X126147676Y-116370237D01*
X126147676Y-116370237D02*
X126242914Y-116465475D01*
X126242914Y-116465475D02*
X126290533Y-116560713D01*
X189307142Y-90979819D02*
X188973809Y-90503628D01*
X188735714Y-90979819D02*
X188735714Y-89979819D01*
X188735714Y-89979819D02*
X189116666Y-89979819D01*
X189116666Y-89979819D02*
X189211904Y-90027438D01*
X189211904Y-90027438D02*
X189259523Y-90075057D01*
X189259523Y-90075057D02*
X189307142Y-90170295D01*
X189307142Y-90170295D02*
X189307142Y-90313152D01*
X189307142Y-90313152D02*
X189259523Y-90408390D01*
X189259523Y-90408390D02*
X189211904Y-90456009D01*
X189211904Y-90456009D02*
X189116666Y-90503628D01*
X189116666Y-90503628D02*
X188735714Y-90503628D01*
X189688095Y-90075057D02*
X189735714Y-90027438D01*
X189735714Y-90027438D02*
X189830952Y-89979819D01*
X189830952Y-89979819D02*
X190069047Y-89979819D01*
X190069047Y-89979819D02*
X190164285Y-90027438D01*
X190164285Y-90027438D02*
X190211904Y-90075057D01*
X190211904Y-90075057D02*
X190259523Y-90170295D01*
X190259523Y-90170295D02*
X190259523Y-90265533D01*
X190259523Y-90265533D02*
X190211904Y-90408390D01*
X190211904Y-90408390D02*
X189640476Y-90979819D01*
X189640476Y-90979819D02*
X190259523Y-90979819D01*
X191211904Y-90979819D02*
X190640476Y-90979819D01*
X190926190Y-90979819D02*
X190926190Y-89979819D01*
X190926190Y-89979819D02*
X190830952Y-90122676D01*
X190830952Y-90122676D02*
X190735714Y-90217914D01*
X190735714Y-90217914D02*
X190640476Y-90265533D01*
X129954819Y-94733333D02*
X130669104Y-94733333D01*
X130669104Y-94733333D02*
X130811961Y-94780952D01*
X130811961Y-94780952D02*
X130907200Y-94876190D01*
X130907200Y-94876190D02*
X130954819Y-95019047D01*
X130954819Y-95019047D02*
X130954819Y-95114285D01*
X130954819Y-94257142D02*
X129954819Y-94257142D01*
X129954819Y-94257142D02*
X129954819Y-93876190D01*
X129954819Y-93876190D02*
X130002438Y-93780952D01*
X130002438Y-93780952D02*
X130050057Y-93733333D01*
X130050057Y-93733333D02*
X130145295Y-93685714D01*
X130145295Y-93685714D02*
X130288152Y-93685714D01*
X130288152Y-93685714D02*
X130383390Y-93733333D01*
X130383390Y-93733333D02*
X130431009Y-93780952D01*
X130431009Y-93780952D02*
X130478628Y-93876190D01*
X130478628Y-93876190D02*
X130478628Y-94257142D01*
X129954819Y-92828571D02*
X129954819Y-93019047D01*
X129954819Y-93019047D02*
X130002438Y-93114285D01*
X130002438Y-93114285D02*
X130050057Y-93161904D01*
X130050057Y-93161904D02*
X130192914Y-93257142D01*
X130192914Y-93257142D02*
X130383390Y-93304761D01*
X130383390Y-93304761D02*
X130764342Y-93304761D01*
X130764342Y-93304761D02*
X130859580Y-93257142D01*
X130859580Y-93257142D02*
X130907200Y-93209523D01*
X130907200Y-93209523D02*
X130954819Y-93114285D01*
X130954819Y-93114285D02*
X130954819Y-92923809D01*
X130954819Y-92923809D02*
X130907200Y-92828571D01*
X130907200Y-92828571D02*
X130859580Y-92780952D01*
X130859580Y-92780952D02*
X130764342Y-92733333D01*
X130764342Y-92733333D02*
X130526247Y-92733333D01*
X130526247Y-92733333D02*
X130431009Y-92780952D01*
X130431009Y-92780952D02*
X130383390Y-92828571D01*
X130383390Y-92828571D02*
X130335771Y-92923809D01*
X130335771Y-92923809D02*
X130335771Y-93114285D01*
X130335771Y-93114285D02*
X130383390Y-93209523D01*
X130383390Y-93209523D02*
X130431009Y-93257142D01*
X130431009Y-93257142D02*
X130526247Y-93304761D01*
X129154819Y-91014285D02*
X129154819Y-91585713D01*
X129154819Y-91299999D02*
X128154819Y-91299999D01*
X128154819Y-91299999D02*
X128297676Y-91395237D01*
X128297676Y-91395237D02*
X128392914Y-91490475D01*
X128392914Y-91490475D02*
X128440533Y-91585713D01*
X128154819Y-96833332D02*
X128154819Y-96214285D01*
X128154819Y-96214285D02*
X128535771Y-96547618D01*
X128535771Y-96547618D02*
X128535771Y-96404761D01*
X128535771Y-96404761D02*
X128583390Y-96309523D01*
X128583390Y-96309523D02*
X128631009Y-96261904D01*
X128631009Y-96261904D02*
X128726247Y-96214285D01*
X128726247Y-96214285D02*
X128964342Y-96214285D01*
X128964342Y-96214285D02*
X129059580Y-96261904D01*
X129059580Y-96261904D02*
X129107200Y-96309523D01*
X129107200Y-96309523D02*
X129154819Y-96404761D01*
X129154819Y-96404761D02*
X129154819Y-96690475D01*
X129154819Y-96690475D02*
X129107200Y-96785713D01*
X129107200Y-96785713D02*
X129059580Y-96833332D01*
X144994642Y-89729580D02*
X144947023Y-89777200D01*
X144947023Y-89777200D02*
X144804166Y-89824819D01*
X144804166Y-89824819D02*
X144708928Y-89824819D01*
X144708928Y-89824819D02*
X144566071Y-89777200D01*
X144566071Y-89777200D02*
X144470833Y-89681961D01*
X144470833Y-89681961D02*
X144423214Y-89586723D01*
X144423214Y-89586723D02*
X144375595Y-89396247D01*
X144375595Y-89396247D02*
X144375595Y-89253390D01*
X144375595Y-89253390D02*
X144423214Y-89062914D01*
X144423214Y-89062914D02*
X144470833Y-88967676D01*
X144470833Y-88967676D02*
X144566071Y-88872438D01*
X144566071Y-88872438D02*
X144708928Y-88824819D01*
X144708928Y-88824819D02*
X144804166Y-88824819D01*
X144804166Y-88824819D02*
X144947023Y-88872438D01*
X144947023Y-88872438D02*
X144994642Y-88920057D01*
X145947023Y-89824819D02*
X145375595Y-89824819D01*
X145661309Y-89824819D02*
X145661309Y-88824819D01*
X145661309Y-88824819D02*
X145566071Y-88967676D01*
X145566071Y-88967676D02*
X145470833Y-89062914D01*
X145470833Y-89062914D02*
X145375595Y-89110533D01*
X146566071Y-88824819D02*
X146661309Y-88824819D01*
X146661309Y-88824819D02*
X146756547Y-88872438D01*
X146756547Y-88872438D02*
X146804166Y-88920057D01*
X146804166Y-88920057D02*
X146851785Y-89015295D01*
X146851785Y-89015295D02*
X146899404Y-89205771D01*
X146899404Y-89205771D02*
X146899404Y-89443866D01*
X146899404Y-89443866D02*
X146851785Y-89634342D01*
X146851785Y-89634342D02*
X146804166Y-89729580D01*
X146804166Y-89729580D02*
X146756547Y-89777200D01*
X146756547Y-89777200D02*
X146661309Y-89824819D01*
X146661309Y-89824819D02*
X146566071Y-89824819D01*
X146566071Y-89824819D02*
X146470833Y-89777200D01*
X146470833Y-89777200D02*
X146423214Y-89729580D01*
X146423214Y-89729580D02*
X146375595Y-89634342D01*
X146375595Y-89634342D02*
X146327976Y-89443866D01*
X146327976Y-89443866D02*
X146327976Y-89205771D01*
X146327976Y-89205771D02*
X146375595Y-89015295D01*
X146375595Y-89015295D02*
X146423214Y-88920057D01*
X146423214Y-88920057D02*
X146470833Y-88872438D01*
X146470833Y-88872438D02*
X146566071Y-88824819D01*
X153129819Y-111966666D02*
X152653628Y-112299999D01*
X153129819Y-112538094D02*
X152129819Y-112538094D01*
X152129819Y-112538094D02*
X152129819Y-112157142D01*
X152129819Y-112157142D02*
X152177438Y-112061904D01*
X152177438Y-112061904D02*
X152225057Y-112014285D01*
X152225057Y-112014285D02*
X152320295Y-111966666D01*
X152320295Y-111966666D02*
X152463152Y-111966666D01*
X152463152Y-111966666D02*
X152558390Y-112014285D01*
X152558390Y-112014285D02*
X152606009Y-112061904D01*
X152606009Y-112061904D02*
X152653628Y-112157142D01*
X152653628Y-112157142D02*
X152653628Y-112538094D01*
X152463152Y-111109523D02*
X153129819Y-111109523D01*
X152082200Y-111347618D02*
X152796485Y-111585713D01*
X152796485Y-111585713D02*
X152796485Y-110966666D01*
X183736905Y-87454819D02*
X183736905Y-86454819D01*
X183736905Y-86454819D02*
X183975000Y-86454819D01*
X183975000Y-86454819D02*
X184117857Y-86502438D01*
X184117857Y-86502438D02*
X184213095Y-86597676D01*
X184213095Y-86597676D02*
X184260714Y-86692914D01*
X184260714Y-86692914D02*
X184308333Y-86883390D01*
X184308333Y-86883390D02*
X184308333Y-87026247D01*
X184308333Y-87026247D02*
X184260714Y-87216723D01*
X184260714Y-87216723D02*
X184213095Y-87311961D01*
X184213095Y-87311961D02*
X184117857Y-87407200D01*
X184117857Y-87407200D02*
X183975000Y-87454819D01*
X183975000Y-87454819D02*
X183736905Y-87454819D01*
X185260714Y-87454819D02*
X184689286Y-87454819D01*
X184975000Y-87454819D02*
X184975000Y-86454819D01*
X184975000Y-86454819D02*
X184879762Y-86597676D01*
X184879762Y-86597676D02*
X184784524Y-86692914D01*
X184784524Y-86692914D02*
X184689286Y-86740533D01*
X123654819Y-107517857D02*
X123178628Y-107851190D01*
X123654819Y-108089285D02*
X122654819Y-108089285D01*
X122654819Y-108089285D02*
X122654819Y-107708333D01*
X122654819Y-107708333D02*
X122702438Y-107613095D01*
X122702438Y-107613095D02*
X122750057Y-107565476D01*
X122750057Y-107565476D02*
X122845295Y-107517857D01*
X122845295Y-107517857D02*
X122988152Y-107517857D01*
X122988152Y-107517857D02*
X123083390Y-107565476D01*
X123083390Y-107565476D02*
X123131009Y-107613095D01*
X123131009Y-107613095D02*
X123178628Y-107708333D01*
X123178628Y-107708333D02*
X123178628Y-108089285D01*
X123654819Y-106565476D02*
X123654819Y-107136904D01*
X123654819Y-106851190D02*
X122654819Y-106851190D01*
X122654819Y-106851190D02*
X122797676Y-106946428D01*
X122797676Y-106946428D02*
X122892914Y-107041666D01*
X122892914Y-107041666D02*
X122940533Y-107136904D01*
X122654819Y-105946428D02*
X122654819Y-105851190D01*
X122654819Y-105851190D02*
X122702438Y-105755952D01*
X122702438Y-105755952D02*
X122750057Y-105708333D01*
X122750057Y-105708333D02*
X122845295Y-105660714D01*
X122845295Y-105660714D02*
X123035771Y-105613095D01*
X123035771Y-105613095D02*
X123273866Y-105613095D01*
X123273866Y-105613095D02*
X123464342Y-105660714D01*
X123464342Y-105660714D02*
X123559580Y-105708333D01*
X123559580Y-105708333D02*
X123607200Y-105755952D01*
X123607200Y-105755952D02*
X123654819Y-105851190D01*
X123654819Y-105851190D02*
X123654819Y-105946428D01*
X123654819Y-105946428D02*
X123607200Y-106041666D01*
X123607200Y-106041666D02*
X123559580Y-106089285D01*
X123559580Y-106089285D02*
X123464342Y-106136904D01*
X123464342Y-106136904D02*
X123273866Y-106184523D01*
X123273866Y-106184523D02*
X123035771Y-106184523D01*
X123035771Y-106184523D02*
X122845295Y-106136904D01*
X122845295Y-106136904D02*
X122750057Y-106089285D01*
X122750057Y-106089285D02*
X122702438Y-106041666D01*
X122702438Y-106041666D02*
X122654819Y-105946428D01*
X164609580Y-102941666D02*
X164657200Y-102989285D01*
X164657200Y-102989285D02*
X164704819Y-103132142D01*
X164704819Y-103132142D02*
X164704819Y-103227380D01*
X164704819Y-103227380D02*
X164657200Y-103370237D01*
X164657200Y-103370237D02*
X164561961Y-103465475D01*
X164561961Y-103465475D02*
X164466723Y-103513094D01*
X164466723Y-103513094D02*
X164276247Y-103560713D01*
X164276247Y-103560713D02*
X164133390Y-103560713D01*
X164133390Y-103560713D02*
X163942914Y-103513094D01*
X163942914Y-103513094D02*
X163847676Y-103465475D01*
X163847676Y-103465475D02*
X163752438Y-103370237D01*
X163752438Y-103370237D02*
X163704819Y-103227380D01*
X163704819Y-103227380D02*
X163704819Y-103132142D01*
X163704819Y-103132142D02*
X163752438Y-102989285D01*
X163752438Y-102989285D02*
X163800057Y-102941666D01*
X164704819Y-102465475D02*
X164704819Y-102274999D01*
X164704819Y-102274999D02*
X164657200Y-102179761D01*
X164657200Y-102179761D02*
X164609580Y-102132142D01*
X164609580Y-102132142D02*
X164466723Y-102036904D01*
X164466723Y-102036904D02*
X164276247Y-101989285D01*
X164276247Y-101989285D02*
X163895295Y-101989285D01*
X163895295Y-101989285D02*
X163800057Y-102036904D01*
X163800057Y-102036904D02*
X163752438Y-102084523D01*
X163752438Y-102084523D02*
X163704819Y-102179761D01*
X163704819Y-102179761D02*
X163704819Y-102370237D01*
X163704819Y-102370237D02*
X163752438Y-102465475D01*
X163752438Y-102465475D02*
X163800057Y-102513094D01*
X163800057Y-102513094D02*
X163895295Y-102560713D01*
X163895295Y-102560713D02*
X164133390Y-102560713D01*
X164133390Y-102560713D02*
X164228628Y-102513094D01*
X164228628Y-102513094D02*
X164276247Y-102465475D01*
X164276247Y-102465475D02*
X164323866Y-102370237D01*
X164323866Y-102370237D02*
X164323866Y-102179761D01*
X164323866Y-102179761D02*
X164276247Y-102084523D01*
X164276247Y-102084523D02*
X164228628Y-102036904D01*
X164228628Y-102036904D02*
X164133390Y-101989285D01*
X194807142Y-90854819D02*
X194473809Y-90378628D01*
X194235714Y-90854819D02*
X194235714Y-89854819D01*
X194235714Y-89854819D02*
X194616666Y-89854819D01*
X194616666Y-89854819D02*
X194711904Y-89902438D01*
X194711904Y-89902438D02*
X194759523Y-89950057D01*
X194759523Y-89950057D02*
X194807142Y-90045295D01*
X194807142Y-90045295D02*
X194807142Y-90188152D01*
X194807142Y-90188152D02*
X194759523Y-90283390D01*
X194759523Y-90283390D02*
X194711904Y-90331009D01*
X194711904Y-90331009D02*
X194616666Y-90378628D01*
X194616666Y-90378628D02*
X194235714Y-90378628D01*
X195188095Y-89950057D02*
X195235714Y-89902438D01*
X195235714Y-89902438D02*
X195330952Y-89854819D01*
X195330952Y-89854819D02*
X195569047Y-89854819D01*
X195569047Y-89854819D02*
X195664285Y-89902438D01*
X195664285Y-89902438D02*
X195711904Y-89950057D01*
X195711904Y-89950057D02*
X195759523Y-90045295D01*
X195759523Y-90045295D02*
X195759523Y-90140533D01*
X195759523Y-90140533D02*
X195711904Y-90283390D01*
X195711904Y-90283390D02*
X195140476Y-90854819D01*
X195140476Y-90854819D02*
X195759523Y-90854819D01*
X196140476Y-89950057D02*
X196188095Y-89902438D01*
X196188095Y-89902438D02*
X196283333Y-89854819D01*
X196283333Y-89854819D02*
X196521428Y-89854819D01*
X196521428Y-89854819D02*
X196616666Y-89902438D01*
X196616666Y-89902438D02*
X196664285Y-89950057D01*
X196664285Y-89950057D02*
X196711904Y-90045295D01*
X196711904Y-90045295D02*
X196711904Y-90140533D01*
X196711904Y-90140533D02*
X196664285Y-90283390D01*
X196664285Y-90283390D02*
X196092857Y-90854819D01*
X196092857Y-90854819D02*
X196711904Y-90854819D01*
X127004819Y-112341666D02*
X126528628Y-112674999D01*
X127004819Y-112913094D02*
X126004819Y-112913094D01*
X126004819Y-112913094D02*
X126004819Y-112532142D01*
X126004819Y-112532142D02*
X126052438Y-112436904D01*
X126052438Y-112436904D02*
X126100057Y-112389285D01*
X126100057Y-112389285D02*
X126195295Y-112341666D01*
X126195295Y-112341666D02*
X126338152Y-112341666D01*
X126338152Y-112341666D02*
X126433390Y-112389285D01*
X126433390Y-112389285D02*
X126481009Y-112436904D01*
X126481009Y-112436904D02*
X126528628Y-112532142D01*
X126528628Y-112532142D02*
X126528628Y-112913094D01*
X126004819Y-112008332D02*
X126004819Y-111341666D01*
X126004819Y-111341666D02*
X127004819Y-111770237D01*
X151383333Y-109384580D02*
X151335714Y-109432200D01*
X151335714Y-109432200D02*
X151192857Y-109479819D01*
X151192857Y-109479819D02*
X151097619Y-109479819D01*
X151097619Y-109479819D02*
X150954762Y-109432200D01*
X150954762Y-109432200D02*
X150859524Y-109336961D01*
X150859524Y-109336961D02*
X150811905Y-109241723D01*
X150811905Y-109241723D02*
X150764286Y-109051247D01*
X150764286Y-109051247D02*
X150764286Y-108908390D01*
X150764286Y-108908390D02*
X150811905Y-108717914D01*
X150811905Y-108717914D02*
X150859524Y-108622676D01*
X150859524Y-108622676D02*
X150954762Y-108527438D01*
X150954762Y-108527438D02*
X151097619Y-108479819D01*
X151097619Y-108479819D02*
X151192857Y-108479819D01*
X151192857Y-108479819D02*
X151335714Y-108527438D01*
X151335714Y-108527438D02*
X151383333Y-108575057D01*
X152335714Y-109479819D02*
X151764286Y-109479819D01*
X152050000Y-109479819D02*
X152050000Y-108479819D01*
X152050000Y-108479819D02*
X151954762Y-108622676D01*
X151954762Y-108622676D02*
X151859524Y-108717914D01*
X151859524Y-108717914D02*
X151764286Y-108765533D01*
%TO.C,JP2*%
D12*
X180225000Y-106925000D02*
X180225000Y-104125000D01*
X180925000Y-103475000D02*
X181525000Y-103475000D01*
X181525000Y-107575000D02*
X180925000Y-107575000D01*
X182225000Y-104125000D02*
X182225000Y-106925000D01*
X180225000Y-104175000D02*
G75*
G02*
X180925000Y-103475000I699999J1D01*
G01*
X180925000Y-107575000D02*
G75*
G02*
X180225000Y-106875000I0J700000D01*
G01*
X181525000Y-103475000D02*
G75*
G02*
X182225000Y-104175000I1J-699999D01*
G01*
X182225000Y-106875000D02*
G75*
G02*
X181525000Y-107575000I-700000J0D01*
G01*
%TO.C,R8*%
X176965000Y-102027064D02*
X176965000Y-101572936D01*
X178435000Y-102027064D02*
X178435000Y-101572936D01*
%TO.C,C14*%
X163115000Y-106698752D02*
X163115000Y-106176248D01*
X164585000Y-106698752D02*
X164585000Y-106176248D01*
%TO.C,R25*%
X175840000Y-96127064D02*
X175840000Y-95672936D01*
X177310000Y-96127064D02*
X177310000Y-95672936D01*
%TO.C,C3*%
X139865000Y-106151248D02*
X139865000Y-106673752D01*
X141335000Y-106151248D02*
X141335000Y-106673752D01*
%TO.C,R2*%
X176965000Y-106202064D02*
X176965000Y-105747936D01*
X178435000Y-106202064D02*
X178435000Y-105747936D01*
%TO.C,R3*%
X194815000Y-106102064D02*
X194815000Y-105647936D01*
X196285000Y-106102064D02*
X196285000Y-105647936D01*
%TO.C,JP1*%
X127700000Y-114000000D02*
X127700000Y-111200000D01*
X128400000Y-110550000D02*
X129000000Y-110550000D01*
X129000000Y-114650000D02*
X128400000Y-114650000D01*
X129700000Y-111200000D02*
X129700000Y-114000000D01*
X127700000Y-111250000D02*
G75*
G02*
X128400000Y-110550000I699999J1D01*
G01*
X128400000Y-114650000D02*
G75*
G02*
X127700000Y-113950000I0J700000D01*
G01*
X129000000Y-110550000D02*
G75*
G02*
X129700000Y-111250000I1J-699999D01*
G01*
X129700000Y-113950000D02*
G75*
G02*
X129000000Y-114650000I-700000J0D01*
G01*
%TO.C,C17*%
X168761252Y-99490000D02*
X168238748Y-99490000D01*
X168761252Y-100960000D02*
X168238748Y-100960000D01*
%TO.C,R12*%
X124090000Y-98102064D02*
X124090000Y-97647936D01*
X125560000Y-98102064D02*
X125560000Y-97647936D01*
%TO.C,JP4*%
X127700000Y-104300000D02*
X127700000Y-101500000D01*
X128400000Y-100850000D02*
X129000000Y-100850000D01*
X129000000Y-104950000D02*
X128400000Y-104950000D01*
X129700000Y-101500000D02*
X129700000Y-104300000D01*
X127700000Y-101550000D02*
G75*
G02*
X128400000Y-100850000I699999J1D01*
G01*
X128400000Y-104950000D02*
G75*
G02*
X127700000Y-104250000I0J700000D01*
G01*
X129000000Y-100850000D02*
G75*
G02*
X129700000Y-101550000I1J-699999D01*
G01*
X129700000Y-104250000D02*
G75*
G02*
X129000000Y-104950000I-700000J0D01*
G01*
%TO.C,JP5*%
X189450000Y-106925000D02*
X189450000Y-104125000D01*
X190150000Y-103475000D02*
X190750000Y-103475000D01*
X190750000Y-107575000D02*
X190150000Y-107575000D01*
X191450000Y-104125000D02*
X191450000Y-106925000D01*
X189450000Y-104175000D02*
G75*
G02*
X190150000Y-103475000I699999J1D01*
G01*
X190150000Y-107575000D02*
G75*
G02*
X189450000Y-106875000I0J700000D01*
G01*
X190750000Y-103475000D02*
G75*
G02*
X191450000Y-104175000I1J-699999D01*
G01*
X191450000Y-106875000D02*
G75*
G02*
X190750000Y-107575000I-700000J0D01*
G01*
%TO.C,R5*%
X156890000Y-112027064D02*
X156890000Y-111572936D01*
X158360000Y-112027064D02*
X158360000Y-111572936D01*
%TO.C,R13*%
X117452064Y-93115000D02*
X116997936Y-93115000D01*
X117452064Y-94585000D02*
X116997936Y-94585000D01*
%TO.C,R14*%
X143290000Y-112052064D02*
X143290000Y-111597936D01*
X144760000Y-112052064D02*
X144760000Y-111597936D01*
%TO.C,R11*%
X186190000Y-106227064D02*
X186190000Y-105772936D01*
X187660000Y-106227064D02*
X187660000Y-105772936D01*
%TO.C,C7*%
X148115000Y-106151248D02*
X148115000Y-106673752D01*
X149585000Y-106151248D02*
X149585000Y-106673752D01*
%TO.C,R6*%
X139840000Y-112077064D02*
X139840000Y-111622936D01*
X141310000Y-112077064D02*
X141310000Y-111622936D01*
%TO.C,C15*%
X156365000Y-106673752D02*
X156365000Y-106151248D01*
X157835000Y-106673752D02*
X157835000Y-106151248D01*
%TO.C,R18*%
X186215000Y-102102064D02*
X186215000Y-101647936D01*
X187685000Y-102102064D02*
X187685000Y-101647936D01*
%TO.C,D3*%
X194475000Y-89685000D02*
X197335000Y-89685000D01*
X197335000Y-87765000D02*
X194475000Y-87765000D01*
X197335000Y-89685000D02*
X197335000Y-87765000D01*
%TO.C,C2*%
X153615000Y-106151248D02*
X153615000Y-106673752D01*
X155085000Y-106151248D02*
X155085000Y-106673752D01*
%TO.C,U1*%
X148890000Y-92065000D02*
X149840000Y-92065000D01*
X148890000Y-93015000D02*
X148890000Y-92065000D01*
X148890000Y-102285000D02*
X148890000Y-101335000D01*
X149840000Y-102285000D02*
X148890000Y-102285000D01*
X158160000Y-92065000D02*
X159110000Y-92065000D01*
X159110000Y-92065000D02*
X159110000Y-93015000D01*
X159110000Y-101335000D02*
X159110000Y-102285000D01*
X159110000Y-102285000D02*
X158160000Y-102285000D01*
X148250000Y-93015000D02*
X147910000Y-92545000D01*
X148590000Y-92545000D01*
X148250000Y-93015000D01*
G36*
X148250000Y-93015000D02*
G01*
X147910000Y-92545000D01*
X148590000Y-92545000D01*
X148250000Y-93015000D01*
G37*
%TO.C,JP3*%
X198150000Y-106775000D02*
X198150000Y-103975000D01*
X198850000Y-103325000D02*
X199450000Y-103325000D01*
X199450000Y-107425000D02*
X198850000Y-107425000D01*
X200150000Y-103975000D02*
X200150000Y-106775000D01*
X198150000Y-104025000D02*
G75*
G02*
X198850000Y-103325000I699999J1D01*
G01*
X198850000Y-107425000D02*
G75*
G02*
X198150000Y-106725000I0J700000D01*
G01*
X199450000Y-103325000D02*
G75*
G02*
X200150000Y-104025000I1J-699999D01*
G01*
X200150000Y-106725000D02*
G75*
G02*
X199450000Y-107425000I-700000J0D01*
G01*
%TO.C,SW2*%
X105000000Y-90625000D02*
X105000000Y-92825000D01*
X105000000Y-96925000D02*
X105000000Y-99225000D01*
X109800000Y-90625000D02*
X109800000Y-99225000D01*
%TO.C,R15*%
X146790000Y-112027064D02*
X146790000Y-111572936D01*
X148260000Y-112027064D02*
X148260000Y-111572936D01*
%TO.C,C13*%
X159090000Y-106673752D02*
X159090000Y-106151248D01*
X160560000Y-106673752D02*
X160560000Y-106151248D01*
%TO.C,C5*%
X142590000Y-106151248D02*
X142590000Y-106673752D01*
X144060000Y-106151248D02*
X144060000Y-106673752D01*
%TO.C,R24*%
X135147936Y-108215000D02*
X135602064Y-108215000D01*
X135147936Y-109685000D02*
X135602064Y-109685000D01*
%TO.C,R17*%
X124065000Y-102627064D02*
X124065000Y-102172936D01*
X125535000Y-102627064D02*
X125535000Y-102172936D01*
%TO.C,C12*%
X141065000Y-92323752D02*
X141065000Y-91801248D01*
X142535000Y-92323752D02*
X142535000Y-91801248D01*
%TO.C,J3*%
X132285000Y-115955000D02*
X133615000Y-115955000D01*
X132285000Y-117285000D02*
X132285000Y-115955000D01*
X132285000Y-118555000D02*
X134885000Y-118555000D01*
X132285000Y-121155000D02*
X132285000Y-118555000D01*
X132285000Y-121155000D02*
X173045000Y-121155000D01*
X134885000Y-115955000D02*
X173045000Y-115955000D01*
X134885000Y-118555000D02*
X134885000Y-115955000D01*
X173045000Y-121155000D02*
X173045000Y-115955000D01*
%TO.C,C16*%
X166515000Y-106798752D02*
X166515000Y-106276248D01*
X167985000Y-106798752D02*
X167985000Y-106276248D01*
%TO.C,SW1*%
X116550000Y-86025000D02*
X116550000Y-86075000D01*
X116550000Y-86025000D02*
X121450000Y-86025000D01*
X116550000Y-87725000D02*
X116550000Y-89225000D01*
X116550000Y-90925000D02*
X116550000Y-90875000D01*
X116550000Y-90925000D02*
X121450000Y-90925000D01*
X121450000Y-86025000D02*
X121450000Y-86075000D01*
X121450000Y-87725000D02*
X121450000Y-89225000D01*
X121450000Y-90925000D02*
X121450000Y-90875000D01*
%TO.C,U2*%
X168140000Y-93340000D02*
X172260000Y-93340000D01*
X168140000Y-93435000D02*
X168140000Y-93340000D01*
X168140000Y-98460000D02*
X168140000Y-98365000D01*
X172260000Y-93340000D02*
X172260000Y-93435000D01*
X172260000Y-98365000D02*
X172260000Y-98460000D01*
X172260000Y-98460000D02*
X168140000Y-98460000D01*
X167600000Y-93430000D02*
X167360000Y-93100000D01*
X167840000Y-93100000D01*
X167600000Y-93430000D01*
G36*
X167600000Y-93430000D02*
G01*
X167360000Y-93100000D01*
X167840000Y-93100000D01*
X167600000Y-93430000D01*
G37*
%TO.C,R16*%
X150340000Y-112027064D02*
X150340000Y-111572936D01*
X151810000Y-112027064D02*
X151810000Y-111572936D01*
%TO.C,C4*%
X117001248Y-96565000D02*
X117523752Y-96565000D01*
X117001248Y-98035000D02*
X117523752Y-98035000D01*
%TO.C,R20*%
X184247936Y-91390000D02*
X184702064Y-91390000D01*
X184247936Y-92860000D02*
X184702064Y-92860000D01*
%TO.C,C8*%
X162648752Y-90315000D02*
X162126248Y-90315000D01*
X162648752Y-91785000D02*
X162126248Y-91785000D01*
%TO.C,C6*%
X145365000Y-106151248D02*
X145365000Y-106673752D01*
X146835000Y-106151248D02*
X146835000Y-106673752D01*
%TO.C,D2*%
X188950000Y-89710000D02*
X191810000Y-89710000D01*
X191810000Y-87790000D02*
X188950000Y-87790000D01*
X191810000Y-89710000D02*
X191810000Y-87790000D01*
%TO.C,R23*%
X135222936Y-104715000D02*
X135677064Y-104715000D01*
X135222936Y-106185000D02*
X135677064Y-106185000D01*
%TO.C,R9*%
X194890000Y-101427064D02*
X194890000Y-100972936D01*
X196360000Y-101427064D02*
X196360000Y-100972936D01*
%TO.C,J1*%
X106020000Y-104365000D02*
X106020000Y-119665000D01*
X106020000Y-104365000D02*
X108680000Y-104365000D01*
X106020000Y-119665000D02*
X108680000Y-119665000D01*
X107350000Y-101765000D02*
X108680000Y-101765000D01*
X108680000Y-101765000D02*
X108680000Y-103095000D01*
X108680000Y-104365000D02*
X108680000Y-119665000D01*
%TO.C,R19*%
X124065000Y-93627064D02*
X124065000Y-93172936D01*
X125535000Y-93627064D02*
X125535000Y-93172936D01*
%TO.C,C11*%
X144461248Y-100535000D02*
X144983752Y-100535000D01*
X144461248Y-102005000D02*
X144983752Y-102005000D01*
%TO.C,R1*%
X124115000Y-117202064D02*
X124115000Y-116747936D01*
X125585000Y-117202064D02*
X125585000Y-116747936D01*
%TO.C,R21*%
X189722936Y-91440000D02*
X190177064Y-91440000D01*
X189722936Y-92910000D02*
X190177064Y-92910000D01*
%TO.C,JP6*%
X127700000Y-95300000D02*
X127700000Y-92500000D01*
X128400000Y-91850000D02*
X129000000Y-91850000D01*
X129000000Y-95950000D02*
X128400000Y-95950000D01*
X129700000Y-92500000D02*
X129700000Y-95300000D01*
X127700000Y-92550000D02*
G75*
G02*
X128400000Y-91850000I699999J1D01*
G01*
X128400000Y-95950000D02*
G75*
G02*
X127700000Y-95250000I0J700000D01*
G01*
X129000000Y-91850000D02*
G75*
G02*
X129700000Y-92550000I1J-699999D01*
G01*
X129700000Y-95250000D02*
G75*
G02*
X129000000Y-95950000I-700000J0D01*
G01*
%TO.C,C10*%
X145376248Y-90315000D02*
X145898752Y-90315000D01*
X145376248Y-91785000D02*
X145898752Y-91785000D01*
%TO.C,R4*%
X153590000Y-112027064D02*
X153590000Y-111572936D01*
X155060000Y-112027064D02*
X155060000Y-111572936D01*
%TO.C,D1*%
X183475000Y-89660000D02*
X186335000Y-89660000D01*
X186335000Y-87740000D02*
X183475000Y-87740000D01*
X186335000Y-89660000D02*
X186335000Y-87740000D01*
%TO.C,R10*%
X124115000Y-107102064D02*
X124115000Y-106647936D01*
X125585000Y-107102064D02*
X125585000Y-106647936D01*
%TO.C,C9*%
X161923752Y-102015000D02*
X161401248Y-102015000D01*
X161923752Y-103485000D02*
X161401248Y-103485000D01*
%TO.C,R22*%
X195222936Y-91315000D02*
X195677064Y-91315000D01*
X195222936Y-92785000D02*
X195677064Y-92785000D01*
%TO.C,R7*%
X124115000Y-112402064D02*
X124115000Y-111947936D01*
X125585000Y-112402064D02*
X125585000Y-111947936D01*
%TO.C,C1*%
X150840000Y-106151248D02*
X150840000Y-106673752D01*
X152310000Y-106151248D02*
X152310000Y-106673752D01*
%TD*%
M02*
