%TF.GenerationSoftware,KiCad,Pcbnew,10.0.3*%
%TF.CreationDate,2026-08-04T01:15:28+07:00*%
%TF.ProjectId,STM32 V2,53544d33-3220-4563-922e-6b696361645f,rev?*%
%TF.SameCoordinates,Original*%
%TF.FileFunction,Copper,L2,Inr*%
%TF.FilePolarity,Positive*%
%FSLAX46Y46*%
G04 Gerber Fmt 4.6, Leading zero omitted, Abs format (unit mm)*
G04 Created by KiCad (PCBNEW 10.0.3) date 2026-08-04 01:15:28*
%MOMM*%
%LPD*%
G01*
G04 APERTURE LIST*
%TA.AperFunction,ComponentPad*%
%ADD10R,2.500000X1.750000*%
%TD*%
%TA.AperFunction,ComponentPad*%
%ADD11O,2.500000X1.750000*%
%TD*%
%TA.AperFunction,ComponentPad*%
%ADD12R,1.700000X1.700000*%
%TD*%
%TA.AperFunction,ComponentPad*%
%ADD13C,1.700000*%
%TD*%
%TA.AperFunction,ViaPad*%
%ADD14C,0.600000*%
%TD*%
%TA.AperFunction,Conductor*%
%ADD15C,0.200000*%
%TD*%
G04 APERTURE END LIST*
D10*
%TO.N,GND*%
%TO.C,SW2*%
X107750000Y-92425000D03*
D11*
%TO.N,Net-(SW2-B)*%
X107750000Y-94925000D03*
%TO.N,+3.3V*%
X107750000Y-97425000D03*
%TD*%
D12*
%TO.N,Ch8_MCU*%
%TO.C,J3*%
X133615000Y-117285000D03*
D13*
%TO.N,CS8*%
X133615000Y-119825000D03*
%TO.N,CS4*%
X136155000Y-117285000D03*
%TO.N,+3.3V*%
X136155000Y-119825000D03*
%TO.N,Ch10_MCU*%
X138695000Y-117285000D03*
%TO.N,Ch3_MCU*%
X138695000Y-119825000D03*
%TO.N,CS10*%
X141235000Y-117285000D03*
%TO.N,Ch6_MCU*%
X141235000Y-119825000D03*
%TO.N,CS6*%
X143775000Y-117285000D03*
%TO.N,Ch4_MCU*%
X143775000Y-119825000D03*
%TO.N,CS3*%
X146315000Y-117285000D03*
%TO.N,Aux3*%
X146315000Y-119825000D03*
%TO.N,Aux6*%
X148855000Y-117285000D03*
%TO.N,GND*%
X148855000Y-119825000D03*
%TO.N,Can-*%
X151395000Y-117285000D03*
%TO.N,Aux2*%
X151395000Y-119825000D03*
%TO.N,Can+*%
X153935000Y-117285000D03*
%TO.N,+BATT*%
X153935000Y-119825000D03*
%TO.N,Aux1*%
X156475000Y-117285000D03*
%TO.N,unconnected-(J3-Pin_20-Pad20)*%
X156475000Y-119825000D03*
%TO.N,Aux5*%
X159015000Y-117285000D03*
%TO.N,CS2*%
X159015000Y-119825000D03*
%TO.N,Aux4*%
X161555000Y-117285000D03*
%TO.N,CS5*%
X161555000Y-119825000D03*
%TO.N,CS9*%
X164095000Y-117285000D03*
%TO.N,Ch1_MCU*%
X164095000Y-119825000D03*
%TO.N,CS7*%
X166635000Y-117285000D03*
%TO.N,Ch5_MCU*%
X166635000Y-119825000D03*
%TO.N,Ch9_MCU*%
X169175000Y-117285000D03*
%TO.N,Ch2_MCU*%
X169175000Y-119825000D03*
%TO.N,CS1*%
X171715000Y-117285000D03*
%TO.N,Ch7_MCU*%
X171715000Y-119825000D03*
%TD*%
D12*
%TO.N,GND*%
%TO.C,J1*%
X107350000Y-103095000D03*
D13*
%TO.N,+3.3V*%
X107350000Y-105635000D03*
%TO.N,Net-(J1-Pin_3)*%
X107350000Y-108175000D03*
%TO.N,SWCLK*%
X107350000Y-110715000D03*
%TO.N,SWDIO*%
X107350000Y-113255000D03*
%TO.N,USART1_TX*%
X107350000Y-115795000D03*
%TO.N,USART1_RX*%
X107350000Y-118335000D03*
%TD*%
D14*
%TO.N,Aux2*%
X181300000Y-109200000D03*
%TO.N,GND*%
X141800000Y-87200000D03*
X115000000Y-123000000D03*
X200000000Y-91000000D03*
X150800000Y-93500000D03*
X153000000Y-93000000D03*
X171000000Y-102000000D03*
X203000000Y-90000000D03*
X113000000Y-121000000D03*
X202000000Y-91000000D03*
X202000000Y-90000000D03*
X203000000Y-89000000D03*
X156000000Y-110400000D03*
X171000000Y-109000000D03*
X167000000Y-92000000D03*
X113000000Y-122000000D03*
X117000000Y-121000000D03*
X201000000Y-92000000D03*
X112200000Y-101600000D03*
X157000000Y-94000000D03*
X203000000Y-92000000D03*
X200000000Y-89000000D03*
X114000000Y-103200000D03*
X201000000Y-91000000D03*
X113000000Y-123000000D03*
X200000000Y-90000000D03*
X117000000Y-122000000D03*
X202000000Y-92000000D03*
X159300000Y-112200000D03*
X115000000Y-120000000D03*
X146900000Y-100100000D03*
X157000000Y-93000000D03*
X114000000Y-121000000D03*
X114000000Y-123000000D03*
X180000000Y-87900000D03*
X176900000Y-93400000D03*
X200000000Y-92000000D03*
X153000000Y-94000000D03*
X172000000Y-110000000D03*
X116000000Y-123000000D03*
X115400000Y-101800000D03*
X113000000Y-120000000D03*
X153000000Y-107500000D03*
X201000000Y-89000000D03*
X114000000Y-120000000D03*
X142500000Y-86600000D03*
X161400000Y-121600000D03*
X149800000Y-107100000D03*
X119000000Y-123000000D03*
X203000000Y-91000000D03*
X176000000Y-93000000D03*
X116000000Y-120000000D03*
X146700000Y-109000000D03*
X163000000Y-87000000D03*
X116000000Y-121000000D03*
X118000000Y-122000000D03*
X140600000Y-109100000D03*
X115000000Y-122000000D03*
X143200000Y-90900000D03*
X202000000Y-89000000D03*
X118000000Y-123000000D03*
X150000000Y-124100000D03*
X172000000Y-103000000D03*
X116000000Y-122000000D03*
X117000000Y-123000000D03*
X164000000Y-88000000D03*
X119000000Y-108000000D03*
X114000000Y-122000000D03*
X166000000Y-92000000D03*
X144000000Y-109200000D03*
X120800000Y-106100000D03*
X180000000Y-91000000D03*
X201000000Y-90000000D03*
X165900000Y-104300000D03*
X115000000Y-121000000D03*
%TO.N,Aux3*%
X195600000Y-109300000D03*
%TO.N,Net-(JP1-C)*%
X152800000Y-111900000D03*
X132700000Y-112700000D03*
%TO.N,Aux1*%
X151400000Y-114900000D03*
X140000000Y-114900000D03*
X128800000Y-116400000D03*
%TO.N,Aux6*%
X128900000Y-97300000D03*
%TO.N,Net-(JP4-C)*%
X131400000Y-103000000D03*
X142300000Y-112000000D03*
%TO.N,Aux4*%
X126700000Y-108000000D03*
%TO.N,Net-(JP5-C)*%
X149300000Y-110700000D03*
X188800000Y-105600000D03*
%TO.N,Aux5*%
X185300000Y-107100000D03*
%TO.N,AUX4_STM*%
X151200000Y-101300000D03*
X144900000Y-104000000D03*
%TO.N,Led3*%
X161525000Y-99025000D03*
X196600000Y-86700000D03*
%TO.N,CS7*%
X150450000Y-95650000D03*
%TO.N,CS8*%
X150500000Y-96600000D03*
%TO.N,CS9*%
X150600000Y-98300000D03*
%TO.N,CS1*%
X144400000Y-96200000D03*
%TO.N,CS10*%
X145100000Y-97915686D03*
%TO.N,CS2*%
X145200000Y-99000000D03*
%TO.N,CS3*%
X146600000Y-103400000D03*
%TO.N,CS4*%
X151400000Y-100100000D03*
X138500000Y-102400000D03*
%TO.N,Net-(U1-PB0)*%
X153700000Y-101400000D03*
X136500000Y-102400000D03*
%TO.N,CS5*%
X165924265Y-99675735D03*
%TO.N,CS6*%
X147500000Y-109600000D03*
X153000000Y-97351473D03*
%TO.N,Led1*%
X185600000Y-86800000D03*
X156800000Y-97600000D03*
%TO.N,Led2*%
X157800000Y-98800000D03*
X190900000Y-86700000D03*
%TO.N,Ch1_MCU*%
X162800000Y-98900000D03*
%TO.N,Ch2_MCU*%
X163500000Y-99600000D03*
%TO.N,Ch3_MCU*%
X165200000Y-98900000D03*
%TO.N,Ch4_MCU*%
X165500000Y-95200000D03*
%TO.N,Ch5_MCU*%
X164400000Y-95100000D03*
%TO.N,Ch6_MCU*%
X163400000Y-94900000D03*
%TO.N,Ch7_MCU*%
X162300000Y-95000000D03*
%TO.N,SWDIO*%
X159000000Y-88700000D03*
%TO.N,SWCLK*%
X157700000Y-87500000D03*
%TO.N,Ch8_MCU*%
X156600000Y-88900000D03*
%TO.N,Ch9_MCU*%
X155400000Y-89000000D03*
%TO.N,Ch10_MCU*%
X154400000Y-89700000D03*
%TO.N,USART1_TX*%
X151100000Y-88000000D03*
%TO.N,USART1_RX*%
X151400000Y-88900000D03*
%TO.N,Net-(SW2-B)*%
X145100000Y-87800000D03*
%TO.N,Net-(JP6-C)*%
X132600000Y-96700000D03*
X149300000Y-111900000D03*
%TD*%
%TO.N,Net-(JP1-C)*%
D15*
X132700000Y-112700000D02*
X152000000Y-112700000D01*
X152000000Y-112700000D02*
X152800000Y-111900000D01*
%TO.N,Aux1*%
X151400000Y-114900000D02*
X140000000Y-114900000D01*
%TO.N,Net-(JP4-C)*%
X139900000Y-112000000D02*
X138300000Y-110400000D01*
X138300000Y-110400000D02*
X138300000Y-107900000D01*
X133400000Y-103000000D02*
X131400000Y-103000000D01*
X142300000Y-112000000D02*
X139900000Y-112000000D01*
X138300000Y-107900000D02*
X133400000Y-103000000D01*
%TO.N,AUX4_STM*%
X147800000Y-104300000D02*
X145200000Y-104300000D01*
X145200000Y-104300000D02*
X144900000Y-104000000D01*
X150800000Y-101300000D02*
X147800000Y-104300000D01*
X151200000Y-101300000D02*
X150800000Y-101300000D01*
%TO.N,Led3*%
X162751471Y-98100000D02*
X161900000Y-98951471D01*
X192900000Y-97000000D02*
X191800000Y-98100000D01*
X193700000Y-86700000D02*
X192900000Y-87500000D01*
X196600000Y-86700000D02*
X193700000Y-86700000D01*
X192900000Y-87500000D02*
X192900000Y-97000000D01*
X161900000Y-98951471D02*
X161598529Y-98951471D01*
X161598529Y-98951471D02*
X161525000Y-99025000D01*
X191800000Y-98100000D02*
X162751471Y-98100000D01*
%TO.N,CS4*%
X147751471Y-102400000D02*
X138500000Y-102400000D01*
X151400000Y-100100000D02*
X150051471Y-100100000D01*
X150051471Y-100100000D02*
X147751471Y-102400000D01*
%TO.N,Net-(U1-PB0)*%
X154000000Y-96351471D02*
X152698529Y-95050000D01*
X152698529Y-95050000D02*
X143850000Y-95050000D01*
X143850000Y-95050000D02*
X136500000Y-102400000D01*
X154000000Y-101100000D02*
X154000000Y-96351471D01*
X153700000Y-101400000D02*
X154000000Y-101100000D01*
%TO.N,CS5*%
X165924265Y-99675735D02*
X179100000Y-112851470D01*
X179100000Y-117865686D02*
X175165686Y-121800000D01*
X175165686Y-121800000D02*
X163530000Y-121800000D01*
X163530000Y-121800000D02*
X161555000Y-119825000D01*
X179100000Y-112851470D02*
X179100000Y-117865686D01*
%TO.N,CS6*%
X152400000Y-97600000D02*
X152648527Y-97351473D01*
X152648527Y-97351473D02*
X153000000Y-97351473D01*
X147500000Y-109600000D02*
X147600000Y-109500000D01*
X148300000Y-109500000D02*
X152400000Y-105400000D01*
X147600000Y-109500000D02*
X148300000Y-109500000D01*
X152400000Y-105400000D02*
X152400000Y-97600000D01*
%TO.N,Led1*%
X165600000Y-88800000D02*
X156800000Y-97600000D01*
X185600000Y-86800000D02*
X183000000Y-86800000D01*
X183000000Y-86800000D02*
X181000000Y-88800000D01*
X181000000Y-88800000D02*
X165600000Y-88800000D01*
%TO.N,Led2*%
X186600000Y-89800000D02*
X165700000Y-89800000D01*
X187400000Y-89000000D02*
X186600000Y-89800000D01*
X188200000Y-86700000D02*
X187400000Y-87500000D01*
X157800000Y-97700000D02*
X157800000Y-98800000D01*
X190900000Y-86700000D02*
X188200000Y-86700000D01*
X165700000Y-89800000D02*
X157800000Y-97700000D01*
X187400000Y-87500000D02*
X187400000Y-89000000D01*
%TO.N,Ch1_MCU*%
X178700000Y-117700000D02*
X175025000Y-121375000D01*
X165645000Y-121375000D02*
X164095000Y-119825000D01*
X175025000Y-121375000D02*
X165645000Y-121375000D01*
X162800000Y-98900000D02*
X164300000Y-98900000D01*
X164300000Y-98900000D02*
X178700000Y-113300000D01*
X178700000Y-113300000D02*
X178700000Y-117700000D01*
%TO.N,Ch2_MCU*%
X163500000Y-99700000D02*
X163800000Y-100000000D01*
X170325000Y-120975000D02*
X169175000Y-119825000D01*
X178200000Y-113500000D02*
X178200000Y-117500000D01*
X174725000Y-120975000D02*
X170325000Y-120975000D01*
X164700000Y-100000000D02*
X178200000Y-113500000D01*
X163800000Y-100000000D02*
X164700000Y-100000000D01*
X178200000Y-117500000D02*
X174725000Y-120975000D01*
X163500000Y-99600000D02*
X163500000Y-99700000D01*
%TO.N,Ch3_MCU*%
X175500000Y-122200000D02*
X141070000Y-122200000D01*
X141070000Y-122200000D02*
X138695000Y-119825000D01*
X165200000Y-98900000D02*
X166200000Y-98900000D01*
X166200000Y-98900000D02*
X179700000Y-112400000D01*
X179700000Y-112400000D02*
X179700000Y-118000000D01*
X179700000Y-118000000D02*
X175500000Y-122200000D01*
%TO.N,Ch7_MCU*%
X171890000Y-120000000D02*
X171715000Y-119825000D01*
X160900000Y-107100000D02*
X166600000Y-112800000D01*
X166600000Y-112800000D02*
X176300000Y-112800000D01*
X162300000Y-95000000D02*
X160900000Y-96400000D01*
X176300000Y-112800000D02*
X177600000Y-114100000D01*
X174800000Y-120000000D02*
X171890000Y-120000000D01*
X177600000Y-117200000D02*
X174800000Y-120000000D01*
X177600000Y-114100000D02*
X177600000Y-117200000D01*
X160900000Y-96400000D02*
X160900000Y-107100000D01*
%TO.N,SWDIO*%
X147500000Y-89500000D02*
X131105000Y-89500000D01*
X157400000Y-88700000D02*
X156100000Y-87400000D01*
X156100000Y-87400000D02*
X149600000Y-87400000D01*
X131105000Y-89500000D02*
X107350000Y-113255000D01*
X159000000Y-88700000D02*
X157400000Y-88700000D01*
X149600000Y-87400000D02*
X147500000Y-89500000D01*
%TO.N,SWCLK*%
X157700000Y-87500000D02*
X157200000Y-87000000D01*
X108585000Y-110715000D02*
X107350000Y-110715000D01*
X149100000Y-87000000D02*
X147200000Y-88900000D01*
X130400000Y-88900000D02*
X108585000Y-110715000D01*
X157200000Y-87000000D02*
X149100000Y-87000000D01*
X147200000Y-88900000D02*
X130400000Y-88900000D01*
%TO.N,Ch8_MCU*%
X130700000Y-96800000D02*
X130700000Y-114370000D01*
X133000000Y-94500000D02*
X130700000Y-96800000D01*
X156600000Y-88900000D02*
X155600000Y-87900000D01*
X130700000Y-114370000D02*
X133615000Y-117285000D01*
X146700000Y-94500000D02*
X133000000Y-94500000D01*
X155600000Y-87900000D02*
X153300000Y-87900000D01*
X153300000Y-87900000D02*
X146700000Y-94500000D01*
%TO.N,Ch9_MCU*%
X156100000Y-113500000D02*
X168500000Y-113500000D01*
X155400000Y-89000000D02*
X155300000Y-89000000D01*
X155100000Y-89200000D02*
X155100000Y-112500000D01*
X155100000Y-112500000D02*
X156100000Y-113500000D01*
X169175000Y-114175000D02*
X169175000Y-117285000D01*
X168500000Y-113500000D02*
X169175000Y-114175000D01*
X155300000Y-89000000D02*
X155100000Y-89200000D01*
%TO.N,Ch10_MCU*%
X151900000Y-116000000D02*
X139980000Y-116000000D01*
X154400000Y-113500000D02*
X151900000Y-116000000D01*
X154400000Y-89700000D02*
X154400000Y-113500000D01*
X139980000Y-116000000D02*
X138695000Y-117285000D01*
%TO.N,USART1_TX*%
X150600000Y-88000000D02*
X148400000Y-90200000D01*
X132622500Y-90200000D02*
X107350000Y-115472500D01*
X148400000Y-90200000D02*
X132622500Y-90200000D01*
X107350000Y-115472500D02*
X107350000Y-115795000D01*
X151100000Y-88000000D02*
X150600000Y-88000000D01*
%TO.N,USART1_RX*%
X147400000Y-92000000D02*
X132200000Y-92000000D01*
X151400000Y-88900000D02*
X150974265Y-89325735D01*
X132200000Y-92000000D02*
X110300000Y-113900000D01*
X150074265Y-89325735D02*
X147400000Y-92000000D01*
X150974265Y-89325735D02*
X150074265Y-89325735D01*
X110300000Y-115385000D02*
X107350000Y-118335000D01*
X110300000Y-113900000D02*
X110300000Y-115385000D01*
%TO.N,Net-(SW2-B)*%
X115800000Y-87800000D02*
X108675000Y-94925000D01*
X108675000Y-94925000D02*
X107750000Y-94925000D01*
X145100000Y-87800000D02*
X115800000Y-87800000D01*
%TO.N,Net-(JP6-C)*%
X145000000Y-111900000D02*
X149300000Y-111900000D01*
X132600000Y-96700000D02*
X132600000Y-99500000D01*
X132600000Y-99500000D02*
X145000000Y-111900000D01*
%TD*%
%TA.AperFunction,Conductor*%
%TO.N,GND*%
G36*
X162284814Y-99082880D02*
G01*
X162295319Y-99083632D01*
X162315336Y-99098616D01*
X162337558Y-99110072D01*
X162347456Y-99122659D01*
X162351254Y-99125502D01*
X162359372Y-99137810D01*
X162399500Y-99207314D01*
X162492686Y-99300500D01*
X162606814Y-99366392D01*
X162734108Y-99400500D01*
X162734110Y-99400500D01*
X162874019Y-99400500D01*
X162874019Y-99403600D01*
X162928540Y-99412085D01*
X162980810Y-99458449D01*
X162999716Y-99525712D01*
X162999500Y-99528745D01*
X162999500Y-99534108D01*
X162999500Y-99665892D01*
X163008505Y-99699500D01*
X163033608Y-99793187D01*
X163064049Y-99845912D01*
X163099500Y-99907314D01*
X163192686Y-100000500D01*
X163306814Y-100066392D01*
X163434108Y-100100500D01*
X163434119Y-100100500D01*
X163440071Y-100101284D01*
X163503969Y-100129548D01*
X163511572Y-100136543D01*
X163559540Y-100184511D01*
X163615489Y-100240460D01*
X163615491Y-100240461D01*
X163615495Y-100240464D01*
X163684004Y-100280017D01*
X163684011Y-100280021D01*
X163760438Y-100300500D01*
X164524167Y-100300500D01*
X164591206Y-100320185D01*
X164611848Y-100336819D01*
X176651263Y-112376234D01*
X176661474Y-112394935D01*
X176675650Y-112410843D01*
X176677884Y-112424987D01*
X176684748Y-112437557D01*
X176683228Y-112458810D01*
X176686553Y-112479856D01*
X176680785Y-112492963D01*
X176679764Y-112507249D01*
X176666993Y-112524307D01*
X176658413Y-112543809D01*
X176646473Y-112551718D01*
X176637892Y-112563182D01*
X176617929Y-112570627D01*
X176600165Y-112582396D01*
X176585844Y-112582594D01*
X176572428Y-112587599D01*
X176551609Y-112583070D01*
X176530302Y-112583366D01*
X176512804Y-112574628D01*
X176504155Y-112572747D01*
X176497997Y-112569151D01*
X176487712Y-112562741D01*
X176484511Y-112559540D01*
X176460042Y-112545413D01*
X176431020Y-112528657D01*
X176415990Y-112519979D01*
X176390513Y-112513152D01*
X176339562Y-112499500D01*
X176339560Y-112499500D01*
X166775833Y-112499500D01*
X166708794Y-112479815D01*
X166688152Y-112463181D01*
X161236819Y-107011848D01*
X161203334Y-106950525D01*
X161200500Y-106924167D01*
X161200500Y-99617806D01*
X161220185Y-99550767D01*
X161272989Y-99505012D01*
X161342147Y-99495068D01*
X161356585Y-99498029D01*
X161459108Y-99525500D01*
X161459110Y-99525500D01*
X161590890Y-99525500D01*
X161590892Y-99525500D01*
X161718186Y-99491392D01*
X161832314Y-99425500D01*
X161925500Y-99332314D01*
X161952519Y-99285514D01*
X162003081Y-99237303D01*
X162012464Y-99232951D01*
X162015984Y-99231493D01*
X162015989Y-99231492D01*
X162015993Y-99231489D01*
X162015997Y-99231488D01*
X162080204Y-99194417D01*
X162084511Y-99191931D01*
X162140460Y-99135982D01*
X162164306Y-99112134D01*
X162186248Y-99100153D01*
X162205902Y-99084697D01*
X162216384Y-99083696D01*
X162225627Y-99078649D01*
X162250567Y-99080432D01*
X162275455Y-99078056D01*
X162284814Y-99082880D01*
G37*
%TD.AperFunction*%
%TA.AperFunction,Conductor*%
G36*
X143442206Y-94820185D02*
G01*
X143487961Y-94872989D01*
X143497905Y-94942147D01*
X143468880Y-95005703D01*
X143462848Y-95012180D01*
X140028115Y-98446913D01*
X136611847Y-101863181D01*
X136550524Y-101896666D01*
X136524166Y-101899500D01*
X136434108Y-101899500D01*
X136306812Y-101933608D01*
X136192686Y-101999500D01*
X136192683Y-101999502D01*
X136099502Y-102092683D01*
X136099500Y-102092686D01*
X136033609Y-102206811D01*
X136025413Y-102237400D01*
X135989047Y-102297060D01*
X135926200Y-102327588D01*
X135856824Y-102319293D01*
X135817957Y-102292986D01*
X132936819Y-99411848D01*
X132903334Y-99350525D01*
X132900500Y-99324167D01*
X132900500Y-97158676D01*
X132920185Y-97091637D01*
X132936819Y-97070995D01*
X132968254Y-97039560D01*
X133000500Y-97007314D01*
X133066392Y-96893186D01*
X133100500Y-96765892D01*
X133100500Y-96634108D01*
X133066392Y-96506814D01*
X133065432Y-96505152D01*
X133021059Y-96428296D01*
X133000500Y-96392686D01*
X132907314Y-96299500D01*
X132849100Y-96265890D01*
X132793187Y-96233608D01*
X132725557Y-96215487D01*
X132665892Y-96199500D01*
X132534108Y-96199500D01*
X132406812Y-96233608D01*
X132292686Y-96299500D01*
X132292683Y-96299502D01*
X132199502Y-96392683D01*
X132199500Y-96392686D01*
X132133608Y-96506812D01*
X132099500Y-96634108D01*
X132099500Y-96765891D01*
X132133608Y-96893187D01*
X132151670Y-96924471D01*
X132199500Y-97007314D01*
X132199502Y-97007316D01*
X132263181Y-97070995D01*
X132296666Y-97132318D01*
X132299500Y-97158676D01*
X132299500Y-99539562D01*
X132309130Y-99575500D01*
X132319979Y-99615990D01*
X132319982Y-99615995D01*
X132359535Y-99684504D01*
X132359539Y-99684509D01*
X132359540Y-99684511D01*
X144759540Y-112084511D01*
X144815489Y-112140460D01*
X144815490Y-112140461D01*
X144815492Y-112140462D01*
X144863385Y-112168113D01*
X144911600Y-112218680D01*
X144924824Y-112287287D01*
X144898856Y-112352152D01*
X144841942Y-112392680D01*
X144801385Y-112399500D01*
X142862051Y-112399500D01*
X142795012Y-112379815D01*
X142749257Y-112327011D01*
X142739313Y-112257853D01*
X142754664Y-112213499D01*
X142758235Y-112207314D01*
X142766392Y-112193186D01*
X142800500Y-112065892D01*
X142800500Y-111934108D01*
X142766392Y-111806814D01*
X142700500Y-111692686D01*
X142607314Y-111599500D01*
X142537185Y-111559011D01*
X142493187Y-111533608D01*
X142429539Y-111516554D01*
X142365892Y-111499500D01*
X142234108Y-111499500D01*
X142106812Y-111533608D01*
X141992686Y-111599500D01*
X141992683Y-111599502D01*
X141929005Y-111663181D01*
X141867682Y-111696666D01*
X141841324Y-111699500D01*
X140075833Y-111699500D01*
X140008794Y-111679815D01*
X139988152Y-111663181D01*
X138636819Y-110311848D01*
X138603334Y-110250525D01*
X138600500Y-110224167D01*
X138600500Y-107860439D01*
X138586131Y-107806814D01*
X138580021Y-107784011D01*
X138580017Y-107784004D01*
X138540464Y-107715495D01*
X138540458Y-107715487D01*
X133584512Y-102759541D01*
X133584507Y-102759537D01*
X133575065Y-102754086D01*
X133575064Y-102754086D01*
X133515991Y-102719980D01*
X133515990Y-102719979D01*
X133490513Y-102713152D01*
X133439562Y-102699500D01*
X133439560Y-102699500D01*
X131858676Y-102699500D01*
X131791637Y-102679815D01*
X131770995Y-102663181D01*
X131707316Y-102599502D01*
X131707314Y-102599500D01*
X131642028Y-102561807D01*
X131593187Y-102533608D01*
X131529539Y-102516554D01*
X131465892Y-102499500D01*
X131334108Y-102499500D01*
X131206814Y-102533608D01*
X131206813Y-102533608D01*
X131206811Y-102533609D01*
X131206808Y-102533610D01*
X131186498Y-102545336D01*
X131118598Y-102561807D01*
X131052571Y-102538954D01*
X131009382Y-102484032D01*
X131000500Y-102437948D01*
X131000500Y-96975833D01*
X131020185Y-96908794D01*
X131036819Y-96888152D01*
X133088152Y-94836819D01*
X133149475Y-94803334D01*
X133175833Y-94800500D01*
X143375167Y-94800500D01*
X143442206Y-94820185D01*
G37*
%TD.AperFunction*%
%TA.AperFunction,Conductor*%
G36*
X155491206Y-88220185D02*
G01*
X155511848Y-88236819D01*
X155563022Y-88287993D01*
X155596507Y-88349316D01*
X155591523Y-88419008D01*
X155549651Y-88474941D01*
X155484187Y-88499358D01*
X155474019Y-88499055D01*
X155474019Y-88499500D01*
X155334108Y-88499500D01*
X155206812Y-88533608D01*
X155092686Y-88599500D01*
X155092683Y-88599502D01*
X154999502Y-88692683D01*
X154999500Y-88692686D01*
X154933608Y-88806812D01*
X154899500Y-88934107D01*
X154898714Y-88940080D01*
X154888510Y-88975532D01*
X154879223Y-88995805D01*
X154859540Y-89015489D01*
X154819979Y-89084011D01*
X154799500Y-89160438D01*
X154799500Y-89169847D01*
X154789992Y-89190604D01*
X154778815Y-89203472D01*
X154771917Y-89219060D01*
X154756379Y-89229304D01*
X154744177Y-89243355D01*
X154727816Y-89248138D01*
X154713586Y-89257522D01*
X154694976Y-89257740D01*
X154677115Y-89262963D01*
X154660765Y-89258141D01*
X154643721Y-89258342D01*
X154615257Y-89246350D01*
X154593189Y-89233609D01*
X154593186Y-89233608D01*
X154465892Y-89199500D01*
X154334108Y-89199500D01*
X154206812Y-89233608D01*
X154092686Y-89299500D01*
X154092683Y-89299502D01*
X153999502Y-89392683D01*
X153999500Y-89392686D01*
X153933608Y-89506812D01*
X153923073Y-89546131D01*
X153899500Y-89634108D01*
X153899500Y-89765892D01*
X153914048Y-89820185D01*
X153933608Y-89893187D01*
X153935617Y-89896666D01*
X153999500Y-90007314D01*
X153999502Y-90007316D01*
X154063181Y-90070995D01*
X154096666Y-90132318D01*
X154099500Y-90158676D01*
X154099500Y-95726638D01*
X154079815Y-95793677D01*
X154027011Y-95839432D01*
X153957853Y-95849376D01*
X153894297Y-95820351D01*
X153887819Y-95814319D01*
X152883041Y-94809541D01*
X152883036Y-94809537D01*
X152865653Y-94799502D01*
X152865649Y-94799498D01*
X152865649Y-94799499D01*
X152840084Y-94784739D01*
X152814519Y-94769979D01*
X152779288Y-94760539D01*
X152738091Y-94749500D01*
X152738089Y-94749500D01*
X147174833Y-94749500D01*
X147107794Y-94729815D01*
X147062039Y-94677011D01*
X147052095Y-94607853D01*
X147081120Y-94544297D01*
X147087152Y-94537819D01*
X153388152Y-88236819D01*
X153449475Y-88203334D01*
X153475833Y-88200500D01*
X155424167Y-88200500D01*
X155491206Y-88220185D01*
G37*
%TD.AperFunction*%
%TA.AperFunction,Conductor*%
G36*
X201242032Y-85525669D02*
G01*
X201571967Y-85542961D01*
X201584875Y-85544318D01*
X201907980Y-85595492D01*
X201920663Y-85598187D01*
X202236670Y-85682861D01*
X202249008Y-85686871D01*
X202554416Y-85804106D01*
X202566258Y-85809378D01*
X202857766Y-85957909D01*
X202868973Y-85964379D01*
X203143355Y-86142565D01*
X203153845Y-86150187D01*
X203408083Y-86356065D01*
X203417728Y-86364750D01*
X203649040Y-86596062D01*
X203657725Y-86605707D01*
X203863603Y-86859945D01*
X203871228Y-86870439D01*
X204049407Y-87144811D01*
X204055884Y-87156029D01*
X204172045Y-87384009D01*
X204204406Y-87447521D01*
X204209685Y-87459379D01*
X204326918Y-87764783D01*
X204330929Y-87777126D01*
X204415600Y-88093121D01*
X204418298Y-88105817D01*
X204469471Y-88428915D01*
X204470828Y-88441823D01*
X204488120Y-88771757D01*
X204488290Y-88778247D01*
X204488290Y-121271752D01*
X204488120Y-121278242D01*
X204470828Y-121608177D01*
X204469471Y-121621085D01*
X204418298Y-121944183D01*
X204415600Y-121956879D01*
X204330929Y-122272874D01*
X204326918Y-122285217D01*
X204209685Y-122590621D01*
X204204406Y-122602479D01*
X204055887Y-122893964D01*
X204049401Y-122905197D01*
X203991928Y-122993699D01*
X203871231Y-123179555D01*
X203863602Y-123190055D01*
X203657724Y-123444293D01*
X203649039Y-123453938D01*
X203417727Y-123685250D01*
X203408082Y-123693935D01*
X203153844Y-123899813D01*
X203143344Y-123907442D01*
X202868986Y-124085612D01*
X202857753Y-124092098D01*
X202566268Y-124240616D01*
X202554410Y-124245895D01*
X202249006Y-124363128D01*
X202236663Y-124367139D01*
X201920668Y-124451810D01*
X201907972Y-124454508D01*
X201584874Y-124505681D01*
X201571966Y-124507038D01*
X201242032Y-124524330D01*
X201235542Y-124524500D01*
X108742037Y-124524500D01*
X108735547Y-124524330D01*
X108405612Y-124507038D01*
X108392704Y-124505681D01*
X108069606Y-124454508D01*
X108056910Y-124451810D01*
X107740915Y-124367139D01*
X107728572Y-124363128D01*
X107423168Y-124245895D01*
X107411310Y-124240616D01*
X107119819Y-124092093D01*
X107108600Y-124085616D01*
X106834228Y-123907437D01*
X106823734Y-123899812D01*
X106569496Y-123693934D01*
X106559851Y-123685249D01*
X106328539Y-123453937D01*
X106319854Y-123444292D01*
X106113976Y-123190054D01*
X106106348Y-123179555D01*
X105928168Y-122905182D01*
X105921692Y-122893964D01*
X105773168Y-122602468D01*
X105767896Y-122590625D01*
X105650661Y-122285216D01*
X105646651Y-122272879D01*
X105561977Y-121956872D01*
X105559282Y-121944189D01*
X105508108Y-121621084D01*
X105506751Y-121608176D01*
X105489460Y-121278241D01*
X105489290Y-121271751D01*
X105489290Y-119721530D01*
X132564500Y-119721530D01*
X132564500Y-119928469D01*
X132604868Y-120131412D01*
X132604870Y-120131420D01*
X132670939Y-120290925D01*
X132684059Y-120322598D01*
X132697836Y-120343217D01*
X132799024Y-120494657D01*
X132945342Y-120640975D01*
X132945345Y-120640977D01*
X133117402Y-120755941D01*
X133308580Y-120835130D01*
X133511530Y-120875499D01*
X133511534Y-120875500D01*
X133511535Y-120875500D01*
X133718466Y-120875500D01*
X133718467Y-120875499D01*
X133921420Y-120835130D01*
X134112598Y-120755941D01*
X134284655Y-120640977D01*
X134430977Y-120494655D01*
X134545941Y-120322598D01*
X134625130Y-120131420D01*
X134665500Y-119928465D01*
X134665500Y-119721535D01*
X134665499Y-119721530D01*
X135104500Y-119721530D01*
X135104500Y-119928469D01*
X135144868Y-120131412D01*
X135144870Y-120131420D01*
X135210939Y-120290925D01*
X135224059Y-120322598D01*
X135237836Y-120343217D01*
X135339024Y-120494657D01*
X135485342Y-120640975D01*
X135485345Y-120640977D01*
X135657402Y-120755941D01*
X135848580Y-120835130D01*
X136051530Y-120875499D01*
X136051534Y-120875500D01*
X136051535Y-120875500D01*
X136258466Y-120875500D01*
X136258467Y-120875499D01*
X136461420Y-120835130D01*
X136652598Y-120755941D01*
X136824655Y-120640977D01*
X136970977Y-120494655D01*
X137085941Y-120322598D01*
X137165130Y-120131420D01*
X137205500Y-119928465D01*
X137205500Y-119721535D01*
X137165130Y-119518580D01*
X137085941Y-119327402D01*
X136970977Y-119155345D01*
X136970975Y-119155342D01*
X136824657Y-119009024D01*
X136738626Y-118951541D01*
X136652598Y-118894059D01*
X136461420Y-118814870D01*
X136461412Y-118814868D01*
X136258469Y-118774500D01*
X136258465Y-118774500D01*
X136051535Y-118774500D01*
X136051530Y-118774500D01*
X135848587Y-118814868D01*
X135848579Y-118814870D01*
X135657403Y-118894058D01*
X135485342Y-119009024D01*
X135339024Y-119155342D01*
X135224058Y-119327403D01*
X135144870Y-119518579D01*
X135144868Y-119518587D01*
X135104500Y-119721530D01*
X134665499Y-119721530D01*
X134625130Y-119518580D01*
X134545941Y-119327402D01*
X134430977Y-119155345D01*
X134430975Y-119155342D01*
X134284657Y-119009024D01*
X134198626Y-118951541D01*
X134112598Y-118894059D01*
X133921420Y-118814870D01*
X133921412Y-118814868D01*
X133718469Y-118774500D01*
X133718465Y-118774500D01*
X133511535Y-118774500D01*
X133511530Y-118774500D01*
X133308587Y-118814868D01*
X133308579Y-118814870D01*
X133117403Y-118894058D01*
X132945342Y-119009024D01*
X132799024Y-119155342D01*
X132684058Y-119327403D01*
X132604870Y-119518579D01*
X132604868Y-119518587D01*
X132564500Y-119721530D01*
X105489290Y-119721530D01*
X105489290Y-110611530D01*
X106299500Y-110611530D01*
X106299500Y-110818469D01*
X106339868Y-111021412D01*
X106339870Y-111021420D01*
X106405649Y-111180225D01*
X106419059Y-111212598D01*
X106444844Y-111251188D01*
X106534024Y-111384657D01*
X106680342Y-111530975D01*
X106680345Y-111530977D01*
X106852402Y-111645941D01*
X107043580Y-111725130D01*
X107239240Y-111764049D01*
X107246530Y-111765499D01*
X107246534Y-111765500D01*
X107246535Y-111765500D01*
X107453466Y-111765500D01*
X107453467Y-111765499D01*
X107656420Y-111725130D01*
X107847598Y-111645941D01*
X108019655Y-111530977D01*
X108165977Y-111384655D01*
X108280941Y-111212598D01*
X108330875Y-111092046D01*
X108374716Y-111037644D01*
X108441010Y-111015579D01*
X108445436Y-111015500D01*
X108624560Y-111015500D01*
X108624562Y-111015500D01*
X108700989Y-110995021D01*
X108769511Y-110955460D01*
X108825460Y-110899511D01*
X130488152Y-89236819D01*
X130515079Y-89222115D01*
X130540898Y-89205523D01*
X130547098Y-89204631D01*
X130549475Y-89203334D01*
X130575833Y-89200500D01*
X130680167Y-89200500D01*
X130747206Y-89220185D01*
X130792961Y-89272989D01*
X130802905Y-89342147D01*
X130773880Y-89405703D01*
X130767848Y-89412181D01*
X107912104Y-112267923D01*
X107850781Y-112301408D01*
X107781089Y-112296424D01*
X107776971Y-112294803D01*
X107656424Y-112244871D01*
X107656412Y-112244868D01*
X107453469Y-112204500D01*
X107453465Y-112204500D01*
X107246535Y-112204500D01*
X107246530Y-112204500D01*
X107043587Y-112244868D01*
X107043579Y-112244870D01*
X106852403Y-112324058D01*
X106680342Y-112439024D01*
X106534024Y-112585342D01*
X106419058Y-112757403D01*
X106339870Y-112948579D01*
X106339868Y-112948587D01*
X106299500Y-113151530D01*
X106299500Y-113358469D01*
X106339868Y-113561412D01*
X106339870Y-113561420D01*
X106362472Y-113615987D01*
X106419059Y-113752598D01*
X106451065Y-113800499D01*
X106534024Y-113924657D01*
X106680342Y-114070975D01*
X106680345Y-114070977D01*
X106852402Y-114185941D01*
X107043580Y-114265130D01*
X107216225Y-114299471D01*
X107246530Y-114305499D01*
X107246534Y-114305500D01*
X107246535Y-114305500D01*
X107453466Y-114305500D01*
X107453467Y-114305499D01*
X107656420Y-114265130D01*
X107847598Y-114185941D01*
X107897728Y-114152445D01*
X107964403Y-114131568D01*
X108031783Y-114150052D01*
X108078474Y-114202031D01*
X108089650Y-114271001D01*
X108061765Y-114335064D01*
X108054298Y-114343229D01*
X107666785Y-114730742D01*
X107605462Y-114764227D01*
X107554914Y-114764679D01*
X107453465Y-114744500D01*
X107246535Y-114744500D01*
X107246530Y-114744500D01*
X107043587Y-114784868D01*
X107043579Y-114784870D01*
X106852403Y-114864058D01*
X106680342Y-114979024D01*
X106534024Y-115125342D01*
X106419058Y-115297403D01*
X106339870Y-115488579D01*
X106339868Y-115488587D01*
X106299500Y-115691530D01*
X106299500Y-115898469D01*
X106339868Y-116101412D01*
X106339870Y-116101420D01*
X106417803Y-116289567D01*
X106419059Y-116292598D01*
X106460124Y-116354057D01*
X106534024Y-116464657D01*
X106680342Y-116610975D01*
X106680345Y-116610977D01*
X106852402Y-116725941D01*
X107043580Y-116805130D01*
X107246530Y-116845499D01*
X107246534Y-116845500D01*
X107246535Y-116845500D01*
X107453466Y-116845500D01*
X107453467Y-116845499D01*
X107656420Y-116805130D01*
X107847598Y-116725941D01*
X108019655Y-116610977D01*
X108165977Y-116464655D01*
X108280941Y-116292598D01*
X108360130Y-116101420D01*
X108400500Y-115898465D01*
X108400500Y-115691535D01*
X108360130Y-115488580D01*
X108280941Y-115297402D01*
X108280940Y-115297400D01*
X108280940Y-115297399D01*
X108204949Y-115183670D01*
X108184071Y-115116993D01*
X108202556Y-115049613D01*
X108220366Y-115027103D01*
X132710652Y-90536819D01*
X132771975Y-90503334D01*
X132798333Y-90500500D01*
X148175166Y-90500500D01*
X148242205Y-90520185D01*
X148287960Y-90572989D01*
X148297904Y-90642147D01*
X148268879Y-90705703D01*
X148262847Y-90712181D01*
X147311848Y-91663181D01*
X147250525Y-91696666D01*
X147224167Y-91699500D01*
X132160438Y-91699500D01*
X132122224Y-91709739D01*
X132084009Y-91719979D01*
X132084004Y-91719982D01*
X132015495Y-91759535D01*
X132015487Y-91759541D01*
X110059541Y-113715487D01*
X110059535Y-113715495D01*
X110019982Y-113784004D01*
X110019979Y-113784009D01*
X109999500Y-113860439D01*
X109999500Y-115209166D01*
X109979815Y-115276205D01*
X109963181Y-115296847D01*
X107912104Y-117347923D01*
X107850781Y-117381408D01*
X107781089Y-117376424D01*
X107776971Y-117374803D01*
X107656424Y-117324871D01*
X107656412Y-117324868D01*
X107453469Y-117284500D01*
X107453465Y-117284500D01*
X107246535Y-117284500D01*
X107246530Y-117284500D01*
X107043587Y-117324868D01*
X107043579Y-117324870D01*
X106852403Y-117404058D01*
X106680342Y-117519024D01*
X106534024Y-117665342D01*
X106419058Y-117837403D01*
X106339870Y-118028579D01*
X106339868Y-118028587D01*
X106299500Y-118231530D01*
X106299500Y-118438469D01*
X106339868Y-118641412D01*
X106339870Y-118641420D01*
X106419058Y-118832596D01*
X106534024Y-119004657D01*
X106680342Y-119150975D01*
X106680345Y-119150977D01*
X106852402Y-119265941D01*
X107043580Y-119345130D01*
X107246530Y-119385499D01*
X107246534Y-119385500D01*
X107246535Y-119385500D01*
X107453466Y-119385500D01*
X107453467Y-119385499D01*
X107656420Y-119345130D01*
X107847598Y-119265941D01*
X108019655Y-119150977D01*
X108165977Y-119004655D01*
X108280941Y-118832598D01*
X108360130Y-118641420D01*
X108400500Y-118438465D01*
X108400500Y-118231535D01*
X108360130Y-118028580D01*
X108310194Y-117908026D01*
X108302726Y-117838559D01*
X108334001Y-117776080D01*
X108337046Y-117772923D01*
X110540460Y-115569511D01*
X110573628Y-115512062D01*
X110580021Y-115500989D01*
X110600500Y-115424562D01*
X110600500Y-114825000D01*
X111825000Y-114825000D01*
X111825503Y-114908955D01*
X111832255Y-115049613D01*
X111833552Y-115076626D01*
X111838240Y-115125345D01*
X111849630Y-115243731D01*
X111849631Y-115243745D01*
X111873700Y-115409859D01*
X111873702Y-115409869D01*
X111905716Y-115574683D01*
X111945588Y-115737743D01*
X111993238Y-115898727D01*
X112048549Y-116057232D01*
X112048561Y-116057263D01*
X112111386Y-116212880D01*
X112111398Y-116212910D01*
X112181628Y-116365369D01*
X112181644Y-116365404D01*
X112235543Y-116469025D01*
X112257990Y-116512181D01*
X112259109Y-116514331D01*
X112259111Y-116514334D01*
X112317967Y-116615341D01*
X112343625Y-116659373D01*
X112435002Y-116800205D01*
X112467580Y-116845500D01*
X112533025Y-116936492D01*
X112637478Y-117067933D01*
X112748087Y-117194187D01*
X112748101Y-117194202D01*
X112835208Y-117284500D01*
X112864655Y-117315025D01*
X112953085Y-117398307D01*
X112986870Y-117430125D01*
X113114449Y-117539220D01*
X113114455Y-117539225D01*
X113114459Y-117539228D01*
X113247135Y-117642091D01*
X113384589Y-117738474D01*
X113526507Y-117828156D01*
X113672561Y-117910931D01*
X113672587Y-117910944D01*
X113672598Y-117910950D01*
X113822388Y-117986594D01*
X113822412Y-117986606D01*
X113975715Y-118055008D01*
X113975721Y-118055010D01*
X113975727Y-118055013D01*
X114030604Y-118076406D01*
X114132124Y-118115983D01*
X114132135Y-118115986D01*
X114132141Y-118115989D01*
X114291299Y-118169396D01*
X114452834Y-118215111D01*
X114616375Y-118253028D01*
X114781547Y-118283061D01*
X114947968Y-118305140D01*
X115115256Y-118319214D01*
X115283027Y-118325252D01*
X115450894Y-118323239D01*
X115618472Y-118313180D01*
X115785375Y-118295098D01*
X115951219Y-118269035D01*
X116115623Y-118235050D01*
X116278208Y-118193222D01*
X116438600Y-118143647D01*
X116527481Y-118111431D01*
X116596417Y-118086445D01*
X116596451Y-118086431D01*
X116611827Y-118080008D01*
X116751339Y-118021730D01*
X116902965Y-117949668D01*
X117050962Y-117870419D01*
X117194990Y-117784166D01*
X117334716Y-117691106D01*
X117469820Y-117591455D01*
X117599991Y-117485440D01*
X117724929Y-117373307D01*
X117844347Y-117255312D01*
X117957971Y-117131727D01*
X118065538Y-117002837D01*
X118166803Y-116868938D01*
X118261531Y-116730337D01*
X118349505Y-116587355D01*
X118430523Y-116440318D01*
X118482571Y-116334108D01*
X128299500Y-116334108D01*
X128299500Y-116465892D01*
X128310167Y-116505703D01*
X128333608Y-116593187D01*
X128350909Y-116623152D01*
X128399500Y-116707314D01*
X128492686Y-116800500D01*
X128606814Y-116866392D01*
X128734108Y-116900500D01*
X128734110Y-116900500D01*
X128865890Y-116900500D01*
X128865892Y-116900500D01*
X128993186Y-116866392D01*
X129107314Y-116800500D01*
X129200500Y-116707314D01*
X129266392Y-116593186D01*
X129300500Y-116465892D01*
X129300500Y-116334108D01*
X129266392Y-116206814D01*
X129200500Y-116092686D01*
X129107314Y-115999500D01*
X129050250Y-115966554D01*
X128993187Y-115933608D01*
X128929539Y-115916554D01*
X128865892Y-115899500D01*
X128734108Y-115899500D01*
X128606812Y-115933608D01*
X128492686Y-115999500D01*
X128492683Y-115999502D01*
X128399502Y-116092683D01*
X128399500Y-116092686D01*
X128333608Y-116206812D01*
X128307746Y-116303334D01*
X128299500Y-116334108D01*
X118482571Y-116334108D01*
X118504398Y-116289567D01*
X118509664Y-116277375D01*
X118509907Y-116276813D01*
X118570954Y-116135460D01*
X118570966Y-116135432D01*
X118630053Y-115978321D01*
X118630056Y-115978313D01*
X118681550Y-115818526D01*
X118696615Y-115762752D01*
X118725324Y-115656457D01*
X118725327Y-115656444D01*
X118761278Y-115492470D01*
X118789328Y-115326950D01*
X118809410Y-115160276D01*
X118821478Y-114992831D01*
X118825504Y-114825000D01*
X118824541Y-114784870D01*
X118821479Y-114657206D01*
X118821477Y-114657153D01*
X118819886Y-114635091D01*
X118809410Y-114489724D01*
X118789328Y-114323050D01*
X118761278Y-114157530D01*
X118725325Y-113993546D01*
X118716075Y-113959298D01*
X118681555Y-113831490D01*
X118666253Y-113784009D01*
X118630056Y-113671687D01*
X118612299Y-113624471D01*
X118570966Y-113514567D01*
X118570961Y-113514555D01*
X118561677Y-113493059D01*
X118504398Y-113360433D01*
X118430523Y-113209682D01*
X118349505Y-113062645D01*
X118261531Y-112919663D01*
X118230866Y-112874795D01*
X118166806Y-112781066D01*
X118166797Y-112781054D01*
X118145114Y-112752383D01*
X118065538Y-112647163D01*
X117957971Y-112518273D01*
X117844347Y-112394688D01*
X117844333Y-112394673D01*
X117724940Y-112276704D01*
X117724916Y-112276681D01*
X117600002Y-112164569D01*
X117599989Y-112164558D01*
X117469821Y-112058545D01*
X117378522Y-111991205D01*
X117334716Y-111958894D01*
X117263595Y-111911526D01*
X117195023Y-111865855D01*
X117194982Y-111865829D01*
X117050971Y-111779586D01*
X117050947Y-111779573D01*
X116902960Y-111700329D01*
X116751337Y-111628269D01*
X116751326Y-111628264D01*
X116596451Y-111563568D01*
X116596417Y-111563554D01*
X116438604Y-111506354D01*
X116438598Y-111506352D01*
X116278233Y-111456785D01*
X116278213Y-111456779D01*
X116278208Y-111456778D01*
X116278196Y-111456774D01*
X116278167Y-111456767D01*
X116115649Y-111414956D01*
X116115627Y-111414951D01*
X116115623Y-111414950D01*
X115951219Y-111380965D01*
X115785375Y-111354902D01*
X115646289Y-111339833D01*
X115618473Y-111336820D01*
X115618462Y-111336819D01*
X115450913Y-111326762D01*
X115450878Y-111326760D01*
X115283040Y-111324748D01*
X115283036Y-111324748D01*
X115283027Y-111324748D01*
X115115256Y-111330786D01*
X114947972Y-111344859D01*
X114781538Y-111366940D01*
X114616374Y-111396972D01*
X114452833Y-111434889D01*
X114452822Y-111434892D01*
X114291301Y-111480603D01*
X114132124Y-111534016D01*
X113975733Y-111594984D01*
X113975715Y-111594991D01*
X113822412Y-111663393D01*
X113822388Y-111663405D01*
X113672598Y-111739049D01*
X113672540Y-111739080D01*
X113526522Y-111821835D01*
X113526496Y-111821851D01*
X113384598Y-111911519D01*
X113247122Y-112007918D01*
X113114449Y-112110779D01*
X112986870Y-112219874D01*
X112864660Y-112334970D01*
X112864626Y-112335004D01*
X112748101Y-112455797D01*
X112748087Y-112455812D01*
X112637478Y-112582066D01*
X112533025Y-112713507D01*
X112435006Y-112849789D01*
X112435002Y-112849795D01*
X112347594Y-112984511D01*
X112343613Y-112990646D01*
X112343603Y-112990663D01*
X112259111Y-113135665D01*
X112259109Y-113135668D01*
X112181644Y-113284595D01*
X112181628Y-113284630D01*
X112111398Y-113437089D01*
X112111386Y-113437119D01*
X112048561Y-113592736D01*
X112048549Y-113592767D01*
X111993238Y-113751272D01*
X111945588Y-113912256D01*
X111905716Y-114075316D01*
X111873702Y-114240130D01*
X111873700Y-114240140D01*
X111849631Y-114406254D01*
X111849630Y-114406268D01*
X111847225Y-114431268D01*
X111835368Y-114554507D01*
X111833551Y-114573388D01*
X111825503Y-114741044D01*
X111825000Y-114825000D01*
X110600500Y-114825000D01*
X110600500Y-114075833D01*
X110620185Y-114008794D01*
X110636819Y-113988152D01*
X116690863Y-107934108D01*
X126199500Y-107934108D01*
X126199500Y-108065891D01*
X126233608Y-108193187D01*
X126266554Y-108250250D01*
X126299500Y-108307314D01*
X126392686Y-108400500D01*
X126506814Y-108466392D01*
X126634108Y-108500500D01*
X126634110Y-108500500D01*
X126765890Y-108500500D01*
X126765892Y-108500500D01*
X126893186Y-108466392D01*
X127007314Y-108400500D01*
X127100500Y-108307314D01*
X127166392Y-108193186D01*
X127200500Y-108065892D01*
X127200500Y-107934108D01*
X127166392Y-107806814D01*
X127100500Y-107692686D01*
X127007314Y-107599500D01*
X126949968Y-107566391D01*
X126893187Y-107533608D01*
X126829539Y-107516554D01*
X126765892Y-107499500D01*
X126634108Y-107499500D01*
X126506812Y-107533608D01*
X126392686Y-107599500D01*
X126392683Y-107599502D01*
X126299502Y-107692683D01*
X126299500Y-107692686D01*
X126233608Y-107806812D01*
X126199500Y-107934108D01*
X116690863Y-107934108D01*
X127390863Y-97234108D01*
X128399500Y-97234108D01*
X128399500Y-97365891D01*
X128433608Y-97493187D01*
X128463326Y-97544659D01*
X128499500Y-97607314D01*
X128592686Y-97700500D01*
X128706814Y-97766392D01*
X128834108Y-97800500D01*
X128834110Y-97800500D01*
X128965890Y-97800500D01*
X128965892Y-97800500D01*
X129093186Y-97766392D01*
X129207314Y-97700500D01*
X129300500Y-97607314D01*
X129366392Y-97493186D01*
X129400500Y-97365892D01*
X129400500Y-97234108D01*
X129366392Y-97106814D01*
X129300500Y-96992686D01*
X129207314Y-96899500D01*
X129123263Y-96850973D01*
X129093187Y-96833608D01*
X129029539Y-96816554D01*
X128965892Y-96799500D01*
X128834108Y-96799500D01*
X128706812Y-96833608D01*
X128592686Y-96899500D01*
X128592683Y-96899502D01*
X128499502Y-96992683D01*
X128499500Y-96992686D01*
X128433608Y-97106812D01*
X128399500Y-97234108D01*
X127390863Y-97234108D01*
X132288152Y-92336819D01*
X132349475Y-92303334D01*
X132375833Y-92300500D01*
X147439560Y-92300500D01*
X147439562Y-92300500D01*
X147515989Y-92280021D01*
X147584511Y-92240460D01*
X147640460Y-92184511D01*
X150162417Y-89662554D01*
X150223740Y-89629069D01*
X150250098Y-89626235D01*
X150849432Y-89626235D01*
X150916471Y-89645920D01*
X150962226Y-89698724D01*
X150972170Y-89767882D01*
X150943145Y-89831438D01*
X150937113Y-89837916D01*
X146611848Y-94163181D01*
X146550525Y-94196666D01*
X146524167Y-94199500D01*
X132960438Y-94199500D01*
X132929867Y-94207691D01*
X132884008Y-94219979D01*
X132876424Y-94224359D01*
X132876422Y-94224361D01*
X132815490Y-94259539D01*
X132815487Y-94259541D01*
X130459541Y-96615487D01*
X130459535Y-96615495D01*
X130419982Y-96684004D01*
X130419979Y-96684009D01*
X130409167Y-96724360D01*
X130399500Y-96760438D01*
X130399500Y-114409562D01*
X130405316Y-114431266D01*
X130419979Y-114485991D01*
X130427780Y-114499501D01*
X130427781Y-114499503D01*
X130459537Y-114554507D01*
X130459541Y-114554512D01*
X132528181Y-116623152D01*
X132561666Y-116684475D01*
X132564500Y-116710833D01*
X132564500Y-118154752D01*
X132576131Y-118213229D01*
X132576132Y-118213230D01*
X132620447Y-118279552D01*
X132686769Y-118323867D01*
X132686770Y-118323868D01*
X132745247Y-118335499D01*
X132745250Y-118335500D01*
X132745252Y-118335500D01*
X134484750Y-118335500D01*
X134484751Y-118335499D01*
X134511695Y-118330140D01*
X134543229Y-118323868D01*
X134543229Y-118323867D01*
X134543231Y-118323867D01*
X134609552Y-118279552D01*
X134653867Y-118213231D01*
X134653867Y-118213229D01*
X134653868Y-118213229D01*
X134665499Y-118154752D01*
X134665500Y-118154750D01*
X134665500Y-117181530D01*
X135104500Y-117181530D01*
X135104500Y-117388469D01*
X135144868Y-117591412D01*
X135144870Y-117591420D01*
X135216137Y-117763474D01*
X135224059Y-117782598D01*
X135241811Y-117809166D01*
X135339024Y-117954657D01*
X135485342Y-118100975D01*
X135485345Y-118100977D01*
X135657402Y-118215941D01*
X135848580Y-118295130D01*
X136051530Y-118335499D01*
X136051534Y-118335500D01*
X136051535Y-118335500D01*
X136258466Y-118335500D01*
X136258467Y-118335499D01*
X136461420Y-118295130D01*
X136652598Y-118215941D01*
X136824655Y-118100977D01*
X136970977Y-117954655D01*
X137085941Y-117782598D01*
X137165130Y-117591420D01*
X137205500Y-117388465D01*
X137205500Y-117181535D01*
X137165130Y-116978580D01*
X137085941Y-116787402D01*
X136970977Y-116615345D01*
X136970975Y-116615342D01*
X136824657Y-116469024D01*
X136735912Y-116409727D01*
X136652598Y-116354059D01*
X136652593Y-116354057D01*
X136461420Y-116274870D01*
X136461412Y-116274868D01*
X136258469Y-116234500D01*
X136258465Y-116234500D01*
X136051535Y-116234500D01*
X136051530Y-116234500D01*
X135848587Y-116274868D01*
X135848579Y-116274870D01*
X135657403Y-116354058D01*
X135485342Y-116469024D01*
X135339024Y-116615342D01*
X135224058Y-116787403D01*
X135144870Y-116978579D01*
X135144868Y-116978587D01*
X135104500Y-117181530D01*
X134665500Y-117181530D01*
X134665500Y-116415249D01*
X134665499Y-116415247D01*
X134653868Y-116356770D01*
X134653867Y-116356769D01*
X134609552Y-116290447D01*
X134543230Y-116246132D01*
X134543229Y-116246131D01*
X134484752Y-116234500D01*
X134484748Y-116234500D01*
X133040833Y-116234500D01*
X132973794Y-116214815D01*
X132953152Y-116198181D01*
X131589079Y-114834108D01*
X139499500Y-114834108D01*
X139499500Y-114965892D01*
X139503019Y-114979024D01*
X139533608Y-115093187D01*
X139539516Y-115103419D01*
X139599500Y-115207314D01*
X139692686Y-115300500D01*
X139806814Y-115366392D01*
X139934108Y-115400500D01*
X139934110Y-115400500D01*
X140065890Y-115400500D01*
X140065892Y-115400500D01*
X140193186Y-115366392D01*
X140307314Y-115300500D01*
X140370995Y-115236819D01*
X140432318Y-115203334D01*
X140458676Y-115200500D01*
X150941324Y-115200500D01*
X151008363Y-115220185D01*
X151029005Y-115236819D01*
X151092686Y-115300500D01*
X151206814Y-115366392D01*
X151334108Y-115400500D01*
X151334110Y-115400500D01*
X151465890Y-115400500D01*
X151465892Y-115400500D01*
X151593186Y-115366392D01*
X151707314Y-115300500D01*
X151800500Y-115207314D01*
X151866392Y-115093186D01*
X151900500Y-114965892D01*
X151900500Y-114834108D01*
X151866392Y-114706814D01*
X151800500Y-114592686D01*
X151707314Y-114499500D01*
X151650250Y-114466554D01*
X151593187Y-114433608D01*
X151503444Y-114409562D01*
X151465892Y-114399500D01*
X151334108Y-114399500D01*
X151206812Y-114433608D01*
X151092686Y-114499500D01*
X151092683Y-114499502D01*
X151029005Y-114563181D01*
X150967682Y-114596666D01*
X150941324Y-114599500D01*
X140458676Y-114599500D01*
X140391637Y-114579815D01*
X140370995Y-114563181D01*
X140307316Y-114499502D01*
X140307314Y-114499500D01*
X140250250Y-114466554D01*
X140193187Y-114433608D01*
X140103444Y-114409562D01*
X140065892Y-114399500D01*
X139934108Y-114399500D01*
X139806812Y-114433608D01*
X139692686Y-114499500D01*
X139692683Y-114499502D01*
X139599502Y-114592683D01*
X139599500Y-114592686D01*
X139533608Y-114706812D01*
X139512693Y-114784870D01*
X139499500Y-114834108D01*
X131589079Y-114834108D01*
X131036819Y-114281848D01*
X131003334Y-114220525D01*
X131000500Y-114194167D01*
X131000500Y-103562051D01*
X131020185Y-103495012D01*
X131072989Y-103449257D01*
X131142147Y-103439313D01*
X131186499Y-103454663D01*
X131206814Y-103466392D01*
X131334108Y-103500500D01*
X131334110Y-103500500D01*
X131465890Y-103500500D01*
X131465892Y-103500500D01*
X131593186Y-103466392D01*
X131707314Y-103400500D01*
X131770995Y-103336819D01*
X131832318Y-103303334D01*
X131858676Y-103300500D01*
X133224167Y-103300500D01*
X133291206Y-103320185D01*
X133311848Y-103336819D01*
X137963181Y-107988152D01*
X137996666Y-108049475D01*
X137999500Y-108075833D01*
X137999500Y-110439562D01*
X138010474Y-110480518D01*
X138017520Y-110506814D01*
X138019979Y-110515989D01*
X138028349Y-110530486D01*
X138028350Y-110530489D01*
X138028351Y-110530489D01*
X138059539Y-110584509D01*
X138059541Y-110584512D01*
X139662848Y-112187819D01*
X139696333Y-112249142D01*
X139691349Y-112318834D01*
X139649477Y-112374767D01*
X139584013Y-112399184D01*
X139575167Y-112399500D01*
X133158676Y-112399500D01*
X133091637Y-112379815D01*
X133070995Y-112363181D01*
X133007316Y-112299502D01*
X133007314Y-112299500D01*
X132950250Y-112266554D01*
X132893187Y-112233608D01*
X132818137Y-112213499D01*
X132765892Y-112199500D01*
X132634108Y-112199500D01*
X132506812Y-112233608D01*
X132392686Y-112299500D01*
X132392683Y-112299502D01*
X132299502Y-112392683D01*
X132299500Y-112392686D01*
X132233608Y-112506812D01*
X132212566Y-112585345D01*
X132199500Y-112634108D01*
X132199500Y-112765892D01*
X132210830Y-112808176D01*
X132233608Y-112893187D01*
X132260902Y-112940460D01*
X132299500Y-113007314D01*
X132392686Y-113100500D01*
X132481079Y-113151534D01*
X132496894Y-113160665D01*
X132506814Y-113166392D01*
X132634108Y-113200500D01*
X132634110Y-113200500D01*
X132765890Y-113200500D01*
X132765892Y-113200500D01*
X132893186Y-113166392D01*
X133007314Y-113100500D01*
X133070995Y-113036819D01*
X133132318Y-113003334D01*
X133158676Y-113000500D01*
X152039560Y-113000500D01*
X152039562Y-113000500D01*
X152115989Y-112980021D01*
X152184511Y-112940460D01*
X152240460Y-112884511D01*
X152688151Y-112436818D01*
X152749474Y-112403334D01*
X152775832Y-112400500D01*
X152865890Y-112400500D01*
X152865892Y-112400500D01*
X152993186Y-112366392D01*
X153107314Y-112300500D01*
X153200500Y-112207314D01*
X153266392Y-112093186D01*
X153300500Y-111965892D01*
X153300500Y-111834108D01*
X153266392Y-111706814D01*
X153200500Y-111592686D01*
X153107314Y-111499500D01*
X153033318Y-111456778D01*
X152993187Y-111433608D01*
X152923549Y-111414949D01*
X152865892Y-111399500D01*
X152734108Y-111399500D01*
X152606812Y-111433608D01*
X152492686Y-111499500D01*
X152492683Y-111499502D01*
X152399502Y-111592683D01*
X152399500Y-111592686D01*
X152333608Y-111706812D01*
X152299500Y-111834108D01*
X152299500Y-111924166D01*
X152279815Y-111991205D01*
X152263181Y-112011847D01*
X151911848Y-112363181D01*
X151850525Y-112396666D01*
X151824167Y-112399500D01*
X149804315Y-112399500D01*
X149737276Y-112379815D01*
X149691521Y-112327011D01*
X149681577Y-112257853D01*
X149696928Y-112213499D01*
X149700497Y-112207316D01*
X149700500Y-112207314D01*
X149766392Y-112093186D01*
X149800500Y-111965892D01*
X149800500Y-111834108D01*
X149766392Y-111706814D01*
X149700500Y-111592686D01*
X149607314Y-111499500D01*
X149533318Y-111456778D01*
X149493187Y-111433608D01*
X149476259Y-111429072D01*
X149441556Y-111419774D01*
X149381897Y-111383410D01*
X149351368Y-111320564D01*
X149359662Y-111251188D01*
X149404147Y-111197310D01*
X149441555Y-111180226D01*
X149493186Y-111166392D01*
X149607314Y-111100500D01*
X149700500Y-111007314D01*
X149766392Y-110893186D01*
X149800500Y-110765892D01*
X149800500Y-110634108D01*
X149766392Y-110506814D01*
X149700500Y-110392686D01*
X149607314Y-110299500D01*
X149550250Y-110266554D01*
X149493187Y-110233608D01*
X149429539Y-110216554D01*
X149365892Y-110199500D01*
X149234108Y-110199500D01*
X149106812Y-110233608D01*
X148992686Y-110299500D01*
X148992683Y-110299502D01*
X148899502Y-110392683D01*
X148899500Y-110392686D01*
X148833608Y-110506812D01*
X148799500Y-110634108D01*
X148799500Y-110765891D01*
X148833608Y-110893187D01*
X148866554Y-110950250D01*
X148899500Y-111007314D01*
X148992686Y-111100500D01*
X149106814Y-111166392D01*
X149158441Y-111180225D01*
X149218102Y-111216590D01*
X149248631Y-111279437D01*
X149240336Y-111348812D01*
X149195851Y-111402690D01*
X149158442Y-111419774D01*
X149150241Y-111421972D01*
X149106812Y-111433608D01*
X148992686Y-111499500D01*
X148992683Y-111499502D01*
X148929005Y-111563181D01*
X148867682Y-111596666D01*
X148841324Y-111599500D01*
X145175833Y-111599500D01*
X145108794Y-111579815D01*
X145088152Y-111563181D01*
X136607013Y-103082042D01*
X136573528Y-103020719D01*
X136578512Y-102951027D01*
X136620384Y-102895094D01*
X136662600Y-102874587D01*
X136693186Y-102866392D01*
X136807314Y-102800500D01*
X136900500Y-102707314D01*
X136966392Y-102593186D01*
X137000500Y-102465892D01*
X137000500Y-102375832D01*
X137020185Y-102308793D01*
X137036819Y-102288151D01*
X141475177Y-97849794D01*
X144599500Y-97849794D01*
X144599500Y-97981578D01*
X144604569Y-98000497D01*
X144633608Y-98108873D01*
X144665425Y-98163980D01*
X144699500Y-98223000D01*
X144792686Y-98316186D01*
X144855277Y-98352323D01*
X144902042Y-98379323D01*
X144950258Y-98429890D01*
X144963480Y-98498497D01*
X144937512Y-98563362D01*
X144902049Y-98594093D01*
X144892692Y-98599495D01*
X144892683Y-98599502D01*
X144799502Y-98692683D01*
X144799500Y-98692686D01*
X144733608Y-98806812D01*
X144717778Y-98865892D01*
X144699500Y-98934108D01*
X144699500Y-99065892D01*
X144711338Y-99110072D01*
X144733608Y-99193187D01*
X144759079Y-99237303D01*
X144799500Y-99307314D01*
X144892686Y-99400500D01*
X145006814Y-99466392D01*
X145134108Y-99500500D01*
X145134110Y-99500500D01*
X145265890Y-99500500D01*
X145265892Y-99500500D01*
X145393186Y-99466392D01*
X145507314Y-99400500D01*
X145600500Y-99307314D01*
X145666392Y-99193186D01*
X145700500Y-99065892D01*
X145700500Y-98934108D01*
X145666392Y-98806814D01*
X145600500Y-98692686D01*
X145507314Y-98599500D01*
X145397955Y-98536361D01*
X145349741Y-98485795D01*
X145336519Y-98417187D01*
X145362487Y-98352323D01*
X145397955Y-98321589D01*
X145407314Y-98316186D01*
X145489392Y-98234108D01*
X150099500Y-98234108D01*
X150099500Y-98365891D01*
X150133608Y-98493187D01*
X150151687Y-98524500D01*
X150199500Y-98607314D01*
X150292686Y-98700500D01*
X150406814Y-98766392D01*
X150534108Y-98800500D01*
X150534110Y-98800500D01*
X150665890Y-98800500D01*
X150665892Y-98800500D01*
X150793186Y-98766392D01*
X150907314Y-98700500D01*
X151000500Y-98607314D01*
X151066392Y-98493186D01*
X151100500Y-98365892D01*
X151100500Y-98234108D01*
X151066392Y-98106814D01*
X151000500Y-97992686D01*
X150907314Y-97899500D01*
X150838103Y-97859541D01*
X150793187Y-97833608D01*
X150700578Y-97808794D01*
X150665892Y-97799500D01*
X150534108Y-97799500D01*
X150406812Y-97833608D01*
X150292686Y-97899500D01*
X150292683Y-97899502D01*
X150199502Y-97992683D01*
X150199500Y-97992686D01*
X150133608Y-98106812D01*
X150099500Y-98234108D01*
X145489392Y-98234108D01*
X145500500Y-98223000D01*
X145566392Y-98108872D01*
X145600500Y-97981578D01*
X145600500Y-97849794D01*
X145566392Y-97722500D01*
X145500500Y-97608372D01*
X145407314Y-97515186D01*
X145310933Y-97459540D01*
X145293187Y-97449294D01*
X145229539Y-97432240D01*
X145165892Y-97415186D01*
X145034108Y-97415186D01*
X144906812Y-97449294D01*
X144792686Y-97515186D01*
X144792683Y-97515188D01*
X144699502Y-97608369D01*
X144699500Y-97608372D01*
X144633608Y-97722498D01*
X144604482Y-97831202D01*
X144599500Y-97849794D01*
X141475177Y-97849794D01*
X141570985Y-97753986D01*
X143190863Y-96134108D01*
X143899500Y-96134108D01*
X143899500Y-96265892D01*
X143908505Y-96299500D01*
X143933608Y-96393187D01*
X143941475Y-96406812D01*
X143999500Y-96507314D01*
X144092686Y-96600500D01*
X144191521Y-96657563D01*
X144205944Y-96665890D01*
X144206814Y-96666392D01*
X144334108Y-96700500D01*
X144334110Y-96700500D01*
X144465890Y-96700500D01*
X144465892Y-96700500D01*
X144593186Y-96666392D01*
X144707314Y-96600500D01*
X144800500Y-96507314D01*
X144866392Y-96393186D01*
X144900500Y-96265892D01*
X144900500Y-96134108D01*
X144866392Y-96006814D01*
X144800500Y-95892686D01*
X144707314Y-95799500D01*
X144650250Y-95766554D01*
X144593187Y-95733608D01*
X144527061Y-95715890D01*
X144465892Y-95699500D01*
X144334108Y-95699500D01*
X144206812Y-95733608D01*
X144092686Y-95799500D01*
X144092683Y-95799502D01*
X143999502Y-95892683D01*
X143999500Y-95892686D01*
X143933608Y-96006812D01*
X143920151Y-96057035D01*
X143899500Y-96134108D01*
X143190863Y-96134108D01*
X143938152Y-95386819D01*
X143999475Y-95353334D01*
X144025833Y-95350500D01*
X149850495Y-95350500D01*
X149917534Y-95370185D01*
X149963289Y-95422989D01*
X149973233Y-95492147D01*
X149970270Y-95506591D01*
X149949500Y-95584108D01*
X149949500Y-95715892D01*
X149966554Y-95779539D01*
X149983608Y-95843187D01*
X150012185Y-95892683D01*
X150049500Y-95957314D01*
X150142686Y-96050500D01*
X150142692Y-96050503D01*
X150143107Y-96050822D01*
X150143374Y-96051188D01*
X150148433Y-96056247D01*
X150147644Y-96057035D01*
X150184311Y-96107249D01*
X150188468Y-96176995D01*
X150155305Y-96236881D01*
X150099500Y-96292686D01*
X150033608Y-96406812D01*
X150027852Y-96428295D01*
X149999500Y-96534108D01*
X149999500Y-96665892D01*
X150004355Y-96684011D01*
X150033608Y-96793187D01*
X150037253Y-96799500D01*
X150099500Y-96907314D01*
X150192686Y-97000500D01*
X150306814Y-97066392D01*
X150434108Y-97100500D01*
X150434110Y-97100500D01*
X150565890Y-97100500D01*
X150565892Y-97100500D01*
X150693186Y-97066392D01*
X150807314Y-97000500D01*
X150900500Y-96907314D01*
X150966392Y-96793186D01*
X151000500Y-96665892D01*
X151000500Y-96534108D01*
X150966392Y-96406814D01*
X150900500Y-96292686D01*
X150807314Y-96199500D01*
X150806890Y-96199175D01*
X150806622Y-96198808D01*
X150801567Y-96193753D01*
X150802355Y-96192964D01*
X150765687Y-96142748D01*
X150761532Y-96073002D01*
X150794692Y-96013121D01*
X150850500Y-95957314D01*
X150916392Y-95843186D01*
X150950500Y-95715892D01*
X150950500Y-95584108D01*
X150929730Y-95506592D01*
X150931393Y-95436743D01*
X150970556Y-95378881D01*
X151034784Y-95351377D01*
X151049505Y-95350500D01*
X152522696Y-95350500D01*
X152589735Y-95370185D01*
X152610377Y-95386819D01*
X153663181Y-96439623D01*
X153696666Y-96500946D01*
X153699500Y-96527304D01*
X153699500Y-97099266D01*
X153679815Y-97166305D01*
X153627011Y-97212060D01*
X153557853Y-97222004D01*
X153494297Y-97192979D01*
X153468113Y-97161267D01*
X153434095Y-97102347D01*
X153400500Y-97044159D01*
X153307314Y-96950973D01*
X153218164Y-96899502D01*
X153193187Y-96885081D01*
X153104474Y-96861311D01*
X153065892Y-96850973D01*
X152934108Y-96850973D01*
X152806812Y-96885081D01*
X152692686Y-96950973D01*
X152692682Y-96950976D01*
X152610219Y-97033438D01*
X152574442Y-97058371D01*
X152564840Y-97062795D01*
X152532538Y-97071452D01*
X152483957Y-97099500D01*
X152479033Y-97102342D01*
X152479024Y-97102347D01*
X152464019Y-97111011D01*
X152464013Y-97111015D01*
X152159541Y-97415487D01*
X152159535Y-97415495D01*
X152119982Y-97484004D01*
X152119979Y-97484009D01*
X152099500Y-97560439D01*
X152099500Y-99847793D01*
X152079815Y-99914832D01*
X152027011Y-99960587D01*
X151957853Y-99970531D01*
X151894297Y-99941506D01*
X151868113Y-99909794D01*
X151839098Y-99859540D01*
X151800500Y-99792686D01*
X151707314Y-99699500D01*
X151649102Y-99665891D01*
X151593187Y-99633608D01*
X151504493Y-99609843D01*
X151465892Y-99599500D01*
X151334108Y-99599500D01*
X151206812Y-99633608D01*
X151092686Y-99699500D01*
X151092683Y-99699502D01*
X151029005Y-99763181D01*
X150967682Y-99796666D01*
X150941324Y-99799500D01*
X150011909Y-99799500D01*
X149944510Y-99817559D01*
X149935478Y-99819980D01*
X149890564Y-99845912D01*
X149866963Y-99859537D01*
X149866958Y-99859541D01*
X147663319Y-102063181D01*
X147601996Y-102096666D01*
X147575638Y-102099500D01*
X138958676Y-102099500D01*
X138891637Y-102079815D01*
X138870995Y-102063181D01*
X138807316Y-101999502D01*
X138807314Y-101999500D01*
X138742451Y-101962051D01*
X138693187Y-101933608D01*
X138627337Y-101915964D01*
X138565892Y-101899500D01*
X138434108Y-101899500D01*
X138306812Y-101933608D01*
X138192686Y-101999500D01*
X138192683Y-101999502D01*
X138099502Y-102092683D01*
X138099500Y-102092686D01*
X138033608Y-102206812D01*
X137999500Y-102334108D01*
X137999500Y-102465891D01*
X138033608Y-102593187D01*
X138060902Y-102640460D01*
X138099500Y-102707314D01*
X138192686Y-102800500D01*
X138306814Y-102866392D01*
X138434108Y-102900500D01*
X138434110Y-102900500D01*
X138565890Y-102900500D01*
X138565892Y-102900500D01*
X138693186Y-102866392D01*
X138807314Y-102800500D01*
X138870995Y-102736819D01*
X138932318Y-102703334D01*
X138958676Y-102700500D01*
X146347794Y-102700500D01*
X146414833Y-102720185D01*
X146460588Y-102772989D01*
X146470532Y-102842147D01*
X146441507Y-102905703D01*
X146409794Y-102931887D01*
X146292689Y-102999497D01*
X146292683Y-102999502D01*
X146199502Y-103092683D01*
X146199500Y-103092686D01*
X146133608Y-103206812D01*
X146099500Y-103334108D01*
X146099500Y-103465891D01*
X146133608Y-103593187D01*
X146166554Y-103650250D01*
X146199500Y-103707314D01*
X146199502Y-103707316D01*
X146280005Y-103787819D01*
X146313490Y-103849142D01*
X146308506Y-103918834D01*
X146266634Y-103974767D01*
X146201170Y-103999184D01*
X146192324Y-103999500D01*
X145513170Y-103999500D01*
X145446131Y-103979815D01*
X145400376Y-103927011D01*
X145393395Y-103907593D01*
X145366392Y-103806814D01*
X145300500Y-103692686D01*
X145207314Y-103599500D01*
X145140500Y-103560925D01*
X145093187Y-103533608D01*
X145029539Y-103516554D01*
X144965892Y-103499500D01*
X144834108Y-103499500D01*
X144706812Y-103533608D01*
X144592686Y-103599500D01*
X144592683Y-103599502D01*
X144499502Y-103692683D01*
X144499500Y-103692686D01*
X144433608Y-103806812D01*
X144399500Y-103934108D01*
X144399500Y-104065891D01*
X144433608Y-104193187D01*
X144466554Y-104250250D01*
X144499500Y-104307314D01*
X144592686Y-104400500D01*
X144706814Y-104466392D01*
X144834108Y-104500500D01*
X144834110Y-104500500D01*
X144924167Y-104500500D01*
X144991206Y-104520185D01*
X145011848Y-104536819D01*
X145015489Y-104540460D01*
X145015491Y-104540461D01*
X145015495Y-104540464D01*
X145072588Y-104573426D01*
X145084011Y-104580021D01*
X145160438Y-104600500D01*
X145160440Y-104600500D01*
X147839560Y-104600500D01*
X147839562Y-104600500D01*
X147915989Y-104580021D01*
X147984511Y-104540460D01*
X148040460Y-104484511D01*
X150782160Y-101742809D01*
X150843481Y-101709326D01*
X150913173Y-101714310D01*
X150931834Y-101723102D01*
X151006814Y-101766392D01*
X151134108Y-101800500D01*
X151134110Y-101800500D01*
X151265890Y-101800500D01*
X151265892Y-101800500D01*
X151393186Y-101766392D01*
X151507314Y-101700500D01*
X151600500Y-101607314D01*
X151666392Y-101493186D01*
X151700500Y-101365892D01*
X151700500Y-101234108D01*
X151666392Y-101106814D01*
X151600500Y-100992686D01*
X151507314Y-100899500D01*
X151507312Y-100899499D01*
X151507310Y-100899497D01*
X151390206Y-100831887D01*
X151341990Y-100781320D01*
X151328768Y-100712713D01*
X151354736Y-100647848D01*
X151411650Y-100607320D01*
X151452206Y-100600500D01*
X151465890Y-100600500D01*
X151465892Y-100600500D01*
X151593186Y-100566392D01*
X151707314Y-100500500D01*
X151800500Y-100407314D01*
X151832317Y-100352206D01*
X151868113Y-100290206D01*
X151918680Y-100241990D01*
X151987287Y-100228768D01*
X152052152Y-100254736D01*
X152092680Y-100311650D01*
X152099500Y-100352206D01*
X152099500Y-105224167D01*
X152079815Y-105291206D01*
X152063181Y-105311848D01*
X148211848Y-109163181D01*
X148150525Y-109196666D01*
X148124167Y-109199500D01*
X147840540Y-109199500D01*
X147778540Y-109182887D01*
X147693188Y-109133609D01*
X147693187Y-109133608D01*
X147693186Y-109133608D01*
X147565892Y-109099500D01*
X147434108Y-109099500D01*
X147306812Y-109133608D01*
X147192686Y-109199500D01*
X147192683Y-109199502D01*
X147099502Y-109292683D01*
X147099500Y-109292686D01*
X147033608Y-109406812D01*
X147006680Y-109507313D01*
X146999500Y-109534108D01*
X146999500Y-109665892D01*
X147009944Y-109704870D01*
X147033608Y-109793187D01*
X147045789Y-109814284D01*
X147099500Y-109907314D01*
X147192686Y-110000500D01*
X147306814Y-110066392D01*
X147434108Y-110100500D01*
X147434110Y-110100500D01*
X147565890Y-110100500D01*
X147565892Y-110100500D01*
X147693186Y-110066392D01*
X147807314Y-110000500D01*
X147900500Y-109907314D01*
X147926373Y-109862499D01*
X147976940Y-109814284D01*
X148033760Y-109800500D01*
X148339560Y-109800500D01*
X148339562Y-109800500D01*
X148415989Y-109780021D01*
X148484511Y-109740460D01*
X148540460Y-109684511D01*
X152640460Y-105584511D01*
X152680022Y-105515988D01*
X152700500Y-105439562D01*
X152700500Y-105360438D01*
X152700500Y-97950977D01*
X152720185Y-97883938D01*
X152772989Y-97838183D01*
X152842147Y-97828239D01*
X152856571Y-97831197D01*
X152934108Y-97851973D01*
X152934111Y-97851973D01*
X153065890Y-97851973D01*
X153065892Y-97851973D01*
X153193186Y-97817865D01*
X153307314Y-97751973D01*
X153400500Y-97658787D01*
X153455732Y-97563123D01*
X153468113Y-97541679D01*
X153518680Y-97493463D01*
X153587287Y-97480241D01*
X153652152Y-97506209D01*
X153692680Y-97563123D01*
X153699500Y-97603679D01*
X153699500Y-100786829D01*
X153679815Y-100853868D01*
X153627011Y-100899623D01*
X153607594Y-100906604D01*
X153565176Y-100917969D01*
X153506814Y-100933608D01*
X153506812Y-100933608D01*
X153506812Y-100933609D01*
X153392686Y-100999500D01*
X153392683Y-100999502D01*
X153299502Y-101092683D01*
X153299500Y-101092686D01*
X153233608Y-101206812D01*
X153199500Y-101334108D01*
X153199500Y-101465891D01*
X153233608Y-101593187D01*
X153241766Y-101607316D01*
X153299500Y-101707314D01*
X153392686Y-101800500D01*
X153506814Y-101866392D01*
X153634108Y-101900500D01*
X153634110Y-101900500D01*
X153765890Y-101900500D01*
X153765892Y-101900500D01*
X153893186Y-101866392D01*
X153913499Y-101854663D01*
X153981399Y-101838191D01*
X154047426Y-101861043D01*
X154090617Y-101915964D01*
X154099500Y-101962051D01*
X154099500Y-113324167D01*
X154079815Y-113391206D01*
X154063181Y-113411848D01*
X151811848Y-115663181D01*
X151750525Y-115696666D01*
X151724167Y-115699500D01*
X139940438Y-115699500D01*
X139902224Y-115709739D01*
X139864009Y-115719979D01*
X139864004Y-115719982D01*
X139795495Y-115759535D01*
X139795487Y-115759541D01*
X139257104Y-116297923D01*
X139195781Y-116331408D01*
X139126089Y-116326424D01*
X139121971Y-116324803D01*
X139001424Y-116274871D01*
X139001412Y-116274868D01*
X138798469Y-116234500D01*
X138798465Y-116234500D01*
X138591535Y-116234500D01*
X138591530Y-116234500D01*
X138388587Y-116274868D01*
X138388579Y-116274870D01*
X138197403Y-116354058D01*
X138025342Y-116469024D01*
X137879024Y-116615342D01*
X137764058Y-116787403D01*
X137684870Y-116978579D01*
X137684868Y-116978587D01*
X137644500Y-117181530D01*
X137644500Y-117388469D01*
X137684868Y-117591412D01*
X137684870Y-117591420D01*
X137756137Y-117763474D01*
X137764059Y-117782598D01*
X137781811Y-117809166D01*
X137879024Y-117954657D01*
X138025342Y-118100975D01*
X138025345Y-118100977D01*
X138197402Y-118215941D01*
X138388580Y-118295130D01*
X138591530Y-118335499D01*
X138591534Y-118335500D01*
X138591535Y-118335500D01*
X138798466Y-118335500D01*
X138798467Y-118335499D01*
X139001420Y-118295130D01*
X139192598Y-118215941D01*
X139364655Y-118100977D01*
X139510977Y-117954655D01*
X139625941Y-117782598D01*
X139705130Y-117591420D01*
X139745500Y-117388465D01*
X139745500Y-117181535D01*
X139705130Y-116978580D01*
X139655194Y-116858026D01*
X139647726Y-116788559D01*
X139679001Y-116726080D01*
X139682044Y-116722925D01*
X140068152Y-116336819D01*
X140129475Y-116303334D01*
X140155833Y-116300500D01*
X140434505Y-116300500D01*
X140501544Y-116320185D01*
X140547299Y-116372989D01*
X140557243Y-116442147D01*
X140528218Y-116505703D01*
X140522186Y-116512181D01*
X140419025Y-116615341D01*
X140419024Y-116615342D01*
X140304058Y-116787403D01*
X140224870Y-116978579D01*
X140224868Y-116978587D01*
X140184500Y-117181530D01*
X140184500Y-117388469D01*
X140224868Y-117591412D01*
X140224870Y-117591420D01*
X140296137Y-117763474D01*
X140304059Y-117782598D01*
X140321811Y-117809166D01*
X140419024Y-117954657D01*
X140565342Y-118100975D01*
X140565345Y-118100977D01*
X140737402Y-118215941D01*
X140928580Y-118295130D01*
X141131530Y-118335499D01*
X141131534Y-118335500D01*
X141131535Y-118335500D01*
X141338466Y-118335500D01*
X141338467Y-118335499D01*
X141541420Y-118295130D01*
X141732598Y-118215941D01*
X141904655Y-118100977D01*
X142050977Y-117954655D01*
X142165941Y-117782598D01*
X142245130Y-117591420D01*
X142285500Y-117388465D01*
X142285500Y-117181535D01*
X142245130Y-116978580D01*
X142165941Y-116787402D01*
X142050977Y-116615345D01*
X142050975Y-116615342D01*
X141947814Y-116512181D01*
X141914329Y-116450858D01*
X141919313Y-116381166D01*
X141961185Y-116325233D01*
X142026649Y-116300816D01*
X142035495Y-116300500D01*
X142974505Y-116300500D01*
X143041544Y-116320185D01*
X143087299Y-116372989D01*
X143097243Y-116442147D01*
X143068218Y-116505703D01*
X143062186Y-116512181D01*
X142959025Y-116615341D01*
X142959024Y-116615342D01*
X142844058Y-116787403D01*
X142764870Y-116978579D01*
X142764868Y-116978587D01*
X142724500Y-117181530D01*
X142724500Y-117388469D01*
X142764868Y-117591412D01*
X142764870Y-117591420D01*
X142836137Y-117763474D01*
X142844059Y-117782598D01*
X142861811Y-117809166D01*
X142959024Y-117954657D01*
X143105342Y-118100975D01*
X143105345Y-118100977D01*
X143277402Y-118215941D01*
X143468580Y-118295130D01*
X143671530Y-118335499D01*
X143671534Y-118335500D01*
X143671535Y-118335500D01*
X143878466Y-118335500D01*
X143878467Y-118335499D01*
X144081420Y-118295130D01*
X144272598Y-118215941D01*
X144444655Y-118100977D01*
X144590977Y-117954655D01*
X144705941Y-117782598D01*
X144785130Y-117591420D01*
X144825500Y-117388465D01*
X144825500Y-117181535D01*
X144785130Y-116978580D01*
X144705941Y-116787402D01*
X144590977Y-116615345D01*
X144590975Y-116615342D01*
X144487814Y-116512181D01*
X144454329Y-116450858D01*
X144459313Y-116381166D01*
X144501185Y-116325233D01*
X144566649Y-116300816D01*
X144575495Y-116300500D01*
X145514505Y-116300500D01*
X145581544Y-116320185D01*
X145627299Y-116372989D01*
X145637243Y-116442147D01*
X145608218Y-116505703D01*
X145602186Y-116512181D01*
X145499025Y-116615341D01*
X145499024Y-116615342D01*
X145384058Y-116787403D01*
X145304870Y-116978579D01*
X145304868Y-116978587D01*
X145264500Y-117181530D01*
X145264500Y-117388469D01*
X145304868Y-117591412D01*
X145304870Y-117591420D01*
X145376137Y-117763474D01*
X145384059Y-117782598D01*
X145401811Y-117809166D01*
X145499024Y-117954657D01*
X145645342Y-118100975D01*
X145645345Y-118100977D01*
X145817402Y-118215941D01*
X146008580Y-118295130D01*
X146211530Y-118335499D01*
X146211534Y-118335500D01*
X146211535Y-118335500D01*
X146418466Y-118335500D01*
X146418467Y-118335499D01*
X146621420Y-118295130D01*
X146812598Y-118215941D01*
X146984655Y-118100977D01*
X147130977Y-117954655D01*
X147245941Y-117782598D01*
X147325130Y-117591420D01*
X147365500Y-117388465D01*
X147365500Y-117181535D01*
X147325130Y-116978580D01*
X147245941Y-116787402D01*
X147130977Y-116615345D01*
X147130975Y-116615342D01*
X147027814Y-116512181D01*
X146994329Y-116450858D01*
X146999313Y-116381166D01*
X147041185Y-116325233D01*
X147106649Y-116300816D01*
X147115495Y-116300500D01*
X148054505Y-116300500D01*
X148121544Y-116320185D01*
X148167299Y-116372989D01*
X148177243Y-116442147D01*
X148148218Y-116505703D01*
X148142186Y-116512181D01*
X148039025Y-116615341D01*
X148039024Y-116615342D01*
X147924058Y-116787403D01*
X147844870Y-116978579D01*
X147844868Y-116978587D01*
X147804500Y-117181530D01*
X147804500Y-117388469D01*
X147844868Y-117591412D01*
X147844870Y-117591420D01*
X147916137Y-117763474D01*
X147924059Y-117782598D01*
X147941811Y-117809166D01*
X148039024Y-117954657D01*
X148185342Y-118100975D01*
X148357405Y-118215943D01*
X148446935Y-118253027D01*
X148522108Y-118284164D01*
X148576511Y-118328005D01*
X148598576Y-118394299D01*
X148581297Y-118461998D01*
X148530160Y-118509609D01*
X148512974Y-118516656D01*
X148336781Y-118573905D01*
X148147439Y-118670380D01*
X148093282Y-118709727D01*
X148093282Y-118709728D01*
X148725591Y-119342037D01*
X148662007Y-119359075D01*
X148547993Y-119424901D01*
X148454901Y-119517993D01*
X148389075Y-119632007D01*
X148372037Y-119695591D01*
X147739728Y-119063282D01*
X147739727Y-119063282D01*
X147700380Y-119117439D01*
X147603905Y-119306781D01*
X147546656Y-119482974D01*
X147507218Y-119540649D01*
X147442859Y-119567847D01*
X147374013Y-119555932D01*
X147322537Y-119508688D01*
X147314164Y-119492107D01*
X147245943Y-119327405D01*
X147130975Y-119155342D01*
X146984657Y-119009024D01*
X146898626Y-118951541D01*
X146812598Y-118894059D01*
X146621420Y-118814870D01*
X146621412Y-118814868D01*
X146418469Y-118774500D01*
X146418465Y-118774500D01*
X146211535Y-118774500D01*
X146211530Y-118774500D01*
X146008587Y-118814868D01*
X146008579Y-118814870D01*
X145817403Y-118894058D01*
X145645342Y-119009024D01*
X145499024Y-119155342D01*
X145384058Y-119327403D01*
X145304870Y-119518579D01*
X145304868Y-119518587D01*
X145264500Y-119721530D01*
X145264500Y-119928469D01*
X145304868Y-120131412D01*
X145304870Y-120131420D01*
X145370939Y-120290925D01*
X145384059Y-120322598D01*
X145397836Y-120343217D01*
X145499024Y-120494657D01*
X145645342Y-120640975D01*
X145645345Y-120640977D01*
X145817402Y-120755941D01*
X146008580Y-120835130D01*
X146211530Y-120875499D01*
X146211534Y-120875500D01*
X146211535Y-120875500D01*
X146418466Y-120875500D01*
X146418467Y-120875499D01*
X146621420Y-120835130D01*
X146812598Y-120755941D01*
X146984655Y-120640977D01*
X147130977Y-120494655D01*
X147245941Y-120322598D01*
X147314165Y-120157889D01*
X147358004Y-120103488D01*
X147424298Y-120081423D01*
X147491998Y-120098702D01*
X147539609Y-120149839D01*
X147546656Y-120167026D01*
X147603904Y-120343216D01*
X147700375Y-120532550D01*
X147739728Y-120586716D01*
X148372037Y-119954408D01*
X148389075Y-120017993D01*
X148454901Y-120132007D01*
X148547993Y-120225099D01*
X148662007Y-120290925D01*
X148725590Y-120307962D01*
X148093282Y-120940269D01*
X148093282Y-120940270D01*
X148147449Y-120979624D01*
X148336782Y-121076095D01*
X148538870Y-121141757D01*
X148748754Y-121175000D01*
X148961246Y-121175000D01*
X149171127Y-121141757D01*
X149171130Y-121141757D01*
X149373217Y-121076095D01*
X149562554Y-120979622D01*
X149616716Y-120940270D01*
X149616717Y-120940270D01*
X148984408Y-120307962D01*
X149047993Y-120290925D01*
X149162007Y-120225099D01*
X149255099Y-120132007D01*
X149320925Y-120017993D01*
X149337962Y-119954408D01*
X149970270Y-120586717D01*
X149970270Y-120586716D01*
X150009622Y-120532554D01*
X150106095Y-120343217D01*
X150163343Y-120167026D01*
X150202780Y-120109351D01*
X150267139Y-120082152D01*
X150335985Y-120094066D01*
X150387461Y-120141310D01*
X150395835Y-120157891D01*
X150450939Y-120290925D01*
X150464059Y-120322598D01*
X150477836Y-120343217D01*
X150579024Y-120494657D01*
X150725342Y-120640975D01*
X150725345Y-120640977D01*
X150897402Y-120755941D01*
X151088580Y-120835130D01*
X151291530Y-120875499D01*
X151291534Y-120875500D01*
X151291535Y-120875500D01*
X151498466Y-120875500D01*
X151498467Y-120875499D01*
X151701420Y-120835130D01*
X151892598Y-120755941D01*
X152064655Y-120640977D01*
X152210977Y-120494655D01*
X152325941Y-120322598D01*
X152405130Y-120131420D01*
X152445500Y-119928465D01*
X152445500Y-119721535D01*
X152445499Y-119721530D01*
X152884500Y-119721530D01*
X152884500Y-119928469D01*
X152924868Y-120131412D01*
X152924870Y-120131420D01*
X152990939Y-120290925D01*
X153004059Y-120322598D01*
X153017836Y-120343217D01*
X153119024Y-120494657D01*
X153265342Y-120640975D01*
X153265345Y-120640977D01*
X153437402Y-120755941D01*
X153628580Y-120835130D01*
X153831530Y-120875499D01*
X153831534Y-120875500D01*
X153831535Y-120875500D01*
X154038466Y-120875500D01*
X154038467Y-120875499D01*
X154241420Y-120835130D01*
X154432598Y-120755941D01*
X154604655Y-120640977D01*
X154750977Y-120494655D01*
X154865941Y-120322598D01*
X154945130Y-120131420D01*
X154985500Y-119928465D01*
X154985500Y-119721535D01*
X154985499Y-119721530D01*
X155424500Y-119721530D01*
X155424500Y-119928469D01*
X155464868Y-120131412D01*
X155464870Y-120131420D01*
X155530939Y-120290925D01*
X155544059Y-120322598D01*
X155557836Y-120343217D01*
X155659024Y-120494657D01*
X155805342Y-120640975D01*
X155805345Y-120640977D01*
X155977402Y-120755941D01*
X156168580Y-120835130D01*
X156371530Y-120875499D01*
X156371534Y-120875500D01*
X156371535Y-120875500D01*
X156578466Y-120875500D01*
X156578467Y-120875499D01*
X156781420Y-120835130D01*
X156972598Y-120755941D01*
X157144655Y-120640977D01*
X157290977Y-120494655D01*
X157405941Y-120322598D01*
X157485130Y-120131420D01*
X157525500Y-119928465D01*
X157525500Y-119721535D01*
X157525499Y-119721530D01*
X157964500Y-119721530D01*
X157964500Y-119928469D01*
X158004868Y-120131412D01*
X158004870Y-120131420D01*
X158070939Y-120290925D01*
X158084059Y-120322598D01*
X158097836Y-120343217D01*
X158199024Y-120494657D01*
X158345342Y-120640975D01*
X158345345Y-120640977D01*
X158517402Y-120755941D01*
X158708580Y-120835130D01*
X158911530Y-120875499D01*
X158911534Y-120875500D01*
X158911535Y-120875500D01*
X159118466Y-120875500D01*
X159118467Y-120875499D01*
X159321420Y-120835130D01*
X159512598Y-120755941D01*
X159684655Y-120640977D01*
X159830977Y-120494655D01*
X159945941Y-120322598D01*
X160025130Y-120131420D01*
X160065500Y-119928465D01*
X160065500Y-119721535D01*
X160025130Y-119518580D01*
X159945941Y-119327402D01*
X159830977Y-119155345D01*
X159830975Y-119155342D01*
X159684657Y-119009024D01*
X159598626Y-118951541D01*
X159512598Y-118894059D01*
X159321420Y-118814870D01*
X159321412Y-118814868D01*
X159118469Y-118774500D01*
X159118465Y-118774500D01*
X158911535Y-118774500D01*
X158911530Y-118774500D01*
X158708587Y-118814868D01*
X158708579Y-118814870D01*
X158517403Y-118894058D01*
X158345342Y-119009024D01*
X158199024Y-119155342D01*
X158084058Y-119327403D01*
X158004870Y-119518579D01*
X158004868Y-119518587D01*
X157964500Y-119721530D01*
X157525499Y-119721530D01*
X157485130Y-119518580D01*
X157405941Y-119327402D01*
X157290977Y-119155345D01*
X157290975Y-119155342D01*
X157144657Y-119009024D01*
X157058626Y-118951541D01*
X156972598Y-118894059D01*
X156781420Y-118814870D01*
X156781412Y-118814868D01*
X156578469Y-118774500D01*
X156578465Y-118774500D01*
X156371535Y-118774500D01*
X156371530Y-118774500D01*
X156168587Y-118814868D01*
X156168579Y-118814870D01*
X155977403Y-118894058D01*
X155805342Y-119009024D01*
X155659024Y-119155342D01*
X155544058Y-119327403D01*
X155464870Y-119518579D01*
X155464868Y-119518587D01*
X155424500Y-119721530D01*
X154985499Y-119721530D01*
X154945130Y-119518580D01*
X154865941Y-119327402D01*
X154750977Y-119155345D01*
X154750975Y-119155342D01*
X154604657Y-119009024D01*
X154518626Y-118951541D01*
X154432598Y-118894059D01*
X154241420Y-118814870D01*
X154241412Y-118814868D01*
X154038469Y-118774500D01*
X154038465Y-118774500D01*
X153831535Y-118774500D01*
X153831530Y-118774500D01*
X153628587Y-118814868D01*
X153628579Y-118814870D01*
X153437403Y-118894058D01*
X153265342Y-119009024D01*
X153119024Y-119155342D01*
X153004058Y-119327403D01*
X152924870Y-119518579D01*
X152924868Y-119518587D01*
X152884500Y-119721530D01*
X152445499Y-119721530D01*
X152405130Y-119518580D01*
X152325941Y-119327402D01*
X152210977Y-119155345D01*
X152210975Y-119155342D01*
X152064657Y-119009024D01*
X151978626Y-118951541D01*
X151892598Y-118894059D01*
X151701420Y-118814870D01*
X151701412Y-118814868D01*
X151498469Y-118774500D01*
X151498465Y-118774500D01*
X151291535Y-118774500D01*
X151291530Y-118774500D01*
X151088587Y-118814868D01*
X151088579Y-118814870D01*
X150897403Y-118894058D01*
X150725342Y-119009024D01*
X150579024Y-119155342D01*
X150464057Y-119327403D01*
X150395835Y-119492108D01*
X150351994Y-119546511D01*
X150285700Y-119568576D01*
X150218000Y-119551297D01*
X150170390Y-119500159D01*
X150163343Y-119482973D01*
X150106095Y-119306782D01*
X150009624Y-119117449D01*
X149970270Y-119063282D01*
X149970269Y-119063282D01*
X149337962Y-119695590D01*
X149320925Y-119632007D01*
X149255099Y-119517993D01*
X149162007Y-119424901D01*
X149047993Y-119359075D01*
X148984409Y-119342037D01*
X149616716Y-118709728D01*
X149562550Y-118670375D01*
X149373216Y-118573904D01*
X149197026Y-118516656D01*
X149139350Y-118477218D01*
X149112152Y-118412860D01*
X149124067Y-118344013D01*
X149171311Y-118292538D01*
X149187882Y-118284168D01*
X149352598Y-118215941D01*
X149524655Y-118100977D01*
X149670977Y-117954655D01*
X149785941Y-117782598D01*
X149865130Y-117591420D01*
X149905500Y-117388465D01*
X149905500Y-117181535D01*
X149865130Y-116978580D01*
X149785941Y-116787402D01*
X149670977Y-116615345D01*
X149670975Y-116615342D01*
X149567814Y-116512181D01*
X149534329Y-116450858D01*
X149539313Y-116381166D01*
X149581185Y-116325233D01*
X149646649Y-116300816D01*
X149655495Y-116300500D01*
X150594505Y-116300500D01*
X150661544Y-116320185D01*
X150707299Y-116372989D01*
X150717243Y-116442147D01*
X150688218Y-116505703D01*
X150682186Y-116512181D01*
X150579025Y-116615341D01*
X150579024Y-116615342D01*
X150464058Y-116787403D01*
X150384870Y-116978579D01*
X150384868Y-116978587D01*
X150344500Y-117181530D01*
X150344500Y-117388469D01*
X150384868Y-117591412D01*
X150384870Y-117591420D01*
X150456137Y-117763474D01*
X150464059Y-117782598D01*
X150481811Y-117809166D01*
X150579024Y-117954657D01*
X150725342Y-118100975D01*
X150725345Y-118100977D01*
X150897402Y-118215941D01*
X151088580Y-118295130D01*
X151291530Y-118335499D01*
X151291534Y-118335500D01*
X151291535Y-118335500D01*
X151498466Y-118335500D01*
X151498467Y-118335499D01*
X151701420Y-118295130D01*
X151892598Y-118215941D01*
X152064655Y-118100977D01*
X152210977Y-117954655D01*
X152325941Y-117782598D01*
X152405130Y-117591420D01*
X152445500Y-117388465D01*
X152445500Y-117181535D01*
X152445499Y-117181530D01*
X152884500Y-117181530D01*
X152884500Y-117388469D01*
X152924868Y-117591412D01*
X152924870Y-117591420D01*
X152996137Y-117763474D01*
X153004059Y-117782598D01*
X153021811Y-117809166D01*
X153119024Y-117954657D01*
X153265342Y-118100975D01*
X153265345Y-118100977D01*
X153437402Y-118215941D01*
X153628580Y-118295130D01*
X153831530Y-118335499D01*
X153831534Y-118335500D01*
X153831535Y-118335500D01*
X154038466Y-118335500D01*
X154038467Y-118335499D01*
X154241420Y-118295130D01*
X154432598Y-118215941D01*
X154604655Y-118100977D01*
X154750977Y-117954655D01*
X154865941Y-117782598D01*
X154945130Y-117591420D01*
X154985500Y-117388465D01*
X154985500Y-117181535D01*
X154985499Y-117181530D01*
X155424500Y-117181530D01*
X155424500Y-117388469D01*
X155464868Y-117591412D01*
X155464870Y-117591420D01*
X155536137Y-117763474D01*
X155544059Y-117782598D01*
X155561811Y-117809166D01*
X155659024Y-117954657D01*
X155805342Y-118100975D01*
X155805345Y-118100977D01*
X155977402Y-118215941D01*
X156168580Y-118295130D01*
X156371530Y-118335499D01*
X156371534Y-118335500D01*
X156371535Y-118335500D01*
X156578466Y-118335500D01*
X156578467Y-118335499D01*
X156781420Y-118295130D01*
X156972598Y-118215941D01*
X157144655Y-118100977D01*
X157290977Y-117954655D01*
X157405941Y-117782598D01*
X157485130Y-117591420D01*
X157525500Y-117388465D01*
X157525500Y-117181535D01*
X157525499Y-117181530D01*
X157964500Y-117181530D01*
X157964500Y-117388469D01*
X158004868Y-117591412D01*
X158004870Y-117591420D01*
X158076137Y-117763474D01*
X158084059Y-117782598D01*
X158101811Y-117809166D01*
X158199024Y-117954657D01*
X158345342Y-118100975D01*
X158345345Y-118100977D01*
X158517402Y-118215941D01*
X158708580Y-118295130D01*
X158911530Y-118335499D01*
X158911534Y-118335500D01*
X158911535Y-118335500D01*
X159118466Y-118335500D01*
X159118467Y-118335499D01*
X159321420Y-118295130D01*
X159512598Y-118215941D01*
X159684655Y-118100977D01*
X159830977Y-117954655D01*
X159945941Y-117782598D01*
X160025130Y-117591420D01*
X160065500Y-117388465D01*
X160065500Y-117181535D01*
X160065499Y-117181530D01*
X160504500Y-117181530D01*
X160504500Y-117388469D01*
X160544868Y-117591412D01*
X160544870Y-117591420D01*
X160616137Y-117763474D01*
X160624059Y-117782598D01*
X160641811Y-117809166D01*
X160739024Y-117954657D01*
X160885342Y-118100975D01*
X160885345Y-118100977D01*
X161057402Y-118215941D01*
X161248580Y-118295130D01*
X161451530Y-118335499D01*
X161451534Y-118335500D01*
X161451535Y-118335500D01*
X161658466Y-118335500D01*
X161658467Y-118335499D01*
X161861420Y-118295130D01*
X162052598Y-118215941D01*
X162224655Y-118100977D01*
X162370977Y-117954655D01*
X162485941Y-117782598D01*
X162565130Y-117591420D01*
X162605500Y-117388465D01*
X162605500Y-117181535D01*
X162605499Y-117181530D01*
X163044500Y-117181530D01*
X163044500Y-117388469D01*
X163084868Y-117591412D01*
X163084870Y-117591420D01*
X163156137Y-117763474D01*
X163164059Y-117782598D01*
X163181811Y-117809166D01*
X163279024Y-117954657D01*
X163425342Y-118100975D01*
X163425345Y-118100977D01*
X163597402Y-118215941D01*
X163788580Y-118295130D01*
X163991530Y-118335499D01*
X163991534Y-118335500D01*
X163991535Y-118335500D01*
X164198466Y-118335500D01*
X164198467Y-118335499D01*
X164401420Y-118295130D01*
X164592598Y-118215941D01*
X164764655Y-118100977D01*
X164910977Y-117954655D01*
X165025941Y-117782598D01*
X165105130Y-117591420D01*
X165145500Y-117388465D01*
X165145500Y-117181535D01*
X165145499Y-117181530D01*
X165584500Y-117181530D01*
X165584500Y-117388469D01*
X165624868Y-117591412D01*
X165624870Y-117591420D01*
X165696137Y-117763474D01*
X165704059Y-117782598D01*
X165721811Y-117809166D01*
X165819024Y-117954657D01*
X165965342Y-118100975D01*
X165965345Y-118100977D01*
X166137402Y-118215941D01*
X166328580Y-118295130D01*
X166531530Y-118335499D01*
X166531534Y-118335500D01*
X166531535Y-118335500D01*
X166738466Y-118335500D01*
X166738467Y-118335499D01*
X166941420Y-118295130D01*
X167132598Y-118215941D01*
X167304655Y-118100977D01*
X167450977Y-117954655D01*
X167565941Y-117782598D01*
X167645130Y-117591420D01*
X167685500Y-117388465D01*
X167685500Y-117181535D01*
X167645130Y-116978580D01*
X167565941Y-116787402D01*
X167450977Y-116615345D01*
X167450975Y-116615342D01*
X167304657Y-116469024D01*
X167215912Y-116409727D01*
X167132598Y-116354059D01*
X167132593Y-116354057D01*
X166941420Y-116274870D01*
X166941412Y-116274868D01*
X166738469Y-116234500D01*
X166738465Y-116234500D01*
X166531535Y-116234500D01*
X166531530Y-116234500D01*
X166328587Y-116274868D01*
X166328579Y-116274870D01*
X166137403Y-116354058D01*
X165965342Y-116469024D01*
X165819024Y-116615342D01*
X165704058Y-116787403D01*
X165624870Y-116978579D01*
X165624868Y-116978587D01*
X165584500Y-117181530D01*
X165145499Y-117181530D01*
X165105130Y-116978580D01*
X165025941Y-116787402D01*
X164910977Y-116615345D01*
X164910975Y-116615342D01*
X164764657Y-116469024D01*
X164675912Y-116409727D01*
X164592598Y-116354059D01*
X164592593Y-116354057D01*
X164401420Y-116274870D01*
X164401412Y-116274868D01*
X164198469Y-116234500D01*
X164198465Y-116234500D01*
X163991535Y-116234500D01*
X163991530Y-116234500D01*
X163788587Y-116274868D01*
X163788579Y-116274870D01*
X163597403Y-116354058D01*
X163425342Y-116469024D01*
X163279024Y-116615342D01*
X163164058Y-116787403D01*
X163084870Y-116978579D01*
X163084868Y-116978587D01*
X163044500Y-117181530D01*
X162605499Y-117181530D01*
X162565130Y-116978580D01*
X162485941Y-116787402D01*
X162370977Y-116615345D01*
X162370975Y-116615342D01*
X162224657Y-116469024D01*
X162135912Y-116409727D01*
X162052598Y-116354059D01*
X162052593Y-116354057D01*
X161861420Y-116274870D01*
X161861412Y-116274868D01*
X161658469Y-116234500D01*
X161658465Y-116234500D01*
X161451535Y-116234500D01*
X161451530Y-116234500D01*
X161248587Y-116274868D01*
X161248579Y-116274870D01*
X161057403Y-116354058D01*
X160885342Y-116469024D01*
X160739024Y-116615342D01*
X160624058Y-116787403D01*
X160544870Y-116978579D01*
X160544868Y-116978587D01*
X160504500Y-117181530D01*
X160065499Y-117181530D01*
X160025130Y-116978580D01*
X159945941Y-116787402D01*
X159830977Y-116615345D01*
X159830975Y-116615342D01*
X159684657Y-116469024D01*
X159595912Y-116409727D01*
X159512598Y-116354059D01*
X159512593Y-116354057D01*
X159321420Y-116274870D01*
X159321412Y-116274868D01*
X159118469Y-116234500D01*
X159118465Y-116234500D01*
X158911535Y-116234500D01*
X158911530Y-116234500D01*
X158708587Y-116274868D01*
X158708579Y-116274870D01*
X158517403Y-116354058D01*
X158345342Y-116469024D01*
X158199024Y-116615342D01*
X158084058Y-116787403D01*
X158004870Y-116978579D01*
X158004868Y-116978587D01*
X157964500Y-117181530D01*
X157525499Y-117181530D01*
X157485130Y-116978580D01*
X157405941Y-116787402D01*
X157290977Y-116615345D01*
X157290975Y-116615342D01*
X157144657Y-116469024D01*
X157055912Y-116409727D01*
X156972598Y-116354059D01*
X156972593Y-116354057D01*
X156781420Y-116274870D01*
X156781412Y-116274868D01*
X156578469Y-116234500D01*
X156578465Y-116234500D01*
X156371535Y-116234500D01*
X156371530Y-116234500D01*
X156168587Y-116274868D01*
X156168579Y-116274870D01*
X155977403Y-116354058D01*
X155805342Y-116469024D01*
X155659024Y-116615342D01*
X155544058Y-116787403D01*
X155464870Y-116978579D01*
X155464868Y-116978587D01*
X155424500Y-117181530D01*
X154985499Y-117181530D01*
X154945130Y-116978580D01*
X154865941Y-116787402D01*
X154750977Y-116615345D01*
X154750975Y-116615342D01*
X154604657Y-116469024D01*
X154515912Y-116409727D01*
X154432598Y-116354059D01*
X154432593Y-116354057D01*
X154241420Y-116274870D01*
X154241412Y-116274868D01*
X154038469Y-116234500D01*
X154038465Y-116234500D01*
X153831535Y-116234500D01*
X153831530Y-116234500D01*
X153628587Y-116274868D01*
X153628579Y-116274870D01*
X153437403Y-116354058D01*
X153265342Y-116469024D01*
X153119024Y-116615342D01*
X153004058Y-116787403D01*
X152924870Y-116978579D01*
X152924868Y-116978587D01*
X152884500Y-117181530D01*
X152445499Y-117181530D01*
X152405130Y-116978580D01*
X152325941Y-116787402D01*
X152210977Y-116615345D01*
X152210975Y-116615342D01*
X152064658Y-116469025D01*
X152064655Y-116469023D01*
X152056152Y-116463341D01*
X152011348Y-116409727D01*
X152002642Y-116340402D01*
X152032798Y-116277375D01*
X152063047Y-116252852D01*
X152074685Y-116246133D01*
X152084511Y-116240460D01*
X152140460Y-116184511D01*
X154640460Y-113684511D01*
X154675124Y-113624471D01*
X154677713Y-113619987D01*
X154677716Y-113619981D01*
X154678994Y-113617767D01*
X154680021Y-113615989D01*
X154700500Y-113539562D01*
X154700500Y-112824833D01*
X154720185Y-112757794D01*
X154772989Y-112712039D01*
X154842147Y-112702095D01*
X154905703Y-112731120D01*
X154912181Y-112737152D01*
X155915489Y-113740460D01*
X155984012Y-113780022D01*
X156060438Y-113800500D01*
X156139562Y-113800500D01*
X168324167Y-113800500D01*
X168391206Y-113820185D01*
X168411848Y-113836819D01*
X168838181Y-114263152D01*
X168871666Y-114324475D01*
X168874500Y-114350833D01*
X168874500Y-116189563D01*
X168854815Y-116256602D01*
X168802011Y-116302357D01*
X168797953Y-116304124D01*
X168677404Y-116354057D01*
X168505342Y-116469024D01*
X168359024Y-116615342D01*
X168244058Y-116787403D01*
X168164870Y-116978579D01*
X168164868Y-116978587D01*
X168124500Y-117181530D01*
X168124500Y-117388469D01*
X168164868Y-117591412D01*
X168164870Y-117591420D01*
X168236137Y-117763474D01*
X168244059Y-117782598D01*
X168261811Y-117809166D01*
X168359024Y-117954657D01*
X168505342Y-118100975D01*
X168505345Y-118100977D01*
X168677402Y-118215941D01*
X168868580Y-118295130D01*
X169071530Y-118335499D01*
X169071534Y-118335500D01*
X169071535Y-118335500D01*
X169278466Y-118335500D01*
X169278467Y-118335499D01*
X169481420Y-118295130D01*
X169672598Y-118215941D01*
X169844655Y-118100977D01*
X169990977Y-117954655D01*
X170105941Y-117782598D01*
X170185130Y-117591420D01*
X170225500Y-117388465D01*
X170225500Y-117181535D01*
X170225499Y-117181530D01*
X170664500Y-117181530D01*
X170664500Y-117388469D01*
X170704868Y-117591412D01*
X170704870Y-117591420D01*
X170776137Y-117763474D01*
X170784059Y-117782598D01*
X170801811Y-117809166D01*
X170899024Y-117954657D01*
X171045342Y-118100975D01*
X171045345Y-118100977D01*
X171217402Y-118215941D01*
X171408580Y-118295130D01*
X171611530Y-118335499D01*
X171611534Y-118335500D01*
X171611535Y-118335500D01*
X171818466Y-118335500D01*
X171818467Y-118335499D01*
X172021420Y-118295130D01*
X172212598Y-118215941D01*
X172384655Y-118100977D01*
X172530977Y-117954655D01*
X172645941Y-117782598D01*
X172725130Y-117591420D01*
X172765500Y-117388465D01*
X172765500Y-117181535D01*
X172725130Y-116978580D01*
X172645941Y-116787402D01*
X172530977Y-116615345D01*
X172530975Y-116615342D01*
X172384657Y-116469024D01*
X172295912Y-116409727D01*
X172212598Y-116354059D01*
X172212593Y-116354057D01*
X172021420Y-116274870D01*
X172021412Y-116274868D01*
X171818469Y-116234500D01*
X171818465Y-116234500D01*
X171611535Y-116234500D01*
X171611530Y-116234500D01*
X171408587Y-116274868D01*
X171408579Y-116274870D01*
X171217403Y-116354058D01*
X171045342Y-116469024D01*
X170899024Y-116615342D01*
X170784058Y-116787403D01*
X170704870Y-116978579D01*
X170704868Y-116978587D01*
X170664500Y-117181530D01*
X170225499Y-117181530D01*
X170185130Y-116978580D01*
X170105941Y-116787402D01*
X169990977Y-116615345D01*
X169990975Y-116615342D01*
X169844657Y-116469024D01*
X169672595Y-116354057D01*
X169552047Y-116304124D01*
X169497643Y-116260282D01*
X169475579Y-116193988D01*
X169475500Y-116189563D01*
X169475500Y-114135439D01*
X169474463Y-114131568D01*
X169455021Y-114059011D01*
X169443188Y-114038515D01*
X169415464Y-113990495D01*
X169415458Y-113990487D01*
X168737152Y-113312181D01*
X168703667Y-113250858D01*
X168708651Y-113181166D01*
X168750523Y-113125233D01*
X168815987Y-113100816D01*
X168824833Y-113100500D01*
X176124167Y-113100500D01*
X176191206Y-113120185D01*
X176211848Y-113136819D01*
X177263181Y-114188152D01*
X177296666Y-114249475D01*
X177299500Y-114275833D01*
X177299500Y-117024167D01*
X177279815Y-117091206D01*
X177263181Y-117111848D01*
X174711848Y-119663181D01*
X174650525Y-119696666D01*
X174624167Y-119699500D01*
X172862881Y-119699500D01*
X172795842Y-119679815D01*
X172750087Y-119627011D01*
X172741265Y-119599698D01*
X172725130Y-119518580D01*
X172645941Y-119327402D01*
X172530977Y-119155345D01*
X172530975Y-119155342D01*
X172384657Y-119009024D01*
X172298626Y-118951541D01*
X172212598Y-118894059D01*
X172021420Y-118814870D01*
X172021412Y-118814868D01*
X171818469Y-118774500D01*
X171818465Y-118774500D01*
X171611535Y-118774500D01*
X171611530Y-118774500D01*
X171408587Y-118814868D01*
X171408579Y-118814870D01*
X171217403Y-118894058D01*
X171045342Y-119009024D01*
X170899024Y-119155342D01*
X170784058Y-119327403D01*
X170704870Y-119518579D01*
X170704868Y-119518587D01*
X170664500Y-119721530D01*
X170664500Y-119928469D01*
X170704868Y-120131412D01*
X170704870Y-120131420D01*
X170784059Y-120322599D01*
X170784059Y-120322600D01*
X170890306Y-120481610D01*
X170911184Y-120548287D01*
X170892699Y-120615667D01*
X170840720Y-120662357D01*
X170787204Y-120674500D01*
X170500833Y-120674500D01*
X170433794Y-120654815D01*
X170413152Y-120638181D01*
X170162075Y-120387104D01*
X170128590Y-120325781D01*
X170133574Y-120256089D01*
X170135163Y-120252049D01*
X170185130Y-120131420D01*
X170225500Y-119928465D01*
X170225500Y-119721535D01*
X170185130Y-119518580D01*
X170105941Y-119327402D01*
X169990977Y-119155345D01*
X169990975Y-119155342D01*
X169844657Y-119009024D01*
X169758626Y-118951541D01*
X169672598Y-118894059D01*
X169481420Y-118814870D01*
X169481412Y-118814868D01*
X169278469Y-118774500D01*
X169278465Y-118774500D01*
X169071535Y-118774500D01*
X169071530Y-118774500D01*
X168868587Y-118814868D01*
X168868579Y-118814870D01*
X168677403Y-118894058D01*
X168505342Y-119009024D01*
X168359024Y-119155342D01*
X168244058Y-119327403D01*
X168164870Y-119518579D01*
X168164868Y-119518587D01*
X168124500Y-119721530D01*
X168124500Y-119928469D01*
X168164868Y-120131412D01*
X168164870Y-120131420D01*
X168230939Y-120290925D01*
X168244059Y-120322598D01*
X168257836Y-120343217D01*
X168359024Y-120494657D01*
X168505342Y-120640975D01*
X168505345Y-120640977D01*
X168677402Y-120755941D01*
X168868580Y-120835130D01*
X168868581Y-120835130D01*
X168870534Y-120835939D01*
X168924937Y-120879780D01*
X168947002Y-120946074D01*
X168929723Y-121013773D01*
X168878586Y-121061384D01*
X168823081Y-121074500D01*
X166986919Y-121074500D01*
X166919880Y-121054815D01*
X166874125Y-121002011D01*
X166864181Y-120932853D01*
X166893206Y-120869297D01*
X166939466Y-120835939D01*
X166941418Y-120835130D01*
X166941420Y-120835130D01*
X167132598Y-120755941D01*
X167304655Y-120640977D01*
X167450977Y-120494655D01*
X167565941Y-120322598D01*
X167645130Y-120131420D01*
X167685500Y-119928465D01*
X167685500Y-119721535D01*
X167645130Y-119518580D01*
X167565941Y-119327402D01*
X167450977Y-119155345D01*
X167450975Y-119155342D01*
X167304657Y-119009024D01*
X167218626Y-118951541D01*
X167132598Y-118894059D01*
X166941420Y-118814870D01*
X166941412Y-118814868D01*
X166738469Y-118774500D01*
X166738465Y-118774500D01*
X166531535Y-118774500D01*
X166531530Y-118774500D01*
X166328587Y-118814868D01*
X166328579Y-118814870D01*
X166137403Y-118894058D01*
X165965342Y-119009024D01*
X165819024Y-119155342D01*
X165704058Y-119327403D01*
X165624870Y-119518579D01*
X165624868Y-119518587D01*
X165584500Y-119721530D01*
X165584500Y-119928469D01*
X165624868Y-120131412D01*
X165624870Y-120131420D01*
X165690939Y-120290925D01*
X165704059Y-120322598D01*
X165717836Y-120343217D01*
X165819024Y-120494657D01*
X165965342Y-120640975D01*
X165965345Y-120640977D01*
X166137402Y-120755941D01*
X166328580Y-120835130D01*
X166328581Y-120835130D01*
X166330534Y-120835939D01*
X166384937Y-120879780D01*
X166407002Y-120946074D01*
X166389723Y-121013773D01*
X166338586Y-121061384D01*
X166283081Y-121074500D01*
X165820833Y-121074500D01*
X165753794Y-121054815D01*
X165733152Y-121038181D01*
X165082075Y-120387104D01*
X165048590Y-120325781D01*
X165053574Y-120256089D01*
X165055163Y-120252049D01*
X165105130Y-120131420D01*
X165145500Y-119928465D01*
X165145500Y-119721535D01*
X165105130Y-119518580D01*
X165025941Y-119327402D01*
X164910977Y-119155345D01*
X164910975Y-119155342D01*
X164764657Y-119009024D01*
X164678626Y-118951541D01*
X164592598Y-118894059D01*
X164401420Y-118814870D01*
X164401412Y-118814868D01*
X164198469Y-118774500D01*
X164198465Y-118774500D01*
X163991535Y-118774500D01*
X163991530Y-118774500D01*
X163788587Y-118814868D01*
X163788579Y-118814870D01*
X163597403Y-118894058D01*
X163425342Y-119009024D01*
X163279024Y-119155342D01*
X163164058Y-119327403D01*
X163084870Y-119518579D01*
X163084868Y-119518587D01*
X163044500Y-119721530D01*
X163044500Y-119928469D01*
X163084868Y-120131412D01*
X163084870Y-120131420D01*
X163150939Y-120290925D01*
X163164059Y-120322598D01*
X163177836Y-120343217D01*
X163279024Y-120494657D01*
X163425342Y-120640975D01*
X163425345Y-120640977D01*
X163597402Y-120755941D01*
X163788580Y-120835130D01*
X163991530Y-120875499D01*
X163991534Y-120875500D01*
X163991535Y-120875500D01*
X164198466Y-120875500D01*
X164198467Y-120875499D01*
X164401420Y-120835130D01*
X164521974Y-120785194D01*
X164591438Y-120777726D01*
X164653918Y-120809000D01*
X164657104Y-120812075D01*
X165132848Y-121287819D01*
X165166333Y-121349142D01*
X165161349Y-121418834D01*
X165119477Y-121474767D01*
X165054013Y-121499184D01*
X165045167Y-121499500D01*
X163705833Y-121499500D01*
X163638794Y-121479815D01*
X163618152Y-121463181D01*
X162542075Y-120387104D01*
X162508590Y-120325781D01*
X162513574Y-120256089D01*
X162515163Y-120252049D01*
X162565130Y-120131420D01*
X162605500Y-119928465D01*
X162605500Y-119721535D01*
X162565130Y-119518580D01*
X162485941Y-119327402D01*
X162370977Y-119155345D01*
X162370975Y-119155342D01*
X162224657Y-119009024D01*
X162138626Y-118951541D01*
X162052598Y-118894059D01*
X161861420Y-118814870D01*
X161861412Y-118814868D01*
X161658469Y-118774500D01*
X161658465Y-118774500D01*
X161451535Y-118774500D01*
X161451530Y-118774500D01*
X161248587Y-118814868D01*
X161248579Y-118814870D01*
X161057403Y-118894058D01*
X160885342Y-119009024D01*
X160739024Y-119155342D01*
X160624058Y-119327403D01*
X160544870Y-119518579D01*
X160544868Y-119518587D01*
X160504500Y-119721530D01*
X160504500Y-119928469D01*
X160544868Y-120131412D01*
X160544870Y-120131420D01*
X160610939Y-120290925D01*
X160624059Y-120322598D01*
X160637836Y-120343217D01*
X160739024Y-120494657D01*
X160885342Y-120640975D01*
X160885345Y-120640977D01*
X161057402Y-120755941D01*
X161248580Y-120835130D01*
X161451530Y-120875499D01*
X161451534Y-120875500D01*
X161451535Y-120875500D01*
X161658466Y-120875500D01*
X161658467Y-120875499D01*
X161861420Y-120835130D01*
X161981974Y-120785194D01*
X162051438Y-120777726D01*
X162113918Y-120809000D01*
X162117104Y-120812075D01*
X162992848Y-121687819D01*
X163026333Y-121749142D01*
X163021349Y-121818834D01*
X162979477Y-121874767D01*
X162914013Y-121899184D01*
X162905167Y-121899500D01*
X141245833Y-121899500D01*
X141178794Y-121879815D01*
X141158152Y-121863181D01*
X139682075Y-120387104D01*
X139648590Y-120325781D01*
X139653574Y-120256089D01*
X139655163Y-120252049D01*
X139705130Y-120131420D01*
X139745500Y-119928465D01*
X139745500Y-119721535D01*
X139745499Y-119721530D01*
X140184500Y-119721530D01*
X140184500Y-119928469D01*
X140224868Y-120131412D01*
X140224870Y-120131420D01*
X140290939Y-120290925D01*
X140304059Y-120322598D01*
X140317836Y-120343217D01*
X140419024Y-120494657D01*
X140565342Y-120640975D01*
X140565345Y-120640977D01*
X140737402Y-120755941D01*
X140928580Y-120835130D01*
X141131530Y-120875499D01*
X141131534Y-120875500D01*
X141131535Y-120875500D01*
X141338466Y-120875500D01*
X141338467Y-120875499D01*
X141541420Y-120835130D01*
X141732598Y-120755941D01*
X141904655Y-120640977D01*
X142050977Y-120494655D01*
X142165941Y-120322598D01*
X142245130Y-120131420D01*
X142285500Y-119928465D01*
X142285500Y-119721535D01*
X142285499Y-119721530D01*
X142724500Y-119721530D01*
X142724500Y-119928469D01*
X142764868Y-120131412D01*
X142764870Y-120131420D01*
X142830939Y-120290925D01*
X142844059Y-120322598D01*
X142857836Y-120343217D01*
X142959024Y-120494657D01*
X143105342Y-120640975D01*
X143105345Y-120640977D01*
X143277402Y-120755941D01*
X143468580Y-120835130D01*
X143671530Y-120875499D01*
X143671534Y-120875500D01*
X143671535Y-120875500D01*
X143878466Y-120875500D01*
X143878467Y-120875499D01*
X144081420Y-120835130D01*
X144272598Y-120755941D01*
X144444655Y-120640977D01*
X144590977Y-120494655D01*
X144705941Y-120322598D01*
X144785130Y-120131420D01*
X144825500Y-119928465D01*
X144825500Y-119721535D01*
X144785130Y-119518580D01*
X144705941Y-119327402D01*
X144590977Y-119155345D01*
X144590975Y-119155342D01*
X144444657Y-119009024D01*
X144358626Y-118951541D01*
X144272598Y-118894059D01*
X144081420Y-118814870D01*
X144081412Y-118814868D01*
X143878469Y-118774500D01*
X143878465Y-118774500D01*
X143671535Y-118774500D01*
X143671530Y-118774500D01*
X143468587Y-118814868D01*
X143468579Y-118814870D01*
X143277403Y-118894058D01*
X143105342Y-119009024D01*
X142959024Y-119155342D01*
X142844058Y-119327403D01*
X142764870Y-119518579D01*
X142764868Y-119518587D01*
X142724500Y-119721530D01*
X142285499Y-119721530D01*
X142245130Y-119518580D01*
X142165941Y-119327402D01*
X142050977Y-119155345D01*
X142050975Y-119155342D01*
X141904657Y-119009024D01*
X141818626Y-118951541D01*
X141732598Y-118894059D01*
X141541420Y-118814870D01*
X141541412Y-118814868D01*
X141338469Y-118774500D01*
X141338465Y-118774500D01*
X141131535Y-118774500D01*
X141131530Y-118774500D01*
X140928587Y-118814868D01*
X140928579Y-118814870D01*
X140737403Y-118894058D01*
X140565342Y-119009024D01*
X140419024Y-119155342D01*
X140304058Y-119327403D01*
X140224870Y-119518579D01*
X140224868Y-119518587D01*
X140184500Y-119721530D01*
X139745499Y-119721530D01*
X139705130Y-119518580D01*
X139625941Y-119327402D01*
X139510977Y-119155345D01*
X139510975Y-119155342D01*
X139364657Y-119009024D01*
X139278626Y-118951541D01*
X139192598Y-118894059D01*
X139001420Y-118814870D01*
X139001412Y-118814868D01*
X138798469Y-118774500D01*
X138798465Y-118774500D01*
X138591535Y-118774500D01*
X138591530Y-118774500D01*
X138388587Y-118814868D01*
X138388579Y-118814870D01*
X138197403Y-118894058D01*
X138025342Y-119009024D01*
X137879024Y-119155342D01*
X137764058Y-119327403D01*
X137684870Y-119518579D01*
X137684868Y-119518587D01*
X137644500Y-119721530D01*
X137644500Y-119928469D01*
X137684868Y-120131412D01*
X137684870Y-120131420D01*
X137750939Y-120290925D01*
X137764059Y-120322598D01*
X137777836Y-120343217D01*
X137879024Y-120494657D01*
X138025342Y-120640975D01*
X138025345Y-120640977D01*
X138197402Y-120755941D01*
X138388580Y-120835130D01*
X138591530Y-120875499D01*
X138591534Y-120875500D01*
X138591535Y-120875500D01*
X138798466Y-120875500D01*
X138798467Y-120875499D01*
X139001420Y-120835130D01*
X139121974Y-120785194D01*
X139191438Y-120777726D01*
X139253918Y-120809000D01*
X139257104Y-120812075D01*
X140829540Y-122384511D01*
X140885489Y-122440460D01*
X140885491Y-122440461D01*
X140885495Y-122440464D01*
X140954004Y-122480017D01*
X140954011Y-122480021D01*
X141030438Y-122500500D01*
X141030440Y-122500500D01*
X175539560Y-122500500D01*
X175539562Y-122500500D01*
X175615989Y-122480021D01*
X175684511Y-122440460D01*
X175740460Y-122384511D01*
X179940460Y-118184511D01*
X179951040Y-118166186D01*
X179980021Y-118115989D01*
X180000500Y-118039562D01*
X180000500Y-114850000D01*
X187575000Y-114850000D01*
X187575503Y-114933955D01*
X187581055Y-115049613D01*
X187583552Y-115101626D01*
X187589194Y-115160261D01*
X187599630Y-115268731D01*
X187599631Y-115268745D01*
X187623700Y-115434859D01*
X187623702Y-115434869D01*
X187655716Y-115599683D01*
X187695588Y-115762743D01*
X187743238Y-115923727D01*
X187798549Y-116082232D01*
X187798561Y-116082263D01*
X187861386Y-116237880D01*
X187861398Y-116237910D01*
X187931628Y-116390369D01*
X187931644Y-116390404D01*
X188009109Y-116539331D01*
X188009111Y-116539334D01*
X188079114Y-116659471D01*
X188093625Y-116684373D01*
X188185002Y-116825205D01*
X188216453Y-116868933D01*
X188283025Y-116961492D01*
X188315881Y-117002837D01*
X188386105Y-117091206D01*
X188387478Y-117092933D01*
X188498087Y-117219187D01*
X188498101Y-117219202D01*
X188600033Y-117324868D01*
X188614655Y-117340025D01*
X188686208Y-117407412D01*
X188736870Y-117455125D01*
X188864449Y-117564220D01*
X188864455Y-117564225D01*
X188864459Y-117564228D01*
X188997135Y-117667091D01*
X189134589Y-117763474D01*
X189134598Y-117763480D01*
X189154537Y-117776080D01*
X189276507Y-117853156D01*
X189422561Y-117935931D01*
X189422587Y-117935944D01*
X189422598Y-117935950D01*
X189572388Y-118011594D01*
X189572412Y-118011606D01*
X189725715Y-118080008D01*
X189725721Y-118080010D01*
X189725727Y-118080013D01*
X189779498Y-118100975D01*
X189882124Y-118140983D01*
X189882135Y-118140986D01*
X189882141Y-118140989D01*
X190041299Y-118194396D01*
X190202834Y-118240111D01*
X190366375Y-118278028D01*
X190531547Y-118308061D01*
X190697968Y-118330140D01*
X190865256Y-118344214D01*
X191033027Y-118350252D01*
X191200894Y-118348239D01*
X191368472Y-118338180D01*
X191535375Y-118320098D01*
X191701219Y-118294035D01*
X191865623Y-118260050D01*
X192028208Y-118218222D01*
X192188600Y-118168647D01*
X192266594Y-118140377D01*
X192346417Y-118111445D01*
X192346451Y-118111431D01*
X192371477Y-118100977D01*
X192501339Y-118046730D01*
X192652965Y-117974668D01*
X192800962Y-117895419D01*
X192944990Y-117809166D01*
X193084716Y-117716106D01*
X193219820Y-117616455D01*
X193349991Y-117510440D01*
X193474929Y-117398307D01*
X193578986Y-117295489D01*
X193594333Y-117280326D01*
X193594335Y-117280323D01*
X193594347Y-117280312D01*
X193707971Y-117156727D01*
X193815538Y-117027837D01*
X193916803Y-116893938D01*
X194011531Y-116755337D01*
X194099505Y-116612355D01*
X194180523Y-116465318D01*
X194254398Y-116314567D01*
X194320960Y-116160447D01*
X194330358Y-116135460D01*
X194380053Y-116003321D01*
X194381284Y-115999502D01*
X194431550Y-115843526D01*
X194438303Y-115818526D01*
X194472602Y-115691534D01*
X194475325Y-115681454D01*
X194511278Y-115517470D01*
X194539328Y-115351950D01*
X194559410Y-115185276D01*
X194571478Y-115017831D01*
X194575504Y-114850000D01*
X194574904Y-114825000D01*
X194571479Y-114682206D01*
X194571477Y-114682153D01*
X194565520Y-114599500D01*
X194559410Y-114514724D01*
X194539328Y-114348050D01*
X194511278Y-114182530D01*
X194475325Y-114018546D01*
X194467747Y-113990489D01*
X194431555Y-113856490D01*
X194408197Y-113784011D01*
X194380056Y-113696687D01*
X194380053Y-113696678D01*
X194320966Y-113539567D01*
X194320961Y-113539555D01*
X194287517Y-113462119D01*
X194254398Y-113385433D01*
X194180523Y-113234682D01*
X194099505Y-113087645D01*
X194011531Y-112944663D01*
X193916803Y-112806062D01*
X193815538Y-112672163D01*
X193707971Y-112543273D01*
X193690684Y-112524471D01*
X193594347Y-112419688D01*
X193594333Y-112419673D01*
X193474940Y-112301704D01*
X193474916Y-112301681D01*
X193350002Y-112189569D01*
X193349989Y-112189558D01*
X193219821Y-112083545D01*
X193151169Y-112032909D01*
X193084716Y-111983894D01*
X193049784Y-111960629D01*
X192945023Y-111890855D01*
X192944982Y-111890829D01*
X192800971Y-111804586D01*
X192800947Y-111804573D01*
X192652960Y-111725329D01*
X192501337Y-111653269D01*
X192501326Y-111653264D01*
X192346451Y-111588568D01*
X192346417Y-111588554D01*
X192188604Y-111531354D01*
X192188598Y-111531352D01*
X192028233Y-111481785D01*
X192028213Y-111481779D01*
X192028208Y-111481778D01*
X192028196Y-111481774D01*
X192028167Y-111481767D01*
X191865649Y-111439956D01*
X191865627Y-111439951D01*
X191865623Y-111439950D01*
X191701219Y-111405965D01*
X191535375Y-111379902D01*
X191396289Y-111364833D01*
X191368473Y-111361820D01*
X191368462Y-111361819D01*
X191200913Y-111351762D01*
X191200878Y-111351760D01*
X191033040Y-111349748D01*
X191033036Y-111349748D01*
X191033027Y-111349748D01*
X190865256Y-111355786D01*
X190697972Y-111369859D01*
X190531538Y-111391940D01*
X190366374Y-111421972D01*
X190202833Y-111459889D01*
X190202822Y-111459892D01*
X190041301Y-111505603D01*
X189882124Y-111559016D01*
X189725733Y-111619984D01*
X189725715Y-111619991D01*
X189572412Y-111688393D01*
X189572388Y-111688405D01*
X189422598Y-111764049D01*
X189422540Y-111764080D01*
X189276522Y-111846835D01*
X189276496Y-111846851D01*
X189134598Y-111936519D01*
X188997122Y-112032918D01*
X188864449Y-112135779D01*
X188736870Y-112244874D01*
X188614660Y-112359970D01*
X188614626Y-112360004D01*
X188498101Y-112480797D01*
X188498087Y-112480812D01*
X188387478Y-112607066D01*
X188283025Y-112738507D01*
X188202987Y-112849789D01*
X188185002Y-112874795D01*
X188099018Y-113007316D01*
X188093613Y-113015646D01*
X188093603Y-113015663D01*
X188009111Y-113160665D01*
X188009109Y-113160668D01*
X187931644Y-113309595D01*
X187931628Y-113309630D01*
X187861398Y-113462089D01*
X187861386Y-113462119D01*
X187798561Y-113617736D01*
X187798549Y-113617767D01*
X187743238Y-113776272D01*
X187695588Y-113937256D01*
X187655716Y-114100316D01*
X187623702Y-114265130D01*
X187623700Y-114265140D01*
X187599631Y-114431254D01*
X187599630Y-114431268D01*
X187593065Y-114499501D01*
X187583717Y-114596666D01*
X187583551Y-114598388D01*
X187575503Y-114766044D01*
X187575000Y-114850000D01*
X180000500Y-114850000D01*
X180000500Y-112360438D01*
X179980021Y-112284011D01*
X179964919Y-112257853D01*
X179940464Y-112215495D01*
X179940458Y-112215487D01*
X176859079Y-109134108D01*
X180799500Y-109134108D01*
X180799500Y-109265892D01*
X180816554Y-109329539D01*
X180833608Y-109393187D01*
X180841475Y-109406812D01*
X180899500Y-109507314D01*
X180992686Y-109600500D01*
X181106814Y-109666392D01*
X181234108Y-109700500D01*
X181234110Y-109700500D01*
X181365890Y-109700500D01*
X181365892Y-109700500D01*
X181493186Y-109666392D01*
X181607314Y-109600500D01*
X181700500Y-109507314D01*
X181766392Y-109393186D01*
X181800500Y-109265892D01*
X181800500Y-109234108D01*
X195099500Y-109234108D01*
X195099500Y-109365891D01*
X195133608Y-109493187D01*
X195141766Y-109507316D01*
X195199500Y-109607314D01*
X195292686Y-109700500D01*
X195406814Y-109766392D01*
X195534108Y-109800500D01*
X195534110Y-109800500D01*
X195665890Y-109800500D01*
X195665892Y-109800500D01*
X195793186Y-109766392D01*
X195907314Y-109700500D01*
X196000500Y-109607314D01*
X196066392Y-109493186D01*
X196100500Y-109365892D01*
X196100500Y-109234108D01*
X196066392Y-109106814D01*
X196000500Y-108992686D01*
X195907314Y-108899500D01*
X195850250Y-108866554D01*
X195793187Y-108833608D01*
X195729539Y-108816554D01*
X195665892Y-108799500D01*
X195534108Y-108799500D01*
X195406812Y-108833608D01*
X195292686Y-108899500D01*
X195292683Y-108899502D01*
X195199502Y-108992683D01*
X195199500Y-108992686D01*
X195133608Y-109106812D01*
X195099500Y-109234108D01*
X181800500Y-109234108D01*
X181800500Y-109134108D01*
X181766392Y-109006814D01*
X181700500Y-108892686D01*
X181607314Y-108799500D01*
X181550250Y-108766554D01*
X181493187Y-108733608D01*
X181429539Y-108716554D01*
X181365892Y-108699500D01*
X181234108Y-108699500D01*
X181106812Y-108733608D01*
X180992686Y-108799500D01*
X180992683Y-108799502D01*
X180899502Y-108892683D01*
X180899500Y-108892686D01*
X180833608Y-109006812D01*
X180808773Y-109099500D01*
X180799500Y-109134108D01*
X176859079Y-109134108D01*
X174759079Y-107034108D01*
X184799500Y-107034108D01*
X184799500Y-107165891D01*
X184833608Y-107293187D01*
X184866554Y-107350250D01*
X184899500Y-107407314D01*
X184992686Y-107500500D01*
X185106814Y-107566392D01*
X185234108Y-107600500D01*
X185234110Y-107600500D01*
X185365890Y-107600500D01*
X185365892Y-107600500D01*
X185493186Y-107566392D01*
X185607314Y-107500500D01*
X185700500Y-107407314D01*
X185766392Y-107293186D01*
X185800500Y-107165892D01*
X185800500Y-107034108D01*
X185766392Y-106906814D01*
X185700500Y-106792686D01*
X185607314Y-106699500D01*
X185550250Y-106666554D01*
X185493187Y-106633608D01*
X185429539Y-106616554D01*
X185365892Y-106599500D01*
X185234108Y-106599500D01*
X185106812Y-106633608D01*
X184992686Y-106699500D01*
X184992683Y-106699502D01*
X184899502Y-106792683D01*
X184899500Y-106792686D01*
X184833608Y-106906812D01*
X184799500Y-107034108D01*
X174759079Y-107034108D01*
X173259079Y-105534108D01*
X188299500Y-105534108D01*
X188299500Y-105665891D01*
X188333608Y-105793187D01*
X188366554Y-105850250D01*
X188399500Y-105907314D01*
X188492686Y-106000500D01*
X188606814Y-106066392D01*
X188734108Y-106100500D01*
X188734110Y-106100500D01*
X188865890Y-106100500D01*
X188865892Y-106100500D01*
X188993186Y-106066392D01*
X189107314Y-106000500D01*
X189200500Y-105907314D01*
X189266392Y-105793186D01*
X189300500Y-105665892D01*
X189300500Y-105534108D01*
X189266392Y-105406814D01*
X189200500Y-105292686D01*
X189107314Y-105199500D01*
X189050250Y-105166554D01*
X188993187Y-105133608D01*
X188929539Y-105116554D01*
X188865892Y-105099500D01*
X188734108Y-105099500D01*
X188606812Y-105133608D01*
X188492686Y-105199500D01*
X188492683Y-105199502D01*
X188399502Y-105292683D01*
X188399500Y-105292686D01*
X188333608Y-105406812D01*
X188299500Y-105534108D01*
X173259079Y-105534108D01*
X166384510Y-98659539D01*
X166376354Y-98654831D01*
X166360042Y-98645413D01*
X166352780Y-98641220D01*
X166336612Y-98631885D01*
X166305544Y-98599300D01*
X166288399Y-98581319D01*
X166288398Y-98581317D01*
X166279112Y-98533130D01*
X166275177Y-98512711D01*
X166275177Y-98512709D01*
X166290065Y-98475524D01*
X166301145Y-98447847D01*
X166301146Y-98447845D01*
X166301147Y-98447845D01*
X166327607Y-98429004D01*
X166358060Y-98407319D01*
X166398615Y-98400500D01*
X191839560Y-98400500D01*
X191839562Y-98400500D01*
X191915989Y-98380021D01*
X191984511Y-98340460D01*
X192040460Y-98284511D01*
X193140460Y-97184511D01*
X193180021Y-97115989D01*
X193200500Y-97039562D01*
X193200500Y-87675833D01*
X193220185Y-87608794D01*
X193236819Y-87588152D01*
X193788152Y-87036819D01*
X193849475Y-87003334D01*
X193875833Y-87000500D01*
X196141324Y-87000500D01*
X196208363Y-87020185D01*
X196229005Y-87036819D01*
X196292686Y-87100500D01*
X196406814Y-87166392D01*
X196534108Y-87200500D01*
X196534110Y-87200500D01*
X196665890Y-87200500D01*
X196665892Y-87200500D01*
X196793186Y-87166392D01*
X196907314Y-87100500D01*
X197000500Y-87007314D01*
X197066392Y-86893186D01*
X197100500Y-86765892D01*
X197100500Y-86634108D01*
X197066392Y-86506814D01*
X197000500Y-86392686D01*
X196907314Y-86299500D01*
X196850250Y-86266554D01*
X196793187Y-86233608D01*
X196729539Y-86216554D01*
X196665892Y-86199500D01*
X196534108Y-86199500D01*
X196406812Y-86233608D01*
X196292686Y-86299500D01*
X196292683Y-86299502D01*
X196229005Y-86363181D01*
X196167682Y-86396666D01*
X196141324Y-86399500D01*
X193660438Y-86399500D01*
X193609486Y-86413152D01*
X193584010Y-86419979D01*
X193524934Y-86454087D01*
X193524933Y-86454086D01*
X193515492Y-86459537D01*
X193515487Y-86459541D01*
X192659541Y-87315487D01*
X192659535Y-87315495D01*
X192619982Y-87384004D01*
X192619979Y-87384009D01*
X192615828Y-87399502D01*
X192602962Y-87447520D01*
X192599500Y-87460439D01*
X192599500Y-96824167D01*
X192579815Y-96891206D01*
X192563181Y-96911848D01*
X191711848Y-97763181D01*
X191650525Y-97796666D01*
X191624167Y-97799500D01*
X162711909Y-97799500D01*
X162677224Y-97808794D01*
X162635480Y-97819979D01*
X162635475Y-97819982D01*
X162566966Y-97859535D01*
X162566958Y-97859541D01*
X161880375Y-98546123D01*
X161819052Y-98579608D01*
X161749360Y-98574624D01*
X161730694Y-98565829D01*
X161718188Y-98558609D01*
X161718187Y-98558608D01*
X161718186Y-98558608D01*
X161590892Y-98524500D01*
X161459108Y-98524500D01*
X161459106Y-98524500D01*
X161356592Y-98551968D01*
X161286742Y-98550305D01*
X161228880Y-98511142D01*
X161201377Y-98446913D01*
X161200500Y-98432193D01*
X161200500Y-96575832D01*
X161220185Y-96508793D01*
X161236814Y-96488155D01*
X162188151Y-95536818D01*
X162249474Y-95503334D01*
X162275832Y-95500500D01*
X162365890Y-95500500D01*
X162365892Y-95500500D01*
X162493186Y-95466392D01*
X162607314Y-95400500D01*
X162700500Y-95307314D01*
X162766392Y-95193186D01*
X162766392Y-95193185D01*
X162770456Y-95186147D01*
X162773011Y-95187622D01*
X162807954Y-95144241D01*
X162874243Y-95122160D01*
X162941946Y-95139423D01*
X162986085Y-95184079D01*
X162999500Y-95207314D01*
X163092686Y-95300500D01*
X163206814Y-95366392D01*
X163334108Y-95400500D01*
X163334110Y-95400500D01*
X163465890Y-95400500D01*
X163465892Y-95400500D01*
X163593186Y-95366392D01*
X163707314Y-95300500D01*
X163739188Y-95268625D01*
X163800508Y-95235141D01*
X163870200Y-95240125D01*
X163926134Y-95281995D01*
X163934255Y-95294307D01*
X163999500Y-95407314D01*
X164092686Y-95500500D01*
X164206814Y-95566392D01*
X164334108Y-95600500D01*
X164334110Y-95600500D01*
X164465890Y-95600500D01*
X164465892Y-95600500D01*
X164593186Y-95566392D01*
X164707314Y-95500500D01*
X164800500Y-95407314D01*
X164813914Y-95384079D01*
X164864477Y-95335866D01*
X164933084Y-95322641D01*
X164997949Y-95348607D01*
X165027361Y-95387406D01*
X165029544Y-95386147D01*
X165033607Y-95393185D01*
X165033608Y-95393186D01*
X165099500Y-95507314D01*
X165192686Y-95600500D01*
X165306814Y-95666392D01*
X165434108Y-95700500D01*
X165434110Y-95700500D01*
X165565890Y-95700500D01*
X165565892Y-95700500D01*
X165693186Y-95666392D01*
X165807314Y-95600500D01*
X165900500Y-95507314D01*
X165966392Y-95393186D01*
X166000500Y-95265892D01*
X166000500Y-95134108D01*
X165966392Y-95006814D01*
X165900500Y-94892686D01*
X165807314Y-94799500D01*
X165720712Y-94749500D01*
X165693187Y-94733608D01*
X165627165Y-94715918D01*
X165565892Y-94699500D01*
X165434108Y-94699500D01*
X165306812Y-94733608D01*
X165192686Y-94799500D01*
X165192683Y-94799502D01*
X165099502Y-94892683D01*
X165099496Y-94892692D01*
X165086085Y-94915920D01*
X165035518Y-94964135D01*
X164966911Y-94977357D01*
X164902046Y-94951389D01*
X164872642Y-94912590D01*
X164870456Y-94913853D01*
X164866392Y-94906814D01*
X164800500Y-94792686D01*
X164707314Y-94699500D01*
X164650250Y-94666554D01*
X164593187Y-94633608D01*
X164497066Y-94607853D01*
X164465892Y-94599500D01*
X164334108Y-94599500D01*
X164206812Y-94633608D01*
X164092686Y-94699500D01*
X164092682Y-94699503D01*
X164060811Y-94731374D01*
X163999487Y-94764859D01*
X163929796Y-94759873D01*
X163873863Y-94718001D01*
X163865744Y-94705692D01*
X163849185Y-94677011D01*
X163800500Y-94592686D01*
X163707314Y-94499500D01*
X163650250Y-94466554D01*
X163593187Y-94433608D01*
X163529539Y-94416554D01*
X163465892Y-94399500D01*
X163334108Y-94399500D01*
X163206812Y-94433608D01*
X163092686Y-94499500D01*
X163092683Y-94499502D01*
X162999502Y-94592683D01*
X162999500Y-94592686D01*
X162929544Y-94713853D01*
X162926997Y-94712382D01*
X162891985Y-94755799D01*
X162825684Y-94777841D01*
X162757990Y-94760539D01*
X162713914Y-94715920D01*
X162700500Y-94692686D01*
X162607314Y-94599500D01*
X162550250Y-94566554D01*
X162493187Y-94533608D01*
X162429539Y-94516554D01*
X162365892Y-94499500D01*
X162234108Y-94499500D01*
X162106812Y-94533608D01*
X161992686Y-94599500D01*
X161992683Y-94599502D01*
X161899502Y-94692683D01*
X161899500Y-94692686D01*
X161833608Y-94806812D01*
X161799500Y-94934108D01*
X161799500Y-95024166D01*
X161779815Y-95091205D01*
X161763181Y-95111847D01*
X160715489Y-96159540D01*
X160659541Y-96215487D01*
X160659535Y-96215495D01*
X160619982Y-96284004D01*
X160619979Y-96284009D01*
X160615828Y-96299502D01*
X160599500Y-96360438D01*
X160599500Y-107139562D01*
X160613152Y-107190513D01*
X160619979Y-107215990D01*
X160619982Y-107215995D01*
X160659535Y-107284504D01*
X160659541Y-107284512D01*
X166362848Y-112987819D01*
X166396333Y-113049142D01*
X166391349Y-113118834D01*
X166349477Y-113174767D01*
X166284013Y-113199184D01*
X166275167Y-113199500D01*
X156275833Y-113199500D01*
X156208794Y-113179815D01*
X156188152Y-113163181D01*
X155436819Y-112411848D01*
X155403334Y-112350525D01*
X155400500Y-112324167D01*
X155400500Y-97534108D01*
X156299500Y-97534108D01*
X156299500Y-97665892D01*
X156308772Y-97700497D01*
X156333608Y-97793187D01*
X156359587Y-97838183D01*
X156399500Y-97907314D01*
X156492686Y-98000500D01*
X156606814Y-98066392D01*
X156734108Y-98100500D01*
X156734110Y-98100500D01*
X156865890Y-98100500D01*
X156865892Y-98100500D01*
X156993186Y-98066392D01*
X157107314Y-98000500D01*
X157200500Y-97907314D01*
X157240413Y-97838183D01*
X157268113Y-97790206D01*
X157318680Y-97741990D01*
X157387287Y-97728768D01*
X157452152Y-97754736D01*
X157492680Y-97811650D01*
X157499500Y-97852206D01*
X157499500Y-98341323D01*
X157479815Y-98408362D01*
X157463182Y-98429004D01*
X157399500Y-98492686D01*
X157333608Y-98606812D01*
X157299500Y-98734108D01*
X157299500Y-98865891D01*
X157333608Y-98993187D01*
X157366554Y-99050250D01*
X157399500Y-99107314D01*
X157492686Y-99200500D01*
X157606814Y-99266392D01*
X157734108Y-99300500D01*
X157734110Y-99300500D01*
X157865890Y-99300500D01*
X157865892Y-99300500D01*
X157993186Y-99266392D01*
X158107314Y-99200500D01*
X158200500Y-99107314D01*
X158266392Y-98993186D01*
X158300500Y-98865892D01*
X158300500Y-98734108D01*
X158266392Y-98606814D01*
X158200500Y-98492686D01*
X158136818Y-98429004D01*
X158103334Y-98367680D01*
X158100500Y-98341323D01*
X158100500Y-97875833D01*
X158120185Y-97808794D01*
X158136819Y-97788152D01*
X165788152Y-90136819D01*
X165849475Y-90103334D01*
X165875833Y-90100500D01*
X186639560Y-90100500D01*
X186639562Y-90100500D01*
X186715989Y-90080021D01*
X186784511Y-90040460D01*
X186840460Y-89984511D01*
X187640460Y-89184511D01*
X187654358Y-89160438D01*
X187680021Y-89115989D01*
X187700500Y-89039562D01*
X187700500Y-87675833D01*
X187720185Y-87608794D01*
X187736819Y-87588152D01*
X188288152Y-87036819D01*
X188349475Y-87003334D01*
X188375833Y-87000500D01*
X190441324Y-87000500D01*
X190508363Y-87020185D01*
X190529005Y-87036819D01*
X190592686Y-87100500D01*
X190706814Y-87166392D01*
X190834108Y-87200500D01*
X190834110Y-87200500D01*
X190965890Y-87200500D01*
X190965892Y-87200500D01*
X191093186Y-87166392D01*
X191207314Y-87100500D01*
X191300500Y-87007314D01*
X191366392Y-86893186D01*
X191400500Y-86765892D01*
X191400500Y-86634108D01*
X191366392Y-86506814D01*
X191300500Y-86392686D01*
X191207314Y-86299500D01*
X191150250Y-86266554D01*
X191093187Y-86233608D01*
X191029539Y-86216554D01*
X190965892Y-86199500D01*
X190834108Y-86199500D01*
X190706812Y-86233608D01*
X190592686Y-86299500D01*
X190592683Y-86299502D01*
X190529005Y-86363181D01*
X190467682Y-86396666D01*
X190441324Y-86399500D01*
X188160438Y-86399500D01*
X188109486Y-86413152D01*
X188084010Y-86419979D01*
X188024934Y-86454087D01*
X188024933Y-86454086D01*
X188015492Y-86459537D01*
X188015487Y-86459541D01*
X187159541Y-87315487D01*
X187159535Y-87315495D01*
X187119982Y-87384004D01*
X187119979Y-87384009D01*
X187115828Y-87399502D01*
X187102962Y-87447520D01*
X187099500Y-87460439D01*
X187099500Y-88824167D01*
X187079815Y-88891206D01*
X187063181Y-88911848D01*
X186511848Y-89463181D01*
X186450525Y-89496666D01*
X186424167Y-89499500D01*
X165660432Y-89499500D01*
X165649866Y-89502332D01*
X165580017Y-89500668D01*
X165522155Y-89461505D01*
X165494652Y-89397276D01*
X165506239Y-89328374D01*
X165530089Y-89294881D01*
X165688154Y-89136816D01*
X165749475Y-89103334D01*
X165775833Y-89100500D01*
X181039560Y-89100500D01*
X181039562Y-89100500D01*
X181115989Y-89080021D01*
X181184511Y-89040460D01*
X181240460Y-88984511D01*
X183088152Y-87136819D01*
X183149475Y-87103334D01*
X183175833Y-87100500D01*
X185141324Y-87100500D01*
X185208363Y-87120185D01*
X185229005Y-87136819D01*
X185292686Y-87200500D01*
X185406814Y-87266392D01*
X185534108Y-87300500D01*
X185534110Y-87300500D01*
X185665890Y-87300500D01*
X185665892Y-87300500D01*
X185793186Y-87266392D01*
X185907314Y-87200500D01*
X186000500Y-87107314D01*
X186066392Y-86993186D01*
X186100500Y-86865892D01*
X186100500Y-86734108D01*
X186066392Y-86606814D01*
X186000500Y-86492686D01*
X185907314Y-86399500D01*
X185844408Y-86363181D01*
X185793187Y-86333608D01*
X185729539Y-86316554D01*
X185665892Y-86299500D01*
X185534108Y-86299500D01*
X185406812Y-86333608D01*
X185292686Y-86399500D01*
X185292683Y-86399502D01*
X185229005Y-86463181D01*
X185167682Y-86496666D01*
X185141324Y-86499500D01*
X182960438Y-86499500D01*
X182922224Y-86509739D01*
X182884009Y-86519979D01*
X182854642Y-86536935D01*
X182839958Y-86545413D01*
X182832687Y-86549610D01*
X182815489Y-86559539D01*
X182815487Y-86559541D01*
X180911848Y-88463181D01*
X180850525Y-88496666D01*
X180824167Y-88499500D01*
X165560438Y-88499500D01*
X165522224Y-88509739D01*
X165484009Y-88519979D01*
X165463195Y-88531996D01*
X165460405Y-88533608D01*
X165447060Y-88541312D01*
X165415489Y-88559539D01*
X156911847Y-97063181D01*
X156850524Y-97096666D01*
X156824166Y-97099500D01*
X156734108Y-97099500D01*
X156606812Y-97133608D01*
X156492686Y-97199500D01*
X156492683Y-97199502D01*
X156399502Y-97292683D01*
X156399500Y-97292686D01*
X156333608Y-97406812D01*
X156304489Y-97515489D01*
X156299500Y-97534108D01*
X155400500Y-97534108D01*
X155400500Y-89613170D01*
X155420185Y-89546131D01*
X155472989Y-89500376D01*
X155492402Y-89493396D01*
X155593186Y-89466392D01*
X155707314Y-89400500D01*
X155800500Y-89307314D01*
X155866392Y-89193186D01*
X155893623Y-89091555D01*
X155929986Y-89031898D01*
X155992833Y-89001368D01*
X156062209Y-89009662D01*
X156116087Y-89054147D01*
X156130490Y-89085686D01*
X156130500Y-89085682D01*
X156130612Y-89085953D01*
X156133171Y-89091556D01*
X156133607Y-89093184D01*
X156133607Y-89093185D01*
X156139467Y-89103334D01*
X156199500Y-89207314D01*
X156292686Y-89300500D01*
X156406814Y-89366392D01*
X156534108Y-89400500D01*
X156534110Y-89400500D01*
X156665890Y-89400500D01*
X156665892Y-89400500D01*
X156793186Y-89366392D01*
X156907314Y-89300500D01*
X157000500Y-89207314D01*
X157066392Y-89093186D01*
X157079982Y-89042465D01*
X157116345Y-88982807D01*
X157179192Y-88952277D01*
X157248567Y-88960571D01*
X157261756Y-88967173D01*
X157284008Y-88980020D01*
X157284009Y-88980020D01*
X157284012Y-88980022D01*
X157360438Y-89000500D01*
X158541324Y-89000500D01*
X158608363Y-89020185D01*
X158629005Y-89036819D01*
X158692686Y-89100500D01*
X158806814Y-89166392D01*
X158934108Y-89200500D01*
X158934110Y-89200500D01*
X159065890Y-89200500D01*
X159065892Y-89200500D01*
X159193186Y-89166392D01*
X159307314Y-89100500D01*
X159400500Y-89007314D01*
X159466392Y-88893186D01*
X159500500Y-88765892D01*
X159500500Y-88634108D01*
X159466392Y-88506814D01*
X159400500Y-88392686D01*
X159307314Y-88299500D01*
X159231620Y-88255798D01*
X159193187Y-88233608D01*
X159129539Y-88216554D01*
X159065892Y-88199500D01*
X158934108Y-88199500D01*
X158806812Y-88233608D01*
X158692686Y-88299500D01*
X158692683Y-88299502D01*
X158629005Y-88363181D01*
X158567682Y-88396666D01*
X158541324Y-88399500D01*
X157575833Y-88399500D01*
X157508794Y-88379815D01*
X157488152Y-88363181D01*
X156637152Y-87512181D01*
X156603667Y-87450858D01*
X156608651Y-87381166D01*
X156650523Y-87325233D01*
X156715987Y-87300816D01*
X156724833Y-87300500D01*
X157024167Y-87300500D01*
X157053607Y-87309144D01*
X157083594Y-87315668D01*
X157088609Y-87319422D01*
X157091206Y-87320185D01*
X157111848Y-87336819D01*
X157163181Y-87388152D01*
X157196666Y-87449475D01*
X157199500Y-87475833D01*
X157199500Y-87565892D01*
X157215196Y-87624471D01*
X157233608Y-87693187D01*
X157266554Y-87750250D01*
X157299500Y-87807314D01*
X157392686Y-87900500D01*
X157506814Y-87966392D01*
X157634108Y-88000500D01*
X157634110Y-88000500D01*
X157765890Y-88000500D01*
X157765892Y-88000500D01*
X157893186Y-87966392D01*
X158007314Y-87900500D01*
X158100500Y-87807314D01*
X158166392Y-87693186D01*
X158200500Y-87565892D01*
X158200500Y-87434108D01*
X158166392Y-87306814D01*
X158100500Y-87192686D01*
X158007314Y-87099500D01*
X157950250Y-87066554D01*
X157893187Y-87033608D01*
X157829539Y-87016554D01*
X157765892Y-86999500D01*
X157675833Y-86999500D01*
X157608794Y-86979815D01*
X157588152Y-86963181D01*
X157384513Y-86759542D01*
X157384511Y-86759540D01*
X157363264Y-86747273D01*
X157315991Y-86719980D01*
X157315990Y-86719979D01*
X157290513Y-86713152D01*
X157239562Y-86699500D01*
X149139562Y-86699500D01*
X149060438Y-86699500D01*
X148984010Y-86719978D01*
X148915489Y-86759540D01*
X148915486Y-86759542D01*
X147111848Y-88563181D01*
X147050525Y-88596666D01*
X147024167Y-88599500D01*
X130360438Y-88599500D01*
X130322224Y-88609739D01*
X130284009Y-88619979D01*
X130262431Y-88632437D01*
X130259539Y-88634108D01*
X130246451Y-88641663D01*
X130215489Y-88659539D01*
X108522494Y-110352534D01*
X108461171Y-110386019D01*
X108391479Y-110381035D01*
X108335546Y-110339163D01*
X108320252Y-110312306D01*
X108280942Y-110217403D01*
X108165975Y-110045342D01*
X108019657Y-109899024D01*
X107861259Y-109793187D01*
X107847598Y-109784059D01*
X107837849Y-109780021D01*
X107656420Y-109704870D01*
X107656412Y-109704868D01*
X107453469Y-109664500D01*
X107453465Y-109664500D01*
X107246535Y-109664500D01*
X107246530Y-109664500D01*
X107043587Y-109704868D01*
X107043579Y-109704870D01*
X106852403Y-109784058D01*
X106680342Y-109899024D01*
X106534024Y-110045342D01*
X106419058Y-110217403D01*
X106339870Y-110408579D01*
X106339868Y-110408587D01*
X106299500Y-110611530D01*
X105489290Y-110611530D01*
X105489290Y-108071530D01*
X106299500Y-108071530D01*
X106299500Y-108278469D01*
X106339868Y-108481412D01*
X106339870Y-108481420D01*
X106419058Y-108672596D01*
X106534024Y-108844657D01*
X106680342Y-108990975D01*
X106680345Y-108990977D01*
X106852402Y-109105941D01*
X107043580Y-109185130D01*
X107246530Y-109225499D01*
X107246534Y-109225500D01*
X107246535Y-109225500D01*
X107453466Y-109225500D01*
X107453467Y-109225499D01*
X107656420Y-109185130D01*
X107847598Y-109105941D01*
X108019655Y-108990977D01*
X108165977Y-108844655D01*
X108280941Y-108672598D01*
X108360130Y-108481420D01*
X108400500Y-108278465D01*
X108400500Y-108071535D01*
X108360130Y-107868580D01*
X108280941Y-107677402D01*
X108165977Y-107505345D01*
X108165975Y-107505342D01*
X108019657Y-107359024D01*
X107921122Y-107293186D01*
X107847598Y-107244059D01*
X107779831Y-107215989D01*
X107656420Y-107164870D01*
X107656412Y-107164868D01*
X107453469Y-107124500D01*
X107453465Y-107124500D01*
X107246535Y-107124500D01*
X107246530Y-107124500D01*
X107043587Y-107164868D01*
X107043579Y-107164870D01*
X106852403Y-107244058D01*
X106680342Y-107359024D01*
X106534024Y-107505342D01*
X106419058Y-107677403D01*
X106339870Y-107868579D01*
X106339868Y-107868587D01*
X106299500Y-108071530D01*
X105489290Y-108071530D01*
X105489290Y-102197155D01*
X106000000Y-102197155D01*
X106000000Y-102845000D01*
X106916988Y-102845000D01*
X106884075Y-102902007D01*
X106850000Y-103029174D01*
X106850000Y-103160826D01*
X106884075Y-103287993D01*
X106916988Y-103345000D01*
X106000000Y-103345000D01*
X106000000Y-103992844D01*
X106006401Y-104052372D01*
X106006403Y-104052379D01*
X106056645Y-104187086D01*
X106056649Y-104187093D01*
X106142809Y-104302187D01*
X106142812Y-104302190D01*
X106257906Y-104388350D01*
X106257913Y-104388354D01*
X106392620Y-104438596D01*
X106392627Y-104438598D01*
X106452155Y-104444999D01*
X106452172Y-104445000D01*
X106854435Y-104445000D01*
X106921474Y-104464685D01*
X106967229Y-104517489D01*
X106977173Y-104586647D01*
X106948148Y-104650203D01*
X106901888Y-104683561D01*
X106852403Y-104704058D01*
X106680342Y-104819024D01*
X106534024Y-104965342D01*
X106419058Y-105137403D01*
X106339870Y-105328579D01*
X106339868Y-105328587D01*
X106299500Y-105531530D01*
X106299500Y-105738469D01*
X106339868Y-105941412D01*
X106339870Y-105941420D01*
X106419058Y-106132596D01*
X106534024Y-106304657D01*
X106680342Y-106450975D01*
X106680345Y-106450977D01*
X106852402Y-106565941D01*
X107043580Y-106645130D01*
X107246530Y-106685499D01*
X107246534Y-106685500D01*
X107246535Y-106685500D01*
X107453466Y-106685500D01*
X107453467Y-106685499D01*
X107656420Y-106645130D01*
X107847598Y-106565941D01*
X108019655Y-106450977D01*
X108165977Y-106304655D01*
X108280941Y-106132598D01*
X108360130Y-105941420D01*
X108400500Y-105738465D01*
X108400500Y-105531535D01*
X108360130Y-105328580D01*
X108280941Y-105137402D01*
X108165977Y-104965345D01*
X108165975Y-104965342D01*
X108019657Y-104819024D01*
X107933626Y-104761541D01*
X107847598Y-104704059D01*
X107798112Y-104683561D01*
X107743709Y-104639720D01*
X107721644Y-104573426D01*
X107738923Y-104505726D01*
X107790061Y-104458116D01*
X107845565Y-104445000D01*
X108247828Y-104445000D01*
X108247844Y-104444999D01*
X108307372Y-104438598D01*
X108307379Y-104438596D01*
X108442086Y-104388354D01*
X108442093Y-104388350D01*
X108557187Y-104302190D01*
X108557190Y-104302187D01*
X108643350Y-104187093D01*
X108643354Y-104187086D01*
X108693596Y-104052379D01*
X108693598Y-104052372D01*
X108699999Y-103992844D01*
X108700000Y-103992827D01*
X108700000Y-103345000D01*
X107783012Y-103345000D01*
X107815925Y-103287993D01*
X107850000Y-103160826D01*
X107850000Y-103029174D01*
X107815925Y-102902007D01*
X107783012Y-102845000D01*
X108700000Y-102845000D01*
X108700000Y-102197172D01*
X108699999Y-102197155D01*
X108693598Y-102137627D01*
X108693596Y-102137620D01*
X108643354Y-102002913D01*
X108643350Y-102002906D01*
X108557190Y-101887812D01*
X108557187Y-101887809D01*
X108442093Y-101801649D01*
X108442086Y-101801645D01*
X108307379Y-101751403D01*
X108307372Y-101751401D01*
X108247844Y-101745000D01*
X107600000Y-101745000D01*
X107600000Y-102661988D01*
X107542993Y-102629075D01*
X107415826Y-102595000D01*
X107284174Y-102595000D01*
X107157007Y-102629075D01*
X107100000Y-102661988D01*
X107100000Y-101745000D01*
X106452155Y-101745000D01*
X106392627Y-101751401D01*
X106392620Y-101751403D01*
X106257913Y-101801645D01*
X106257906Y-101801649D01*
X106142812Y-101887809D01*
X106142809Y-101887812D01*
X106056649Y-102002906D01*
X106056645Y-102002913D01*
X106006403Y-102137620D01*
X106006401Y-102137627D01*
X106000000Y-102197155D01*
X105489290Y-102197155D01*
X105489290Y-97340350D01*
X106299500Y-97340350D01*
X106299500Y-97509649D01*
X106325981Y-97676847D01*
X106378296Y-97837853D01*
X106413689Y-97907314D01*
X106451528Y-97981577D01*
X106455152Y-97988688D01*
X106554648Y-98125634D01*
X106554652Y-98125639D01*
X106674360Y-98245347D01*
X106674365Y-98245351D01*
X106779296Y-98321587D01*
X106811315Y-98344850D01*
X106878972Y-98379323D01*
X106962146Y-98421703D01*
X106962148Y-98421703D01*
X106962151Y-98421705D01*
X107039733Y-98446913D01*
X107123152Y-98474018D01*
X107290351Y-98500500D01*
X107290356Y-98500500D01*
X108209649Y-98500500D01*
X108376847Y-98474018D01*
X108537849Y-98421705D01*
X108688685Y-98344850D01*
X108825641Y-98245346D01*
X108945346Y-98125641D01*
X109044850Y-97988685D01*
X109121705Y-97837849D01*
X109174018Y-97676847D01*
X109176879Y-97658783D01*
X109200500Y-97509649D01*
X109200500Y-97340350D01*
X109174018Y-97173152D01*
X109130611Y-97039560D01*
X109121705Y-97012151D01*
X109121703Y-97012148D01*
X109121703Y-97012146D01*
X109090533Y-96950973D01*
X109044850Y-96861315D01*
X109024720Y-96833608D01*
X108945351Y-96724365D01*
X108945347Y-96724360D01*
X108825639Y-96604652D01*
X108825634Y-96604648D01*
X108688688Y-96505152D01*
X108688687Y-96505151D01*
X108688685Y-96505150D01*
X108631361Y-96475942D01*
X108537853Y-96428296D01*
X108376847Y-96375981D01*
X108209649Y-96349500D01*
X108209644Y-96349500D01*
X107290356Y-96349500D01*
X107290351Y-96349500D01*
X107123152Y-96375981D01*
X106962146Y-96428296D01*
X106811311Y-96505152D01*
X106674365Y-96604648D01*
X106674360Y-96604652D01*
X106554652Y-96724360D01*
X106554648Y-96724365D01*
X106455152Y-96861311D01*
X106378296Y-97012146D01*
X106325981Y-97173152D01*
X106299500Y-97340350D01*
X105489290Y-97340350D01*
X105489290Y-91502155D01*
X106000000Y-91502155D01*
X106000000Y-92175000D01*
X107316988Y-92175000D01*
X107284075Y-92232007D01*
X107250000Y-92359174D01*
X107250000Y-92490826D01*
X107284075Y-92617993D01*
X107316988Y-92675000D01*
X106000000Y-92675000D01*
X106000000Y-93347844D01*
X106006401Y-93407372D01*
X106006403Y-93407379D01*
X106056645Y-93542086D01*
X106056649Y-93542093D01*
X106142809Y-93657187D01*
X106142812Y-93657190D01*
X106257906Y-93743350D01*
X106257913Y-93743354D01*
X106392620Y-93793596D01*
X106392627Y-93793598D01*
X106452155Y-93799999D01*
X106452172Y-93800000D01*
X106712046Y-93800000D01*
X106779085Y-93819685D01*
X106824840Y-93872489D01*
X106834784Y-93941647D01*
X106805759Y-94005203D01*
X106784931Y-94024318D01*
X106674365Y-94104648D01*
X106674360Y-94104652D01*
X106554654Y-94224359D01*
X106554652Y-94224361D01*
X106455152Y-94361311D01*
X106378296Y-94512146D01*
X106325981Y-94673152D01*
X106299500Y-94840350D01*
X106299500Y-95009649D01*
X106325981Y-95176847D01*
X106378296Y-95337853D01*
X106455152Y-95488688D01*
X106554648Y-95625634D01*
X106554652Y-95625639D01*
X106674360Y-95745347D01*
X106674365Y-95745351D01*
X106777595Y-95820351D01*
X106811315Y-95844850D01*
X106905192Y-95892683D01*
X106962146Y-95921703D01*
X106962148Y-95921703D01*
X106962151Y-95921705D01*
X107048450Y-95949745D01*
X107123152Y-95974018D01*
X107290351Y-96000500D01*
X107290356Y-96000500D01*
X108209649Y-96000500D01*
X108376847Y-95974018D01*
X108428259Y-95957313D01*
X108537849Y-95921705D01*
X108688685Y-95844850D01*
X108825641Y-95745346D01*
X108945346Y-95625641D01*
X109044850Y-95488685D01*
X109121705Y-95337849D01*
X109174018Y-95176847D01*
X109180787Y-95134108D01*
X109200500Y-95009649D01*
X109200500Y-94875832D01*
X109220185Y-94808793D01*
X109236819Y-94788151D01*
X115888152Y-88136819D01*
X115949475Y-88103334D01*
X115975833Y-88100500D01*
X144641324Y-88100500D01*
X144708363Y-88120185D01*
X144729005Y-88136819D01*
X144792686Y-88200500D01*
X144906814Y-88266392D01*
X145034108Y-88300500D01*
X145034110Y-88300500D01*
X145165890Y-88300500D01*
X145165892Y-88300500D01*
X145293186Y-88266392D01*
X145407314Y-88200500D01*
X145500500Y-88107314D01*
X145566392Y-87993186D01*
X145600500Y-87865892D01*
X145600500Y-87734108D01*
X145566392Y-87606814D01*
X145500500Y-87492686D01*
X145407314Y-87399500D01*
X145350250Y-87366554D01*
X145293187Y-87333608D01*
X145193188Y-87306814D01*
X145165892Y-87299500D01*
X145034108Y-87299500D01*
X144906812Y-87333608D01*
X144792686Y-87399500D01*
X144792683Y-87399502D01*
X144729005Y-87463181D01*
X144667682Y-87496666D01*
X144641324Y-87499500D01*
X115760438Y-87499500D01*
X115684010Y-87519978D01*
X115615489Y-87559540D01*
X115615486Y-87559542D01*
X109709128Y-93465899D01*
X109647805Y-93499384D01*
X109578113Y-93494400D01*
X109522180Y-93452528D01*
X109497763Y-93387064D01*
X109498158Y-93364958D01*
X109499999Y-93347834D01*
X109500000Y-93347827D01*
X109500000Y-92675000D01*
X108183012Y-92675000D01*
X108215925Y-92617993D01*
X108250000Y-92490826D01*
X108250000Y-92359174D01*
X108215925Y-92232007D01*
X108183012Y-92175000D01*
X109500000Y-92175000D01*
X109500000Y-91502172D01*
X109499999Y-91502155D01*
X109493598Y-91442627D01*
X109493596Y-91442620D01*
X109443354Y-91307913D01*
X109443350Y-91307906D01*
X109357190Y-91192812D01*
X109357187Y-91192809D01*
X109242093Y-91106649D01*
X109242086Y-91106645D01*
X109107379Y-91056403D01*
X109107372Y-91056401D01*
X109047844Y-91050000D01*
X108000000Y-91050000D01*
X108000000Y-91991988D01*
X107942993Y-91959075D01*
X107815826Y-91925000D01*
X107684174Y-91925000D01*
X107557007Y-91959075D01*
X107500000Y-91991988D01*
X107500000Y-91050000D01*
X106452155Y-91050000D01*
X106392627Y-91056401D01*
X106392620Y-91056403D01*
X106257913Y-91106645D01*
X106257906Y-91106649D01*
X106142812Y-91192809D01*
X106142809Y-91192812D01*
X106056649Y-91307906D01*
X106056645Y-91307913D01*
X106006403Y-91442620D01*
X106006401Y-91442627D01*
X106000000Y-91502155D01*
X105489290Y-91502155D01*
X105489290Y-88778247D01*
X105489460Y-88771757D01*
X105492847Y-88707125D01*
X105506751Y-88441820D01*
X105508108Y-88428914D01*
X105509677Y-88419008D01*
X105559283Y-88105805D01*
X105561979Y-88093121D01*
X105646653Y-87777114D01*
X105650661Y-87764782D01*
X105667780Y-87720185D01*
X105767899Y-87459366D01*
X105773164Y-87447538D01*
X105921703Y-87156015D01*
X105928169Y-87144816D01*
X106106355Y-86870434D01*
X106113970Y-86859953D01*
X106319862Y-86605697D01*
X106328529Y-86596072D01*
X106559862Y-86364739D01*
X106569487Y-86356072D01*
X106823743Y-86150180D01*
X106834224Y-86142565D01*
X107108606Y-85964379D01*
X107119805Y-85957913D01*
X107411328Y-85809374D01*
X107423156Y-85804109D01*
X107728576Y-85686869D01*
X107740904Y-85682863D01*
X108056920Y-85598186D01*
X108069595Y-85595493D01*
X108392706Y-85544317D01*
X108405610Y-85542961D01*
X108735547Y-85525669D01*
X108742037Y-85525500D01*
X108804683Y-85525500D01*
X201172897Y-85525500D01*
X201235543Y-85525500D01*
X201242032Y-85525669D01*
G37*
%TD.AperFunction*%
%TD*%
M02*
