%TF.GenerationSoftware,KiCad,Pcbnew,9.0.3*%
%TF.CreationDate,2026-05-04T11:15:59+07:00*%
%TF.ProjectId,STM32 V2,53544d33-3220-4563-922e-6b696361645f,rev?*%
%TF.SameCoordinates,Original*%
%TF.FileFunction,Legend,Top*%
%TF.FilePolarity,Positive*%
%FSLAX46Y46*%
G04 Gerber Fmt 4.6, Leading zero omitted, Abs format (unit mm)*
G04 Created by KiCad (PCBNEW 9.0.3) date 2026-05-04 11:15:59*
%MOMM*%
%LPD*%
G01*
G04 APERTURE LIST*
%ADD10C,0.150000*%
%ADD11C,0.120000*%
G04 APERTURE END LIST*
D10*
X111507200Y-95658332D02*
X111554819Y-95515475D01*
X111554819Y-95515475D02*
X111554819Y-95277380D01*
X111554819Y-95277380D02*
X111507200Y-95182142D01*
X111507200Y-95182142D02*
X111459580Y-95134523D01*
X111459580Y-95134523D02*
X111364342Y-95086904D01*
X111364342Y-95086904D02*
X111269104Y-95086904D01*
X111269104Y-95086904D02*
X111173866Y-95134523D01*
X111173866Y-95134523D02*
X111126247Y-95182142D01*
X111126247Y-95182142D02*
X111078628Y-95277380D01*
X111078628Y-95277380D02*
X111031009Y-95467856D01*
X111031009Y-95467856D02*
X110983390Y-95563094D01*
X110983390Y-95563094D02*
X110935771Y-95610713D01*
X110935771Y-95610713D02*
X110840533Y-95658332D01*
X110840533Y-95658332D02*
X110745295Y-95658332D01*
X110745295Y-95658332D02*
X110650057Y-95610713D01*
X110650057Y-95610713D02*
X110602438Y-95563094D01*
X110602438Y-95563094D02*
X110554819Y-95467856D01*
X110554819Y-95467856D02*
X110554819Y-95229761D01*
X110554819Y-95229761D02*
X110602438Y-95086904D01*
X110554819Y-94753570D02*
X111554819Y-94515475D01*
X111554819Y-94515475D02*
X110840533Y-94324999D01*
X110840533Y-94324999D02*
X111554819Y-94134523D01*
X111554819Y-94134523D02*
X110554819Y-93896428D01*
X110650057Y-93563094D02*
X110602438Y-93515475D01*
X110602438Y-93515475D02*
X110554819Y-93420237D01*
X110554819Y-93420237D02*
X110554819Y-93182142D01*
X110554819Y-93182142D02*
X110602438Y-93086904D01*
X110602438Y-93086904D02*
X110650057Y-93039285D01*
X110650057Y-93039285D02*
X110745295Y-92991666D01*
X110745295Y-92991666D02*
X110840533Y-92991666D01*
X110840533Y-92991666D02*
X110983390Y-93039285D01*
X110983390Y-93039285D02*
X111554819Y-93610713D01*
X111554819Y-93610713D02*
X111554819Y-92991666D01*
X183854819Y-107658333D02*
X184569104Y-107658333D01*
X184569104Y-107658333D02*
X184711961Y-107705952D01*
X184711961Y-107705952D02*
X184807200Y-107801190D01*
X184807200Y-107801190D02*
X184854819Y-107944047D01*
X184854819Y-107944047D02*
X184854819Y-108039285D01*
X184854819Y-107182142D02*
X183854819Y-107182142D01*
X183854819Y-107182142D02*
X183854819Y-106801190D01*
X183854819Y-106801190D02*
X183902438Y-106705952D01*
X183902438Y-106705952D02*
X183950057Y-106658333D01*
X183950057Y-106658333D02*
X184045295Y-106610714D01*
X184045295Y-106610714D02*
X184188152Y-106610714D01*
X184188152Y-106610714D02*
X184283390Y-106658333D01*
X184283390Y-106658333D02*
X184331009Y-106705952D01*
X184331009Y-106705952D02*
X184378628Y-106801190D01*
X184378628Y-106801190D02*
X184378628Y-107182142D01*
X183950057Y-106229761D02*
X183902438Y-106182142D01*
X183902438Y-106182142D02*
X183854819Y-106086904D01*
X183854819Y-106086904D02*
X183854819Y-105848809D01*
X183854819Y-105848809D02*
X183902438Y-105753571D01*
X183902438Y-105753571D02*
X183950057Y-105705952D01*
X183950057Y-105705952D02*
X184045295Y-105658333D01*
X184045295Y-105658333D02*
X184140533Y-105658333D01*
X184140533Y-105658333D02*
X184283390Y-105705952D01*
X184283390Y-105705952D02*
X184854819Y-106277380D01*
X184854819Y-106277380D02*
X184854819Y-105658333D01*
X182054819Y-109758332D02*
X182054819Y-109139285D01*
X182054819Y-109139285D02*
X182435771Y-109472618D01*
X182435771Y-109472618D02*
X182435771Y-109329761D01*
X182435771Y-109329761D02*
X182483390Y-109234523D01*
X182483390Y-109234523D02*
X182531009Y-109186904D01*
X182531009Y-109186904D02*
X182626247Y-109139285D01*
X182626247Y-109139285D02*
X182864342Y-109139285D01*
X182864342Y-109139285D02*
X182959580Y-109186904D01*
X182959580Y-109186904D02*
X183007200Y-109234523D01*
X183007200Y-109234523D02*
X183054819Y-109329761D01*
X183054819Y-109329761D02*
X183054819Y-109615475D01*
X183054819Y-109615475D02*
X183007200Y-109710713D01*
X183007200Y-109710713D02*
X182959580Y-109758332D01*
X183054819Y-103939285D02*
X183054819Y-104510713D01*
X183054819Y-104224999D02*
X182054819Y-104224999D01*
X182054819Y-104224999D02*
X182197676Y-104320237D01*
X182197676Y-104320237D02*
X182292914Y-104415475D01*
X182292914Y-104415475D02*
X182340533Y-104510713D01*
X177879819Y-103266666D02*
X177403628Y-103599999D01*
X177879819Y-103838094D02*
X176879819Y-103838094D01*
X176879819Y-103838094D02*
X176879819Y-103457142D01*
X176879819Y-103457142D02*
X176927438Y-103361904D01*
X176927438Y-103361904D02*
X176975057Y-103314285D01*
X176975057Y-103314285D02*
X177070295Y-103266666D01*
X177070295Y-103266666D02*
X177213152Y-103266666D01*
X177213152Y-103266666D02*
X177308390Y-103314285D01*
X177308390Y-103314285D02*
X177356009Y-103361904D01*
X177356009Y-103361904D02*
X177403628Y-103457142D01*
X177403628Y-103457142D02*
X177403628Y-103838094D01*
X177308390Y-102695237D02*
X177260771Y-102790475D01*
X177260771Y-102790475D02*
X177213152Y-102838094D01*
X177213152Y-102838094D02*
X177117914Y-102885713D01*
X177117914Y-102885713D02*
X177070295Y-102885713D01*
X177070295Y-102885713D02*
X176975057Y-102838094D01*
X176975057Y-102838094D02*
X176927438Y-102790475D01*
X176927438Y-102790475D02*
X176879819Y-102695237D01*
X176879819Y-102695237D02*
X176879819Y-102504761D01*
X176879819Y-102504761D02*
X176927438Y-102409523D01*
X176927438Y-102409523D02*
X176975057Y-102361904D01*
X176975057Y-102361904D02*
X177070295Y-102314285D01*
X177070295Y-102314285D02*
X177117914Y-102314285D01*
X177117914Y-102314285D02*
X177213152Y-102361904D01*
X177213152Y-102361904D02*
X177260771Y-102409523D01*
X177260771Y-102409523D02*
X177308390Y-102504761D01*
X177308390Y-102504761D02*
X177308390Y-102695237D01*
X177308390Y-102695237D02*
X177356009Y-102790475D01*
X177356009Y-102790475D02*
X177403628Y-102838094D01*
X177403628Y-102838094D02*
X177498866Y-102885713D01*
X177498866Y-102885713D02*
X177689342Y-102885713D01*
X177689342Y-102885713D02*
X177784580Y-102838094D01*
X177784580Y-102838094D02*
X177832200Y-102790475D01*
X177832200Y-102790475D02*
X177879819Y-102695237D01*
X177879819Y-102695237D02*
X177879819Y-102504761D01*
X177879819Y-102504761D02*
X177832200Y-102409523D01*
X177832200Y-102409523D02*
X177784580Y-102361904D01*
X177784580Y-102361904D02*
X177689342Y-102314285D01*
X177689342Y-102314285D02*
X177498866Y-102314285D01*
X177498866Y-102314285D02*
X177403628Y-102361904D01*
X177403628Y-102361904D02*
X177356009Y-102409523D01*
X177356009Y-102409523D02*
X177308390Y-102504761D01*
X162529580Y-107080357D02*
X162577200Y-107127976D01*
X162577200Y-107127976D02*
X162624819Y-107270833D01*
X162624819Y-107270833D02*
X162624819Y-107366071D01*
X162624819Y-107366071D02*
X162577200Y-107508928D01*
X162577200Y-107508928D02*
X162481961Y-107604166D01*
X162481961Y-107604166D02*
X162386723Y-107651785D01*
X162386723Y-107651785D02*
X162196247Y-107699404D01*
X162196247Y-107699404D02*
X162053390Y-107699404D01*
X162053390Y-107699404D02*
X161862914Y-107651785D01*
X161862914Y-107651785D02*
X161767676Y-107604166D01*
X161767676Y-107604166D02*
X161672438Y-107508928D01*
X161672438Y-107508928D02*
X161624819Y-107366071D01*
X161624819Y-107366071D02*
X161624819Y-107270833D01*
X161624819Y-107270833D02*
X161672438Y-107127976D01*
X161672438Y-107127976D02*
X161720057Y-107080357D01*
X162624819Y-106127976D02*
X162624819Y-106699404D01*
X162624819Y-106413690D02*
X161624819Y-106413690D01*
X161624819Y-106413690D02*
X161767676Y-106508928D01*
X161767676Y-106508928D02*
X161862914Y-106604166D01*
X161862914Y-106604166D02*
X161910533Y-106699404D01*
X161958152Y-105270833D02*
X162624819Y-105270833D01*
X161577200Y-105508928D02*
X162291485Y-105747023D01*
X162291485Y-105747023D02*
X162291485Y-105127976D01*
X140433333Y-109384580D02*
X140385714Y-109432200D01*
X140385714Y-109432200D02*
X140242857Y-109479819D01*
X140242857Y-109479819D02*
X140147619Y-109479819D01*
X140147619Y-109479819D02*
X140004762Y-109432200D01*
X140004762Y-109432200D02*
X139909524Y-109336961D01*
X139909524Y-109336961D02*
X139861905Y-109241723D01*
X139861905Y-109241723D02*
X139814286Y-109051247D01*
X139814286Y-109051247D02*
X139814286Y-108908390D01*
X139814286Y-108908390D02*
X139861905Y-108717914D01*
X139861905Y-108717914D02*
X139909524Y-108622676D01*
X139909524Y-108622676D02*
X140004762Y-108527438D01*
X140004762Y-108527438D02*
X140147619Y-108479819D01*
X140147619Y-108479819D02*
X140242857Y-108479819D01*
X140242857Y-108479819D02*
X140385714Y-108527438D01*
X140385714Y-108527438D02*
X140433333Y-108575057D01*
X140766667Y-108479819D02*
X141385714Y-108479819D01*
X141385714Y-108479819D02*
X141052381Y-108860771D01*
X141052381Y-108860771D02*
X141195238Y-108860771D01*
X141195238Y-108860771D02*
X141290476Y-108908390D01*
X141290476Y-108908390D02*
X141338095Y-108956009D01*
X141338095Y-108956009D02*
X141385714Y-109051247D01*
X141385714Y-109051247D02*
X141385714Y-109289342D01*
X141385714Y-109289342D02*
X141338095Y-109384580D01*
X141338095Y-109384580D02*
X141290476Y-109432200D01*
X141290476Y-109432200D02*
X141195238Y-109479819D01*
X141195238Y-109479819D02*
X140909524Y-109479819D01*
X140909524Y-109479819D02*
X140814286Y-109432200D01*
X140814286Y-109432200D02*
X140766667Y-109384580D01*
X177879819Y-107441666D02*
X177403628Y-107774999D01*
X177879819Y-108013094D02*
X176879819Y-108013094D01*
X176879819Y-108013094D02*
X176879819Y-107632142D01*
X176879819Y-107632142D02*
X176927438Y-107536904D01*
X176927438Y-107536904D02*
X176975057Y-107489285D01*
X176975057Y-107489285D02*
X177070295Y-107441666D01*
X177070295Y-107441666D02*
X177213152Y-107441666D01*
X177213152Y-107441666D02*
X177308390Y-107489285D01*
X177308390Y-107489285D02*
X177356009Y-107536904D01*
X177356009Y-107536904D02*
X177403628Y-107632142D01*
X177403628Y-107632142D02*
X177403628Y-108013094D01*
X176975057Y-107060713D02*
X176927438Y-107013094D01*
X176927438Y-107013094D02*
X176879819Y-106917856D01*
X176879819Y-106917856D02*
X176879819Y-106679761D01*
X176879819Y-106679761D02*
X176927438Y-106584523D01*
X176927438Y-106584523D02*
X176975057Y-106536904D01*
X176975057Y-106536904D02*
X177070295Y-106489285D01*
X177070295Y-106489285D02*
X177165533Y-106489285D01*
X177165533Y-106489285D02*
X177308390Y-106536904D01*
X177308390Y-106536904D02*
X177879819Y-107108332D01*
X177879819Y-107108332D02*
X177879819Y-106489285D01*
X177804819Y-117016666D02*
X177328628Y-117349999D01*
X177804819Y-117588094D02*
X176804819Y-117588094D01*
X176804819Y-117588094D02*
X176804819Y-117207142D01*
X176804819Y-117207142D02*
X176852438Y-117111904D01*
X176852438Y-117111904D02*
X176900057Y-117064285D01*
X176900057Y-117064285D02*
X176995295Y-117016666D01*
X176995295Y-117016666D02*
X177138152Y-117016666D01*
X177138152Y-117016666D02*
X177233390Y-117064285D01*
X177233390Y-117064285D02*
X177281009Y-117111904D01*
X177281009Y-117111904D02*
X177328628Y-117207142D01*
X177328628Y-117207142D02*
X177328628Y-117588094D01*
X176804819Y-116683332D02*
X176804819Y-116064285D01*
X176804819Y-116064285D02*
X177185771Y-116397618D01*
X177185771Y-116397618D02*
X177185771Y-116254761D01*
X177185771Y-116254761D02*
X177233390Y-116159523D01*
X177233390Y-116159523D02*
X177281009Y-116111904D01*
X177281009Y-116111904D02*
X177376247Y-116064285D01*
X177376247Y-116064285D02*
X177614342Y-116064285D01*
X177614342Y-116064285D02*
X177709580Y-116111904D01*
X177709580Y-116111904D02*
X177757200Y-116159523D01*
X177757200Y-116159523D02*
X177804819Y-116254761D01*
X177804819Y-116254761D02*
X177804819Y-116540475D01*
X177804819Y-116540475D02*
X177757200Y-116635713D01*
X177757200Y-116635713D02*
X177709580Y-116683332D01*
X183854819Y-98458333D02*
X184569104Y-98458333D01*
X184569104Y-98458333D02*
X184711961Y-98505952D01*
X184711961Y-98505952D02*
X184807200Y-98601190D01*
X184807200Y-98601190D02*
X184854819Y-98744047D01*
X184854819Y-98744047D02*
X184854819Y-98839285D01*
X184854819Y-97982142D02*
X183854819Y-97982142D01*
X183854819Y-97982142D02*
X183854819Y-97601190D01*
X183854819Y-97601190D02*
X183902438Y-97505952D01*
X183902438Y-97505952D02*
X183950057Y-97458333D01*
X183950057Y-97458333D02*
X184045295Y-97410714D01*
X184045295Y-97410714D02*
X184188152Y-97410714D01*
X184188152Y-97410714D02*
X184283390Y-97458333D01*
X184283390Y-97458333D02*
X184331009Y-97505952D01*
X184331009Y-97505952D02*
X184378628Y-97601190D01*
X184378628Y-97601190D02*
X184378628Y-97982142D01*
X184854819Y-96458333D02*
X184854819Y-97029761D01*
X184854819Y-96744047D02*
X183854819Y-96744047D01*
X183854819Y-96744047D02*
X183997676Y-96839285D01*
X183997676Y-96839285D02*
X184092914Y-96934523D01*
X184092914Y-96934523D02*
X184140533Y-97029761D01*
X182054819Y-100558332D02*
X182054819Y-99939285D01*
X182054819Y-99939285D02*
X182435771Y-100272618D01*
X182435771Y-100272618D02*
X182435771Y-100129761D01*
X182435771Y-100129761D02*
X182483390Y-100034523D01*
X182483390Y-100034523D02*
X182531009Y-99986904D01*
X182531009Y-99986904D02*
X182626247Y-99939285D01*
X182626247Y-99939285D02*
X182864342Y-99939285D01*
X182864342Y-99939285D02*
X182959580Y-99986904D01*
X182959580Y-99986904D02*
X183007200Y-100034523D01*
X183007200Y-100034523D02*
X183054819Y-100129761D01*
X183054819Y-100129761D02*
X183054819Y-100415475D01*
X183054819Y-100415475D02*
X183007200Y-100510713D01*
X183007200Y-100510713D02*
X182959580Y-100558332D01*
X183054819Y-94739285D02*
X183054819Y-95310713D01*
X183054819Y-95024999D02*
X182054819Y-95024999D01*
X182054819Y-95024999D02*
X182197676Y-95120237D01*
X182197676Y-95120237D02*
X182292914Y-95215475D01*
X182292914Y-95215475D02*
X182340533Y-95310713D01*
X125644642Y-95629580D02*
X125597023Y-95677200D01*
X125597023Y-95677200D02*
X125454166Y-95724819D01*
X125454166Y-95724819D02*
X125358928Y-95724819D01*
X125358928Y-95724819D02*
X125216071Y-95677200D01*
X125216071Y-95677200D02*
X125120833Y-95581961D01*
X125120833Y-95581961D02*
X125073214Y-95486723D01*
X125073214Y-95486723D02*
X125025595Y-95296247D01*
X125025595Y-95296247D02*
X125025595Y-95153390D01*
X125025595Y-95153390D02*
X125073214Y-94962914D01*
X125073214Y-94962914D02*
X125120833Y-94867676D01*
X125120833Y-94867676D02*
X125216071Y-94772438D01*
X125216071Y-94772438D02*
X125358928Y-94724819D01*
X125358928Y-94724819D02*
X125454166Y-94724819D01*
X125454166Y-94724819D02*
X125597023Y-94772438D01*
X125597023Y-94772438D02*
X125644642Y-94820057D01*
X126597023Y-95724819D02*
X126025595Y-95724819D01*
X126311309Y-95724819D02*
X126311309Y-94724819D01*
X126311309Y-94724819D02*
X126216071Y-94867676D01*
X126216071Y-94867676D02*
X126120833Y-94962914D01*
X126120833Y-94962914D02*
X126025595Y-95010533D01*
X126930357Y-94724819D02*
X127597023Y-94724819D01*
X127597023Y-94724819D02*
X127168452Y-95724819D01*
X196379819Y-98817857D02*
X195903628Y-99151190D01*
X196379819Y-99389285D02*
X195379819Y-99389285D01*
X195379819Y-99389285D02*
X195379819Y-99008333D01*
X195379819Y-99008333D02*
X195427438Y-98913095D01*
X195427438Y-98913095D02*
X195475057Y-98865476D01*
X195475057Y-98865476D02*
X195570295Y-98817857D01*
X195570295Y-98817857D02*
X195713152Y-98817857D01*
X195713152Y-98817857D02*
X195808390Y-98865476D01*
X195808390Y-98865476D02*
X195856009Y-98913095D01*
X195856009Y-98913095D02*
X195903628Y-99008333D01*
X195903628Y-99008333D02*
X195903628Y-99389285D01*
X196379819Y-97865476D02*
X196379819Y-98436904D01*
X196379819Y-98151190D02*
X195379819Y-98151190D01*
X195379819Y-98151190D02*
X195522676Y-98246428D01*
X195522676Y-98246428D02*
X195617914Y-98341666D01*
X195617914Y-98341666D02*
X195665533Y-98436904D01*
X195475057Y-97484523D02*
X195427438Y-97436904D01*
X195427438Y-97436904D02*
X195379819Y-97341666D01*
X195379819Y-97341666D02*
X195379819Y-97103571D01*
X195379819Y-97103571D02*
X195427438Y-97008333D01*
X195427438Y-97008333D02*
X195475057Y-96960714D01*
X195475057Y-96960714D02*
X195570295Y-96913095D01*
X195570295Y-96913095D02*
X195665533Y-96913095D01*
X195665533Y-96913095D02*
X195808390Y-96960714D01*
X195808390Y-96960714D02*
X196379819Y-97532142D01*
X196379819Y-97532142D02*
X196379819Y-96913095D01*
X193079819Y-98483333D02*
X193794104Y-98483333D01*
X193794104Y-98483333D02*
X193936961Y-98530952D01*
X193936961Y-98530952D02*
X194032200Y-98626190D01*
X194032200Y-98626190D02*
X194079819Y-98769047D01*
X194079819Y-98769047D02*
X194079819Y-98864285D01*
X194079819Y-98007142D02*
X193079819Y-98007142D01*
X193079819Y-98007142D02*
X193079819Y-97626190D01*
X193079819Y-97626190D02*
X193127438Y-97530952D01*
X193127438Y-97530952D02*
X193175057Y-97483333D01*
X193175057Y-97483333D02*
X193270295Y-97435714D01*
X193270295Y-97435714D02*
X193413152Y-97435714D01*
X193413152Y-97435714D02*
X193508390Y-97483333D01*
X193508390Y-97483333D02*
X193556009Y-97530952D01*
X193556009Y-97530952D02*
X193603628Y-97626190D01*
X193603628Y-97626190D02*
X193603628Y-98007142D01*
X193413152Y-96578571D02*
X194079819Y-96578571D01*
X193032200Y-96816666D02*
X193746485Y-97054761D01*
X193746485Y-97054761D02*
X193746485Y-96435714D01*
X192279819Y-94764285D02*
X192279819Y-95335713D01*
X192279819Y-95049999D02*
X191279819Y-95049999D01*
X191279819Y-95049999D02*
X191422676Y-95145237D01*
X191422676Y-95145237D02*
X191517914Y-95240475D01*
X191517914Y-95240475D02*
X191565533Y-95335713D01*
X191279819Y-100583332D02*
X191279819Y-99964285D01*
X191279819Y-99964285D02*
X191660771Y-100297618D01*
X191660771Y-100297618D02*
X191660771Y-100154761D01*
X191660771Y-100154761D02*
X191708390Y-100059523D01*
X191708390Y-100059523D02*
X191756009Y-100011904D01*
X191756009Y-100011904D02*
X191851247Y-99964285D01*
X191851247Y-99964285D02*
X192089342Y-99964285D01*
X192089342Y-99964285D02*
X192184580Y-100011904D01*
X192184580Y-100011904D02*
X192232200Y-100059523D01*
X192232200Y-100059523D02*
X192279819Y-100154761D01*
X192279819Y-100154761D02*
X192279819Y-100440475D01*
X192279819Y-100440475D02*
X192232200Y-100535713D01*
X192232200Y-100535713D02*
X192184580Y-100583332D01*
X193079819Y-107658333D02*
X193794104Y-107658333D01*
X193794104Y-107658333D02*
X193936961Y-107705952D01*
X193936961Y-107705952D02*
X194032200Y-107801190D01*
X194032200Y-107801190D02*
X194079819Y-107944047D01*
X194079819Y-107944047D02*
X194079819Y-108039285D01*
X194079819Y-107182142D02*
X193079819Y-107182142D01*
X193079819Y-107182142D02*
X193079819Y-106801190D01*
X193079819Y-106801190D02*
X193127438Y-106705952D01*
X193127438Y-106705952D02*
X193175057Y-106658333D01*
X193175057Y-106658333D02*
X193270295Y-106610714D01*
X193270295Y-106610714D02*
X193413152Y-106610714D01*
X193413152Y-106610714D02*
X193508390Y-106658333D01*
X193508390Y-106658333D02*
X193556009Y-106705952D01*
X193556009Y-106705952D02*
X193603628Y-106801190D01*
X193603628Y-106801190D02*
X193603628Y-107182142D01*
X193079819Y-105705952D02*
X193079819Y-106182142D01*
X193079819Y-106182142D02*
X193556009Y-106229761D01*
X193556009Y-106229761D02*
X193508390Y-106182142D01*
X193508390Y-106182142D02*
X193460771Y-106086904D01*
X193460771Y-106086904D02*
X193460771Y-105848809D01*
X193460771Y-105848809D02*
X193508390Y-105753571D01*
X193508390Y-105753571D02*
X193556009Y-105705952D01*
X193556009Y-105705952D02*
X193651247Y-105658333D01*
X193651247Y-105658333D02*
X193889342Y-105658333D01*
X193889342Y-105658333D02*
X193984580Y-105705952D01*
X193984580Y-105705952D02*
X194032200Y-105753571D01*
X194032200Y-105753571D02*
X194079819Y-105848809D01*
X194079819Y-105848809D02*
X194079819Y-106086904D01*
X194079819Y-106086904D02*
X194032200Y-106182142D01*
X194032200Y-106182142D02*
X193984580Y-106229761D01*
X191279819Y-109758332D02*
X191279819Y-109139285D01*
X191279819Y-109139285D02*
X191660771Y-109472618D01*
X191660771Y-109472618D02*
X191660771Y-109329761D01*
X191660771Y-109329761D02*
X191708390Y-109234523D01*
X191708390Y-109234523D02*
X191756009Y-109186904D01*
X191756009Y-109186904D02*
X191851247Y-109139285D01*
X191851247Y-109139285D02*
X192089342Y-109139285D01*
X192089342Y-109139285D02*
X192184580Y-109186904D01*
X192184580Y-109186904D02*
X192232200Y-109234523D01*
X192232200Y-109234523D02*
X192279819Y-109329761D01*
X192279819Y-109329761D02*
X192279819Y-109615475D01*
X192279819Y-109615475D02*
X192232200Y-109710713D01*
X192232200Y-109710713D02*
X192184580Y-109758332D01*
X192279819Y-103939285D02*
X192279819Y-104510713D01*
X192279819Y-104224999D02*
X191279819Y-104224999D01*
X191279819Y-104224999D02*
X191422676Y-104320237D01*
X191422676Y-104320237D02*
X191517914Y-104415475D01*
X191517914Y-104415475D02*
X191565533Y-104510713D01*
X156429819Y-111966666D02*
X155953628Y-112299999D01*
X156429819Y-112538094D02*
X155429819Y-112538094D01*
X155429819Y-112538094D02*
X155429819Y-112157142D01*
X155429819Y-112157142D02*
X155477438Y-112061904D01*
X155477438Y-112061904D02*
X155525057Y-112014285D01*
X155525057Y-112014285D02*
X155620295Y-111966666D01*
X155620295Y-111966666D02*
X155763152Y-111966666D01*
X155763152Y-111966666D02*
X155858390Y-112014285D01*
X155858390Y-112014285D02*
X155906009Y-112061904D01*
X155906009Y-112061904D02*
X155953628Y-112157142D01*
X155953628Y-112157142D02*
X155953628Y-112538094D01*
X155429819Y-111061904D02*
X155429819Y-111538094D01*
X155429819Y-111538094D02*
X155906009Y-111585713D01*
X155906009Y-111585713D02*
X155858390Y-111538094D01*
X155858390Y-111538094D02*
X155810771Y-111442856D01*
X155810771Y-111442856D02*
X155810771Y-111204761D01*
X155810771Y-111204761D02*
X155858390Y-111109523D01*
X155858390Y-111109523D02*
X155906009Y-111061904D01*
X155906009Y-111061904D02*
X156001247Y-111014285D01*
X156001247Y-111014285D02*
X156239342Y-111014285D01*
X156239342Y-111014285D02*
X156334580Y-111061904D01*
X156334580Y-111061904D02*
X156382200Y-111109523D01*
X156382200Y-111109523D02*
X156429819Y-111204761D01*
X156429819Y-111204761D02*
X156429819Y-111442856D01*
X156429819Y-111442856D02*
X156382200Y-111538094D01*
X156382200Y-111538094D02*
X156334580Y-111585713D01*
X116587142Y-92714819D02*
X116253809Y-92238628D01*
X116015714Y-92714819D02*
X116015714Y-91714819D01*
X116015714Y-91714819D02*
X116396666Y-91714819D01*
X116396666Y-91714819D02*
X116491904Y-91762438D01*
X116491904Y-91762438D02*
X116539523Y-91810057D01*
X116539523Y-91810057D02*
X116587142Y-91905295D01*
X116587142Y-91905295D02*
X116587142Y-92048152D01*
X116587142Y-92048152D02*
X116539523Y-92143390D01*
X116539523Y-92143390D02*
X116491904Y-92191009D01*
X116491904Y-92191009D02*
X116396666Y-92238628D01*
X116396666Y-92238628D02*
X116015714Y-92238628D01*
X117539523Y-92714819D02*
X116968095Y-92714819D01*
X117253809Y-92714819D02*
X117253809Y-91714819D01*
X117253809Y-91714819D02*
X117158571Y-91857676D01*
X117158571Y-91857676D02*
X117063333Y-91952914D01*
X117063333Y-91952914D02*
X116968095Y-92000533D01*
X117872857Y-91714819D02*
X118491904Y-91714819D01*
X118491904Y-91714819D02*
X118158571Y-92095771D01*
X118158571Y-92095771D02*
X118301428Y-92095771D01*
X118301428Y-92095771D02*
X118396666Y-92143390D01*
X118396666Y-92143390D02*
X118444285Y-92191009D01*
X118444285Y-92191009D02*
X118491904Y-92286247D01*
X118491904Y-92286247D02*
X118491904Y-92524342D01*
X118491904Y-92524342D02*
X118444285Y-92619580D01*
X118444285Y-92619580D02*
X118396666Y-92667200D01*
X118396666Y-92667200D02*
X118301428Y-92714819D01*
X118301428Y-92714819D02*
X118015714Y-92714819D01*
X118015714Y-92714819D02*
X117920476Y-92667200D01*
X117920476Y-92667200D02*
X117872857Y-92619580D01*
X142829819Y-112467857D02*
X142353628Y-112801190D01*
X142829819Y-113039285D02*
X141829819Y-113039285D01*
X141829819Y-113039285D02*
X141829819Y-112658333D01*
X141829819Y-112658333D02*
X141877438Y-112563095D01*
X141877438Y-112563095D02*
X141925057Y-112515476D01*
X141925057Y-112515476D02*
X142020295Y-112467857D01*
X142020295Y-112467857D02*
X142163152Y-112467857D01*
X142163152Y-112467857D02*
X142258390Y-112515476D01*
X142258390Y-112515476D02*
X142306009Y-112563095D01*
X142306009Y-112563095D02*
X142353628Y-112658333D01*
X142353628Y-112658333D02*
X142353628Y-113039285D01*
X142829819Y-111515476D02*
X142829819Y-112086904D01*
X142829819Y-111801190D02*
X141829819Y-111801190D01*
X141829819Y-111801190D02*
X141972676Y-111896428D01*
X141972676Y-111896428D02*
X142067914Y-111991666D01*
X142067914Y-111991666D02*
X142115533Y-112086904D01*
X142163152Y-110658333D02*
X142829819Y-110658333D01*
X141782200Y-110896428D02*
X142496485Y-111134523D01*
X142496485Y-111134523D02*
X142496485Y-110515476D01*
X187104819Y-107942857D02*
X186628628Y-108276190D01*
X187104819Y-108514285D02*
X186104819Y-108514285D01*
X186104819Y-108514285D02*
X186104819Y-108133333D01*
X186104819Y-108133333D02*
X186152438Y-108038095D01*
X186152438Y-108038095D02*
X186200057Y-107990476D01*
X186200057Y-107990476D02*
X186295295Y-107942857D01*
X186295295Y-107942857D02*
X186438152Y-107942857D01*
X186438152Y-107942857D02*
X186533390Y-107990476D01*
X186533390Y-107990476D02*
X186581009Y-108038095D01*
X186581009Y-108038095D02*
X186628628Y-108133333D01*
X186628628Y-108133333D02*
X186628628Y-108514285D01*
X187104819Y-106990476D02*
X187104819Y-107561904D01*
X187104819Y-107276190D02*
X186104819Y-107276190D01*
X186104819Y-107276190D02*
X186247676Y-107371428D01*
X186247676Y-107371428D02*
X186342914Y-107466666D01*
X186342914Y-107466666D02*
X186390533Y-107561904D01*
X187104819Y-106038095D02*
X187104819Y-106609523D01*
X187104819Y-106323809D02*
X186104819Y-106323809D01*
X186104819Y-106323809D02*
X186247676Y-106419047D01*
X186247676Y-106419047D02*
X186342914Y-106514285D01*
X186342914Y-106514285D02*
X186390533Y-106609523D01*
X148583333Y-109409580D02*
X148535714Y-109457200D01*
X148535714Y-109457200D02*
X148392857Y-109504819D01*
X148392857Y-109504819D02*
X148297619Y-109504819D01*
X148297619Y-109504819D02*
X148154762Y-109457200D01*
X148154762Y-109457200D02*
X148059524Y-109361961D01*
X148059524Y-109361961D02*
X148011905Y-109266723D01*
X148011905Y-109266723D02*
X147964286Y-109076247D01*
X147964286Y-109076247D02*
X147964286Y-108933390D01*
X147964286Y-108933390D02*
X148011905Y-108742914D01*
X148011905Y-108742914D02*
X148059524Y-108647676D01*
X148059524Y-108647676D02*
X148154762Y-108552438D01*
X148154762Y-108552438D02*
X148297619Y-108504819D01*
X148297619Y-108504819D02*
X148392857Y-108504819D01*
X148392857Y-108504819D02*
X148535714Y-108552438D01*
X148535714Y-108552438D02*
X148583333Y-108600057D01*
X148916667Y-108504819D02*
X149583333Y-108504819D01*
X149583333Y-108504819D02*
X149154762Y-109504819D01*
X139379819Y-112016666D02*
X138903628Y-112349999D01*
X139379819Y-112588094D02*
X138379819Y-112588094D01*
X138379819Y-112588094D02*
X138379819Y-112207142D01*
X138379819Y-112207142D02*
X138427438Y-112111904D01*
X138427438Y-112111904D02*
X138475057Y-112064285D01*
X138475057Y-112064285D02*
X138570295Y-112016666D01*
X138570295Y-112016666D02*
X138713152Y-112016666D01*
X138713152Y-112016666D02*
X138808390Y-112064285D01*
X138808390Y-112064285D02*
X138856009Y-112111904D01*
X138856009Y-112111904D02*
X138903628Y-112207142D01*
X138903628Y-112207142D02*
X138903628Y-112588094D01*
X138379819Y-111159523D02*
X138379819Y-111349999D01*
X138379819Y-111349999D02*
X138427438Y-111445237D01*
X138427438Y-111445237D02*
X138475057Y-111492856D01*
X138475057Y-111492856D02*
X138617914Y-111588094D01*
X138617914Y-111588094D02*
X138808390Y-111635713D01*
X138808390Y-111635713D02*
X139189342Y-111635713D01*
X139189342Y-111635713D02*
X139284580Y-111588094D01*
X139284580Y-111588094D02*
X139332200Y-111540475D01*
X139332200Y-111540475D02*
X139379819Y-111445237D01*
X139379819Y-111445237D02*
X139379819Y-111254761D01*
X139379819Y-111254761D02*
X139332200Y-111159523D01*
X139332200Y-111159523D02*
X139284580Y-111111904D01*
X139284580Y-111111904D02*
X139189342Y-111064285D01*
X139189342Y-111064285D02*
X138951247Y-111064285D01*
X138951247Y-111064285D02*
X138856009Y-111111904D01*
X138856009Y-111111904D02*
X138808390Y-111159523D01*
X138808390Y-111159523D02*
X138760771Y-111254761D01*
X138760771Y-111254761D02*
X138760771Y-111445237D01*
X138760771Y-111445237D02*
X138808390Y-111540475D01*
X138808390Y-111540475D02*
X138856009Y-111588094D01*
X138856009Y-111588094D02*
X138951247Y-111635713D01*
X156532142Y-109484580D02*
X156484523Y-109532200D01*
X156484523Y-109532200D02*
X156341666Y-109579819D01*
X156341666Y-109579819D02*
X156246428Y-109579819D01*
X156246428Y-109579819D02*
X156103571Y-109532200D01*
X156103571Y-109532200D02*
X156008333Y-109436961D01*
X156008333Y-109436961D02*
X155960714Y-109341723D01*
X155960714Y-109341723D02*
X155913095Y-109151247D01*
X155913095Y-109151247D02*
X155913095Y-109008390D01*
X155913095Y-109008390D02*
X155960714Y-108817914D01*
X155960714Y-108817914D02*
X156008333Y-108722676D01*
X156008333Y-108722676D02*
X156103571Y-108627438D01*
X156103571Y-108627438D02*
X156246428Y-108579819D01*
X156246428Y-108579819D02*
X156341666Y-108579819D01*
X156341666Y-108579819D02*
X156484523Y-108627438D01*
X156484523Y-108627438D02*
X156532142Y-108675057D01*
X157484523Y-109579819D02*
X156913095Y-109579819D01*
X157198809Y-109579819D02*
X157198809Y-108579819D01*
X157198809Y-108579819D02*
X157103571Y-108722676D01*
X157103571Y-108722676D02*
X157008333Y-108817914D01*
X157008333Y-108817914D02*
X156913095Y-108865533D01*
X158389285Y-108579819D02*
X157913095Y-108579819D01*
X157913095Y-108579819D02*
X157865476Y-109056009D01*
X157865476Y-109056009D02*
X157913095Y-109008390D01*
X157913095Y-109008390D02*
X158008333Y-108960771D01*
X158008333Y-108960771D02*
X158246428Y-108960771D01*
X158246428Y-108960771D02*
X158341666Y-109008390D01*
X158341666Y-109008390D02*
X158389285Y-109056009D01*
X158389285Y-109056009D02*
X158436904Y-109151247D01*
X158436904Y-109151247D02*
X158436904Y-109389342D01*
X158436904Y-109389342D02*
X158389285Y-109484580D01*
X158389285Y-109484580D02*
X158341666Y-109532200D01*
X158341666Y-109532200D02*
X158246428Y-109579819D01*
X158246428Y-109579819D02*
X158008333Y-109579819D01*
X158008333Y-109579819D02*
X157913095Y-109532200D01*
X157913095Y-109532200D02*
X157865476Y-109484580D01*
X187129819Y-103817857D02*
X186653628Y-104151190D01*
X187129819Y-104389285D02*
X186129819Y-104389285D01*
X186129819Y-104389285D02*
X186129819Y-104008333D01*
X186129819Y-104008333D02*
X186177438Y-103913095D01*
X186177438Y-103913095D02*
X186225057Y-103865476D01*
X186225057Y-103865476D02*
X186320295Y-103817857D01*
X186320295Y-103817857D02*
X186463152Y-103817857D01*
X186463152Y-103817857D02*
X186558390Y-103865476D01*
X186558390Y-103865476D02*
X186606009Y-103913095D01*
X186606009Y-103913095D02*
X186653628Y-104008333D01*
X186653628Y-104008333D02*
X186653628Y-104389285D01*
X187129819Y-102865476D02*
X187129819Y-103436904D01*
X187129819Y-103151190D02*
X186129819Y-103151190D01*
X186129819Y-103151190D02*
X186272676Y-103246428D01*
X186272676Y-103246428D02*
X186367914Y-103341666D01*
X186367914Y-103341666D02*
X186415533Y-103436904D01*
X186558390Y-102294047D02*
X186510771Y-102389285D01*
X186510771Y-102389285D02*
X186463152Y-102436904D01*
X186463152Y-102436904D02*
X186367914Y-102484523D01*
X186367914Y-102484523D02*
X186320295Y-102484523D01*
X186320295Y-102484523D02*
X186225057Y-102436904D01*
X186225057Y-102436904D02*
X186177438Y-102389285D01*
X186177438Y-102389285D02*
X186129819Y-102294047D01*
X186129819Y-102294047D02*
X186129819Y-102103571D01*
X186129819Y-102103571D02*
X186177438Y-102008333D01*
X186177438Y-102008333D02*
X186225057Y-101960714D01*
X186225057Y-101960714D02*
X186320295Y-101913095D01*
X186320295Y-101913095D02*
X186367914Y-101913095D01*
X186367914Y-101913095D02*
X186463152Y-101960714D01*
X186463152Y-101960714D02*
X186510771Y-102008333D01*
X186510771Y-102008333D02*
X186558390Y-102103571D01*
X186558390Y-102103571D02*
X186558390Y-102294047D01*
X186558390Y-102294047D02*
X186606009Y-102389285D01*
X186606009Y-102389285D02*
X186653628Y-102436904D01*
X186653628Y-102436904D02*
X186748866Y-102484523D01*
X186748866Y-102484523D02*
X186939342Y-102484523D01*
X186939342Y-102484523D02*
X187034580Y-102436904D01*
X187034580Y-102436904D02*
X187082200Y-102389285D01*
X187082200Y-102389285D02*
X187129819Y-102294047D01*
X187129819Y-102294047D02*
X187129819Y-102103571D01*
X187129819Y-102103571D02*
X187082200Y-102008333D01*
X187082200Y-102008333D02*
X187034580Y-101960714D01*
X187034580Y-101960714D02*
X186939342Y-101913095D01*
X186939342Y-101913095D02*
X186748866Y-101913095D01*
X186748866Y-101913095D02*
X186653628Y-101960714D01*
X186653628Y-101960714D02*
X186606009Y-102008333D01*
X186606009Y-102008333D02*
X186558390Y-102103571D01*
X179661905Y-87554819D02*
X179661905Y-86554819D01*
X179661905Y-86554819D02*
X179900000Y-86554819D01*
X179900000Y-86554819D02*
X180042857Y-86602438D01*
X180042857Y-86602438D02*
X180138095Y-86697676D01*
X180138095Y-86697676D02*
X180185714Y-86792914D01*
X180185714Y-86792914D02*
X180233333Y-86983390D01*
X180233333Y-86983390D02*
X180233333Y-87126247D01*
X180233333Y-87126247D02*
X180185714Y-87316723D01*
X180185714Y-87316723D02*
X180138095Y-87411961D01*
X180138095Y-87411961D02*
X180042857Y-87507200D01*
X180042857Y-87507200D02*
X179900000Y-87554819D01*
X179900000Y-87554819D02*
X179661905Y-87554819D01*
X180566667Y-86554819D02*
X181185714Y-86554819D01*
X181185714Y-86554819D02*
X180852381Y-86935771D01*
X180852381Y-86935771D02*
X180995238Y-86935771D01*
X180995238Y-86935771D02*
X181090476Y-86983390D01*
X181090476Y-86983390D02*
X181138095Y-87031009D01*
X181138095Y-87031009D02*
X181185714Y-87126247D01*
X181185714Y-87126247D02*
X181185714Y-87364342D01*
X181185714Y-87364342D02*
X181138095Y-87459580D01*
X181138095Y-87459580D02*
X181090476Y-87507200D01*
X181090476Y-87507200D02*
X180995238Y-87554819D01*
X180995238Y-87554819D02*
X180709524Y-87554819D01*
X180709524Y-87554819D02*
X180614286Y-87507200D01*
X180614286Y-87507200D02*
X180566667Y-87459580D01*
X154083333Y-109384580D02*
X154035714Y-109432200D01*
X154035714Y-109432200D02*
X153892857Y-109479819D01*
X153892857Y-109479819D02*
X153797619Y-109479819D01*
X153797619Y-109479819D02*
X153654762Y-109432200D01*
X153654762Y-109432200D02*
X153559524Y-109336961D01*
X153559524Y-109336961D02*
X153511905Y-109241723D01*
X153511905Y-109241723D02*
X153464286Y-109051247D01*
X153464286Y-109051247D02*
X153464286Y-108908390D01*
X153464286Y-108908390D02*
X153511905Y-108717914D01*
X153511905Y-108717914D02*
X153559524Y-108622676D01*
X153559524Y-108622676D02*
X153654762Y-108527438D01*
X153654762Y-108527438D02*
X153797619Y-108479819D01*
X153797619Y-108479819D02*
X153892857Y-108479819D01*
X153892857Y-108479819D02*
X154035714Y-108527438D01*
X154035714Y-108527438D02*
X154083333Y-108575057D01*
X154464286Y-108575057D02*
X154511905Y-108527438D01*
X154511905Y-108527438D02*
X154607143Y-108479819D01*
X154607143Y-108479819D02*
X154845238Y-108479819D01*
X154845238Y-108479819D02*
X154940476Y-108527438D01*
X154940476Y-108527438D02*
X154988095Y-108575057D01*
X154988095Y-108575057D02*
X155035714Y-108670295D01*
X155035714Y-108670295D02*
X155035714Y-108765533D01*
X155035714Y-108765533D02*
X154988095Y-108908390D01*
X154988095Y-108908390D02*
X154416667Y-109479819D01*
X154416667Y-109479819D02*
X155035714Y-109479819D01*
X153238095Y-89229819D02*
X153238095Y-90039342D01*
X153238095Y-90039342D02*
X153285714Y-90134580D01*
X153285714Y-90134580D02*
X153333333Y-90182200D01*
X153333333Y-90182200D02*
X153428571Y-90229819D01*
X153428571Y-90229819D02*
X153619047Y-90229819D01*
X153619047Y-90229819D02*
X153714285Y-90182200D01*
X153714285Y-90182200D02*
X153761904Y-90134580D01*
X153761904Y-90134580D02*
X153809523Y-90039342D01*
X153809523Y-90039342D02*
X153809523Y-89229819D01*
X154809523Y-90229819D02*
X154238095Y-90229819D01*
X154523809Y-90229819D02*
X154523809Y-89229819D01*
X154523809Y-89229819D02*
X154428571Y-89372676D01*
X154428571Y-89372676D02*
X154333333Y-89467914D01*
X154333333Y-89467914D02*
X154238095Y-89515533D01*
X183854819Y-117183333D02*
X184569104Y-117183333D01*
X184569104Y-117183333D02*
X184711961Y-117230952D01*
X184711961Y-117230952D02*
X184807200Y-117326190D01*
X184807200Y-117326190D02*
X184854819Y-117469047D01*
X184854819Y-117469047D02*
X184854819Y-117564285D01*
X184854819Y-116707142D02*
X183854819Y-116707142D01*
X183854819Y-116707142D02*
X183854819Y-116326190D01*
X183854819Y-116326190D02*
X183902438Y-116230952D01*
X183902438Y-116230952D02*
X183950057Y-116183333D01*
X183950057Y-116183333D02*
X184045295Y-116135714D01*
X184045295Y-116135714D02*
X184188152Y-116135714D01*
X184188152Y-116135714D02*
X184283390Y-116183333D01*
X184283390Y-116183333D02*
X184331009Y-116230952D01*
X184331009Y-116230952D02*
X184378628Y-116326190D01*
X184378628Y-116326190D02*
X184378628Y-116707142D01*
X183854819Y-115802380D02*
X183854819Y-115183333D01*
X183854819Y-115183333D02*
X184235771Y-115516666D01*
X184235771Y-115516666D02*
X184235771Y-115373809D01*
X184235771Y-115373809D02*
X184283390Y-115278571D01*
X184283390Y-115278571D02*
X184331009Y-115230952D01*
X184331009Y-115230952D02*
X184426247Y-115183333D01*
X184426247Y-115183333D02*
X184664342Y-115183333D01*
X184664342Y-115183333D02*
X184759580Y-115230952D01*
X184759580Y-115230952D02*
X184807200Y-115278571D01*
X184807200Y-115278571D02*
X184854819Y-115373809D01*
X184854819Y-115373809D02*
X184854819Y-115659523D01*
X184854819Y-115659523D02*
X184807200Y-115754761D01*
X184807200Y-115754761D02*
X184759580Y-115802380D01*
X183054819Y-113464285D02*
X183054819Y-114035713D01*
X183054819Y-113749999D02*
X182054819Y-113749999D01*
X182054819Y-113749999D02*
X182197676Y-113845237D01*
X182197676Y-113845237D02*
X182292914Y-113940475D01*
X182292914Y-113940475D02*
X182340533Y-114035713D01*
X182054819Y-119283332D02*
X182054819Y-118664285D01*
X182054819Y-118664285D02*
X182435771Y-118997618D01*
X182435771Y-118997618D02*
X182435771Y-118854761D01*
X182435771Y-118854761D02*
X182483390Y-118759523D01*
X182483390Y-118759523D02*
X182531009Y-118711904D01*
X182531009Y-118711904D02*
X182626247Y-118664285D01*
X182626247Y-118664285D02*
X182864342Y-118664285D01*
X182864342Y-118664285D02*
X182959580Y-118711904D01*
X182959580Y-118711904D02*
X183007200Y-118759523D01*
X183007200Y-118759523D02*
X183054819Y-118854761D01*
X183054819Y-118854761D02*
X183054819Y-119140475D01*
X183054819Y-119140475D02*
X183007200Y-119235713D01*
X183007200Y-119235713D02*
X182959580Y-119283332D01*
X146329819Y-112442857D02*
X145853628Y-112776190D01*
X146329819Y-113014285D02*
X145329819Y-113014285D01*
X145329819Y-113014285D02*
X145329819Y-112633333D01*
X145329819Y-112633333D02*
X145377438Y-112538095D01*
X145377438Y-112538095D02*
X145425057Y-112490476D01*
X145425057Y-112490476D02*
X145520295Y-112442857D01*
X145520295Y-112442857D02*
X145663152Y-112442857D01*
X145663152Y-112442857D02*
X145758390Y-112490476D01*
X145758390Y-112490476D02*
X145806009Y-112538095D01*
X145806009Y-112538095D02*
X145853628Y-112633333D01*
X145853628Y-112633333D02*
X145853628Y-113014285D01*
X146329819Y-111490476D02*
X146329819Y-112061904D01*
X146329819Y-111776190D02*
X145329819Y-111776190D01*
X145329819Y-111776190D02*
X145472676Y-111871428D01*
X145472676Y-111871428D02*
X145567914Y-111966666D01*
X145567914Y-111966666D02*
X145615533Y-112061904D01*
X145329819Y-110585714D02*
X145329819Y-111061904D01*
X145329819Y-111061904D02*
X145806009Y-111109523D01*
X145806009Y-111109523D02*
X145758390Y-111061904D01*
X145758390Y-111061904D02*
X145710771Y-110966666D01*
X145710771Y-110966666D02*
X145710771Y-110728571D01*
X145710771Y-110728571D02*
X145758390Y-110633333D01*
X145758390Y-110633333D02*
X145806009Y-110585714D01*
X145806009Y-110585714D02*
X145901247Y-110538095D01*
X145901247Y-110538095D02*
X146139342Y-110538095D01*
X146139342Y-110538095D02*
X146234580Y-110585714D01*
X146234580Y-110585714D02*
X146282200Y-110633333D01*
X146282200Y-110633333D02*
X146329819Y-110728571D01*
X146329819Y-110728571D02*
X146329819Y-110966666D01*
X146329819Y-110966666D02*
X146282200Y-111061904D01*
X146282200Y-111061904D02*
X146234580Y-111109523D01*
X159607142Y-109459580D02*
X159559523Y-109507200D01*
X159559523Y-109507200D02*
X159416666Y-109554819D01*
X159416666Y-109554819D02*
X159321428Y-109554819D01*
X159321428Y-109554819D02*
X159178571Y-109507200D01*
X159178571Y-109507200D02*
X159083333Y-109411961D01*
X159083333Y-109411961D02*
X159035714Y-109316723D01*
X159035714Y-109316723D02*
X158988095Y-109126247D01*
X158988095Y-109126247D02*
X158988095Y-108983390D01*
X158988095Y-108983390D02*
X159035714Y-108792914D01*
X159035714Y-108792914D02*
X159083333Y-108697676D01*
X159083333Y-108697676D02*
X159178571Y-108602438D01*
X159178571Y-108602438D02*
X159321428Y-108554819D01*
X159321428Y-108554819D02*
X159416666Y-108554819D01*
X159416666Y-108554819D02*
X159559523Y-108602438D01*
X159559523Y-108602438D02*
X159607142Y-108650057D01*
X160559523Y-109554819D02*
X159988095Y-109554819D01*
X160273809Y-109554819D02*
X160273809Y-108554819D01*
X160273809Y-108554819D02*
X160178571Y-108697676D01*
X160178571Y-108697676D02*
X160083333Y-108792914D01*
X160083333Y-108792914D02*
X159988095Y-108840533D01*
X160892857Y-108554819D02*
X161511904Y-108554819D01*
X161511904Y-108554819D02*
X161178571Y-108935771D01*
X161178571Y-108935771D02*
X161321428Y-108935771D01*
X161321428Y-108935771D02*
X161416666Y-108983390D01*
X161416666Y-108983390D02*
X161464285Y-109031009D01*
X161464285Y-109031009D02*
X161511904Y-109126247D01*
X161511904Y-109126247D02*
X161511904Y-109364342D01*
X161511904Y-109364342D02*
X161464285Y-109459580D01*
X161464285Y-109459580D02*
X161416666Y-109507200D01*
X161416666Y-109507200D02*
X161321428Y-109554819D01*
X161321428Y-109554819D02*
X161035714Y-109554819D01*
X161035714Y-109554819D02*
X160940476Y-109507200D01*
X160940476Y-109507200D02*
X160892857Y-109459580D01*
X143083333Y-109434580D02*
X143035714Y-109482200D01*
X143035714Y-109482200D02*
X142892857Y-109529819D01*
X142892857Y-109529819D02*
X142797619Y-109529819D01*
X142797619Y-109529819D02*
X142654762Y-109482200D01*
X142654762Y-109482200D02*
X142559524Y-109386961D01*
X142559524Y-109386961D02*
X142511905Y-109291723D01*
X142511905Y-109291723D02*
X142464286Y-109101247D01*
X142464286Y-109101247D02*
X142464286Y-108958390D01*
X142464286Y-108958390D02*
X142511905Y-108767914D01*
X142511905Y-108767914D02*
X142559524Y-108672676D01*
X142559524Y-108672676D02*
X142654762Y-108577438D01*
X142654762Y-108577438D02*
X142797619Y-108529819D01*
X142797619Y-108529819D02*
X142892857Y-108529819D01*
X142892857Y-108529819D02*
X143035714Y-108577438D01*
X143035714Y-108577438D02*
X143083333Y-108625057D01*
X143988095Y-108529819D02*
X143511905Y-108529819D01*
X143511905Y-108529819D02*
X143464286Y-109006009D01*
X143464286Y-109006009D02*
X143511905Y-108958390D01*
X143511905Y-108958390D02*
X143607143Y-108910771D01*
X143607143Y-108910771D02*
X143845238Y-108910771D01*
X143845238Y-108910771D02*
X143940476Y-108958390D01*
X143940476Y-108958390D02*
X143988095Y-109006009D01*
X143988095Y-109006009D02*
X144035714Y-109101247D01*
X144035714Y-109101247D02*
X144035714Y-109339342D01*
X144035714Y-109339342D02*
X143988095Y-109434580D01*
X143988095Y-109434580D02*
X143940476Y-109482200D01*
X143940476Y-109482200D02*
X143845238Y-109529819D01*
X143845238Y-109529819D02*
X143607143Y-109529819D01*
X143607143Y-109529819D02*
X143511905Y-109482200D01*
X143511905Y-109482200D02*
X143464286Y-109434580D01*
X134732142Y-107754819D02*
X134398809Y-107278628D01*
X134160714Y-107754819D02*
X134160714Y-106754819D01*
X134160714Y-106754819D02*
X134541666Y-106754819D01*
X134541666Y-106754819D02*
X134636904Y-106802438D01*
X134636904Y-106802438D02*
X134684523Y-106850057D01*
X134684523Y-106850057D02*
X134732142Y-106945295D01*
X134732142Y-106945295D02*
X134732142Y-107088152D01*
X134732142Y-107088152D02*
X134684523Y-107183390D01*
X134684523Y-107183390D02*
X134636904Y-107231009D01*
X134636904Y-107231009D02*
X134541666Y-107278628D01*
X134541666Y-107278628D02*
X134160714Y-107278628D01*
X135113095Y-106850057D02*
X135160714Y-106802438D01*
X135160714Y-106802438D02*
X135255952Y-106754819D01*
X135255952Y-106754819D02*
X135494047Y-106754819D01*
X135494047Y-106754819D02*
X135589285Y-106802438D01*
X135589285Y-106802438D02*
X135636904Y-106850057D01*
X135636904Y-106850057D02*
X135684523Y-106945295D01*
X135684523Y-106945295D02*
X135684523Y-107040533D01*
X135684523Y-107040533D02*
X135636904Y-107183390D01*
X135636904Y-107183390D02*
X135065476Y-107754819D01*
X135065476Y-107754819D02*
X135684523Y-107754819D01*
X136541666Y-107088152D02*
X136541666Y-107754819D01*
X136303571Y-106707200D02*
X136065476Y-107421485D01*
X136065476Y-107421485D02*
X136684523Y-107421485D01*
X187079819Y-94367857D02*
X186603628Y-94701190D01*
X187079819Y-94939285D02*
X186079819Y-94939285D01*
X186079819Y-94939285D02*
X186079819Y-94558333D01*
X186079819Y-94558333D02*
X186127438Y-94463095D01*
X186127438Y-94463095D02*
X186175057Y-94415476D01*
X186175057Y-94415476D02*
X186270295Y-94367857D01*
X186270295Y-94367857D02*
X186413152Y-94367857D01*
X186413152Y-94367857D02*
X186508390Y-94415476D01*
X186508390Y-94415476D02*
X186556009Y-94463095D01*
X186556009Y-94463095D02*
X186603628Y-94558333D01*
X186603628Y-94558333D02*
X186603628Y-94939285D01*
X187079819Y-93415476D02*
X187079819Y-93986904D01*
X187079819Y-93701190D02*
X186079819Y-93701190D01*
X186079819Y-93701190D02*
X186222676Y-93796428D01*
X186222676Y-93796428D02*
X186317914Y-93891666D01*
X186317914Y-93891666D02*
X186365533Y-93986904D01*
X186079819Y-93082142D02*
X186079819Y-92415476D01*
X186079819Y-92415476D02*
X187079819Y-92844047D01*
X140479580Y-92705357D02*
X140527200Y-92752976D01*
X140527200Y-92752976D02*
X140574819Y-92895833D01*
X140574819Y-92895833D02*
X140574819Y-92991071D01*
X140574819Y-92991071D02*
X140527200Y-93133928D01*
X140527200Y-93133928D02*
X140431961Y-93229166D01*
X140431961Y-93229166D02*
X140336723Y-93276785D01*
X140336723Y-93276785D02*
X140146247Y-93324404D01*
X140146247Y-93324404D02*
X140003390Y-93324404D01*
X140003390Y-93324404D02*
X139812914Y-93276785D01*
X139812914Y-93276785D02*
X139717676Y-93229166D01*
X139717676Y-93229166D02*
X139622438Y-93133928D01*
X139622438Y-93133928D02*
X139574819Y-92991071D01*
X139574819Y-92991071D02*
X139574819Y-92895833D01*
X139574819Y-92895833D02*
X139622438Y-92752976D01*
X139622438Y-92752976D02*
X139670057Y-92705357D01*
X140574819Y-91752976D02*
X140574819Y-92324404D01*
X140574819Y-92038690D02*
X139574819Y-92038690D01*
X139574819Y-92038690D02*
X139717676Y-92133928D01*
X139717676Y-92133928D02*
X139812914Y-92229166D01*
X139812914Y-92229166D02*
X139860533Y-92324404D01*
X139670057Y-91372023D02*
X139622438Y-91324404D01*
X139622438Y-91324404D02*
X139574819Y-91229166D01*
X139574819Y-91229166D02*
X139574819Y-90991071D01*
X139574819Y-90991071D02*
X139622438Y-90895833D01*
X139622438Y-90895833D02*
X139670057Y-90848214D01*
X139670057Y-90848214D02*
X139765295Y-90800595D01*
X139765295Y-90800595D02*
X139860533Y-90800595D01*
X139860533Y-90800595D02*
X140003390Y-90848214D01*
X140003390Y-90848214D02*
X140574819Y-91419642D01*
X140574819Y-91419642D02*
X140574819Y-90800595D01*
X130299819Y-118888333D02*
X131014104Y-118888333D01*
X131014104Y-118888333D02*
X131156961Y-118935952D01*
X131156961Y-118935952D02*
X131252200Y-119031190D01*
X131252200Y-119031190D02*
X131299819Y-119174047D01*
X131299819Y-119174047D02*
X131299819Y-119269285D01*
X130299819Y-118507380D02*
X130299819Y-117888333D01*
X130299819Y-117888333D02*
X130680771Y-118221666D01*
X130680771Y-118221666D02*
X130680771Y-118078809D01*
X130680771Y-118078809D02*
X130728390Y-117983571D01*
X130728390Y-117983571D02*
X130776009Y-117935952D01*
X130776009Y-117935952D02*
X130871247Y-117888333D01*
X130871247Y-117888333D02*
X131109342Y-117888333D01*
X131109342Y-117888333D02*
X131204580Y-117935952D01*
X131204580Y-117935952D02*
X131252200Y-117983571D01*
X131252200Y-117983571D02*
X131299819Y-118078809D01*
X131299819Y-118078809D02*
X131299819Y-118364523D01*
X131299819Y-118364523D02*
X131252200Y-118459761D01*
X131252200Y-118459761D02*
X131204580Y-118507380D01*
X165934580Y-107117857D02*
X165982200Y-107165476D01*
X165982200Y-107165476D02*
X166029819Y-107308333D01*
X166029819Y-107308333D02*
X166029819Y-107403571D01*
X166029819Y-107403571D02*
X165982200Y-107546428D01*
X165982200Y-107546428D02*
X165886961Y-107641666D01*
X165886961Y-107641666D02*
X165791723Y-107689285D01*
X165791723Y-107689285D02*
X165601247Y-107736904D01*
X165601247Y-107736904D02*
X165458390Y-107736904D01*
X165458390Y-107736904D02*
X165267914Y-107689285D01*
X165267914Y-107689285D02*
X165172676Y-107641666D01*
X165172676Y-107641666D02*
X165077438Y-107546428D01*
X165077438Y-107546428D02*
X165029819Y-107403571D01*
X165029819Y-107403571D02*
X165029819Y-107308333D01*
X165029819Y-107308333D02*
X165077438Y-107165476D01*
X165077438Y-107165476D02*
X165125057Y-107117857D01*
X166029819Y-106165476D02*
X166029819Y-106736904D01*
X166029819Y-106451190D02*
X165029819Y-106451190D01*
X165029819Y-106451190D02*
X165172676Y-106546428D01*
X165172676Y-106546428D02*
X165267914Y-106641666D01*
X165267914Y-106641666D02*
X165315533Y-106736904D01*
X165029819Y-105308333D02*
X165029819Y-105498809D01*
X165029819Y-105498809D02*
X165077438Y-105594047D01*
X165077438Y-105594047D02*
X165125057Y-105641666D01*
X165125057Y-105641666D02*
X165267914Y-105736904D01*
X165267914Y-105736904D02*
X165458390Y-105784523D01*
X165458390Y-105784523D02*
X165839342Y-105784523D01*
X165839342Y-105784523D02*
X165934580Y-105736904D01*
X165934580Y-105736904D02*
X165982200Y-105689285D01*
X165982200Y-105689285D02*
X166029819Y-105594047D01*
X166029819Y-105594047D02*
X166029819Y-105403571D01*
X166029819Y-105403571D02*
X165982200Y-105308333D01*
X165982200Y-105308333D02*
X165934580Y-105260714D01*
X165934580Y-105260714D02*
X165839342Y-105213095D01*
X165839342Y-105213095D02*
X165601247Y-105213095D01*
X165601247Y-105213095D02*
X165506009Y-105260714D01*
X165506009Y-105260714D02*
X165458390Y-105308333D01*
X165458390Y-105308333D02*
X165410771Y-105403571D01*
X165410771Y-105403571D02*
X165410771Y-105594047D01*
X165410771Y-105594047D02*
X165458390Y-105689285D01*
X165458390Y-105689285D02*
X165506009Y-105736904D01*
X165506009Y-105736904D02*
X165601247Y-105784523D01*
X123857200Y-89533332D02*
X123904819Y-89390475D01*
X123904819Y-89390475D02*
X123904819Y-89152380D01*
X123904819Y-89152380D02*
X123857200Y-89057142D01*
X123857200Y-89057142D02*
X123809580Y-89009523D01*
X123809580Y-89009523D02*
X123714342Y-88961904D01*
X123714342Y-88961904D02*
X123619104Y-88961904D01*
X123619104Y-88961904D02*
X123523866Y-89009523D01*
X123523866Y-89009523D02*
X123476247Y-89057142D01*
X123476247Y-89057142D02*
X123428628Y-89152380D01*
X123428628Y-89152380D02*
X123381009Y-89342856D01*
X123381009Y-89342856D02*
X123333390Y-89438094D01*
X123333390Y-89438094D02*
X123285771Y-89485713D01*
X123285771Y-89485713D02*
X123190533Y-89533332D01*
X123190533Y-89533332D02*
X123095295Y-89533332D01*
X123095295Y-89533332D02*
X123000057Y-89485713D01*
X123000057Y-89485713D02*
X122952438Y-89438094D01*
X122952438Y-89438094D02*
X122904819Y-89342856D01*
X122904819Y-89342856D02*
X122904819Y-89104761D01*
X122904819Y-89104761D02*
X122952438Y-88961904D01*
X122904819Y-88628570D02*
X123904819Y-88390475D01*
X123904819Y-88390475D02*
X123190533Y-88199999D01*
X123190533Y-88199999D02*
X123904819Y-88009523D01*
X123904819Y-88009523D02*
X122904819Y-87771428D01*
X123904819Y-86866666D02*
X123904819Y-87438094D01*
X123904819Y-87152380D02*
X122904819Y-87152380D01*
X122904819Y-87152380D02*
X123047676Y-87247618D01*
X123047676Y-87247618D02*
X123142914Y-87342856D01*
X123142914Y-87342856D02*
X123190533Y-87438094D01*
X131613095Y-92954819D02*
X131613095Y-93764342D01*
X131613095Y-93764342D02*
X131660714Y-93859580D01*
X131660714Y-93859580D02*
X131708333Y-93907200D01*
X131708333Y-93907200D02*
X131803571Y-93954819D01*
X131803571Y-93954819D02*
X131994047Y-93954819D01*
X131994047Y-93954819D02*
X132089285Y-93907200D01*
X132089285Y-93907200D02*
X132136904Y-93859580D01*
X132136904Y-93859580D02*
X132184523Y-93764342D01*
X132184523Y-93764342D02*
X132184523Y-92954819D01*
X132613095Y-93050057D02*
X132660714Y-93002438D01*
X132660714Y-93002438D02*
X132755952Y-92954819D01*
X132755952Y-92954819D02*
X132994047Y-92954819D01*
X132994047Y-92954819D02*
X133089285Y-93002438D01*
X133089285Y-93002438D02*
X133136904Y-93050057D01*
X133136904Y-93050057D02*
X133184523Y-93145295D01*
X133184523Y-93145295D02*
X133184523Y-93240533D01*
X133184523Y-93240533D02*
X133136904Y-93383390D01*
X133136904Y-93383390D02*
X132565476Y-93954819D01*
X132565476Y-93954819D02*
X133184523Y-93954819D01*
X149879819Y-112442857D02*
X149403628Y-112776190D01*
X149879819Y-113014285D02*
X148879819Y-113014285D01*
X148879819Y-113014285D02*
X148879819Y-112633333D01*
X148879819Y-112633333D02*
X148927438Y-112538095D01*
X148927438Y-112538095D02*
X148975057Y-112490476D01*
X148975057Y-112490476D02*
X149070295Y-112442857D01*
X149070295Y-112442857D02*
X149213152Y-112442857D01*
X149213152Y-112442857D02*
X149308390Y-112490476D01*
X149308390Y-112490476D02*
X149356009Y-112538095D01*
X149356009Y-112538095D02*
X149403628Y-112633333D01*
X149403628Y-112633333D02*
X149403628Y-113014285D01*
X149879819Y-111490476D02*
X149879819Y-112061904D01*
X149879819Y-111776190D02*
X148879819Y-111776190D01*
X148879819Y-111776190D02*
X149022676Y-111871428D01*
X149022676Y-111871428D02*
X149117914Y-111966666D01*
X149117914Y-111966666D02*
X149165533Y-112061904D01*
X148879819Y-110633333D02*
X148879819Y-110823809D01*
X148879819Y-110823809D02*
X148927438Y-110919047D01*
X148927438Y-110919047D02*
X148975057Y-110966666D01*
X148975057Y-110966666D02*
X149117914Y-111061904D01*
X149117914Y-111061904D02*
X149308390Y-111109523D01*
X149308390Y-111109523D02*
X149689342Y-111109523D01*
X149689342Y-111109523D02*
X149784580Y-111061904D01*
X149784580Y-111061904D02*
X149832200Y-111014285D01*
X149832200Y-111014285D02*
X149879819Y-110919047D01*
X149879819Y-110919047D02*
X149879819Y-110728571D01*
X149879819Y-110728571D02*
X149832200Y-110633333D01*
X149832200Y-110633333D02*
X149784580Y-110585714D01*
X149784580Y-110585714D02*
X149689342Y-110538095D01*
X149689342Y-110538095D02*
X149451247Y-110538095D01*
X149451247Y-110538095D02*
X149356009Y-110585714D01*
X149356009Y-110585714D02*
X149308390Y-110633333D01*
X149308390Y-110633333D02*
X149260771Y-110728571D01*
X149260771Y-110728571D02*
X149260771Y-110919047D01*
X149260771Y-110919047D02*
X149308390Y-111014285D01*
X149308390Y-111014285D02*
X149356009Y-111061904D01*
X149356009Y-111061904D02*
X149451247Y-111109523D01*
X117095833Y-95979580D02*
X117048214Y-96027200D01*
X117048214Y-96027200D02*
X116905357Y-96074819D01*
X116905357Y-96074819D02*
X116810119Y-96074819D01*
X116810119Y-96074819D02*
X116667262Y-96027200D01*
X116667262Y-96027200D02*
X116572024Y-95931961D01*
X116572024Y-95931961D02*
X116524405Y-95836723D01*
X116524405Y-95836723D02*
X116476786Y-95646247D01*
X116476786Y-95646247D02*
X116476786Y-95503390D01*
X116476786Y-95503390D02*
X116524405Y-95312914D01*
X116524405Y-95312914D02*
X116572024Y-95217676D01*
X116572024Y-95217676D02*
X116667262Y-95122438D01*
X116667262Y-95122438D02*
X116810119Y-95074819D01*
X116810119Y-95074819D02*
X116905357Y-95074819D01*
X116905357Y-95074819D02*
X117048214Y-95122438D01*
X117048214Y-95122438D02*
X117095833Y-95170057D01*
X117952976Y-95408152D02*
X117952976Y-96074819D01*
X117714881Y-95027200D02*
X117476786Y-95741485D01*
X117476786Y-95741485D02*
X118095833Y-95741485D01*
X168757142Y-90954819D02*
X168423809Y-90478628D01*
X168185714Y-90954819D02*
X168185714Y-89954819D01*
X168185714Y-89954819D02*
X168566666Y-89954819D01*
X168566666Y-89954819D02*
X168661904Y-90002438D01*
X168661904Y-90002438D02*
X168709523Y-90050057D01*
X168709523Y-90050057D02*
X168757142Y-90145295D01*
X168757142Y-90145295D02*
X168757142Y-90288152D01*
X168757142Y-90288152D02*
X168709523Y-90383390D01*
X168709523Y-90383390D02*
X168661904Y-90431009D01*
X168661904Y-90431009D02*
X168566666Y-90478628D01*
X168566666Y-90478628D02*
X168185714Y-90478628D01*
X169138095Y-90050057D02*
X169185714Y-90002438D01*
X169185714Y-90002438D02*
X169280952Y-89954819D01*
X169280952Y-89954819D02*
X169519047Y-89954819D01*
X169519047Y-89954819D02*
X169614285Y-90002438D01*
X169614285Y-90002438D02*
X169661904Y-90050057D01*
X169661904Y-90050057D02*
X169709523Y-90145295D01*
X169709523Y-90145295D02*
X169709523Y-90240533D01*
X169709523Y-90240533D02*
X169661904Y-90383390D01*
X169661904Y-90383390D02*
X169090476Y-90954819D01*
X169090476Y-90954819D02*
X169709523Y-90954819D01*
X170328571Y-89954819D02*
X170423809Y-89954819D01*
X170423809Y-89954819D02*
X170519047Y-90002438D01*
X170519047Y-90002438D02*
X170566666Y-90050057D01*
X170566666Y-90050057D02*
X170614285Y-90145295D01*
X170614285Y-90145295D02*
X170661904Y-90335771D01*
X170661904Y-90335771D02*
X170661904Y-90573866D01*
X170661904Y-90573866D02*
X170614285Y-90764342D01*
X170614285Y-90764342D02*
X170566666Y-90859580D01*
X170566666Y-90859580D02*
X170519047Y-90907200D01*
X170519047Y-90907200D02*
X170423809Y-90954819D01*
X170423809Y-90954819D02*
X170328571Y-90954819D01*
X170328571Y-90954819D02*
X170233333Y-90907200D01*
X170233333Y-90907200D02*
X170185714Y-90859580D01*
X170185714Y-90859580D02*
X170138095Y-90764342D01*
X170138095Y-90764342D02*
X170090476Y-90573866D01*
X170090476Y-90573866D02*
X170090476Y-90335771D01*
X170090476Y-90335771D02*
X170138095Y-90145295D01*
X170138095Y-90145295D02*
X170185714Y-90050057D01*
X170185714Y-90050057D02*
X170233333Y-90002438D01*
X170233333Y-90002438D02*
X170328571Y-89954819D01*
X162220833Y-93089580D02*
X162173214Y-93137200D01*
X162173214Y-93137200D02*
X162030357Y-93184819D01*
X162030357Y-93184819D02*
X161935119Y-93184819D01*
X161935119Y-93184819D02*
X161792262Y-93137200D01*
X161792262Y-93137200D02*
X161697024Y-93041961D01*
X161697024Y-93041961D02*
X161649405Y-92946723D01*
X161649405Y-92946723D02*
X161601786Y-92756247D01*
X161601786Y-92756247D02*
X161601786Y-92613390D01*
X161601786Y-92613390D02*
X161649405Y-92422914D01*
X161649405Y-92422914D02*
X161697024Y-92327676D01*
X161697024Y-92327676D02*
X161792262Y-92232438D01*
X161792262Y-92232438D02*
X161935119Y-92184819D01*
X161935119Y-92184819D02*
X162030357Y-92184819D01*
X162030357Y-92184819D02*
X162173214Y-92232438D01*
X162173214Y-92232438D02*
X162220833Y-92280057D01*
X162792262Y-92613390D02*
X162697024Y-92565771D01*
X162697024Y-92565771D02*
X162649405Y-92518152D01*
X162649405Y-92518152D02*
X162601786Y-92422914D01*
X162601786Y-92422914D02*
X162601786Y-92375295D01*
X162601786Y-92375295D02*
X162649405Y-92280057D01*
X162649405Y-92280057D02*
X162697024Y-92232438D01*
X162697024Y-92232438D02*
X162792262Y-92184819D01*
X162792262Y-92184819D02*
X162982738Y-92184819D01*
X162982738Y-92184819D02*
X163077976Y-92232438D01*
X163077976Y-92232438D02*
X163125595Y-92280057D01*
X163125595Y-92280057D02*
X163173214Y-92375295D01*
X163173214Y-92375295D02*
X163173214Y-92422914D01*
X163173214Y-92422914D02*
X163125595Y-92518152D01*
X163125595Y-92518152D02*
X163077976Y-92565771D01*
X163077976Y-92565771D02*
X162982738Y-92613390D01*
X162982738Y-92613390D02*
X162792262Y-92613390D01*
X162792262Y-92613390D02*
X162697024Y-92661009D01*
X162697024Y-92661009D02*
X162649405Y-92708628D01*
X162649405Y-92708628D02*
X162601786Y-92803866D01*
X162601786Y-92803866D02*
X162601786Y-92994342D01*
X162601786Y-92994342D02*
X162649405Y-93089580D01*
X162649405Y-93089580D02*
X162697024Y-93137200D01*
X162697024Y-93137200D02*
X162792262Y-93184819D01*
X162792262Y-93184819D02*
X162982738Y-93184819D01*
X162982738Y-93184819D02*
X163077976Y-93137200D01*
X163077976Y-93137200D02*
X163125595Y-93089580D01*
X163125595Y-93089580D02*
X163173214Y-92994342D01*
X163173214Y-92994342D02*
X163173214Y-92803866D01*
X163173214Y-92803866D02*
X163125595Y-92708628D01*
X163125595Y-92708628D02*
X163077976Y-92661009D01*
X163077976Y-92661009D02*
X162982738Y-92613390D01*
X145933333Y-109409580D02*
X145885714Y-109457200D01*
X145885714Y-109457200D02*
X145742857Y-109504819D01*
X145742857Y-109504819D02*
X145647619Y-109504819D01*
X145647619Y-109504819D02*
X145504762Y-109457200D01*
X145504762Y-109457200D02*
X145409524Y-109361961D01*
X145409524Y-109361961D02*
X145361905Y-109266723D01*
X145361905Y-109266723D02*
X145314286Y-109076247D01*
X145314286Y-109076247D02*
X145314286Y-108933390D01*
X145314286Y-108933390D02*
X145361905Y-108742914D01*
X145361905Y-108742914D02*
X145409524Y-108647676D01*
X145409524Y-108647676D02*
X145504762Y-108552438D01*
X145504762Y-108552438D02*
X145647619Y-108504819D01*
X145647619Y-108504819D02*
X145742857Y-108504819D01*
X145742857Y-108504819D02*
X145885714Y-108552438D01*
X145885714Y-108552438D02*
X145933333Y-108600057D01*
X146790476Y-108504819D02*
X146600000Y-108504819D01*
X146600000Y-108504819D02*
X146504762Y-108552438D01*
X146504762Y-108552438D02*
X146457143Y-108600057D01*
X146457143Y-108600057D02*
X146361905Y-108742914D01*
X146361905Y-108742914D02*
X146314286Y-108933390D01*
X146314286Y-108933390D02*
X146314286Y-109314342D01*
X146314286Y-109314342D02*
X146361905Y-109409580D01*
X146361905Y-109409580D02*
X146409524Y-109457200D01*
X146409524Y-109457200D02*
X146504762Y-109504819D01*
X146504762Y-109504819D02*
X146695238Y-109504819D01*
X146695238Y-109504819D02*
X146790476Y-109457200D01*
X146790476Y-109457200D02*
X146838095Y-109409580D01*
X146838095Y-109409580D02*
X146885714Y-109314342D01*
X146885714Y-109314342D02*
X146885714Y-109076247D01*
X146885714Y-109076247D02*
X146838095Y-108981009D01*
X146838095Y-108981009D02*
X146790476Y-108933390D01*
X146790476Y-108933390D02*
X146695238Y-108885771D01*
X146695238Y-108885771D02*
X146504762Y-108885771D01*
X146504762Y-108885771D02*
X146409524Y-108933390D01*
X146409524Y-108933390D02*
X146361905Y-108981009D01*
X146361905Y-108981009D02*
X146314286Y-109076247D01*
X174136905Y-87629819D02*
X174136905Y-86629819D01*
X174136905Y-86629819D02*
X174375000Y-86629819D01*
X174375000Y-86629819D02*
X174517857Y-86677438D01*
X174517857Y-86677438D02*
X174613095Y-86772676D01*
X174613095Y-86772676D02*
X174660714Y-86867914D01*
X174660714Y-86867914D02*
X174708333Y-87058390D01*
X174708333Y-87058390D02*
X174708333Y-87201247D01*
X174708333Y-87201247D02*
X174660714Y-87391723D01*
X174660714Y-87391723D02*
X174613095Y-87486961D01*
X174613095Y-87486961D02*
X174517857Y-87582200D01*
X174517857Y-87582200D02*
X174375000Y-87629819D01*
X174375000Y-87629819D02*
X174136905Y-87629819D01*
X175089286Y-86725057D02*
X175136905Y-86677438D01*
X175136905Y-86677438D02*
X175232143Y-86629819D01*
X175232143Y-86629819D02*
X175470238Y-86629819D01*
X175470238Y-86629819D02*
X175565476Y-86677438D01*
X175565476Y-86677438D02*
X175613095Y-86725057D01*
X175613095Y-86725057D02*
X175660714Y-86820295D01*
X175660714Y-86820295D02*
X175660714Y-86915533D01*
X175660714Y-86915533D02*
X175613095Y-87058390D01*
X175613095Y-87058390D02*
X175041667Y-87629819D01*
X175041667Y-87629819D02*
X175660714Y-87629819D01*
X134807142Y-104254819D02*
X134473809Y-103778628D01*
X134235714Y-104254819D02*
X134235714Y-103254819D01*
X134235714Y-103254819D02*
X134616666Y-103254819D01*
X134616666Y-103254819D02*
X134711904Y-103302438D01*
X134711904Y-103302438D02*
X134759523Y-103350057D01*
X134759523Y-103350057D02*
X134807142Y-103445295D01*
X134807142Y-103445295D02*
X134807142Y-103588152D01*
X134807142Y-103588152D02*
X134759523Y-103683390D01*
X134759523Y-103683390D02*
X134711904Y-103731009D01*
X134711904Y-103731009D02*
X134616666Y-103778628D01*
X134616666Y-103778628D02*
X134235714Y-103778628D01*
X135188095Y-103350057D02*
X135235714Y-103302438D01*
X135235714Y-103302438D02*
X135330952Y-103254819D01*
X135330952Y-103254819D02*
X135569047Y-103254819D01*
X135569047Y-103254819D02*
X135664285Y-103302438D01*
X135664285Y-103302438D02*
X135711904Y-103350057D01*
X135711904Y-103350057D02*
X135759523Y-103445295D01*
X135759523Y-103445295D02*
X135759523Y-103540533D01*
X135759523Y-103540533D02*
X135711904Y-103683390D01*
X135711904Y-103683390D02*
X135140476Y-104254819D01*
X135140476Y-104254819D02*
X135759523Y-104254819D01*
X136092857Y-103254819D02*
X136711904Y-103254819D01*
X136711904Y-103254819D02*
X136378571Y-103635771D01*
X136378571Y-103635771D02*
X136521428Y-103635771D01*
X136521428Y-103635771D02*
X136616666Y-103683390D01*
X136616666Y-103683390D02*
X136664285Y-103731009D01*
X136664285Y-103731009D02*
X136711904Y-103826247D01*
X136711904Y-103826247D02*
X136711904Y-104064342D01*
X136711904Y-104064342D02*
X136664285Y-104159580D01*
X136664285Y-104159580D02*
X136616666Y-104207200D01*
X136616666Y-104207200D02*
X136521428Y-104254819D01*
X136521428Y-104254819D02*
X136235714Y-104254819D01*
X136235714Y-104254819D02*
X136140476Y-104207200D01*
X136140476Y-104207200D02*
X136092857Y-104159580D01*
X177879819Y-112341666D02*
X177403628Y-112674999D01*
X177879819Y-112913094D02*
X176879819Y-112913094D01*
X176879819Y-112913094D02*
X176879819Y-112532142D01*
X176879819Y-112532142D02*
X176927438Y-112436904D01*
X176927438Y-112436904D02*
X176975057Y-112389285D01*
X176975057Y-112389285D02*
X177070295Y-112341666D01*
X177070295Y-112341666D02*
X177213152Y-112341666D01*
X177213152Y-112341666D02*
X177308390Y-112389285D01*
X177308390Y-112389285D02*
X177356009Y-112436904D01*
X177356009Y-112436904D02*
X177403628Y-112532142D01*
X177403628Y-112532142D02*
X177403628Y-112913094D01*
X177879819Y-111865475D02*
X177879819Y-111674999D01*
X177879819Y-111674999D02*
X177832200Y-111579761D01*
X177832200Y-111579761D02*
X177784580Y-111532142D01*
X177784580Y-111532142D02*
X177641723Y-111436904D01*
X177641723Y-111436904D02*
X177451247Y-111389285D01*
X177451247Y-111389285D02*
X177070295Y-111389285D01*
X177070295Y-111389285D02*
X176975057Y-111436904D01*
X176975057Y-111436904D02*
X176927438Y-111484523D01*
X176927438Y-111484523D02*
X176879819Y-111579761D01*
X176879819Y-111579761D02*
X176879819Y-111770237D01*
X176879819Y-111770237D02*
X176927438Y-111865475D01*
X176927438Y-111865475D02*
X176975057Y-111913094D01*
X176975057Y-111913094D02*
X177070295Y-111960713D01*
X177070295Y-111960713D02*
X177308390Y-111960713D01*
X177308390Y-111960713D02*
X177403628Y-111913094D01*
X177403628Y-111913094D02*
X177451247Y-111865475D01*
X177451247Y-111865475D02*
X177498866Y-111770237D01*
X177498866Y-111770237D02*
X177498866Y-111579761D01*
X177498866Y-111579761D02*
X177451247Y-111484523D01*
X177451247Y-111484523D02*
X177403628Y-111436904D01*
X177403628Y-111436904D02*
X177308390Y-111389285D01*
X107016666Y-99779819D02*
X107016666Y-100494104D01*
X107016666Y-100494104D02*
X106969047Y-100636961D01*
X106969047Y-100636961D02*
X106873809Y-100732200D01*
X106873809Y-100732200D02*
X106730952Y-100779819D01*
X106730952Y-100779819D02*
X106635714Y-100779819D01*
X108016666Y-100779819D02*
X107445238Y-100779819D01*
X107730952Y-100779819D02*
X107730952Y-99779819D01*
X107730952Y-99779819D02*
X107635714Y-99922676D01*
X107635714Y-99922676D02*
X107540476Y-100017914D01*
X107540476Y-100017914D02*
X107445238Y-100065533D01*
X196354819Y-94342857D02*
X195878628Y-94676190D01*
X196354819Y-94914285D02*
X195354819Y-94914285D01*
X195354819Y-94914285D02*
X195354819Y-94533333D01*
X195354819Y-94533333D02*
X195402438Y-94438095D01*
X195402438Y-94438095D02*
X195450057Y-94390476D01*
X195450057Y-94390476D02*
X195545295Y-94342857D01*
X195545295Y-94342857D02*
X195688152Y-94342857D01*
X195688152Y-94342857D02*
X195783390Y-94390476D01*
X195783390Y-94390476D02*
X195831009Y-94438095D01*
X195831009Y-94438095D02*
X195878628Y-94533333D01*
X195878628Y-94533333D02*
X195878628Y-94914285D01*
X196354819Y-93390476D02*
X196354819Y-93961904D01*
X196354819Y-93676190D02*
X195354819Y-93676190D01*
X195354819Y-93676190D02*
X195497676Y-93771428D01*
X195497676Y-93771428D02*
X195592914Y-93866666D01*
X195592914Y-93866666D02*
X195640533Y-93961904D01*
X196354819Y-92914285D02*
X196354819Y-92723809D01*
X196354819Y-92723809D02*
X196307200Y-92628571D01*
X196307200Y-92628571D02*
X196259580Y-92580952D01*
X196259580Y-92580952D02*
X196116723Y-92485714D01*
X196116723Y-92485714D02*
X195926247Y-92438095D01*
X195926247Y-92438095D02*
X195545295Y-92438095D01*
X195545295Y-92438095D02*
X195450057Y-92485714D01*
X195450057Y-92485714D02*
X195402438Y-92533333D01*
X195402438Y-92533333D02*
X195354819Y-92628571D01*
X195354819Y-92628571D02*
X195354819Y-92819047D01*
X195354819Y-92819047D02*
X195402438Y-92914285D01*
X195402438Y-92914285D02*
X195450057Y-92961904D01*
X195450057Y-92961904D02*
X195545295Y-93009523D01*
X195545295Y-93009523D02*
X195783390Y-93009523D01*
X195783390Y-93009523D02*
X195878628Y-92961904D01*
X195878628Y-92961904D02*
X195926247Y-92914285D01*
X195926247Y-92914285D02*
X195973866Y-92819047D01*
X195973866Y-92819047D02*
X195973866Y-92628571D01*
X195973866Y-92628571D02*
X195926247Y-92533333D01*
X195926247Y-92533333D02*
X195878628Y-92485714D01*
X195878628Y-92485714D02*
X195783390Y-92438095D01*
X144079642Y-99949580D02*
X144032023Y-99997200D01*
X144032023Y-99997200D02*
X143889166Y-100044819D01*
X143889166Y-100044819D02*
X143793928Y-100044819D01*
X143793928Y-100044819D02*
X143651071Y-99997200D01*
X143651071Y-99997200D02*
X143555833Y-99901961D01*
X143555833Y-99901961D02*
X143508214Y-99806723D01*
X143508214Y-99806723D02*
X143460595Y-99616247D01*
X143460595Y-99616247D02*
X143460595Y-99473390D01*
X143460595Y-99473390D02*
X143508214Y-99282914D01*
X143508214Y-99282914D02*
X143555833Y-99187676D01*
X143555833Y-99187676D02*
X143651071Y-99092438D01*
X143651071Y-99092438D02*
X143793928Y-99044819D01*
X143793928Y-99044819D02*
X143889166Y-99044819D01*
X143889166Y-99044819D02*
X144032023Y-99092438D01*
X144032023Y-99092438D02*
X144079642Y-99140057D01*
X145032023Y-100044819D02*
X144460595Y-100044819D01*
X144746309Y-100044819D02*
X144746309Y-99044819D01*
X144746309Y-99044819D02*
X144651071Y-99187676D01*
X144651071Y-99187676D02*
X144555833Y-99282914D01*
X144555833Y-99282914D02*
X144460595Y-99330533D01*
X145984404Y-100044819D02*
X145412976Y-100044819D01*
X145698690Y-100044819D02*
X145698690Y-99044819D01*
X145698690Y-99044819D02*
X145603452Y-99187676D01*
X145603452Y-99187676D02*
X145508214Y-99282914D01*
X145508214Y-99282914D02*
X145412976Y-99330533D01*
X177929819Y-98241666D02*
X177453628Y-98574999D01*
X177929819Y-98813094D02*
X176929819Y-98813094D01*
X176929819Y-98813094D02*
X176929819Y-98432142D01*
X176929819Y-98432142D02*
X176977438Y-98336904D01*
X176977438Y-98336904D02*
X177025057Y-98289285D01*
X177025057Y-98289285D02*
X177120295Y-98241666D01*
X177120295Y-98241666D02*
X177263152Y-98241666D01*
X177263152Y-98241666D02*
X177358390Y-98289285D01*
X177358390Y-98289285D02*
X177406009Y-98336904D01*
X177406009Y-98336904D02*
X177453628Y-98432142D01*
X177453628Y-98432142D02*
X177453628Y-98813094D01*
X177929819Y-97289285D02*
X177929819Y-97860713D01*
X177929819Y-97574999D02*
X176929819Y-97574999D01*
X176929819Y-97574999D02*
X177072676Y-97670237D01*
X177072676Y-97670237D02*
X177167914Y-97765475D01*
X177167914Y-97765475D02*
X177215533Y-97860713D01*
X174232142Y-91004819D02*
X173898809Y-90528628D01*
X173660714Y-91004819D02*
X173660714Y-90004819D01*
X173660714Y-90004819D02*
X174041666Y-90004819D01*
X174041666Y-90004819D02*
X174136904Y-90052438D01*
X174136904Y-90052438D02*
X174184523Y-90100057D01*
X174184523Y-90100057D02*
X174232142Y-90195295D01*
X174232142Y-90195295D02*
X174232142Y-90338152D01*
X174232142Y-90338152D02*
X174184523Y-90433390D01*
X174184523Y-90433390D02*
X174136904Y-90481009D01*
X174136904Y-90481009D02*
X174041666Y-90528628D01*
X174041666Y-90528628D02*
X173660714Y-90528628D01*
X174613095Y-90100057D02*
X174660714Y-90052438D01*
X174660714Y-90052438D02*
X174755952Y-90004819D01*
X174755952Y-90004819D02*
X174994047Y-90004819D01*
X174994047Y-90004819D02*
X175089285Y-90052438D01*
X175089285Y-90052438D02*
X175136904Y-90100057D01*
X175136904Y-90100057D02*
X175184523Y-90195295D01*
X175184523Y-90195295D02*
X175184523Y-90290533D01*
X175184523Y-90290533D02*
X175136904Y-90433390D01*
X175136904Y-90433390D02*
X174565476Y-91004819D01*
X174565476Y-91004819D02*
X175184523Y-91004819D01*
X176136904Y-91004819D02*
X175565476Y-91004819D01*
X175851190Y-91004819D02*
X175851190Y-90004819D01*
X175851190Y-90004819D02*
X175755952Y-90147676D01*
X175755952Y-90147676D02*
X175660714Y-90242914D01*
X175660714Y-90242914D02*
X175565476Y-90290533D01*
X202404819Y-98483333D02*
X203119104Y-98483333D01*
X203119104Y-98483333D02*
X203261961Y-98530952D01*
X203261961Y-98530952D02*
X203357200Y-98626190D01*
X203357200Y-98626190D02*
X203404819Y-98769047D01*
X203404819Y-98769047D02*
X203404819Y-98864285D01*
X203404819Y-98007142D02*
X202404819Y-98007142D01*
X202404819Y-98007142D02*
X202404819Y-97626190D01*
X202404819Y-97626190D02*
X202452438Y-97530952D01*
X202452438Y-97530952D02*
X202500057Y-97483333D01*
X202500057Y-97483333D02*
X202595295Y-97435714D01*
X202595295Y-97435714D02*
X202738152Y-97435714D01*
X202738152Y-97435714D02*
X202833390Y-97483333D01*
X202833390Y-97483333D02*
X202881009Y-97530952D01*
X202881009Y-97530952D02*
X202928628Y-97626190D01*
X202928628Y-97626190D02*
X202928628Y-98007142D01*
X202404819Y-96578571D02*
X202404819Y-96769047D01*
X202404819Y-96769047D02*
X202452438Y-96864285D01*
X202452438Y-96864285D02*
X202500057Y-96911904D01*
X202500057Y-96911904D02*
X202642914Y-97007142D01*
X202642914Y-97007142D02*
X202833390Y-97054761D01*
X202833390Y-97054761D02*
X203214342Y-97054761D01*
X203214342Y-97054761D02*
X203309580Y-97007142D01*
X203309580Y-97007142D02*
X203357200Y-96959523D01*
X203357200Y-96959523D02*
X203404819Y-96864285D01*
X203404819Y-96864285D02*
X203404819Y-96673809D01*
X203404819Y-96673809D02*
X203357200Y-96578571D01*
X203357200Y-96578571D02*
X203309580Y-96530952D01*
X203309580Y-96530952D02*
X203214342Y-96483333D01*
X203214342Y-96483333D02*
X202976247Y-96483333D01*
X202976247Y-96483333D02*
X202881009Y-96530952D01*
X202881009Y-96530952D02*
X202833390Y-96578571D01*
X202833390Y-96578571D02*
X202785771Y-96673809D01*
X202785771Y-96673809D02*
X202785771Y-96864285D01*
X202785771Y-96864285D02*
X202833390Y-96959523D01*
X202833390Y-96959523D02*
X202881009Y-97007142D01*
X202881009Y-97007142D02*
X202976247Y-97054761D01*
X200604819Y-100583332D02*
X200604819Y-99964285D01*
X200604819Y-99964285D02*
X200985771Y-100297618D01*
X200985771Y-100297618D02*
X200985771Y-100154761D01*
X200985771Y-100154761D02*
X201033390Y-100059523D01*
X201033390Y-100059523D02*
X201081009Y-100011904D01*
X201081009Y-100011904D02*
X201176247Y-99964285D01*
X201176247Y-99964285D02*
X201414342Y-99964285D01*
X201414342Y-99964285D02*
X201509580Y-100011904D01*
X201509580Y-100011904D02*
X201557200Y-100059523D01*
X201557200Y-100059523D02*
X201604819Y-100154761D01*
X201604819Y-100154761D02*
X201604819Y-100440475D01*
X201604819Y-100440475D02*
X201557200Y-100535713D01*
X201557200Y-100535713D02*
X201509580Y-100583332D01*
X201604819Y-94764285D02*
X201604819Y-95335713D01*
X201604819Y-95049999D02*
X200604819Y-95049999D01*
X200604819Y-95049999D02*
X200747676Y-95145237D01*
X200747676Y-95145237D02*
X200842914Y-95240475D01*
X200842914Y-95240475D02*
X200890533Y-95335713D01*
X144994642Y-89729580D02*
X144947023Y-89777200D01*
X144947023Y-89777200D02*
X144804166Y-89824819D01*
X144804166Y-89824819D02*
X144708928Y-89824819D01*
X144708928Y-89824819D02*
X144566071Y-89777200D01*
X144566071Y-89777200D02*
X144470833Y-89681961D01*
X144470833Y-89681961D02*
X144423214Y-89586723D01*
X144423214Y-89586723D02*
X144375595Y-89396247D01*
X144375595Y-89396247D02*
X144375595Y-89253390D01*
X144375595Y-89253390D02*
X144423214Y-89062914D01*
X144423214Y-89062914D02*
X144470833Y-88967676D01*
X144470833Y-88967676D02*
X144566071Y-88872438D01*
X144566071Y-88872438D02*
X144708928Y-88824819D01*
X144708928Y-88824819D02*
X144804166Y-88824819D01*
X144804166Y-88824819D02*
X144947023Y-88872438D01*
X144947023Y-88872438D02*
X144994642Y-88920057D01*
X145947023Y-89824819D02*
X145375595Y-89824819D01*
X145661309Y-89824819D02*
X145661309Y-88824819D01*
X145661309Y-88824819D02*
X145566071Y-88967676D01*
X145566071Y-88967676D02*
X145470833Y-89062914D01*
X145470833Y-89062914D02*
X145375595Y-89110533D01*
X146566071Y-88824819D02*
X146661309Y-88824819D01*
X146661309Y-88824819D02*
X146756547Y-88872438D01*
X146756547Y-88872438D02*
X146804166Y-88920057D01*
X146804166Y-88920057D02*
X146851785Y-89015295D01*
X146851785Y-89015295D02*
X146899404Y-89205771D01*
X146899404Y-89205771D02*
X146899404Y-89443866D01*
X146899404Y-89443866D02*
X146851785Y-89634342D01*
X146851785Y-89634342D02*
X146804166Y-89729580D01*
X146804166Y-89729580D02*
X146756547Y-89777200D01*
X146756547Y-89777200D02*
X146661309Y-89824819D01*
X146661309Y-89824819D02*
X146566071Y-89824819D01*
X146566071Y-89824819D02*
X146470833Y-89777200D01*
X146470833Y-89777200D02*
X146423214Y-89729580D01*
X146423214Y-89729580D02*
X146375595Y-89634342D01*
X146375595Y-89634342D02*
X146327976Y-89443866D01*
X146327976Y-89443866D02*
X146327976Y-89205771D01*
X146327976Y-89205771D02*
X146375595Y-89015295D01*
X146375595Y-89015295D02*
X146423214Y-88920057D01*
X146423214Y-88920057D02*
X146470833Y-88872438D01*
X146470833Y-88872438D02*
X146566071Y-88824819D01*
X153129819Y-111966666D02*
X152653628Y-112299999D01*
X153129819Y-112538094D02*
X152129819Y-112538094D01*
X152129819Y-112538094D02*
X152129819Y-112157142D01*
X152129819Y-112157142D02*
X152177438Y-112061904D01*
X152177438Y-112061904D02*
X152225057Y-112014285D01*
X152225057Y-112014285D02*
X152320295Y-111966666D01*
X152320295Y-111966666D02*
X152463152Y-111966666D01*
X152463152Y-111966666D02*
X152558390Y-112014285D01*
X152558390Y-112014285D02*
X152606009Y-112061904D01*
X152606009Y-112061904D02*
X152653628Y-112157142D01*
X152653628Y-112157142D02*
X152653628Y-112538094D01*
X152463152Y-111109523D02*
X153129819Y-111109523D01*
X152082200Y-111347618D02*
X152796485Y-111585713D01*
X152796485Y-111585713D02*
X152796485Y-110966666D01*
X168661905Y-87479819D02*
X168661905Y-86479819D01*
X168661905Y-86479819D02*
X168900000Y-86479819D01*
X168900000Y-86479819D02*
X169042857Y-86527438D01*
X169042857Y-86527438D02*
X169138095Y-86622676D01*
X169138095Y-86622676D02*
X169185714Y-86717914D01*
X169185714Y-86717914D02*
X169233333Y-86908390D01*
X169233333Y-86908390D02*
X169233333Y-87051247D01*
X169233333Y-87051247D02*
X169185714Y-87241723D01*
X169185714Y-87241723D02*
X169138095Y-87336961D01*
X169138095Y-87336961D02*
X169042857Y-87432200D01*
X169042857Y-87432200D02*
X168900000Y-87479819D01*
X168900000Y-87479819D02*
X168661905Y-87479819D01*
X170185714Y-87479819D02*
X169614286Y-87479819D01*
X169900000Y-87479819D02*
X169900000Y-86479819D01*
X169900000Y-86479819D02*
X169804762Y-86622676D01*
X169804762Y-86622676D02*
X169709524Y-86717914D01*
X169709524Y-86717914D02*
X169614286Y-86765533D01*
X187129819Y-98842857D02*
X186653628Y-99176190D01*
X187129819Y-99414285D02*
X186129819Y-99414285D01*
X186129819Y-99414285D02*
X186129819Y-99033333D01*
X186129819Y-99033333D02*
X186177438Y-98938095D01*
X186177438Y-98938095D02*
X186225057Y-98890476D01*
X186225057Y-98890476D02*
X186320295Y-98842857D01*
X186320295Y-98842857D02*
X186463152Y-98842857D01*
X186463152Y-98842857D02*
X186558390Y-98890476D01*
X186558390Y-98890476D02*
X186606009Y-98938095D01*
X186606009Y-98938095D02*
X186653628Y-99033333D01*
X186653628Y-99033333D02*
X186653628Y-99414285D01*
X187129819Y-97890476D02*
X187129819Y-98461904D01*
X187129819Y-98176190D02*
X186129819Y-98176190D01*
X186129819Y-98176190D02*
X186272676Y-98271428D01*
X186272676Y-98271428D02*
X186367914Y-98366666D01*
X186367914Y-98366666D02*
X186415533Y-98461904D01*
X186129819Y-97271428D02*
X186129819Y-97176190D01*
X186129819Y-97176190D02*
X186177438Y-97080952D01*
X186177438Y-97080952D02*
X186225057Y-97033333D01*
X186225057Y-97033333D02*
X186320295Y-96985714D01*
X186320295Y-96985714D02*
X186510771Y-96938095D01*
X186510771Y-96938095D02*
X186748866Y-96938095D01*
X186748866Y-96938095D02*
X186939342Y-96985714D01*
X186939342Y-96985714D02*
X187034580Y-97033333D01*
X187034580Y-97033333D02*
X187082200Y-97080952D01*
X187082200Y-97080952D02*
X187129819Y-97176190D01*
X187129819Y-97176190D02*
X187129819Y-97271428D01*
X187129819Y-97271428D02*
X187082200Y-97366666D01*
X187082200Y-97366666D02*
X187034580Y-97414285D01*
X187034580Y-97414285D02*
X186939342Y-97461904D01*
X186939342Y-97461904D02*
X186748866Y-97509523D01*
X186748866Y-97509523D02*
X186510771Y-97509523D01*
X186510771Y-97509523D02*
X186320295Y-97461904D01*
X186320295Y-97461904D02*
X186225057Y-97414285D01*
X186225057Y-97414285D02*
X186177438Y-97366666D01*
X186177438Y-97366666D02*
X186129819Y-97271428D01*
X164609580Y-102941666D02*
X164657200Y-102989285D01*
X164657200Y-102989285D02*
X164704819Y-103132142D01*
X164704819Y-103132142D02*
X164704819Y-103227380D01*
X164704819Y-103227380D02*
X164657200Y-103370237D01*
X164657200Y-103370237D02*
X164561961Y-103465475D01*
X164561961Y-103465475D02*
X164466723Y-103513094D01*
X164466723Y-103513094D02*
X164276247Y-103560713D01*
X164276247Y-103560713D02*
X164133390Y-103560713D01*
X164133390Y-103560713D02*
X163942914Y-103513094D01*
X163942914Y-103513094D02*
X163847676Y-103465475D01*
X163847676Y-103465475D02*
X163752438Y-103370237D01*
X163752438Y-103370237D02*
X163704819Y-103227380D01*
X163704819Y-103227380D02*
X163704819Y-103132142D01*
X163704819Y-103132142D02*
X163752438Y-102989285D01*
X163752438Y-102989285D02*
X163800057Y-102941666D01*
X164704819Y-102465475D02*
X164704819Y-102274999D01*
X164704819Y-102274999D02*
X164657200Y-102179761D01*
X164657200Y-102179761D02*
X164609580Y-102132142D01*
X164609580Y-102132142D02*
X164466723Y-102036904D01*
X164466723Y-102036904D02*
X164276247Y-101989285D01*
X164276247Y-101989285D02*
X163895295Y-101989285D01*
X163895295Y-101989285D02*
X163800057Y-102036904D01*
X163800057Y-102036904D02*
X163752438Y-102084523D01*
X163752438Y-102084523D02*
X163704819Y-102179761D01*
X163704819Y-102179761D02*
X163704819Y-102370237D01*
X163704819Y-102370237D02*
X163752438Y-102465475D01*
X163752438Y-102465475D02*
X163800057Y-102513094D01*
X163800057Y-102513094D02*
X163895295Y-102560713D01*
X163895295Y-102560713D02*
X164133390Y-102560713D01*
X164133390Y-102560713D02*
X164228628Y-102513094D01*
X164228628Y-102513094D02*
X164276247Y-102465475D01*
X164276247Y-102465475D02*
X164323866Y-102370237D01*
X164323866Y-102370237D02*
X164323866Y-102179761D01*
X164323866Y-102179761D02*
X164276247Y-102084523D01*
X164276247Y-102084523D02*
X164228628Y-102036904D01*
X164228628Y-102036904D02*
X164133390Y-101989285D01*
X179732142Y-90879819D02*
X179398809Y-90403628D01*
X179160714Y-90879819D02*
X179160714Y-89879819D01*
X179160714Y-89879819D02*
X179541666Y-89879819D01*
X179541666Y-89879819D02*
X179636904Y-89927438D01*
X179636904Y-89927438D02*
X179684523Y-89975057D01*
X179684523Y-89975057D02*
X179732142Y-90070295D01*
X179732142Y-90070295D02*
X179732142Y-90213152D01*
X179732142Y-90213152D02*
X179684523Y-90308390D01*
X179684523Y-90308390D02*
X179636904Y-90356009D01*
X179636904Y-90356009D02*
X179541666Y-90403628D01*
X179541666Y-90403628D02*
X179160714Y-90403628D01*
X180113095Y-89975057D02*
X180160714Y-89927438D01*
X180160714Y-89927438D02*
X180255952Y-89879819D01*
X180255952Y-89879819D02*
X180494047Y-89879819D01*
X180494047Y-89879819D02*
X180589285Y-89927438D01*
X180589285Y-89927438D02*
X180636904Y-89975057D01*
X180636904Y-89975057D02*
X180684523Y-90070295D01*
X180684523Y-90070295D02*
X180684523Y-90165533D01*
X180684523Y-90165533D02*
X180636904Y-90308390D01*
X180636904Y-90308390D02*
X180065476Y-90879819D01*
X180065476Y-90879819D02*
X180684523Y-90879819D01*
X181065476Y-89975057D02*
X181113095Y-89927438D01*
X181113095Y-89927438D02*
X181208333Y-89879819D01*
X181208333Y-89879819D02*
X181446428Y-89879819D01*
X181446428Y-89879819D02*
X181541666Y-89927438D01*
X181541666Y-89927438D02*
X181589285Y-89975057D01*
X181589285Y-89975057D02*
X181636904Y-90070295D01*
X181636904Y-90070295D02*
X181636904Y-90165533D01*
X181636904Y-90165533D02*
X181589285Y-90308390D01*
X181589285Y-90308390D02*
X181017857Y-90879819D01*
X181017857Y-90879819D02*
X181636904Y-90879819D01*
X174504819Y-98191666D02*
X174028628Y-98524999D01*
X174504819Y-98763094D02*
X173504819Y-98763094D01*
X173504819Y-98763094D02*
X173504819Y-98382142D01*
X173504819Y-98382142D02*
X173552438Y-98286904D01*
X173552438Y-98286904D02*
X173600057Y-98239285D01*
X173600057Y-98239285D02*
X173695295Y-98191666D01*
X173695295Y-98191666D02*
X173838152Y-98191666D01*
X173838152Y-98191666D02*
X173933390Y-98239285D01*
X173933390Y-98239285D02*
X173981009Y-98286904D01*
X173981009Y-98286904D02*
X174028628Y-98382142D01*
X174028628Y-98382142D02*
X174028628Y-98763094D01*
X173504819Y-97858332D02*
X173504819Y-97191666D01*
X173504819Y-97191666D02*
X174504819Y-97620237D01*
X151383333Y-109384580D02*
X151335714Y-109432200D01*
X151335714Y-109432200D02*
X151192857Y-109479819D01*
X151192857Y-109479819D02*
X151097619Y-109479819D01*
X151097619Y-109479819D02*
X150954762Y-109432200D01*
X150954762Y-109432200D02*
X150859524Y-109336961D01*
X150859524Y-109336961D02*
X150811905Y-109241723D01*
X150811905Y-109241723D02*
X150764286Y-109051247D01*
X150764286Y-109051247D02*
X150764286Y-108908390D01*
X150764286Y-108908390D02*
X150811905Y-108717914D01*
X150811905Y-108717914D02*
X150859524Y-108622676D01*
X150859524Y-108622676D02*
X150954762Y-108527438D01*
X150954762Y-108527438D02*
X151097619Y-108479819D01*
X151097619Y-108479819D02*
X151192857Y-108479819D01*
X151192857Y-108479819D02*
X151335714Y-108527438D01*
X151335714Y-108527438D02*
X151383333Y-108575057D01*
X152335714Y-109479819D02*
X151764286Y-109479819D01*
X152050000Y-109479819D02*
X152050000Y-108479819D01*
X152050000Y-108479819D02*
X151954762Y-108622676D01*
X151954762Y-108622676D02*
X151859524Y-108717914D01*
X151859524Y-108717914D02*
X151764286Y-108765533D01*
D11*
%TO.C,SW2*%
X105000000Y-96925000D02*
X105000000Y-99225000D01*
X105000000Y-90625000D02*
X105000000Y-92825000D01*
X109800000Y-90625000D02*
X109800000Y-99225000D01*
%TO.C,JP2*%
X181600000Y-108225000D02*
X181600000Y-105425000D01*
X182300000Y-104775000D02*
X182900000Y-104775000D01*
X182900000Y-108875000D02*
X182300000Y-108875000D01*
X183600000Y-105425000D02*
X183600000Y-108225000D01*
X181600000Y-105475000D02*
G75*
G02*
X182300000Y-104775000I699999J1D01*
G01*
X182300000Y-108875000D02*
G75*
G02*
X181600000Y-108175000I0J700000D01*
G01*
X182900000Y-104775000D02*
G75*
G02*
X183600000Y-105475000I1J-699999D01*
G01*
X183600000Y-108175000D02*
G75*
G02*
X182900000Y-108875000I-700000J0D01*
G01*
%TO.C,R8*%
X178340000Y-103327064D02*
X178340000Y-102872936D01*
X179810000Y-103327064D02*
X179810000Y-102872936D01*
%TO.C,C14*%
X163115000Y-106698752D02*
X163115000Y-106176248D01*
X164585000Y-106698752D02*
X164585000Y-106176248D01*
%TO.C,C3*%
X139865000Y-106151248D02*
X139865000Y-106673752D01*
X141335000Y-106151248D02*
X141335000Y-106673752D01*
%TO.C,R2*%
X178340000Y-107502064D02*
X178340000Y-107047936D01*
X179810000Y-107502064D02*
X179810000Y-107047936D01*
%TO.C,R3*%
X178265000Y-117077064D02*
X178265000Y-116622936D01*
X179735000Y-117077064D02*
X179735000Y-116622936D01*
%TO.C,JP1*%
X181600000Y-99025000D02*
X181600000Y-96225000D01*
X182300000Y-95575000D02*
X182900000Y-95575000D01*
X182900000Y-99675000D02*
X182300000Y-99675000D01*
X183600000Y-96225000D02*
X183600000Y-99025000D01*
X181600000Y-96275000D02*
G75*
G02*
X182300000Y-95575000I699999J1D01*
G01*
X182300000Y-99675000D02*
G75*
G02*
X181600000Y-98975000I0J700000D01*
G01*
X182900000Y-95575000D02*
G75*
G02*
X183600000Y-96275000I1J-699999D01*
G01*
X183600000Y-98975000D02*
G75*
G02*
X182900000Y-99675000I-700000J0D01*
G01*
%TO.C,C17*%
X126026248Y-96215000D02*
X126548752Y-96215000D01*
X126026248Y-97685000D02*
X126548752Y-97685000D01*
%TO.C,R12*%
X196840000Y-98402064D02*
X196840000Y-97947936D01*
X198310000Y-98402064D02*
X198310000Y-97947936D01*
%TO.C,JP4*%
X190825000Y-99050000D02*
X190825000Y-96250000D01*
X191525000Y-95600000D02*
X192125000Y-95600000D01*
X192125000Y-99700000D02*
X191525000Y-99700000D01*
X192825000Y-96250000D02*
X192825000Y-99050000D01*
X190825000Y-96300000D02*
G75*
G02*
X191525000Y-95600000I699999J1D01*
G01*
X191525000Y-99700000D02*
G75*
G02*
X190825000Y-99000000I0J700000D01*
G01*
X192125000Y-95600000D02*
G75*
G02*
X192825000Y-96300000I1J-699999D01*
G01*
X192825000Y-99000000D02*
G75*
G02*
X192125000Y-99700000I-700000J0D01*
G01*
%TO.C,JP5*%
X190825000Y-108225000D02*
X190825000Y-105425000D01*
X191525000Y-104775000D02*
X192125000Y-104775000D01*
X192125000Y-108875000D02*
X191525000Y-108875000D01*
X192825000Y-105425000D02*
X192825000Y-108225000D01*
X190825000Y-105475000D02*
G75*
G02*
X191525000Y-104775000I699999J1D01*
G01*
X191525000Y-108875000D02*
G75*
G02*
X190825000Y-108175000I0J700000D01*
G01*
X192125000Y-104775000D02*
G75*
G02*
X192825000Y-105475000I1J-699999D01*
G01*
X192825000Y-108175000D02*
G75*
G02*
X192125000Y-108875000I-700000J0D01*
G01*
%TO.C,R5*%
X156890000Y-112027064D02*
X156890000Y-111572936D01*
X158360000Y-112027064D02*
X158360000Y-111572936D01*
%TO.C,R13*%
X117452064Y-93115000D02*
X116997936Y-93115000D01*
X117452064Y-94585000D02*
X116997936Y-94585000D01*
%TO.C,R14*%
X143290000Y-112052064D02*
X143290000Y-111597936D01*
X144760000Y-112052064D02*
X144760000Y-111597936D01*
%TO.C,R11*%
X187565000Y-107527064D02*
X187565000Y-107072936D01*
X189035000Y-107527064D02*
X189035000Y-107072936D01*
%TO.C,C7*%
X148115000Y-106151248D02*
X148115000Y-106673752D01*
X149585000Y-106151248D02*
X149585000Y-106673752D01*
%TO.C,R6*%
X139840000Y-112077064D02*
X139840000Y-111622936D01*
X141310000Y-112077064D02*
X141310000Y-111622936D01*
%TO.C,C15*%
X156365000Y-106673752D02*
X156365000Y-106151248D01*
X157835000Y-106673752D02*
X157835000Y-106151248D01*
%TO.C,R18*%
X187590000Y-103402064D02*
X187590000Y-102947936D01*
X189060000Y-103402064D02*
X189060000Y-102947936D01*
%TO.C,D3*%
X179400000Y-89710000D02*
X182260000Y-89710000D01*
X182260000Y-87790000D02*
X179400000Y-87790000D01*
X182260000Y-89710000D02*
X182260000Y-87790000D01*
%TO.C,C2*%
X153615000Y-106151248D02*
X153615000Y-106673752D01*
X155085000Y-106151248D02*
X155085000Y-106673752D01*
%TO.C,U1*%
X148890000Y-92065000D02*
X148890000Y-93015000D01*
X148890000Y-102285000D02*
X148890000Y-101335000D01*
X149840000Y-92065000D02*
X148890000Y-92065000D01*
X149840000Y-102285000D02*
X148890000Y-102285000D01*
X158160000Y-92065000D02*
X159110000Y-92065000D01*
X158160000Y-102285000D02*
X159110000Y-102285000D01*
X159110000Y-92065000D02*
X159110000Y-93015000D01*
X159110000Y-102285000D02*
X159110000Y-101335000D01*
X148275000Y-93015000D02*
X147935000Y-92545000D01*
X148615000Y-92545000D01*
X148275000Y-93015000D01*
G36*
X148275000Y-93015000D02*
G01*
X147935000Y-92545000D01*
X148615000Y-92545000D01*
X148275000Y-93015000D01*
G37*
%TO.C,JP3*%
X181600000Y-117750000D02*
X181600000Y-114950000D01*
X182300000Y-114300000D02*
X182900000Y-114300000D01*
X182900000Y-118400000D02*
X182300000Y-118400000D01*
X183600000Y-114950000D02*
X183600000Y-117750000D01*
X181600000Y-115000000D02*
G75*
G02*
X182300000Y-114300000I699999J1D01*
G01*
X182300000Y-118400000D02*
G75*
G02*
X181600000Y-117700000I0J700000D01*
G01*
X182900000Y-114300000D02*
G75*
G02*
X183600000Y-115000000I1J-699999D01*
G01*
X183600000Y-117700000D02*
G75*
G02*
X182900000Y-118400000I-700000J0D01*
G01*
%TO.C,R15*%
X146790000Y-112027064D02*
X146790000Y-111572936D01*
X148260000Y-112027064D02*
X148260000Y-111572936D01*
%TO.C,C13*%
X159090000Y-106673752D02*
X159090000Y-106151248D01*
X160560000Y-106673752D02*
X160560000Y-106151248D01*
%TO.C,C5*%
X142590000Y-106151248D02*
X142590000Y-106673752D01*
X144060000Y-106151248D02*
X144060000Y-106673752D01*
%TO.C,R24*%
X135147936Y-108215000D02*
X135602064Y-108215000D01*
X135147936Y-109685000D02*
X135602064Y-109685000D01*
%TO.C,R17*%
X187540000Y-93952064D02*
X187540000Y-93497936D01*
X189010000Y-93952064D02*
X189010000Y-93497936D01*
%TO.C,C12*%
X141065000Y-92323752D02*
X141065000Y-91801248D01*
X142535000Y-92323752D02*
X142535000Y-91801248D01*
%TO.C,J3*%
X132285000Y-115955000D02*
X133615000Y-115955000D01*
X132285000Y-117285000D02*
X132285000Y-115955000D01*
X132285000Y-118555000D02*
X134885000Y-118555000D01*
X132285000Y-121155000D02*
X132285000Y-118555000D01*
X132285000Y-121155000D02*
X173045000Y-121155000D01*
X134885000Y-115955000D02*
X173045000Y-115955000D01*
X134885000Y-118555000D02*
X134885000Y-115955000D01*
X173045000Y-121155000D02*
X173045000Y-115955000D01*
%TO.C,C16*%
X166515000Y-106798752D02*
X166515000Y-106276248D01*
X167985000Y-106798752D02*
X167985000Y-106276248D01*
%TO.C,SW1*%
X116550000Y-86025000D02*
X116550000Y-86075000D01*
X116550000Y-86025000D02*
X121450000Y-86025000D01*
X116550000Y-87725000D02*
X116550000Y-89225000D01*
X116550000Y-90925000D02*
X116550000Y-90875000D01*
X116550000Y-90925000D02*
X121450000Y-90925000D01*
X121450000Y-86025000D02*
X121450000Y-86075000D01*
X121450000Y-87725000D02*
X121450000Y-89225000D01*
X121450000Y-90925000D02*
X121450000Y-90875000D01*
%TO.C,U2*%
X132375000Y-94340000D02*
X130425000Y-94340000D01*
X132375000Y-94340000D02*
X134325000Y-94340000D01*
X132375000Y-99460000D02*
X130425000Y-99460000D01*
X132375000Y-99460000D02*
X134325000Y-99460000D01*
X129675000Y-94435000D02*
X129435000Y-94105000D01*
X129915000Y-94105000D01*
X129675000Y-94435000D01*
G36*
X129675000Y-94435000D02*
G01*
X129435000Y-94105000D01*
X129915000Y-94105000D01*
X129675000Y-94435000D01*
G37*
%TO.C,R16*%
X150340000Y-112027064D02*
X150340000Y-111572936D01*
X151810000Y-112027064D02*
X151810000Y-111572936D01*
%TO.C,C4*%
X117001248Y-96565000D02*
X117523752Y-96565000D01*
X117001248Y-98035000D02*
X117523752Y-98035000D01*
%TO.C,R20*%
X169172936Y-91415000D02*
X169627064Y-91415000D01*
X169172936Y-92885000D02*
X169627064Y-92885000D01*
%TO.C,C8*%
X162648752Y-90315000D02*
X162126248Y-90315000D01*
X162648752Y-91785000D02*
X162126248Y-91785000D01*
%TO.C,C6*%
X145365000Y-106151248D02*
X145365000Y-106673752D01*
X146835000Y-106151248D02*
X146835000Y-106673752D01*
%TO.C,D2*%
X173875000Y-89735000D02*
X176735000Y-89735000D01*
X176735000Y-87815000D02*
X173875000Y-87815000D01*
X176735000Y-89735000D02*
X176735000Y-87815000D01*
%TO.C,R23*%
X135222936Y-104715000D02*
X135677064Y-104715000D01*
X135222936Y-106185000D02*
X135677064Y-106185000D01*
%TO.C,R9*%
X178340000Y-112402064D02*
X178340000Y-111947936D01*
X179810000Y-112402064D02*
X179810000Y-111947936D01*
%TO.C,J1*%
X106020000Y-104365000D02*
X106020000Y-119665000D01*
X106020000Y-104365000D02*
X108680000Y-104365000D01*
X106020000Y-119665000D02*
X108680000Y-119665000D01*
X107350000Y-101765000D02*
X108680000Y-101765000D01*
X108680000Y-101765000D02*
X108680000Y-103095000D01*
X108680000Y-104365000D02*
X108680000Y-119665000D01*
%TO.C,R19*%
X196815000Y-93927064D02*
X196815000Y-93472936D01*
X198285000Y-93927064D02*
X198285000Y-93472936D01*
%TO.C,C11*%
X144461248Y-100535000D02*
X144983752Y-100535000D01*
X144461248Y-102005000D02*
X144983752Y-102005000D01*
%TO.C,R1*%
X178390000Y-98302064D02*
X178390000Y-97847936D01*
X179860000Y-98302064D02*
X179860000Y-97847936D01*
%TO.C,R21*%
X174647936Y-91465000D02*
X175102064Y-91465000D01*
X174647936Y-92935000D02*
X175102064Y-92935000D01*
%TO.C,JP6*%
X200150000Y-99050000D02*
X200150000Y-96250000D01*
X200850000Y-95600000D02*
X201450000Y-95600000D01*
X201450000Y-99700000D02*
X200850000Y-99700000D01*
X202150000Y-96250000D02*
X202150000Y-99050000D01*
X200150000Y-96300000D02*
G75*
G02*
X200850000Y-95600000I699999J1D01*
G01*
X200850000Y-99700000D02*
G75*
G02*
X200150000Y-99000000I0J700000D01*
G01*
X201450000Y-95600000D02*
G75*
G02*
X202150000Y-96300000I1J-699999D01*
G01*
X202150000Y-99000000D02*
G75*
G02*
X201450000Y-99700000I-700000J0D01*
G01*
%TO.C,C10*%
X145376248Y-90315000D02*
X145898752Y-90315000D01*
X145376248Y-91785000D02*
X145898752Y-91785000D01*
%TO.C,R4*%
X153590000Y-112027064D02*
X153590000Y-111572936D01*
X155060000Y-112027064D02*
X155060000Y-111572936D01*
%TO.C,D1*%
X168400000Y-89685000D02*
X171260000Y-89685000D01*
X171260000Y-87765000D02*
X168400000Y-87765000D01*
X171260000Y-89685000D02*
X171260000Y-87765000D01*
%TO.C,R10*%
X187590000Y-98427064D02*
X187590000Y-97972936D01*
X189060000Y-98427064D02*
X189060000Y-97972936D01*
%TO.C,C9*%
X161923752Y-102015000D02*
X161401248Y-102015000D01*
X161923752Y-103485000D02*
X161401248Y-103485000D01*
%TO.C,R22*%
X180147936Y-91340000D02*
X180602064Y-91340000D01*
X180147936Y-92810000D02*
X180602064Y-92810000D01*
%TO.C,R7*%
X175015000Y-97797936D02*
X175015000Y-98252064D01*
X176485000Y-97797936D02*
X176485000Y-98252064D01*
%TO.C,C1*%
X150840000Y-106151248D02*
X150840000Y-106673752D01*
X152310000Y-106151248D02*
X152310000Y-106673752D01*
%TD*%
M02*
