%TF.GenerationSoftware,KiCad,Pcbnew,9.0.3*%
%TF.CreationDate,2026-05-04T11:15:59+07:00*%
%TF.ProjectId,STM32 V2,53544d33-3220-4563-922e-6b696361645f,rev?*%
%TF.SameCoordinates,Original*%
%TF.FileFunction,Copper,L2,Inr*%
%TF.FilePolarity,Positive*%
%FSLAX46Y46*%
G04 Gerber Fmt 4.6, Leading zero omitted, Abs format (unit mm)*
G04 Created by KiCad (PCBNEW 9.0.3) date 2026-05-04 11:15:59*
%MOMM*%
%LPD*%
G01*
G04 APERTURE LIST*
%TA.AperFunction,ComponentPad*%
%ADD10O,2.500000X1.750000*%
%TD*%
%TA.AperFunction,ComponentPad*%
%ADD11R,2.500000X1.750000*%
%TD*%
%TA.AperFunction,ComponentPad*%
%ADD12R,1.700000X1.700000*%
%TD*%
%TA.AperFunction,ComponentPad*%
%ADD13C,1.700000*%
%TD*%
%TA.AperFunction,ViaPad*%
%ADD14C,0.600000*%
%TD*%
%TA.AperFunction,Conductor*%
%ADD15C,0.200000*%
%TD*%
G04 APERTURE END LIST*
D10*
%TO.N,+3.3V*%
%TO.C,SW2*%
X107750000Y-97425000D03*
%TO.N,Net-(SW2-B)*%
X107750000Y-94925000D03*
D11*
%TO.N,GND*%
X107750000Y-92425000D03*
%TD*%
D12*
%TO.N,Ch8_MCU*%
%TO.C,J3*%
X133615000Y-117285000D03*
D13*
%TO.N,CS8*%
X133615000Y-119825000D03*
%TO.N,CS4*%
X136155000Y-117285000D03*
%TO.N,+3.3V*%
X136155000Y-119825000D03*
%TO.N,Ch10_MCU*%
X138695000Y-117285000D03*
%TO.N,Ch3_MCU*%
X138695000Y-119825000D03*
%TO.N,CS10*%
X141235000Y-117285000D03*
%TO.N,Ch6_MCU*%
X141235000Y-119825000D03*
%TO.N,CS6*%
X143775000Y-117285000D03*
%TO.N,Ch4_MCU*%
X143775000Y-119825000D03*
%TO.N,CS3*%
X146315000Y-117285000D03*
%TO.N,unconnected-(J3-Pin_12-Pad12)*%
X146315000Y-119825000D03*
%TO.N,Can_Lo*%
X148855000Y-117285000D03*
%TO.N,GND*%
X148855000Y-119825000D03*
%TO.N,Aux6*%
X151395000Y-117285000D03*
%TO.N,Aux4*%
X151395000Y-119825000D03*
%TO.N,+BATT*%
X153935000Y-117285000D03*
%TO.N,Aux3*%
X153935000Y-119825000D03*
%TO.N,Aux1*%
X156475000Y-117285000D03*
%TO.N,Aux2*%
X156475000Y-119825000D03*
%TO.N,Aux5*%
X159015000Y-117285000D03*
%TO.N,CS2*%
X159015000Y-119825000D03*
%TO.N,Can_Hi*%
X161555000Y-117285000D03*
%TO.N,CS5*%
X161555000Y-119825000D03*
%TO.N,CS9*%
X164095000Y-117285000D03*
%TO.N,Ch1_MCU*%
X164095000Y-119825000D03*
%TO.N,CS7*%
X166635000Y-117285000D03*
%TO.N,Ch5_MCU*%
X166635000Y-119825000D03*
%TO.N,Ch9_MCU*%
X169175000Y-117285000D03*
%TO.N,Ch2_MCU*%
X169175000Y-119825000D03*
%TO.N,CS1*%
X171715000Y-117285000D03*
%TO.N,Ch7_MCU*%
X171715000Y-119825000D03*
%TD*%
D12*
%TO.N,GND*%
%TO.C,J1*%
X107350000Y-103095000D03*
D13*
%TO.N,+3.3V*%
X107350000Y-105635000D03*
%TO.N,Net-(J1-Pin_3)*%
X107350000Y-108175000D03*
%TO.N,SWCLK*%
X107350000Y-110715000D03*
%TO.N,SWDIO*%
X107350000Y-113255000D03*
%TO.N,USART1_TX*%
X107350000Y-115795000D03*
%TO.N,USART1_RX*%
X107350000Y-118335000D03*
%TD*%
D14*
%TO.N,Net-(J1-Pin_3)*%
X115050000Y-97300000D03*
%TO.N,GND*%
X117700000Y-103800000D03*
X143400000Y-109300000D03*
X200500000Y-120750000D03*
X199000000Y-120750000D03*
X110250000Y-88750000D03*
X136600000Y-92200000D03*
X116800000Y-102900000D03*
X135500000Y-92200000D03*
X199000000Y-119250000D03*
X123750000Y-97000000D03*
X116800000Y-102000000D03*
X157500000Y-97500000D03*
X153000000Y-96000000D03*
X136600000Y-93100000D03*
X115900000Y-105600000D03*
X156750000Y-96750000D03*
X115000000Y-106500000D03*
X118600000Y-102900000D03*
X154500000Y-97500000D03*
X188700000Y-86900000D03*
X151500000Y-109100000D03*
X117700000Y-102000000D03*
X190300000Y-86900000D03*
X148900000Y-109600000D03*
X112250000Y-89250000D03*
X180750000Y-111250000D03*
X115000000Y-103800000D03*
X144750000Y-92500000D03*
X115000000Y-105600000D03*
X118250000Y-98750000D03*
X115900000Y-103800000D03*
X116800000Y-104700000D03*
X154500000Y-96750000D03*
X156000000Y-96750000D03*
X119750000Y-97250000D03*
X128250000Y-94500000D03*
X153700000Y-108800000D03*
X154500000Y-96000000D03*
X117700000Y-102900000D03*
X156000000Y-97500000D03*
X190000000Y-92750000D03*
X143500000Y-91250000D03*
X183800000Y-113000000D03*
X200500000Y-119250000D03*
X195750000Y-92750000D03*
X114500000Y-88750000D03*
X156750000Y-97500000D03*
X155250000Y-96750000D03*
X153750000Y-96750000D03*
X115900000Y-102000000D03*
X163500000Y-89500000D03*
X115000000Y-104700000D03*
X177500000Y-98250000D03*
X157500000Y-96750000D03*
X119500000Y-102000000D03*
X115000000Y-102900000D03*
X168750000Y-107500000D03*
X114500000Y-87750000D03*
X186500000Y-92750000D03*
X199250000Y-92750000D03*
X199750000Y-120750000D03*
X157500000Y-109000000D03*
X157500000Y-96000000D03*
X155250000Y-96000000D03*
X145300000Y-108900000D03*
X125250000Y-94250000D03*
X114500000Y-86750000D03*
X155250000Y-97500000D03*
X137700000Y-93100000D03*
X199750000Y-120000000D03*
X140500000Y-108700000D03*
X118600000Y-102000000D03*
X115000000Y-102000000D03*
X115900000Y-102900000D03*
X116800000Y-103800000D03*
X175750000Y-95250000D03*
X180500000Y-102000000D03*
X160500000Y-111500000D03*
X162750000Y-109750000D03*
X140250000Y-93000000D03*
X135500000Y-93100000D03*
X134500000Y-103750000D03*
X153750000Y-96000000D03*
X199750000Y-119250000D03*
X164900000Y-91100000D03*
X200500000Y-120000000D03*
X115900000Y-104700000D03*
X186600000Y-113000000D03*
X189500000Y-86900000D03*
X156000000Y-96000000D03*
X156750000Y-96000000D03*
X199000000Y-120000000D03*
X137700000Y-92200000D03*
X165750000Y-104000000D03*
X140750000Y-101000000D03*
%TO.N,AUX3_STM*%
X143000000Y-103300000D03*
X150700000Y-101200000D03*
%TO.N,Net-(J1-Pin_3)*%
X119400000Y-95025000D03*
X145700000Y-95700000D03*
%TO.N,AUX4_STM*%
X151800000Y-101500000D03*
X148700000Y-102900000D03*
%TO.N,Led1*%
X161900000Y-100600000D03*
X169850000Y-87250000D03*
%TO.N,Led2*%
X175212500Y-87412500D03*
X163400000Y-100400000D03*
%TO.N,Led3*%
X162700000Y-99600000D03*
X178062500Y-90062500D03*
%TO.N,SWCLK*%
X158600000Y-88400000D03*
%TO.N,SWDIO*%
X158200000Y-89700000D03*
%TO.N,USART1_TX*%
X152750000Y-89600000D03*
%TO.N,USART1_RX*%
X151600000Y-89500000D03*
%TO.N,CS6*%
X157400000Y-100425000D03*
%TO.N,CS5*%
X158450000Y-101350000D03*
%TO.N,Ch4_MCU*%
X165300000Y-96900000D03*
%TO.N,Ch7_MCU*%
X163400000Y-94000000D03*
%TO.N,Can_Lo*%
X133700000Y-113500000D03*
X133365000Y-97535000D03*
%TO.N,CS7*%
X144400000Y-96300000D03*
%TO.N,Ch6_MCU*%
X164800000Y-95300000D03*
%TO.N,CS3*%
X149100000Y-102100000D03*
%TO.N,Can_Hi*%
X132750000Y-96550000D03*
%TO.N,CS4*%
X152700000Y-101600000D03*
%TO.N,CS10*%
X145625000Y-98925000D03*
%TO.N,CS8*%
X143200000Y-97100000D03*
%TO.N,Ch3_MCU*%
X164700000Y-97800000D03*
%TO.N,Ch1_MCU*%
X163400000Y-99100000D03*
%TO.N,+BATT*%
X136375000Y-110500000D03*
%TO.N,Ch8_MCU*%
X156500000Y-89700000D03*
X138400000Y-109400000D03*
%TO.N,Ch5_MCU*%
X174950000Y-117350000D03*
X166000000Y-96000000D03*
%TO.N,CS1*%
X150675000Y-98425000D03*
%TO.N,Ch2_MCU*%
X173100000Y-113400000D03*
X164000000Y-98600000D03*
%TO.N,Ch10_MCU*%
X154900000Y-89600000D03*
%TO.N,CS2*%
X146400000Y-99500000D03*
%TO.N,Ch9_MCU*%
X168875000Y-113125000D03*
X169000000Y-97750000D03*
X170500000Y-107000000D03*
X155750000Y-88750000D03*
%TO.N,CS9*%
X143900000Y-97700000D03*
%TO.N,Net-(JP1-C)*%
X181250000Y-97625000D03*
X153000000Y-112000000D03*
%TO.N,Net-(JP2-C)*%
X184500000Y-107750000D03*
X158750000Y-112800000D03*
%TO.N,Net-(JP3-C)*%
X181000000Y-116250000D03*
X140575000Y-113925000D03*
%TO.N,Net-(JP4-C)*%
X190500000Y-97650000D03*
X145250000Y-112825000D03*
%TO.N,Net-(JP5-C)*%
X190250000Y-106825000D03*
X149225000Y-114500000D03*
%TO.N,Net-(JP6-C)*%
X152000000Y-113750000D03*
X199500000Y-97750000D03*
%TO.N,Net-(U1-PB0)*%
X153700000Y-101400000D03*
X147400000Y-102200000D03*
%TO.N,Net-(SW2-B)*%
X149500000Y-90300000D03*
%TO.N,Net-(U1-PA12)*%
X161400000Y-94100000D03*
X130900000Y-94100000D03*
%TO.N,/RX*%
X162400000Y-94300000D03*
X132400000Y-95000000D03*
%TD*%
D15*
%TO.N,AUX3_STM*%
X150700000Y-101200000D02*
X150600000Y-101300000D01*
X150600000Y-101300000D02*
X145000000Y-101300000D01*
X145000000Y-101300000D02*
X143000000Y-103300000D01*
%TO.N,Net-(J1-Pin_3)*%
X145700000Y-95700000D02*
X120075000Y-95700000D01*
X120075000Y-95700000D02*
X119400000Y-95025000D01*
%TO.N,AUX4_STM*%
X149800000Y-102900000D02*
X150900000Y-101800000D01*
X151500000Y-101800000D02*
X151800000Y-101500000D01*
X150900000Y-101800000D02*
X151500000Y-101800000D01*
X148700000Y-102900000D02*
X149800000Y-102900000D01*
%TO.N,SWCLK*%
X158600000Y-88400000D02*
X156300000Y-86100000D01*
X156300000Y-86100000D02*
X118600000Y-86100000D01*
X110000000Y-108065000D02*
X107350000Y-110715000D01*
X110000000Y-94700000D02*
X110000000Y-108065000D01*
X118600000Y-86100000D02*
X110000000Y-94700000D01*
%TO.N,SWDIO*%
X110700000Y-95000000D02*
X110700000Y-109800000D01*
X118500000Y-87200000D02*
X110700000Y-95000000D01*
X108674000Y-111826000D02*
X108700000Y-111826000D01*
X158200000Y-89700000D02*
X158200000Y-88900000D01*
X108700000Y-111826000D02*
X108700000Y-111905000D01*
X158200000Y-88900000D02*
X156500000Y-87200000D01*
X110700000Y-109800000D02*
X108674000Y-111826000D01*
X108700000Y-111905000D02*
X107350000Y-113255000D01*
X156500000Y-87200000D02*
X118500000Y-87200000D01*
%TO.N,USART1_TX*%
X111400000Y-111600000D02*
X108634000Y-114366000D01*
X108634000Y-114366000D02*
X108600000Y-114366000D01*
X152750000Y-88750000D02*
X152200000Y-88200000D01*
X108600000Y-114366000D02*
X108600000Y-114545000D01*
X152750000Y-89600000D02*
X152750000Y-88750000D01*
X152200000Y-88200000D02*
X119000000Y-88200000D01*
X108600000Y-114545000D02*
X107350000Y-115795000D01*
X111400000Y-95800000D02*
X111400000Y-111600000D01*
X119000000Y-88200000D02*
X111400000Y-95800000D01*
%TO.N,USART1_RX*%
X151600000Y-89500000D02*
X118900000Y-89500000D01*
X112100000Y-96300000D02*
X112100000Y-112300000D01*
X108694000Y-116906000D02*
X108700000Y-116906000D01*
X112100000Y-112300000D02*
X109200000Y-115200000D01*
X108700000Y-116906000D02*
X108700000Y-116985000D01*
X109200000Y-116400000D02*
X108694000Y-116906000D01*
X118900000Y-89500000D02*
X112100000Y-96300000D01*
X108700000Y-116985000D02*
X107350000Y-118335000D01*
X109200000Y-115200000D02*
X109200000Y-116400000D01*
%TO.N,Ch4_MCU*%
X146200000Y-122250000D02*
X143775000Y-119825000D01*
X174250000Y-121250000D02*
X173250000Y-122250000D01*
X174250000Y-100550000D02*
X174250000Y-121250000D01*
X170600000Y-96900000D02*
X174250000Y-100550000D01*
X173250000Y-122250000D02*
X146200000Y-122250000D01*
X165300000Y-96900000D02*
X170600000Y-96900000D01*
%TO.N,Ch7_MCU*%
X163400000Y-94000000D02*
X163100000Y-94300000D01*
X161100000Y-103350000D02*
X170604000Y-112854000D01*
X163100000Y-94500000D02*
X161100000Y-96500000D01*
X170604000Y-112854000D02*
X170604000Y-118714000D01*
X161100000Y-96500000D02*
X161100000Y-103350000D01*
X163100000Y-94300000D02*
X163100000Y-94500000D01*
X170604000Y-118714000D02*
X171715000Y-119825000D01*
%TO.N,CS7*%
X144400000Y-96300000D02*
X151550000Y-96300000D01*
X166635000Y-111385000D02*
X166635000Y-117285000D01*
X151550000Y-96300000D02*
X166635000Y-111385000D01*
%TO.N,Ch6_MCU*%
X176750000Y-100000000D02*
X176750000Y-119500000D01*
X171289000Y-94539000D02*
X176750000Y-100000000D01*
X165561000Y-94539000D02*
X171289000Y-94539000D01*
X164800000Y-95300000D02*
X165561000Y-94539000D01*
X144160000Y-122750000D02*
X141235000Y-119825000D01*
X176750000Y-119500000D02*
X173500000Y-122750000D01*
X173500000Y-122750000D02*
X144160000Y-122750000D01*
%TO.N,CS3*%
X146315000Y-117285000D02*
X146315000Y-104491626D01*
X148706626Y-102100000D02*
X149100000Y-102100000D01*
X146315000Y-104491626D02*
X148706626Y-102100000D01*
%TO.N,CS10*%
X142439000Y-102111000D02*
X142439000Y-116081000D01*
X145625000Y-98925000D02*
X142439000Y-102111000D01*
X142439000Y-116081000D02*
X141235000Y-117285000D01*
%TO.N,CS8*%
X141800000Y-98500000D02*
X141800000Y-108900000D01*
X143200000Y-97100000D02*
X141800000Y-98500000D01*
X134900000Y-115800000D02*
X134900000Y-118540000D01*
X134900000Y-118540000D02*
X133615000Y-119825000D01*
X141800000Y-108900000D02*
X134900000Y-115800000D01*
%TO.N,Ch3_MCU*%
X163750000Y-96850000D02*
X163750000Y-95000000D01*
X173750000Y-123250000D02*
X142120000Y-123250000D01*
X165000000Y-93750000D02*
X171500000Y-93750000D01*
X163750000Y-95000000D02*
X165000000Y-93750000D01*
X164700000Y-97800000D02*
X163750000Y-96850000D01*
X142120000Y-123250000D02*
X138695000Y-119825000D01*
X171500000Y-93750000D02*
X177500000Y-99750000D01*
X177500000Y-99750000D02*
X177500000Y-119500000D01*
X177500000Y-119500000D02*
X173750000Y-123250000D01*
%TO.N,Ch1_MCU*%
X172400000Y-100800000D02*
X172400000Y-114700000D01*
X172400000Y-114700000D02*
X173100000Y-115400000D01*
X163706626Y-99100000D02*
X163767626Y-99161000D01*
X172500000Y-121300000D02*
X165570000Y-121300000D01*
X163400000Y-99100000D02*
X163706626Y-99100000D01*
X170761000Y-99161000D02*
X172400000Y-100800000D01*
X163767626Y-99161000D02*
X170761000Y-99161000D01*
X173100000Y-115400000D02*
X173100000Y-120700000D01*
X173100000Y-120700000D02*
X172500000Y-121300000D01*
X165570000Y-121300000D02*
X164095000Y-119825000D01*
%TO.N,Ch5_MCU*%
X175900000Y-116400000D02*
X174950000Y-117350000D01*
X175900000Y-100300000D02*
X175900000Y-116400000D01*
X166000000Y-96000000D02*
X171600000Y-96000000D01*
X171600000Y-96000000D02*
X175900000Y-100300000D01*
%TO.N,Ch2_MCU*%
X173100000Y-100475000D02*
X171125000Y-98500000D01*
X171125000Y-98500000D02*
X164100000Y-98500000D01*
X173100000Y-113400000D02*
X173100000Y-100475000D01*
X164100000Y-98500000D02*
X164000000Y-98600000D01*
%TO.N,CS2*%
X157500000Y-117831192D02*
X157500000Y-118310000D01*
X152989468Y-99500000D02*
X156100000Y-102610532D01*
X156100000Y-115338808D02*
X157586000Y-116824808D01*
X146400000Y-99500000D02*
X152989468Y-99500000D01*
X156100000Y-102610532D02*
X156100000Y-115338808D01*
X157500000Y-118310000D02*
X159015000Y-119825000D01*
X157586000Y-116824808D02*
X157586000Y-117745192D01*
X157586000Y-117745192D02*
X157500000Y-117831192D01*
%TO.N,CS9*%
X152075000Y-97700000D02*
X164095000Y-109720000D01*
X143900000Y-97700000D02*
X152075000Y-97700000D01*
X164095000Y-109720000D02*
X164095000Y-117285000D01*
%TO.N,Net-(U1-PA12)*%
X130900000Y-94100000D02*
X161400000Y-94100000D01*
%TO.N,/RX*%
X162400000Y-94300000D02*
X161700000Y-95000000D01*
X161700000Y-95000000D02*
X132400000Y-95000000D01*
%TD*%
%TA.AperFunction,Conductor*%
%TO.N,GND*%
G36*
X149970270Y-120586717D02*
G01*
X149970270Y-120586716D01*
X150009622Y-120532555D01*
X150014232Y-120523507D01*
X150062205Y-120472709D01*
X150130025Y-120455912D01*
X150196161Y-120478447D01*
X150235204Y-120523504D01*
X150239949Y-120532817D01*
X150364890Y-120704786D01*
X150515213Y-120855109D01*
X150687179Y-120980048D01*
X150687181Y-120980049D01*
X150687184Y-120980051D01*
X150876588Y-121076557D01*
X151078757Y-121142246D01*
X151288713Y-121175500D01*
X151288714Y-121175500D01*
X151501286Y-121175500D01*
X151501287Y-121175500D01*
X151711243Y-121142246D01*
X151913412Y-121076557D01*
X152102816Y-120980051D01*
X152157572Y-120940269D01*
X152274786Y-120855109D01*
X152274788Y-120855106D01*
X152274792Y-120855104D01*
X152425104Y-120704792D01*
X152425106Y-120704788D01*
X152425109Y-120704786D01*
X152550048Y-120532820D01*
X152550047Y-120532820D01*
X152550051Y-120532816D01*
X152554514Y-120524054D01*
X152602488Y-120473259D01*
X152670308Y-120456463D01*
X152736444Y-120478999D01*
X152775486Y-120524056D01*
X152779951Y-120532820D01*
X152904890Y-120704786D01*
X153055213Y-120855109D01*
X153227179Y-120980048D01*
X153227181Y-120980049D01*
X153227184Y-120980051D01*
X153416588Y-121076557D01*
X153618757Y-121142246D01*
X153828713Y-121175500D01*
X153828714Y-121175500D01*
X154041286Y-121175500D01*
X154041287Y-121175500D01*
X154251243Y-121142246D01*
X154453412Y-121076557D01*
X154642816Y-120980051D01*
X154697572Y-120940269D01*
X154814786Y-120855109D01*
X154814788Y-120855106D01*
X154814792Y-120855104D01*
X154965104Y-120704792D01*
X154965106Y-120704788D01*
X154965109Y-120704786D01*
X155090048Y-120532820D01*
X155090047Y-120532820D01*
X155090051Y-120532816D01*
X155094514Y-120524054D01*
X155142488Y-120473259D01*
X155210308Y-120456463D01*
X155276444Y-120478999D01*
X155315486Y-120524056D01*
X155319951Y-120532820D01*
X155444890Y-120704786D01*
X155595213Y-120855109D01*
X155767179Y-120980048D01*
X155767181Y-120980049D01*
X155767184Y-120980051D01*
X155956588Y-121076557D01*
X156158757Y-121142246D01*
X156368713Y-121175500D01*
X156368714Y-121175500D01*
X156581286Y-121175500D01*
X156581287Y-121175500D01*
X156791243Y-121142246D01*
X156993412Y-121076557D01*
X157182816Y-120980051D01*
X157237572Y-120940269D01*
X157354786Y-120855109D01*
X157354788Y-120855106D01*
X157354792Y-120855104D01*
X157505104Y-120704792D01*
X157505106Y-120704788D01*
X157505109Y-120704786D01*
X157630048Y-120532820D01*
X157630047Y-120532820D01*
X157630051Y-120532816D01*
X157634514Y-120524054D01*
X157682488Y-120473259D01*
X157750308Y-120456463D01*
X157816444Y-120478999D01*
X157855486Y-120524056D01*
X157859951Y-120532820D01*
X157984890Y-120704786D01*
X158135213Y-120855109D01*
X158307179Y-120980048D01*
X158307181Y-120980049D01*
X158307184Y-120980051D01*
X158496588Y-121076557D01*
X158698757Y-121142246D01*
X158908713Y-121175500D01*
X158908714Y-121175500D01*
X159121286Y-121175500D01*
X159121287Y-121175500D01*
X159331243Y-121142246D01*
X159533412Y-121076557D01*
X159722816Y-120980051D01*
X159777572Y-120940269D01*
X159894786Y-120855109D01*
X159894788Y-120855106D01*
X159894792Y-120855104D01*
X160045104Y-120704792D01*
X160045106Y-120704788D01*
X160045109Y-120704786D01*
X160170048Y-120532820D01*
X160170047Y-120532820D01*
X160170051Y-120532816D01*
X160174514Y-120524054D01*
X160222488Y-120473259D01*
X160290308Y-120456463D01*
X160356444Y-120478999D01*
X160395486Y-120524056D01*
X160399951Y-120532820D01*
X160524890Y-120704786D01*
X160675213Y-120855109D01*
X160847179Y-120980048D01*
X160847181Y-120980049D01*
X160847184Y-120980051D01*
X161036588Y-121076557D01*
X161238757Y-121142246D01*
X161448713Y-121175500D01*
X161448714Y-121175500D01*
X161661286Y-121175500D01*
X161661287Y-121175500D01*
X161871243Y-121142246D01*
X162073412Y-121076557D01*
X162262816Y-120980051D01*
X162317572Y-120940269D01*
X162434786Y-120855109D01*
X162434788Y-120855106D01*
X162434792Y-120855104D01*
X162585104Y-120704792D01*
X162585106Y-120704788D01*
X162585109Y-120704786D01*
X162710048Y-120532820D01*
X162710047Y-120532820D01*
X162710051Y-120532816D01*
X162714514Y-120524054D01*
X162762488Y-120473259D01*
X162830308Y-120456463D01*
X162896444Y-120478999D01*
X162935486Y-120524056D01*
X162939951Y-120532820D01*
X163064890Y-120704786D01*
X163215213Y-120855109D01*
X163387179Y-120980048D01*
X163387181Y-120980049D01*
X163387184Y-120980051D01*
X163576588Y-121076557D01*
X163778757Y-121142246D01*
X163988713Y-121175500D01*
X163988714Y-121175500D01*
X164201286Y-121175500D01*
X164201287Y-121175500D01*
X164411243Y-121142246D01*
X164453523Y-121128507D01*
X164523362Y-121126511D01*
X164579522Y-121158757D01*
X164858584Y-121437819D01*
X164892069Y-121499142D01*
X164887085Y-121568834D01*
X164845213Y-121624767D01*
X164779749Y-121649184D01*
X164770903Y-121649500D01*
X146500097Y-121649500D01*
X146433058Y-121629815D01*
X146412416Y-121613181D01*
X146186416Y-121387181D01*
X146152931Y-121325858D01*
X146157915Y-121256166D01*
X146199787Y-121200233D01*
X146265251Y-121175816D01*
X146274097Y-121175500D01*
X146421286Y-121175500D01*
X146421287Y-121175500D01*
X146631243Y-121142246D01*
X146833412Y-121076557D01*
X147022816Y-120980051D01*
X147077572Y-120940269D01*
X147194786Y-120855109D01*
X147194788Y-120855106D01*
X147194792Y-120855104D01*
X147345104Y-120704792D01*
X147345106Y-120704788D01*
X147345109Y-120704786D01*
X147430890Y-120586717D01*
X147470051Y-120532816D01*
X147474793Y-120523508D01*
X147522763Y-120472711D01*
X147590583Y-120455911D01*
X147656719Y-120478445D01*
X147695763Y-120523500D01*
X147700373Y-120532547D01*
X147739728Y-120586716D01*
X148372037Y-119954408D01*
X148389075Y-120017993D01*
X148454901Y-120132007D01*
X148547993Y-120225099D01*
X148662007Y-120290925D01*
X148725590Y-120307962D01*
X148093282Y-120940269D01*
X148093282Y-120940270D01*
X148147449Y-120979624D01*
X148336782Y-121076095D01*
X148538870Y-121141757D01*
X148748754Y-121175000D01*
X148961246Y-121175000D01*
X149171127Y-121141757D01*
X149171130Y-121141757D01*
X149373217Y-121076095D01*
X149562554Y-120979622D01*
X149616716Y-120940270D01*
X149616717Y-120940270D01*
X148984408Y-120307962D01*
X149047993Y-120290925D01*
X149162007Y-120225099D01*
X149255099Y-120132007D01*
X149320925Y-120017993D01*
X149337962Y-119954408D01*
X149970270Y-120586717D01*
G37*
%TD.AperFunction*%
%TA.AperFunction,Conductor*%
G36*
X147656444Y-117938999D02*
G01*
X147695486Y-117984056D01*
X147699951Y-117992820D01*
X147824890Y-118164786D01*
X147975213Y-118315109D01*
X148147179Y-118440048D01*
X148147181Y-118440049D01*
X148147184Y-118440051D01*
X148156493Y-118444794D01*
X148207290Y-118492766D01*
X148224087Y-118560587D01*
X148201552Y-118626722D01*
X148156505Y-118665760D01*
X148147446Y-118670376D01*
X148147440Y-118670380D01*
X148093282Y-118709727D01*
X148093282Y-118709728D01*
X148725591Y-119342037D01*
X148662007Y-119359075D01*
X148547993Y-119424901D01*
X148454901Y-119517993D01*
X148389075Y-119632007D01*
X148372037Y-119695591D01*
X147739728Y-119063282D01*
X147739727Y-119063282D01*
X147700380Y-119117440D01*
X147700376Y-119117446D01*
X147695760Y-119126505D01*
X147647781Y-119177297D01*
X147579959Y-119194087D01*
X147513826Y-119171543D01*
X147474794Y-119126493D01*
X147470051Y-119117184D01*
X147470049Y-119117181D01*
X147470048Y-119117179D01*
X147345109Y-118945213D01*
X147194786Y-118794890D01*
X147022820Y-118669951D01*
X147014600Y-118665763D01*
X147014054Y-118665485D01*
X146963259Y-118617512D01*
X146946463Y-118549692D01*
X146968999Y-118483556D01*
X147014054Y-118444515D01*
X147022816Y-118440051D01*
X147044789Y-118424086D01*
X147194786Y-118315109D01*
X147194788Y-118315106D01*
X147194792Y-118315104D01*
X147345104Y-118164792D01*
X147345106Y-118164788D01*
X147345109Y-118164786D01*
X147470048Y-117992820D01*
X147470047Y-117992820D01*
X147470051Y-117992816D01*
X147474514Y-117984054D01*
X147522488Y-117933259D01*
X147590308Y-117916463D01*
X147656444Y-117938999D01*
G37*
%TD.AperFunction*%
%TA.AperFunction,Conductor*%
G36*
X150142226Y-117920524D02*
G01*
X150154810Y-117919985D01*
X150174674Y-117931581D01*
X150196444Y-117938999D01*
X150205719Y-117949703D01*
X150215151Y-117955209D01*
X150235486Y-117984056D01*
X150239951Y-117992820D01*
X150364890Y-118164786D01*
X150515213Y-118315109D01*
X150687182Y-118440050D01*
X150695946Y-118444516D01*
X150746742Y-118492491D01*
X150763536Y-118560312D01*
X150740998Y-118626447D01*
X150695946Y-118665484D01*
X150687182Y-118669949D01*
X150515213Y-118794890D01*
X150364890Y-118945213D01*
X150239949Y-119117182D01*
X150235202Y-119126499D01*
X150187227Y-119177293D01*
X150119405Y-119194087D01*
X150053271Y-119171548D01*
X150014234Y-119126495D01*
X150009626Y-119117452D01*
X149970270Y-119063282D01*
X149970269Y-119063282D01*
X149337962Y-119695590D01*
X149320925Y-119632007D01*
X149255099Y-119517993D01*
X149162007Y-119424901D01*
X149047993Y-119359075D01*
X148984409Y-119342037D01*
X149616716Y-118709728D01*
X149562547Y-118670373D01*
X149562547Y-118670372D01*
X149553500Y-118665763D01*
X149502706Y-118617788D01*
X149485912Y-118549966D01*
X149508451Y-118483832D01*
X149553508Y-118444793D01*
X149562816Y-118440051D01*
X149686416Y-118350251D01*
X149734786Y-118315109D01*
X149734788Y-118315106D01*
X149734792Y-118315104D01*
X149885104Y-118164792D01*
X149885106Y-118164788D01*
X149885109Y-118164786D01*
X150010048Y-117992820D01*
X150010047Y-117992820D01*
X150010051Y-117992816D01*
X150014514Y-117984054D01*
X150023160Y-117974900D01*
X150027897Y-117963232D01*
X150046696Y-117949979D01*
X150062488Y-117933259D01*
X150074710Y-117930231D01*
X150085004Y-117922976D01*
X150107985Y-117921991D01*
X150130308Y-117916463D01*
X150142226Y-117920524D01*
G37*
%TD.AperFunction*%
%TA.AperFunction,Conductor*%
G36*
X146512510Y-101906435D02*
G01*
X146533550Y-101907563D01*
X146545364Y-101916082D01*
X146559336Y-101920185D01*
X146573131Y-101936105D01*
X146590222Y-101948430D01*
X146595554Y-101961983D01*
X146605091Y-101972989D01*
X146608089Y-101993843D01*
X146615803Y-102013448D01*
X146614473Y-102038244D01*
X146615035Y-102042147D01*
X146613914Y-102048691D01*
X146599500Y-102121153D01*
X146599500Y-102278846D01*
X146630261Y-102433489D01*
X146630264Y-102433501D01*
X146690602Y-102579172D01*
X146690609Y-102579185D01*
X146778210Y-102710288D01*
X146778213Y-102710292D01*
X146889707Y-102821786D01*
X146889712Y-102821790D01*
X146911479Y-102836334D01*
X146956285Y-102889945D01*
X146964994Y-102959270D01*
X146934840Y-103022298D01*
X146930271Y-103027118D01*
X145946286Y-104011104D01*
X145834481Y-104122908D01*
X145834479Y-104122911D01*
X145784361Y-104209720D01*
X145784359Y-104209722D01*
X145755425Y-104259835D01*
X145755424Y-104259836D01*
X145744076Y-104302187D01*
X145714499Y-104412569D01*
X145714499Y-104412571D01*
X145714499Y-104580672D01*
X145714500Y-104580685D01*
X145714500Y-111965368D01*
X145694815Y-112032407D01*
X145642011Y-112078162D01*
X145572853Y-112088106D01*
X145543048Y-112079929D01*
X145483501Y-112055264D01*
X145483489Y-112055261D01*
X145328845Y-112024500D01*
X145328842Y-112024500D01*
X145171158Y-112024500D01*
X145171155Y-112024500D01*
X145016510Y-112055261D01*
X145016498Y-112055264D01*
X144870827Y-112115602D01*
X144870814Y-112115609D01*
X144739711Y-112203210D01*
X144739707Y-112203213D01*
X144628213Y-112314707D01*
X144628210Y-112314711D01*
X144540609Y-112445814D01*
X144540602Y-112445827D01*
X144480264Y-112591498D01*
X144480261Y-112591510D01*
X144449500Y-112746153D01*
X144449500Y-112903846D01*
X144480261Y-113058489D01*
X144480264Y-113058501D01*
X144540602Y-113204172D01*
X144540609Y-113204185D01*
X144628210Y-113335288D01*
X144628213Y-113335292D01*
X144739707Y-113446786D01*
X144739711Y-113446789D01*
X144870814Y-113534390D01*
X144870827Y-113534397D01*
X145011747Y-113592767D01*
X145016503Y-113594737D01*
X145132277Y-113617766D01*
X145171153Y-113625499D01*
X145171156Y-113625500D01*
X145171158Y-113625500D01*
X145328844Y-113625500D01*
X145328845Y-113625499D01*
X145483497Y-113594737D01*
X145543049Y-113570069D01*
X145612516Y-113562601D01*
X145674995Y-113593876D01*
X145710648Y-113653964D01*
X145714500Y-113684631D01*
X145714500Y-115999281D01*
X145694815Y-116066320D01*
X145646795Y-116109765D01*
X145607185Y-116129947D01*
X145607184Y-116129948D01*
X145435213Y-116254890D01*
X145284890Y-116405213D01*
X145159949Y-116577182D01*
X145155484Y-116585946D01*
X145107509Y-116636742D01*
X145039688Y-116653536D01*
X144973553Y-116630998D01*
X144934516Y-116585946D01*
X144930050Y-116577182D01*
X144805109Y-116405213D01*
X144654786Y-116254890D01*
X144482820Y-116129951D01*
X144293414Y-116033444D01*
X144293413Y-116033443D01*
X144293412Y-116033443D01*
X144091243Y-115967754D01*
X144091241Y-115967753D01*
X144091240Y-115967753D01*
X143926771Y-115941704D01*
X143881287Y-115934500D01*
X143668713Y-115934500D01*
X143623229Y-115941704D01*
X143458760Y-115967753D01*
X143256584Y-116033444D01*
X143219793Y-116052190D01*
X143151124Y-116065085D01*
X143086384Y-116038807D01*
X143046128Y-115981700D01*
X143039500Y-115941704D01*
X143039500Y-104210089D01*
X143059185Y-104143050D01*
X143111989Y-104097295D01*
X143139301Y-104088473D01*
X143233497Y-104069737D01*
X143379179Y-104009394D01*
X143510289Y-103921789D01*
X143621789Y-103810289D01*
X143709394Y-103679179D01*
X143769737Y-103533497D01*
X143790512Y-103429054D01*
X143800638Y-103378150D01*
X143833023Y-103316239D01*
X143834518Y-103314716D01*
X145212416Y-101936819D01*
X145273739Y-101903334D01*
X145300097Y-101900500D01*
X146492297Y-101900500D01*
X146512510Y-101906435D01*
G37*
%TD.AperFunction*%
%TA.AperFunction,Conductor*%
G36*
X154515424Y-101875442D02*
G01*
X154520246Y-101880013D01*
X155463181Y-102822948D01*
X155496666Y-102884271D01*
X155499500Y-102910629D01*
X155499500Y-115252138D01*
X155499499Y-115252156D01*
X155499499Y-115417862D01*
X155499498Y-115417862D01*
X155504055Y-115434869D01*
X155540423Y-115570593D01*
X155542781Y-115574677D01*
X155542782Y-115574678D01*
X155542782Y-115574679D01*
X155619477Y-115707520D01*
X155619481Y-115707525D01*
X155738349Y-115826393D01*
X155738355Y-115826398D01*
X155828493Y-115916536D01*
X155861978Y-115977859D01*
X155856994Y-116047551D01*
X155815122Y-116103484D01*
X155797108Y-116114701D01*
X155767182Y-116129949D01*
X155595213Y-116254890D01*
X155444890Y-116405213D01*
X155319949Y-116577182D01*
X155315484Y-116585946D01*
X155267509Y-116636742D01*
X155199688Y-116653536D01*
X155133553Y-116630998D01*
X155094516Y-116585946D01*
X155090050Y-116577182D01*
X154965109Y-116405213D01*
X154814786Y-116254890D01*
X154642820Y-116129951D01*
X154453414Y-116033444D01*
X154453413Y-116033443D01*
X154453412Y-116033443D01*
X154251243Y-115967754D01*
X154251241Y-115967753D01*
X154251240Y-115967753D01*
X154086771Y-115941704D01*
X154041287Y-115934500D01*
X153828713Y-115934500D01*
X153783229Y-115941704D01*
X153618760Y-115967753D01*
X153416585Y-116033444D01*
X153227179Y-116129951D01*
X153055213Y-116254890D01*
X152904890Y-116405213D01*
X152779949Y-116577182D01*
X152775484Y-116585946D01*
X152727509Y-116636742D01*
X152659688Y-116653536D01*
X152593553Y-116630998D01*
X152554516Y-116585946D01*
X152550050Y-116577182D01*
X152425109Y-116405213D01*
X152274786Y-116254890D01*
X152102820Y-116129951D01*
X151913414Y-116033444D01*
X151913413Y-116033443D01*
X151913412Y-116033443D01*
X151711243Y-115967754D01*
X151711241Y-115967753D01*
X151711240Y-115967753D01*
X151546771Y-115941704D01*
X151501287Y-115934500D01*
X151288713Y-115934500D01*
X151243229Y-115941704D01*
X151078760Y-115967753D01*
X150876585Y-116033444D01*
X150687179Y-116129951D01*
X150515213Y-116254890D01*
X150364890Y-116405213D01*
X150239949Y-116577182D01*
X150235484Y-116585946D01*
X150187509Y-116636742D01*
X150119688Y-116653536D01*
X150053553Y-116630998D01*
X150014516Y-116585946D01*
X150010050Y-116577182D01*
X149885109Y-116405213D01*
X149734786Y-116254890D01*
X149562820Y-116129951D01*
X149373414Y-116033444D01*
X149373413Y-116033443D01*
X149373412Y-116033443D01*
X149171243Y-115967754D01*
X149171241Y-115967753D01*
X149171240Y-115967753D01*
X149006771Y-115941704D01*
X148961287Y-115934500D01*
X148748713Y-115934500D01*
X148703229Y-115941704D01*
X148538760Y-115967753D01*
X148336585Y-116033444D01*
X148147179Y-116129951D01*
X147975213Y-116254890D01*
X147824890Y-116405213D01*
X147699949Y-116577182D01*
X147695484Y-116585946D01*
X147647509Y-116636742D01*
X147579688Y-116653536D01*
X147513553Y-116630998D01*
X147474516Y-116585946D01*
X147470050Y-116577182D01*
X147345109Y-116405213D01*
X147194786Y-116254890D01*
X147022815Y-116129948D01*
X147022814Y-116129947D01*
X146983205Y-116109765D01*
X146932409Y-116061791D01*
X146915500Y-115999281D01*
X146915500Y-114421153D01*
X148424500Y-114421153D01*
X148424500Y-114578846D01*
X148455261Y-114733489D01*
X148455264Y-114733501D01*
X148515602Y-114879172D01*
X148515609Y-114879185D01*
X148603210Y-115010288D01*
X148603213Y-115010292D01*
X148714707Y-115121786D01*
X148714711Y-115121789D01*
X148845814Y-115209390D01*
X148845827Y-115209397D01*
X148989108Y-115268745D01*
X148991503Y-115269737D01*
X149146153Y-115300499D01*
X149146156Y-115300500D01*
X149146158Y-115300500D01*
X149303844Y-115300500D01*
X149303845Y-115300499D01*
X149458497Y-115269737D01*
X149604179Y-115209394D01*
X149735289Y-115121789D01*
X149846789Y-115010289D01*
X149934394Y-114879179D01*
X149939049Y-114867942D01*
X149948067Y-114846166D01*
X149994737Y-114733497D01*
X150025500Y-114578842D01*
X150025500Y-114421158D01*
X150025500Y-114421155D01*
X150025499Y-114421153D01*
X149994738Y-114266510D01*
X149994737Y-114266503D01*
X149994735Y-114266498D01*
X149934397Y-114120827D01*
X149934390Y-114120814D01*
X149846789Y-113989711D01*
X149846786Y-113989707D01*
X149735292Y-113878213D01*
X149735288Y-113878210D01*
X149604185Y-113790609D01*
X149604173Y-113790602D01*
X149577674Y-113779627D01*
X149458501Y-113730264D01*
X149458489Y-113730261D01*
X149303845Y-113699500D01*
X149303842Y-113699500D01*
X149146158Y-113699500D01*
X149146155Y-113699500D01*
X148991510Y-113730261D01*
X148991498Y-113730264D01*
X148845827Y-113790602D01*
X148845814Y-113790609D01*
X148714711Y-113878210D01*
X148714707Y-113878213D01*
X148603213Y-113989707D01*
X148603210Y-113989711D01*
X148515609Y-114120814D01*
X148515602Y-114120827D01*
X148455264Y-114266498D01*
X148455261Y-114266510D01*
X148424500Y-114421153D01*
X146915500Y-114421153D01*
X146915500Y-113671153D01*
X151199500Y-113671153D01*
X151199500Y-113828846D01*
X151230261Y-113983489D01*
X151230264Y-113983501D01*
X151290602Y-114129172D01*
X151290609Y-114129185D01*
X151378210Y-114260288D01*
X151378213Y-114260292D01*
X151489707Y-114371786D01*
X151489711Y-114371789D01*
X151620814Y-114459390D01*
X151620827Y-114459397D01*
X151694078Y-114489738D01*
X151766503Y-114519737D01*
X151902487Y-114546786D01*
X151921153Y-114550499D01*
X151921156Y-114550500D01*
X151921158Y-114550500D01*
X152078844Y-114550500D01*
X152078845Y-114550499D01*
X152233497Y-114519737D01*
X152379179Y-114459394D01*
X152510289Y-114371789D01*
X152621789Y-114260289D01*
X152709394Y-114129179D01*
X152712854Y-114120827D01*
X152753876Y-114021789D01*
X152769737Y-113983497D01*
X152800500Y-113828842D01*
X152800500Y-113671158D01*
X152800500Y-113671155D01*
X152800499Y-113671153D01*
X152789880Y-113617767D01*
X152769737Y-113516503D01*
X152768929Y-113514553D01*
X152709397Y-113370827D01*
X152709390Y-113370814D01*
X152621789Y-113239711D01*
X152621786Y-113239707D01*
X152510292Y-113128213D01*
X152510288Y-113128210D01*
X152379185Y-113040609D01*
X152379172Y-113040602D01*
X152233501Y-112980264D01*
X152233489Y-112980261D01*
X152078845Y-112949500D01*
X152078842Y-112949500D01*
X151921158Y-112949500D01*
X151921155Y-112949500D01*
X151766510Y-112980261D01*
X151766498Y-112980264D01*
X151620827Y-113040602D01*
X151620814Y-113040609D01*
X151489711Y-113128210D01*
X151489707Y-113128213D01*
X151378213Y-113239707D01*
X151378210Y-113239711D01*
X151290609Y-113370814D01*
X151290602Y-113370827D01*
X151230264Y-113516498D01*
X151230261Y-113516510D01*
X151199500Y-113671153D01*
X146915500Y-113671153D01*
X146915500Y-111921153D01*
X152199500Y-111921153D01*
X152199500Y-112078846D01*
X152230261Y-112233489D01*
X152230264Y-112233501D01*
X152290602Y-112379172D01*
X152290609Y-112379185D01*
X152378210Y-112510288D01*
X152378213Y-112510292D01*
X152489707Y-112621786D01*
X152489711Y-112621789D01*
X152620814Y-112709390D01*
X152620827Y-112709397D01*
X152766498Y-112769735D01*
X152766503Y-112769737D01*
X152921153Y-112800499D01*
X152921156Y-112800500D01*
X152921158Y-112800500D01*
X153078844Y-112800500D01*
X153078845Y-112800499D01*
X153233497Y-112769737D01*
X153379179Y-112709394D01*
X153510289Y-112621789D01*
X153621789Y-112510289D01*
X153709394Y-112379179D01*
X153717337Y-112360004D01*
X153732101Y-112324360D01*
X153769737Y-112233497D01*
X153800500Y-112078842D01*
X153800500Y-111921158D01*
X153800500Y-111921155D01*
X153800499Y-111921153D01*
X153777311Y-111804581D01*
X153769737Y-111766503D01*
X153768721Y-111764049D01*
X153709397Y-111620827D01*
X153709390Y-111620814D01*
X153621789Y-111489711D01*
X153621786Y-111489707D01*
X153510292Y-111378213D01*
X153510288Y-111378210D01*
X153379185Y-111290609D01*
X153379172Y-111290602D01*
X153233501Y-111230264D01*
X153233489Y-111230261D01*
X153078845Y-111199500D01*
X153078842Y-111199500D01*
X152921158Y-111199500D01*
X152921155Y-111199500D01*
X152766510Y-111230261D01*
X152766498Y-111230264D01*
X152620827Y-111290602D01*
X152620814Y-111290609D01*
X152489711Y-111378210D01*
X152489707Y-111378213D01*
X152378213Y-111489707D01*
X152378210Y-111489711D01*
X152290609Y-111620814D01*
X152290602Y-111620827D01*
X152230264Y-111766498D01*
X152230261Y-111766510D01*
X152199500Y-111921153D01*
X146915500Y-111921153D01*
X146915500Y-104791722D01*
X146935185Y-104724683D01*
X146951814Y-104704046D01*
X148084400Y-103571459D01*
X148145721Y-103537976D01*
X148215413Y-103542960D01*
X148240970Y-103556040D01*
X148320814Y-103609390D01*
X148320827Y-103609397D01*
X148466498Y-103669735D01*
X148466503Y-103669737D01*
X148621153Y-103700499D01*
X148621156Y-103700500D01*
X148621158Y-103700500D01*
X148778844Y-103700500D01*
X148778845Y-103700499D01*
X148933497Y-103669737D01*
X149079179Y-103609394D01*
X149100721Y-103595000D01*
X149210875Y-103521398D01*
X149277553Y-103500520D01*
X149279766Y-103500500D01*
X149713331Y-103500500D01*
X149713347Y-103500501D01*
X149720943Y-103500501D01*
X149879054Y-103500501D01*
X149879057Y-103500501D01*
X150031785Y-103459577D01*
X150084647Y-103429057D01*
X150084648Y-103429057D01*
X150168709Y-103380524D01*
X150168708Y-103380524D01*
X150168716Y-103380520D01*
X150280520Y-103268716D01*
X150280520Y-103268714D01*
X150290724Y-103258511D01*
X150290727Y-103258506D01*
X151112416Y-102436819D01*
X151139343Y-102422115D01*
X151165162Y-102405523D01*
X151171362Y-102404631D01*
X151173739Y-102403334D01*
X151200097Y-102400500D01*
X151413331Y-102400500D01*
X151413347Y-102400501D01*
X151420943Y-102400501D01*
X151579054Y-102400501D01*
X151579057Y-102400501D01*
X151731785Y-102359577D01*
X151763202Y-102341437D01*
X151805335Y-102317113D01*
X151867335Y-102300500D01*
X151878844Y-102300500D01*
X151878845Y-102300499D01*
X152033497Y-102269737D01*
X152112994Y-102236807D01*
X152182462Y-102229339D01*
X152229337Y-102248267D01*
X152320814Y-102309390D01*
X152320827Y-102309397D01*
X152441974Y-102359577D01*
X152466503Y-102369737D01*
X152621153Y-102400499D01*
X152621156Y-102400500D01*
X152621158Y-102400500D01*
X152778844Y-102400500D01*
X152778845Y-102400499D01*
X152933497Y-102369737D01*
X153079179Y-102309394D01*
X153210289Y-102221789D01*
X153263551Y-102168527D01*
X153324874Y-102135041D01*
X153394566Y-102140025D01*
X153398677Y-102141642D01*
X153466503Y-102169737D01*
X153466506Y-102169737D01*
X153466511Y-102169739D01*
X153621153Y-102200499D01*
X153621156Y-102200500D01*
X153621158Y-102200500D01*
X153778844Y-102200500D01*
X153778845Y-102200499D01*
X153933497Y-102169737D01*
X154079179Y-102109394D01*
X154210289Y-102021789D01*
X154321789Y-101910289D01*
X154329460Y-101898807D01*
X154383070Y-101854000D01*
X154452395Y-101845290D01*
X154515424Y-101875442D01*
G37*
%TD.AperFunction*%
%TA.AperFunction,Conductor*%
G36*
X156905703Y-103380384D02*
G01*
X156912181Y-103386416D01*
X163458181Y-109932416D01*
X163491666Y-109993739D01*
X163494500Y-110020097D01*
X163494500Y-115999281D01*
X163474815Y-116066320D01*
X163426795Y-116109765D01*
X163387185Y-116129947D01*
X163387184Y-116129948D01*
X163215213Y-116254890D01*
X163064890Y-116405213D01*
X162939949Y-116577182D01*
X162935484Y-116585946D01*
X162887509Y-116636742D01*
X162819688Y-116653536D01*
X162753553Y-116630998D01*
X162714516Y-116585946D01*
X162710050Y-116577182D01*
X162585109Y-116405213D01*
X162434786Y-116254890D01*
X162262820Y-116129951D01*
X162073414Y-116033444D01*
X162073413Y-116033443D01*
X162073412Y-116033443D01*
X161871243Y-115967754D01*
X161871241Y-115967753D01*
X161871240Y-115967753D01*
X161706771Y-115941704D01*
X161661287Y-115934500D01*
X161448713Y-115934500D01*
X161403229Y-115941704D01*
X161238760Y-115967753D01*
X161036585Y-116033444D01*
X160847179Y-116129951D01*
X160675213Y-116254890D01*
X160524890Y-116405213D01*
X160399949Y-116577182D01*
X160395484Y-116585946D01*
X160347509Y-116636742D01*
X160279688Y-116653536D01*
X160213553Y-116630998D01*
X160174516Y-116585946D01*
X160170050Y-116577182D01*
X160045109Y-116405213D01*
X159894786Y-116254890D01*
X159722820Y-116129951D01*
X159533414Y-116033444D01*
X159533413Y-116033443D01*
X159533412Y-116033443D01*
X159331243Y-115967754D01*
X159331241Y-115967753D01*
X159331240Y-115967753D01*
X159166771Y-115941704D01*
X159121287Y-115934500D01*
X158908713Y-115934500D01*
X158863229Y-115941704D01*
X158698760Y-115967753D01*
X158496585Y-116033444D01*
X158307179Y-116129951D01*
X158135213Y-116254890D01*
X158087945Y-116302158D01*
X158026622Y-116335642D01*
X157956930Y-116330657D01*
X157912584Y-116302157D01*
X156736819Y-115126392D01*
X156703334Y-115065069D01*
X156700500Y-115038711D01*
X156700500Y-112721153D01*
X157949500Y-112721153D01*
X157949500Y-112878846D01*
X157980261Y-113033489D01*
X157980264Y-113033501D01*
X158040602Y-113179172D01*
X158040609Y-113179185D01*
X158128210Y-113310288D01*
X158128213Y-113310292D01*
X158239707Y-113421786D01*
X158239711Y-113421789D01*
X158370814Y-113509390D01*
X158370827Y-113509397D01*
X158499275Y-113562601D01*
X158516503Y-113569737D01*
X158642176Y-113594735D01*
X158671153Y-113600499D01*
X158671156Y-113600500D01*
X158671158Y-113600500D01*
X158828844Y-113600500D01*
X158828845Y-113600499D01*
X158983497Y-113569737D01*
X159129179Y-113509394D01*
X159260289Y-113421789D01*
X159371789Y-113310289D01*
X159459394Y-113179179D01*
X159519737Y-113033497D01*
X159550500Y-112878842D01*
X159550500Y-112721158D01*
X159550500Y-112721155D01*
X159550499Y-112721153D01*
X159546192Y-112699500D01*
X159519737Y-112566503D01*
X159499760Y-112518273D01*
X159459397Y-112420827D01*
X159459390Y-112420814D01*
X159371789Y-112289711D01*
X159371786Y-112289707D01*
X159260292Y-112178213D01*
X159260288Y-112178210D01*
X159129185Y-112090609D01*
X159129172Y-112090602D01*
X158983501Y-112030264D01*
X158983489Y-112030261D01*
X158828845Y-111999500D01*
X158828842Y-111999500D01*
X158671158Y-111999500D01*
X158671155Y-111999500D01*
X158516510Y-112030261D01*
X158516498Y-112030264D01*
X158370827Y-112090602D01*
X158370814Y-112090609D01*
X158239711Y-112178210D01*
X158239707Y-112178213D01*
X158128213Y-112289707D01*
X158128210Y-112289711D01*
X158040609Y-112420814D01*
X158040602Y-112420827D01*
X157980264Y-112566498D01*
X157980261Y-112566510D01*
X157949500Y-112721153D01*
X156700500Y-112721153D01*
X156700500Y-103474097D01*
X156720185Y-103407058D01*
X156772989Y-103361303D01*
X156842147Y-103351359D01*
X156905703Y-103380384D01*
G37*
%TD.AperFunction*%
%TA.AperFunction,Conductor*%
G36*
X160917941Y-95620185D02*
G01*
X160963696Y-95672989D01*
X160973640Y-95742147D01*
X160944615Y-95805703D01*
X160938583Y-95812181D01*
X160619481Y-96131282D01*
X160619480Y-96131284D01*
X160576761Y-96205276D01*
X160567591Y-96221159D01*
X160541954Y-96265564D01*
X160540423Y-96268215D01*
X160499499Y-96420943D01*
X160499499Y-96420945D01*
X160499499Y-96589046D01*
X160499500Y-96589059D01*
X160499500Y-103263330D01*
X160499499Y-103263348D01*
X160499499Y-103429054D01*
X160499498Y-103429054D01*
X160540423Y-103581786D01*
X160555630Y-103608123D01*
X160555631Y-103608128D01*
X160555633Y-103608128D01*
X160596654Y-103679179D01*
X160619479Y-103718714D01*
X160619481Y-103718717D01*
X160738349Y-103837585D01*
X160738355Y-103837590D01*
X169013584Y-112112819D01*
X169047069Y-112174142D01*
X169042085Y-112243834D01*
X169000213Y-112299767D01*
X168934749Y-112324184D01*
X168925903Y-112324500D01*
X168796155Y-112324500D01*
X168641510Y-112355261D01*
X168641498Y-112355264D01*
X168495827Y-112415602D01*
X168495814Y-112415609D01*
X168364711Y-112503210D01*
X168364707Y-112503213D01*
X168253215Y-112614706D01*
X168253210Y-112614711D01*
X168165609Y-112745814D01*
X168165602Y-112745827D01*
X168105264Y-112891498D01*
X168105261Y-112891510D01*
X168074500Y-113046153D01*
X168074500Y-113203846D01*
X168105261Y-113358489D01*
X168105264Y-113358501D01*
X168165602Y-113504172D01*
X168165609Y-113504185D01*
X168253210Y-113635288D01*
X168253213Y-113635292D01*
X168364707Y-113746786D01*
X168364711Y-113746789D01*
X168495814Y-113834390D01*
X168495827Y-113834397D01*
X168641498Y-113894735D01*
X168641503Y-113894737D01*
X168796153Y-113925499D01*
X168796156Y-113925500D01*
X168796158Y-113925500D01*
X168953844Y-113925500D01*
X168953845Y-113925499D01*
X169108497Y-113894737D01*
X169254179Y-113834394D01*
X169385289Y-113746789D01*
X169496789Y-113635289D01*
X169584394Y-113504179D01*
X169644737Y-113358497D01*
X169675500Y-113203842D01*
X169675500Y-113074097D01*
X169681738Y-113052851D01*
X169683318Y-113030763D01*
X169691390Y-113019979D01*
X169695185Y-113007058D01*
X169711918Y-112992558D01*
X169725190Y-112974830D01*
X169737810Y-112970122D01*
X169747989Y-112961303D01*
X169769906Y-112958151D01*
X169790654Y-112950413D01*
X169803814Y-112953275D01*
X169817147Y-112951359D01*
X169837290Y-112960558D01*
X169858927Y-112965265D01*
X169876652Y-112978533D01*
X169880703Y-112980384D01*
X169887181Y-112986416D01*
X169967181Y-113066416D01*
X170000666Y-113127739D01*
X170003500Y-113154097D01*
X170003500Y-115989090D01*
X169983815Y-116056129D01*
X169931011Y-116101884D01*
X169861853Y-116111828D01*
X169823206Y-116099575D01*
X169693417Y-116033445D01*
X169693414Y-116033444D01*
X169693412Y-116033443D01*
X169491243Y-115967754D01*
X169491241Y-115967753D01*
X169491240Y-115967753D01*
X169326771Y-115941704D01*
X169281287Y-115934500D01*
X169068713Y-115934500D01*
X169023229Y-115941704D01*
X168858760Y-115967753D01*
X168656585Y-116033444D01*
X168467179Y-116129951D01*
X168295213Y-116254890D01*
X168144890Y-116405213D01*
X168019949Y-116577182D01*
X168015484Y-116585946D01*
X167967509Y-116636742D01*
X167899688Y-116653536D01*
X167833553Y-116630998D01*
X167794516Y-116585946D01*
X167790050Y-116577182D01*
X167665109Y-116405213D01*
X167514786Y-116254890D01*
X167342815Y-116129948D01*
X167342814Y-116129947D01*
X167303205Y-116109765D01*
X167252409Y-116061791D01*
X167235500Y-115999281D01*
X167235500Y-111474060D01*
X167235501Y-111474047D01*
X167235501Y-111305944D01*
X167235501Y-111305943D01*
X167194577Y-111153216D01*
X167124157Y-111031243D01*
X167115524Y-111016290D01*
X167115518Y-111016282D01*
X162845389Y-106746153D01*
X158460080Y-102360845D01*
X158426596Y-102299523D01*
X158431580Y-102229831D01*
X158473452Y-102173898D01*
X158523571Y-102151548D01*
X158528840Y-102150500D01*
X158528842Y-102150500D01*
X158683497Y-102119737D01*
X158829179Y-102059394D01*
X158960289Y-101971789D01*
X159071789Y-101860289D01*
X159159394Y-101729179D01*
X159219737Y-101583497D01*
X159250500Y-101428842D01*
X159250500Y-101271158D01*
X159250500Y-101271155D01*
X159250499Y-101271153D01*
X159230326Y-101169737D01*
X159219737Y-101116503D01*
X159216791Y-101109390D01*
X159159397Y-100970827D01*
X159159390Y-100970814D01*
X159071789Y-100839711D01*
X159071786Y-100839707D01*
X158960292Y-100728213D01*
X158960288Y-100728210D01*
X158829185Y-100640609D01*
X158829172Y-100640602D01*
X158683501Y-100580264D01*
X158683489Y-100580261D01*
X158528845Y-100549500D01*
X158528842Y-100549500D01*
X158371158Y-100549500D01*
X158348690Y-100553969D01*
X158279099Y-100547740D01*
X158223922Y-100504877D01*
X158200678Y-100438987D01*
X158200500Y-100432351D01*
X158200500Y-100346155D01*
X158200499Y-100346153D01*
X158195527Y-100321158D01*
X158169737Y-100191503D01*
X158159380Y-100166498D01*
X158109397Y-100045827D01*
X158109390Y-100045814D01*
X158021789Y-99914711D01*
X158021786Y-99914707D01*
X157910292Y-99803213D01*
X157910288Y-99803210D01*
X157779185Y-99715609D01*
X157779172Y-99715602D01*
X157633501Y-99655264D01*
X157633489Y-99655261D01*
X157478845Y-99624500D01*
X157478842Y-99624500D01*
X157321158Y-99624500D01*
X157321155Y-99624500D01*
X157166510Y-99655261D01*
X157166498Y-99655264D01*
X157020827Y-99715602D01*
X157020814Y-99715609D01*
X156889711Y-99803210D01*
X156889707Y-99803213D01*
X156778213Y-99914707D01*
X156778210Y-99914711D01*
X156690609Y-100045814D01*
X156690602Y-100045827D01*
X156630264Y-100191498D01*
X156630261Y-100191508D01*
X156619190Y-100247167D01*
X156586805Y-100309078D01*
X156526089Y-100343652D01*
X156456319Y-100339911D01*
X156409892Y-100310656D01*
X152037753Y-95938518D01*
X152030521Y-95931286D01*
X152030520Y-95931284D01*
X151918716Y-95819480D01*
X151917661Y-95818871D01*
X151911110Y-95812344D01*
X151898003Y-95788446D01*
X151881933Y-95766431D01*
X151881447Y-95758260D01*
X151877511Y-95751083D01*
X151879404Y-95723892D01*
X151877788Y-95696684D01*
X151881797Y-95689547D01*
X151882366Y-95681382D01*
X151898658Y-95659534D01*
X151912009Y-95635769D01*
X151919241Y-95631932D01*
X151924134Y-95625371D01*
X151949649Y-95615800D01*
X151973731Y-95603025D01*
X151987406Y-95601638D01*
X151989553Y-95600833D01*
X151991405Y-95601232D01*
X151998628Y-95600500D01*
X160850902Y-95600500D01*
X160917941Y-95620185D01*
G37*
%TD.AperFunction*%
%TA.AperFunction,Conductor*%
G36*
X170527942Y-99781185D02*
G01*
X170548584Y-99797819D01*
X171763181Y-101012416D01*
X171796666Y-101073739D01*
X171799500Y-101100097D01*
X171799500Y-114613330D01*
X171799499Y-114613348D01*
X171799499Y-114779054D01*
X171799498Y-114779054D01*
X171799499Y-114779057D01*
X171837125Y-114919478D01*
X171840424Y-114931787D01*
X171849804Y-114948033D01*
X171849805Y-114948035D01*
X171919477Y-115068712D01*
X171919481Y-115068717D01*
X172038349Y-115187585D01*
X172038355Y-115187590D01*
X172463181Y-115612416D01*
X172496666Y-115673739D01*
X172499500Y-115700097D01*
X172499500Y-115966671D01*
X172479815Y-116033710D01*
X172427011Y-116079465D01*
X172357853Y-116089409D01*
X172319206Y-116077156D01*
X172233417Y-116033445D01*
X172233414Y-116033444D01*
X172233412Y-116033443D01*
X172031243Y-115967754D01*
X172031241Y-115967753D01*
X172031240Y-115967753D01*
X171866771Y-115941704D01*
X171821287Y-115934500D01*
X171608713Y-115934500D01*
X171563229Y-115941704D01*
X171398755Y-115967754D01*
X171398752Y-115967754D01*
X171366818Y-115978131D01*
X171296977Y-115980126D01*
X171237144Y-115944046D01*
X171206316Y-115881345D01*
X171204500Y-115860200D01*
X171204500Y-112943060D01*
X171204501Y-112943047D01*
X171204501Y-112774944D01*
X171196788Y-112746158D01*
X171163577Y-112622216D01*
X171163573Y-112622209D01*
X171084524Y-112485290D01*
X171084518Y-112485282D01*
X165520389Y-106921153D01*
X169699500Y-106921153D01*
X169699500Y-107078846D01*
X169730261Y-107233489D01*
X169730264Y-107233501D01*
X169790602Y-107379172D01*
X169790609Y-107379185D01*
X169878210Y-107510288D01*
X169878213Y-107510292D01*
X169989707Y-107621786D01*
X169989711Y-107621789D01*
X170120814Y-107709390D01*
X170120827Y-107709397D01*
X170254830Y-107764902D01*
X170266503Y-107769737D01*
X170421153Y-107800499D01*
X170421156Y-107800500D01*
X170421158Y-107800500D01*
X170578844Y-107800500D01*
X170578845Y-107800499D01*
X170733497Y-107769737D01*
X170879179Y-107709394D01*
X171010289Y-107621789D01*
X171121789Y-107510289D01*
X171209394Y-107379179D01*
X171212854Y-107370827D01*
X171227574Y-107335288D01*
X171269737Y-107233497D01*
X171300500Y-107078842D01*
X171300500Y-106921158D01*
X171300500Y-106921155D01*
X171300499Y-106921153D01*
X171275309Y-106794516D01*
X171269737Y-106766503D01*
X171227739Y-106665109D01*
X171209397Y-106620827D01*
X171209390Y-106620814D01*
X171121789Y-106489711D01*
X171121786Y-106489707D01*
X171010292Y-106378213D01*
X171010288Y-106378210D01*
X170879185Y-106290609D01*
X170879172Y-106290602D01*
X170733501Y-106230264D01*
X170733489Y-106230261D01*
X170578845Y-106199500D01*
X170578842Y-106199500D01*
X170421158Y-106199500D01*
X170421155Y-106199500D01*
X170266510Y-106230261D01*
X170266498Y-106230264D01*
X170120827Y-106290602D01*
X170120814Y-106290609D01*
X169989711Y-106378210D01*
X169989707Y-106378213D01*
X169878213Y-106489707D01*
X169878210Y-106489711D01*
X169790609Y-106620814D01*
X169790602Y-106620827D01*
X169730264Y-106766498D01*
X169730261Y-106766510D01*
X169699500Y-106921153D01*
X165520389Y-106921153D01*
X161736819Y-103137583D01*
X161703334Y-103076260D01*
X161700500Y-103049902D01*
X161700500Y-101524500D01*
X161720185Y-101457461D01*
X161772989Y-101411706D01*
X161824500Y-101400500D01*
X161978844Y-101400500D01*
X161978845Y-101400499D01*
X162133497Y-101369737D01*
X162279179Y-101309394D01*
X162410289Y-101221789D01*
X162521789Y-101110289D01*
X162609394Y-100979179D01*
X162609396Y-100979172D01*
X162612264Y-100973809D01*
X162614213Y-100974851D01*
X162651796Y-100928174D01*
X162718081Y-100906081D01*
X162785787Y-100923331D01*
X162810240Y-100942319D01*
X162889707Y-101021786D01*
X162889711Y-101021789D01*
X163020814Y-101109390D01*
X163020827Y-101109397D01*
X163166498Y-101169735D01*
X163166503Y-101169737D01*
X163292186Y-101194737D01*
X163321153Y-101200499D01*
X163321156Y-101200500D01*
X163321158Y-101200500D01*
X163478844Y-101200500D01*
X163478845Y-101200499D01*
X163633497Y-101169737D01*
X163779179Y-101109394D01*
X163910289Y-101021789D01*
X164021789Y-100910289D01*
X164109394Y-100779179D01*
X164169737Y-100633497D01*
X164200500Y-100478842D01*
X164200500Y-100321158D01*
X164200500Y-100321155D01*
X164200499Y-100321153D01*
X164190271Y-100269735D01*
X164169737Y-100166503D01*
X164119752Y-100045827D01*
X164109397Y-100020827D01*
X164109395Y-100020823D01*
X164109394Y-100020821D01*
X164065007Y-99954391D01*
X164044129Y-99887714D01*
X164062613Y-99820334D01*
X164114592Y-99773643D01*
X164168109Y-99761500D01*
X170460903Y-99761500D01*
X170527942Y-99781185D01*
G37*
%TD.AperFunction*%
%TA.AperFunction,Conductor*%
G36*
X118092941Y-85545185D02*
G01*
X118138696Y-85597989D01*
X118148640Y-85667147D01*
X118119615Y-85730703D01*
X118113583Y-85737181D01*
X109631286Y-94219478D01*
X109631284Y-94219480D01*
X109570039Y-94280725D01*
X109538651Y-94312113D01*
X109477327Y-94345597D01*
X109407636Y-94340613D01*
X109351702Y-94298741D01*
X109340485Y-94280725D01*
X109301434Y-94204082D01*
X109282316Y-94177769D01*
X109174172Y-94028922D01*
X109121063Y-93975813D01*
X109087579Y-93914491D01*
X109092563Y-93844799D01*
X109134435Y-93788866D01*
X109165413Y-93771951D01*
X109242084Y-93743355D01*
X109242093Y-93743350D01*
X109357187Y-93657190D01*
X109357190Y-93657187D01*
X109443350Y-93542093D01*
X109443354Y-93542086D01*
X109493596Y-93407379D01*
X109493598Y-93407372D01*
X109499999Y-93347844D01*
X109500000Y-93347827D01*
X109500000Y-92675000D01*
X108183012Y-92675000D01*
X108215925Y-92617993D01*
X108250000Y-92490826D01*
X108250000Y-92359174D01*
X108215925Y-92232007D01*
X108183012Y-92175000D01*
X109500000Y-92175000D01*
X109500000Y-91502172D01*
X109499999Y-91502155D01*
X109493598Y-91442627D01*
X109493596Y-91442620D01*
X109443354Y-91307913D01*
X109443350Y-91307906D01*
X109357190Y-91192812D01*
X109357187Y-91192809D01*
X109242093Y-91106649D01*
X109242086Y-91106645D01*
X109107379Y-91056403D01*
X109107372Y-91056401D01*
X109047844Y-91050000D01*
X108000000Y-91050000D01*
X108000000Y-91991988D01*
X107942993Y-91959075D01*
X107815826Y-91925000D01*
X107684174Y-91925000D01*
X107557007Y-91959075D01*
X107500000Y-91991988D01*
X107500000Y-91050000D01*
X106452155Y-91050000D01*
X106392627Y-91056401D01*
X106392620Y-91056403D01*
X106257913Y-91106645D01*
X106257906Y-91106649D01*
X106142812Y-91192809D01*
X106142809Y-91192812D01*
X106056649Y-91307906D01*
X106056645Y-91307913D01*
X106006403Y-91442620D01*
X106006401Y-91442627D01*
X106000000Y-91502155D01*
X106000000Y-92175000D01*
X107316988Y-92175000D01*
X107284075Y-92232007D01*
X107250000Y-92359174D01*
X107250000Y-92490826D01*
X107284075Y-92617993D01*
X107316988Y-92675000D01*
X106000000Y-92675000D01*
X106000000Y-93347844D01*
X106006401Y-93407372D01*
X106006403Y-93407379D01*
X106056645Y-93542086D01*
X106056649Y-93542093D01*
X106142809Y-93657187D01*
X106142812Y-93657190D01*
X106257906Y-93743350D01*
X106257915Y-93743355D01*
X106334586Y-93771951D01*
X106390520Y-93813821D01*
X106414938Y-93879285D01*
X106400087Y-93947559D01*
X106378936Y-93975813D01*
X106325831Y-94028918D01*
X106325830Y-94028920D01*
X106325828Y-94028922D01*
X106271174Y-94104145D01*
X106198567Y-94204080D01*
X106100273Y-94396990D01*
X106100272Y-94396993D01*
X106033370Y-94602901D01*
X106003499Y-94791498D01*
X105999500Y-94816746D01*
X105999500Y-95033254D01*
X106008441Y-95089704D01*
X106033370Y-95247098D01*
X106100272Y-95453006D01*
X106100273Y-95453009D01*
X106188097Y-95625371D01*
X106198567Y-95645919D01*
X106325828Y-95821078D01*
X106478922Y-95974172D01*
X106508711Y-95995815D01*
X106617261Y-96074682D01*
X106659926Y-96130013D01*
X106665905Y-96199626D01*
X106633299Y-96261421D01*
X106617261Y-96275318D01*
X106478920Y-96375829D01*
X106325830Y-96528919D01*
X106325830Y-96528920D01*
X106325828Y-96528922D01*
X106288598Y-96580165D01*
X106198567Y-96704080D01*
X106100273Y-96896990D01*
X106100272Y-96896993D01*
X106033370Y-97102901D01*
X106014641Y-97221153D01*
X105999500Y-97316746D01*
X105999500Y-97533254D01*
X106009279Y-97594994D01*
X106033370Y-97747098D01*
X106100272Y-97953006D01*
X106100273Y-97953009D01*
X106191109Y-98131282D01*
X106198567Y-98145919D01*
X106325828Y-98321078D01*
X106478922Y-98474172D01*
X106654081Y-98601433D01*
X106715371Y-98632662D01*
X106846990Y-98699726D01*
X106846993Y-98699727D01*
X106941022Y-98730278D01*
X107052903Y-98766630D01*
X107266746Y-98800500D01*
X107266747Y-98800500D01*
X108233253Y-98800500D01*
X108233254Y-98800500D01*
X108447097Y-98766630D01*
X108653009Y-98699726D01*
X108845919Y-98601433D01*
X109021078Y-98474172D01*
X109174172Y-98321078D01*
X109175177Y-98319693D01*
X109175694Y-98319295D01*
X109177336Y-98317373D01*
X109177739Y-98317717D01*
X109230503Y-98277024D01*
X109300116Y-98271040D01*
X109361913Y-98303641D01*
X109396275Y-98364477D01*
X109399500Y-98392572D01*
X109399500Y-107764902D01*
X109379815Y-107831941D01*
X109363181Y-107852583D01*
X108912181Y-108303583D01*
X108850858Y-108337068D01*
X108781166Y-108332084D01*
X108725233Y-108290212D01*
X108700816Y-108224748D01*
X108700500Y-108215902D01*
X108700500Y-108068713D01*
X108667246Y-107858757D01*
X108601557Y-107656588D01*
X108505051Y-107467184D01*
X108505049Y-107467181D01*
X108505048Y-107467179D01*
X108380109Y-107295213D01*
X108229786Y-107144890D01*
X108057820Y-107019951D01*
X108057115Y-107019591D01*
X108049054Y-107015485D01*
X107998259Y-106967512D01*
X107981463Y-106899692D01*
X108003999Y-106833556D01*
X108049054Y-106794515D01*
X108057816Y-106790051D01*
X108118237Y-106746153D01*
X108229786Y-106665109D01*
X108229788Y-106665106D01*
X108229792Y-106665104D01*
X108380104Y-106514792D01*
X108380106Y-106514788D01*
X108380109Y-106514786D01*
X108505048Y-106342820D01*
X108505047Y-106342820D01*
X108505051Y-106342816D01*
X108601557Y-106153412D01*
X108667246Y-105951243D01*
X108700500Y-105741287D01*
X108700500Y-105528713D01*
X108667246Y-105318757D01*
X108601557Y-105116588D01*
X108505051Y-104927184D01*
X108505049Y-104927181D01*
X108505048Y-104927179D01*
X108380109Y-104755213D01*
X108266181Y-104641285D01*
X108232696Y-104579962D01*
X108237680Y-104510270D01*
X108279552Y-104454337D01*
X108310529Y-104437422D01*
X108442086Y-104388354D01*
X108442093Y-104388350D01*
X108557187Y-104302190D01*
X108557190Y-104302187D01*
X108643350Y-104187093D01*
X108643354Y-104187086D01*
X108693596Y-104052379D01*
X108693598Y-104052372D01*
X108699999Y-103992844D01*
X108700000Y-103992827D01*
X108700000Y-103345000D01*
X107783012Y-103345000D01*
X107815925Y-103287993D01*
X107850000Y-103160826D01*
X107850000Y-103029174D01*
X107815925Y-102902007D01*
X107783012Y-102845000D01*
X108700000Y-102845000D01*
X108700000Y-102197172D01*
X108699999Y-102197155D01*
X108693598Y-102137627D01*
X108693596Y-102137620D01*
X108643354Y-102002913D01*
X108643350Y-102002906D01*
X108557190Y-101887812D01*
X108557187Y-101887809D01*
X108442093Y-101801649D01*
X108442086Y-101801645D01*
X108307379Y-101751403D01*
X108307372Y-101751401D01*
X108247844Y-101745000D01*
X107600000Y-101745000D01*
X107600000Y-102661988D01*
X107542993Y-102629075D01*
X107415826Y-102595000D01*
X107284174Y-102595000D01*
X107157007Y-102629075D01*
X107100000Y-102661988D01*
X107100000Y-101745000D01*
X106452155Y-101745000D01*
X106392627Y-101751401D01*
X106392620Y-101751403D01*
X106257913Y-101801645D01*
X106257906Y-101801649D01*
X106142812Y-101887809D01*
X106142809Y-101887812D01*
X106056649Y-102002906D01*
X106056645Y-102002913D01*
X106006403Y-102137620D01*
X106006401Y-102137627D01*
X106000000Y-102197155D01*
X106000000Y-102845000D01*
X106916988Y-102845000D01*
X106884075Y-102902007D01*
X106850000Y-103029174D01*
X106850000Y-103160826D01*
X106884075Y-103287993D01*
X106916988Y-103345000D01*
X106000000Y-103345000D01*
X106000000Y-103992844D01*
X106006401Y-104052372D01*
X106006403Y-104052379D01*
X106056645Y-104187086D01*
X106056649Y-104187093D01*
X106142809Y-104302187D01*
X106142812Y-104302190D01*
X106257906Y-104388350D01*
X106257913Y-104388354D01*
X106389470Y-104437422D01*
X106445404Y-104479293D01*
X106469821Y-104544758D01*
X106454969Y-104613031D01*
X106433819Y-104641285D01*
X106319889Y-104755215D01*
X106194951Y-104927179D01*
X106098444Y-105116585D01*
X106032753Y-105318760D01*
X105999500Y-105528713D01*
X105999500Y-105741287D01*
X106032754Y-105951243D01*
X106066552Y-106055263D01*
X106098444Y-106153414D01*
X106194951Y-106342820D01*
X106319890Y-106514786D01*
X106470213Y-106665109D01*
X106642182Y-106790050D01*
X106650946Y-106794516D01*
X106701742Y-106842491D01*
X106718536Y-106910312D01*
X106695998Y-106976447D01*
X106650946Y-107015484D01*
X106642182Y-107019949D01*
X106470213Y-107144890D01*
X106319890Y-107295213D01*
X106194951Y-107467179D01*
X106098444Y-107656585D01*
X106032753Y-107858760D01*
X105999500Y-108068713D01*
X105999500Y-108281286D01*
X106027709Y-108459394D01*
X106032754Y-108491243D01*
X106097532Y-108690609D01*
X106098444Y-108693414D01*
X106194951Y-108882820D01*
X106319890Y-109054786D01*
X106470213Y-109205109D01*
X106642182Y-109330050D01*
X106650946Y-109334516D01*
X106701742Y-109382491D01*
X106718536Y-109450312D01*
X106695998Y-109516447D01*
X106650946Y-109555484D01*
X106642182Y-109559949D01*
X106470213Y-109684890D01*
X106319890Y-109835213D01*
X106194951Y-110007179D01*
X106098444Y-110196585D01*
X106032753Y-110398760D01*
X106001815Y-110594097D01*
X105999500Y-110608713D01*
X105999500Y-110821287D01*
X106003905Y-110849096D01*
X106030385Y-111016290D01*
X106032754Y-111031243D01*
X106097419Y-111230261D01*
X106098444Y-111233414D01*
X106194951Y-111422820D01*
X106319890Y-111594786D01*
X106470213Y-111745109D01*
X106642182Y-111870050D01*
X106650946Y-111874516D01*
X106701742Y-111922491D01*
X106718536Y-111990312D01*
X106695998Y-112056447D01*
X106650946Y-112095484D01*
X106642182Y-112099949D01*
X106470213Y-112224890D01*
X106319890Y-112375213D01*
X106194951Y-112547179D01*
X106098444Y-112736585D01*
X106098443Y-112736587D01*
X106098443Y-112736588D01*
X106095445Y-112745814D01*
X106032753Y-112938760D01*
X105999500Y-113148713D01*
X105999500Y-113361286D01*
X106032515Y-113569738D01*
X106032754Y-113571243D01*
X106091249Y-113751272D01*
X106098444Y-113773414D01*
X106194951Y-113962820D01*
X106319890Y-114134786D01*
X106470213Y-114285109D01*
X106642182Y-114410050D01*
X106650946Y-114414516D01*
X106701742Y-114462491D01*
X106718536Y-114530312D01*
X106695998Y-114596447D01*
X106650946Y-114635484D01*
X106642182Y-114639949D01*
X106470213Y-114764890D01*
X106319890Y-114915213D01*
X106194951Y-115087179D01*
X106098444Y-115276585D01*
X106098443Y-115276587D01*
X106098443Y-115276588D01*
X106084507Y-115319478D01*
X106032753Y-115478760D01*
X106009082Y-115628213D01*
X105999500Y-115688713D01*
X105999500Y-115901287D01*
X106006272Y-115944046D01*
X106031271Y-116101884D01*
X106032754Y-116111243D01*
X106094786Y-116302158D01*
X106098444Y-116313414D01*
X106194951Y-116502820D01*
X106319890Y-116674786D01*
X106470213Y-116825109D01*
X106642182Y-116950050D01*
X106650946Y-116954516D01*
X106701742Y-117002491D01*
X106718536Y-117070312D01*
X106695998Y-117136447D01*
X106650946Y-117175484D01*
X106642182Y-117179949D01*
X106470213Y-117304890D01*
X106319890Y-117455213D01*
X106194951Y-117627179D01*
X106098444Y-117816585D01*
X106032753Y-118018760D01*
X106001654Y-118215111D01*
X105999500Y-118228713D01*
X105999500Y-118441287D01*
X106000055Y-118444792D01*
X106030260Y-118635500D01*
X106032754Y-118651243D01*
X106056934Y-118725662D01*
X106098444Y-118853414D01*
X106194951Y-119042820D01*
X106319890Y-119214786D01*
X106470213Y-119365109D01*
X106642179Y-119490048D01*
X106642181Y-119490049D01*
X106642184Y-119490051D01*
X106831588Y-119586557D01*
X107033757Y-119652246D01*
X107243713Y-119685500D01*
X107243714Y-119685500D01*
X107456286Y-119685500D01*
X107456287Y-119685500D01*
X107666243Y-119652246D01*
X107868412Y-119586557D01*
X108057816Y-119490051D01*
X108152936Y-119420943D01*
X108229786Y-119365109D01*
X108229788Y-119365106D01*
X108229792Y-119365104D01*
X108380104Y-119214792D01*
X108380106Y-119214788D01*
X108380109Y-119214786D01*
X108505048Y-119042820D01*
X108505047Y-119042820D01*
X108505051Y-119042816D01*
X108601557Y-118853412D01*
X108667246Y-118651243D01*
X108700500Y-118441287D01*
X108700500Y-118228713D01*
X108667246Y-118018757D01*
X108653506Y-117976473D01*
X108651512Y-117906635D01*
X108683755Y-117850478D01*
X109058506Y-117475728D01*
X109058511Y-117475724D01*
X109068714Y-117465520D01*
X109068716Y-117465520D01*
X109180520Y-117353716D01*
X109237333Y-117255312D01*
X109259577Y-117216785D01*
X109264026Y-117200177D01*
X109269330Y-117189354D01*
X109281649Y-117175893D01*
X109292999Y-117156234D01*
X109558506Y-116890728D01*
X109558511Y-116890724D01*
X109568714Y-116880520D01*
X109568716Y-116880520D01*
X109680520Y-116768716D01*
X109702678Y-116730337D01*
X109750189Y-116648046D01*
X109750190Y-116648043D01*
X109759577Y-116631785D01*
X109800500Y-116479057D01*
X109800500Y-116320943D01*
X109800500Y-115500096D01*
X109820185Y-115433057D01*
X109836814Y-115412420D01*
X111883338Y-113365895D01*
X111944659Y-113332412D01*
X112014351Y-113337396D01*
X112070284Y-113379268D01*
X112094701Y-113444732D01*
X112086001Y-113499997D01*
X112048553Y-113592757D01*
X112048549Y-113592767D01*
X111993238Y-113751272D01*
X111945588Y-113912256D01*
X111905716Y-114075316D01*
X111873702Y-114240130D01*
X111873700Y-114240140D01*
X111849631Y-114406254D01*
X111849630Y-114406268D01*
X111833551Y-114573388D01*
X111825503Y-114741044D01*
X111825000Y-114825000D01*
X111825503Y-114908955D01*
X111831732Y-115038711D01*
X111833552Y-115076626D01*
X111839724Y-115140772D01*
X111849630Y-115243731D01*
X111849631Y-115243745D01*
X111873700Y-115409859D01*
X111873702Y-115409869D01*
X111878206Y-115433057D01*
X111905715Y-115574677D01*
X111918806Y-115628213D01*
X111945588Y-115737743D01*
X111993238Y-115898727D01*
X112048549Y-116057232D01*
X112048561Y-116057263D01*
X112111386Y-116212880D01*
X112111398Y-116212910D01*
X112181626Y-116365366D01*
X112181644Y-116365404D01*
X112233612Y-116465313D01*
X112253121Y-116502820D01*
X112259109Y-116514331D01*
X112259111Y-116514334D01*
X112340223Y-116653536D01*
X112343625Y-116659373D01*
X112435002Y-116800205D01*
X112452914Y-116825109D01*
X112533025Y-116936492D01*
X112583283Y-116999735D01*
X112623623Y-117050499D01*
X112637478Y-117067933D01*
X112748087Y-117194187D01*
X112748101Y-117194202D01*
X112831167Y-117280311D01*
X112864655Y-117315025D01*
X112953085Y-117398307D01*
X112986870Y-117430125D01*
X113114449Y-117539220D01*
X113114455Y-117539225D01*
X113114459Y-117539228D01*
X113247135Y-117642091D01*
X113384589Y-117738474D01*
X113526507Y-117828156D01*
X113672561Y-117910931D01*
X113672587Y-117910944D01*
X113672598Y-117910950D01*
X113822388Y-117986594D01*
X113822416Y-117986608D01*
X113878415Y-118011594D01*
X113975715Y-118055008D01*
X113975721Y-118055010D01*
X113975727Y-118055013D01*
X113986973Y-118059397D01*
X114132124Y-118115983D01*
X114132135Y-118115986D01*
X114132141Y-118115989D01*
X114291299Y-118169396D01*
X114452834Y-118215111D01*
X114616375Y-118253028D01*
X114781547Y-118283061D01*
X114947968Y-118305140D01*
X115115256Y-118319214D01*
X115283027Y-118325252D01*
X115450894Y-118323239D01*
X115618472Y-118313180D01*
X115785375Y-118295098D01*
X115951219Y-118269035D01*
X116115623Y-118235050D01*
X116278208Y-118193222D01*
X116438600Y-118143647D01*
X116527481Y-118111431D01*
X116596417Y-118086445D01*
X116596451Y-118086431D01*
X116611827Y-118080008D01*
X116751339Y-118021730D01*
X116902965Y-117949668D01*
X117050962Y-117870419D01*
X117194990Y-117784166D01*
X117334716Y-117691106D01*
X117469820Y-117591455D01*
X117599991Y-117485440D01*
X117724929Y-117373307D01*
X117844347Y-117255312D01*
X117957971Y-117131727D01*
X118065538Y-117002837D01*
X118166803Y-116868938D01*
X118261531Y-116730337D01*
X118349505Y-116587355D01*
X118430523Y-116440318D01*
X118504398Y-116289567D01*
X118570960Y-116135447D01*
X118573029Y-116129947D01*
X118630053Y-115978321D01*
X118630056Y-115978313D01*
X118681550Y-115818526D01*
X118683762Y-115810339D01*
X118725324Y-115656457D01*
X118725327Y-115656444D01*
X118727017Y-115648735D01*
X118761278Y-115492470D01*
X118789328Y-115326950D01*
X118809410Y-115160276D01*
X118821478Y-114992831D01*
X118824205Y-114879172D01*
X118825504Y-114825000D01*
X118825504Y-114824985D01*
X118821479Y-114657206D01*
X118821477Y-114657153D01*
X118818318Y-114613330D01*
X118809410Y-114489724D01*
X118789328Y-114323050D01*
X118761278Y-114157530D01*
X118725325Y-113993546D01*
X118717025Y-113962816D01*
X118681555Y-113831490D01*
X118668380Y-113790609D01*
X118630056Y-113671687D01*
X118629856Y-113671155D01*
X118570966Y-113514567D01*
X118570954Y-113514539D01*
X118549227Y-113464230D01*
X118530622Y-113421153D01*
X132899500Y-113421153D01*
X132899500Y-113578846D01*
X132930261Y-113733489D01*
X132930264Y-113733501D01*
X132990602Y-113879172D01*
X132990609Y-113879185D01*
X133078210Y-114010288D01*
X133078213Y-114010292D01*
X133189707Y-114121786D01*
X133189711Y-114121789D01*
X133320814Y-114209390D01*
X133320827Y-114209397D01*
X133455405Y-114265140D01*
X133466503Y-114269737D01*
X133621153Y-114300499D01*
X133621156Y-114300500D01*
X133621158Y-114300500D01*
X133778844Y-114300500D01*
X133778845Y-114300499D01*
X133933497Y-114269737D01*
X134079179Y-114209394D01*
X134210289Y-114121789D01*
X134321789Y-114010289D01*
X134409394Y-113879179D01*
X134469737Y-113733497D01*
X134500500Y-113578842D01*
X134500500Y-113421158D01*
X134500500Y-113421155D01*
X134500499Y-113421153D01*
X134493393Y-113385428D01*
X134469737Y-113266503D01*
X134469735Y-113266498D01*
X134409397Y-113120827D01*
X134409390Y-113120814D01*
X134321789Y-112989711D01*
X134321786Y-112989707D01*
X134210292Y-112878213D01*
X134210288Y-112878210D01*
X134079185Y-112790609D01*
X134079172Y-112790602D01*
X133933501Y-112730264D01*
X133933489Y-112730261D01*
X133778845Y-112699500D01*
X133778842Y-112699500D01*
X133621158Y-112699500D01*
X133621155Y-112699500D01*
X133466510Y-112730261D01*
X133466498Y-112730264D01*
X133320827Y-112790602D01*
X133320814Y-112790609D01*
X133189711Y-112878210D01*
X133189707Y-112878213D01*
X133078213Y-112989707D01*
X133078210Y-112989711D01*
X132990609Y-113120814D01*
X132990602Y-113120827D01*
X132930264Y-113266498D01*
X132930261Y-113266510D01*
X132899500Y-113421153D01*
X118530622Y-113421153D01*
X118515195Y-113385433D01*
X118504398Y-113360433D01*
X118430523Y-113209682D01*
X118349505Y-113062645D01*
X118261531Y-112919663D01*
X118230866Y-112874795D01*
X118166806Y-112781066D01*
X118166804Y-112781064D01*
X118166803Y-112781062D01*
X118065538Y-112647163D01*
X117957971Y-112518273D01*
X117844347Y-112394688D01*
X117844333Y-112394673D01*
X117724940Y-112276704D01*
X117724916Y-112276681D01*
X117600002Y-112164569D01*
X117599989Y-112164558D01*
X117469821Y-112058545D01*
X117389768Y-111999500D01*
X117334716Y-111958894D01*
X117299784Y-111935629D01*
X117195023Y-111865855D01*
X117194982Y-111865829D01*
X117050971Y-111779586D01*
X117050947Y-111779573D01*
X116902960Y-111700329D01*
X116751337Y-111628269D01*
X116751326Y-111628264D01*
X116596451Y-111563568D01*
X116596417Y-111563554D01*
X116438604Y-111506354D01*
X116438598Y-111506352D01*
X116278233Y-111456785D01*
X116278213Y-111456779D01*
X116278208Y-111456778D01*
X116278196Y-111456774D01*
X116278167Y-111456767D01*
X116115649Y-111414956D01*
X116115627Y-111414951D01*
X116115623Y-111414950D01*
X115951219Y-111380965D01*
X115785375Y-111354902D01*
X115646289Y-111339833D01*
X115618473Y-111336820D01*
X115618462Y-111336819D01*
X115450913Y-111326762D01*
X115450878Y-111326760D01*
X115283040Y-111324748D01*
X115283036Y-111324748D01*
X115283027Y-111324748D01*
X115115256Y-111330786D01*
X114947972Y-111344859D01*
X114781538Y-111366940D01*
X114616374Y-111396972D01*
X114452833Y-111434889D01*
X114452822Y-111434892D01*
X114291301Y-111480603D01*
X114132124Y-111534016D01*
X113975733Y-111594984D01*
X113975715Y-111594991D01*
X113822412Y-111663393D01*
X113822388Y-111663405D01*
X113672598Y-111739049D01*
X113672540Y-111739080D01*
X113526522Y-111821835D01*
X113526496Y-111821851D01*
X113384598Y-111911519D01*
X113247122Y-112007918D01*
X113114449Y-112110779D01*
X112986867Y-112219876D01*
X112986852Y-112219890D01*
X112909514Y-112292727D01*
X112847215Y-112324360D01*
X112777704Y-112317289D01*
X112723051Y-112273760D01*
X112700606Y-112207594D01*
X112700500Y-112202458D01*
X112700500Y-110421153D01*
X135574500Y-110421153D01*
X135574500Y-110578846D01*
X135605261Y-110733489D01*
X135605264Y-110733501D01*
X135665602Y-110879172D01*
X135665609Y-110879185D01*
X135753210Y-111010288D01*
X135753213Y-111010292D01*
X135864707Y-111121786D01*
X135864711Y-111121789D01*
X135995814Y-111209390D01*
X135995827Y-111209397D01*
X136141498Y-111269735D01*
X136141503Y-111269737D01*
X136293152Y-111299902D01*
X136296153Y-111300499D01*
X136296156Y-111300500D01*
X136296158Y-111300500D01*
X136453844Y-111300500D01*
X136453845Y-111300499D01*
X136608497Y-111269737D01*
X136754179Y-111209394D01*
X136885289Y-111121789D01*
X136996789Y-111010289D01*
X137084394Y-110879179D01*
X137144737Y-110733497D01*
X137175500Y-110578842D01*
X137175500Y-110421158D01*
X137175500Y-110421155D01*
X137175499Y-110421153D01*
X137162634Y-110356476D01*
X137144737Y-110266503D01*
X137117398Y-110200500D01*
X137084397Y-110120827D01*
X137084390Y-110120814D01*
X136996789Y-109989711D01*
X136996786Y-109989707D01*
X136885292Y-109878213D01*
X136885288Y-109878210D01*
X136754185Y-109790609D01*
X136754172Y-109790602D01*
X136608501Y-109730264D01*
X136608489Y-109730261D01*
X136453845Y-109699500D01*
X136453842Y-109699500D01*
X136296158Y-109699500D01*
X136296155Y-109699500D01*
X136141510Y-109730261D01*
X136141498Y-109730264D01*
X135995827Y-109790602D01*
X135995814Y-109790609D01*
X135864711Y-109878210D01*
X135864707Y-109878213D01*
X135753213Y-109989707D01*
X135753210Y-109989711D01*
X135665609Y-110120814D01*
X135665602Y-110120827D01*
X135605264Y-110266498D01*
X135605261Y-110266510D01*
X135574500Y-110421153D01*
X112700500Y-110421153D01*
X112700500Y-109321153D01*
X137599500Y-109321153D01*
X137599500Y-109478846D01*
X137630261Y-109633489D01*
X137630264Y-109633501D01*
X137690602Y-109779172D01*
X137690609Y-109779185D01*
X137778210Y-109910288D01*
X137778213Y-109910292D01*
X137889707Y-110021786D01*
X137889711Y-110021789D01*
X138020814Y-110109390D01*
X138020827Y-110109397D01*
X138166498Y-110169735D01*
X138166503Y-110169737D01*
X138301476Y-110196585D01*
X138321153Y-110200499D01*
X138321156Y-110200500D01*
X138321158Y-110200500D01*
X138478844Y-110200500D01*
X138478845Y-110200499D01*
X138633497Y-110169737D01*
X138751592Y-110120821D01*
X138779172Y-110109397D01*
X138779172Y-110109396D01*
X138779179Y-110109394D01*
X138910289Y-110021789D01*
X139021789Y-109910289D01*
X139109394Y-109779179D01*
X139169737Y-109633497D01*
X139200500Y-109478842D01*
X139200500Y-109321158D01*
X139200500Y-109321155D01*
X139200499Y-109321153D01*
X139169738Y-109166510D01*
X139169737Y-109166503D01*
X139169735Y-109166498D01*
X139109397Y-109020827D01*
X139109390Y-109020814D01*
X139021789Y-108889711D01*
X139021786Y-108889707D01*
X138910292Y-108778213D01*
X138910288Y-108778210D01*
X138779185Y-108690609D01*
X138779172Y-108690602D01*
X138633501Y-108630264D01*
X138633489Y-108630261D01*
X138478845Y-108599500D01*
X138478842Y-108599500D01*
X138321158Y-108599500D01*
X138321155Y-108599500D01*
X138166510Y-108630261D01*
X138166498Y-108630264D01*
X138020827Y-108690602D01*
X138020814Y-108690609D01*
X137889711Y-108778210D01*
X137889707Y-108778213D01*
X137778213Y-108889707D01*
X137778210Y-108889711D01*
X137690609Y-109020814D01*
X137690602Y-109020827D01*
X137630264Y-109166498D01*
X137630261Y-109166510D01*
X137599500Y-109321153D01*
X112700500Y-109321153D01*
X112700500Y-97221153D01*
X114249500Y-97221153D01*
X114249500Y-97378846D01*
X114280261Y-97533489D01*
X114280264Y-97533501D01*
X114340602Y-97679172D01*
X114340609Y-97679185D01*
X114428210Y-97810288D01*
X114428213Y-97810292D01*
X114539707Y-97921786D01*
X114539711Y-97921789D01*
X114670814Y-98009390D01*
X114670827Y-98009397D01*
X114816498Y-98069735D01*
X114816503Y-98069737D01*
X114916939Y-98089715D01*
X114971153Y-98100499D01*
X114971156Y-98100500D01*
X114971158Y-98100500D01*
X115128844Y-98100500D01*
X115128845Y-98100499D01*
X115283497Y-98069737D01*
X115429179Y-98009394D01*
X115560289Y-97921789D01*
X115671789Y-97810289D01*
X115759394Y-97679179D01*
X115759880Y-97678007D01*
X115804137Y-97571158D01*
X115819737Y-97533497D01*
X115850500Y-97378842D01*
X115850500Y-97221158D01*
X115850500Y-97221155D01*
X115850499Y-97221153D01*
X115837505Y-97155827D01*
X115819737Y-97066503D01*
X115813425Y-97051265D01*
X115759397Y-96920827D01*
X115759390Y-96920814D01*
X115671789Y-96789711D01*
X115671786Y-96789707D01*
X115560292Y-96678213D01*
X115560288Y-96678210D01*
X115429185Y-96590609D01*
X115429172Y-96590602D01*
X115283501Y-96530264D01*
X115283489Y-96530261D01*
X115128845Y-96499500D01*
X115128842Y-96499500D01*
X114971158Y-96499500D01*
X114971155Y-96499500D01*
X114816510Y-96530261D01*
X114816498Y-96530264D01*
X114670827Y-96590602D01*
X114670814Y-96590609D01*
X114539711Y-96678210D01*
X114539707Y-96678213D01*
X114428213Y-96789707D01*
X114428210Y-96789711D01*
X114340609Y-96920814D01*
X114340602Y-96920827D01*
X114280264Y-97066498D01*
X114280261Y-97066510D01*
X114249500Y-97221153D01*
X112700500Y-97221153D01*
X112700500Y-96600097D01*
X112720185Y-96533058D01*
X112736819Y-96512416D01*
X114303082Y-94946153D01*
X118599500Y-94946153D01*
X118599500Y-95103846D01*
X118630261Y-95258489D01*
X118630264Y-95258501D01*
X118690602Y-95404172D01*
X118690609Y-95404185D01*
X118778210Y-95535288D01*
X118778213Y-95535292D01*
X118889707Y-95646786D01*
X118889711Y-95646789D01*
X119020814Y-95734390D01*
X119020827Y-95734397D01*
X119151315Y-95788446D01*
X119166503Y-95794737D01*
X119231147Y-95807595D01*
X119321849Y-95825638D01*
X119383760Y-95858023D01*
X119385339Y-95859574D01*
X119590139Y-96064374D01*
X119590149Y-96064385D01*
X119594479Y-96068715D01*
X119594480Y-96068716D01*
X119706284Y-96180520D01*
X119706286Y-96180521D01*
X119706290Y-96180524D01*
X119776667Y-96221156D01*
X119776671Y-96221157D01*
X119776672Y-96221158D01*
X119809943Y-96240367D01*
X119843212Y-96259576D01*
X119843214Y-96259576D01*
X119843215Y-96259577D01*
X119995943Y-96300500D01*
X120154057Y-96300500D01*
X131832351Y-96300500D01*
X131899390Y-96320185D01*
X131945145Y-96372989D01*
X131955089Y-96442147D01*
X131953969Y-96448690D01*
X131949500Y-96471158D01*
X131949500Y-96628846D01*
X131980261Y-96783489D01*
X131980264Y-96783501D01*
X132040602Y-96929172D01*
X132040609Y-96929185D01*
X132128210Y-97060288D01*
X132128213Y-97060292D01*
X132239707Y-97171786D01*
X132239711Y-97171789D01*
X132370814Y-97259390D01*
X132370826Y-97259397D01*
X132458557Y-97295735D01*
X132491898Y-97309545D01*
X132546302Y-97353385D01*
X132568367Y-97419679D01*
X132566064Y-97448296D01*
X132564500Y-97456159D01*
X132564500Y-97613846D01*
X132595261Y-97768489D01*
X132595264Y-97768501D01*
X132655602Y-97914172D01*
X132655609Y-97914185D01*
X132743210Y-98045288D01*
X132743213Y-98045292D01*
X132854707Y-98156786D01*
X132854711Y-98156789D01*
X132985814Y-98244390D01*
X132985827Y-98244397D01*
X133064597Y-98277024D01*
X133131503Y-98304737D01*
X133238987Y-98326117D01*
X133286153Y-98335499D01*
X133286156Y-98335500D01*
X133286158Y-98335500D01*
X133443844Y-98335500D01*
X133443845Y-98335499D01*
X133598497Y-98304737D01*
X133744179Y-98244394D01*
X133875289Y-98156789D01*
X133986789Y-98045289D01*
X134074394Y-97914179D01*
X134134737Y-97768497D01*
X134165500Y-97613842D01*
X134165500Y-97456158D01*
X134165500Y-97456155D01*
X134165499Y-97456153D01*
X134157611Y-97416498D01*
X134134737Y-97301503D01*
X134117295Y-97259394D01*
X134074397Y-97155827D01*
X134074390Y-97155814D01*
X133986789Y-97024711D01*
X133986786Y-97024707D01*
X133875292Y-96913213D01*
X133875288Y-96913210D01*
X133744185Y-96825609D01*
X133744172Y-96825602D01*
X133623102Y-96775454D01*
X133568698Y-96731613D01*
X133546633Y-96665319D01*
X133546563Y-96662417D01*
X133546403Y-96649435D01*
X133550500Y-96628842D01*
X133550500Y-96471158D01*
X133543798Y-96437468D01*
X133543658Y-96426024D01*
X133550124Y-96402956D01*
X133552260Y-96379099D01*
X133559383Y-96369929D01*
X133562518Y-96358747D01*
X133580429Y-96342837D01*
X133595123Y-96323922D01*
X133606072Y-96320059D01*
X133614755Y-96312347D01*
X133638423Y-96308646D01*
X133661013Y-96300678D01*
X133667649Y-96300500D01*
X142568059Y-96300500D01*
X142635098Y-96320185D01*
X142680853Y-96372989D01*
X142690797Y-96442147D01*
X142661772Y-96505703D01*
X142655740Y-96512181D01*
X142578213Y-96589707D01*
X142578210Y-96589711D01*
X142490609Y-96720814D01*
X142490602Y-96720827D01*
X142430264Y-96866498D01*
X142430261Y-96866508D01*
X142399361Y-97021850D01*
X142366976Y-97083761D01*
X142365425Y-97085339D01*
X141319481Y-98131282D01*
X141319475Y-98131290D01*
X141278572Y-98202138D01*
X141278572Y-98202139D01*
X141240423Y-98268215D01*
X141199499Y-98420943D01*
X141199499Y-98420945D01*
X141199499Y-98589046D01*
X141199500Y-98589059D01*
X141199500Y-108599902D01*
X141179815Y-108666941D01*
X141163181Y-108687583D01*
X134419481Y-115431282D01*
X134419477Y-115431287D01*
X134378155Y-115502861D01*
X134378155Y-115502862D01*
X134340423Y-115568214D01*
X134340423Y-115568215D01*
X134299499Y-115720943D01*
X134299499Y-115720945D01*
X134299499Y-115810500D01*
X134279814Y-115877539D01*
X134227010Y-115923294D01*
X134175499Y-115934500D01*
X132717129Y-115934500D01*
X132717123Y-115934501D01*
X132657516Y-115940908D01*
X132522671Y-115991202D01*
X132522664Y-115991206D01*
X132407455Y-116077452D01*
X132407452Y-116077455D01*
X132321206Y-116192664D01*
X132321202Y-116192671D01*
X132270908Y-116327517D01*
X132264501Y-116387116D01*
X132264500Y-116387135D01*
X132264500Y-118182870D01*
X132264501Y-118182876D01*
X132270908Y-118242483D01*
X132321202Y-118377328D01*
X132321206Y-118377335D01*
X132407452Y-118492544D01*
X132407455Y-118492547D01*
X132522664Y-118578793D01*
X132522671Y-118578797D01*
X132654082Y-118627810D01*
X132710016Y-118669681D01*
X132734433Y-118735145D01*
X132719582Y-118803418D01*
X132698431Y-118831673D01*
X132584889Y-118945215D01*
X132459951Y-119117179D01*
X132363444Y-119306585D01*
X132297753Y-119508760D01*
X132278233Y-119632007D01*
X132264500Y-119718713D01*
X132264500Y-119931287D01*
X132297754Y-120141243D01*
X132361874Y-120338584D01*
X132363444Y-120343414D01*
X132459951Y-120532820D01*
X132584890Y-120704786D01*
X132735213Y-120855109D01*
X132907179Y-120980048D01*
X132907181Y-120980049D01*
X132907184Y-120980051D01*
X133096588Y-121076557D01*
X133298757Y-121142246D01*
X133508713Y-121175500D01*
X133508714Y-121175500D01*
X133721286Y-121175500D01*
X133721287Y-121175500D01*
X133931243Y-121142246D01*
X134133412Y-121076557D01*
X134322816Y-120980051D01*
X134377572Y-120940269D01*
X134494786Y-120855109D01*
X134494788Y-120855106D01*
X134494792Y-120855104D01*
X134645104Y-120704792D01*
X134645106Y-120704788D01*
X134645109Y-120704786D01*
X134770048Y-120532820D01*
X134770047Y-120532820D01*
X134770051Y-120532816D01*
X134774514Y-120524054D01*
X134822488Y-120473259D01*
X134890308Y-120456463D01*
X134956444Y-120478999D01*
X134995486Y-120524056D01*
X134999951Y-120532820D01*
X135124890Y-120704786D01*
X135275213Y-120855109D01*
X135447179Y-120980048D01*
X135447181Y-120980049D01*
X135447184Y-120980051D01*
X135636588Y-121076557D01*
X135838757Y-121142246D01*
X136048713Y-121175500D01*
X136048714Y-121175500D01*
X136261286Y-121175500D01*
X136261287Y-121175500D01*
X136471243Y-121142246D01*
X136673412Y-121076557D01*
X136862816Y-120980051D01*
X136917572Y-120940269D01*
X137034786Y-120855109D01*
X137034788Y-120855106D01*
X137034792Y-120855104D01*
X137185104Y-120704792D01*
X137185106Y-120704788D01*
X137185109Y-120704786D01*
X137310048Y-120532820D01*
X137310047Y-120532820D01*
X137310051Y-120532816D01*
X137314514Y-120524054D01*
X137362488Y-120473259D01*
X137430308Y-120456463D01*
X137496444Y-120478999D01*
X137535486Y-120524056D01*
X137539951Y-120532820D01*
X137664890Y-120704786D01*
X137815213Y-120855109D01*
X137987179Y-120980048D01*
X137987181Y-120980049D01*
X137987184Y-120980051D01*
X138176588Y-121076557D01*
X138378757Y-121142246D01*
X138588713Y-121175500D01*
X138588714Y-121175500D01*
X138801286Y-121175500D01*
X138801287Y-121175500D01*
X139011243Y-121142246D01*
X139053523Y-121128507D01*
X139123362Y-121126511D01*
X139179522Y-121158757D01*
X141635139Y-123614374D01*
X141635149Y-123614385D01*
X141639479Y-123618715D01*
X141639480Y-123618716D01*
X141751284Y-123730520D01*
X141751286Y-123730521D01*
X141751290Y-123730524D01*
X141888209Y-123809573D01*
X141888216Y-123809577D01*
X142000019Y-123839534D01*
X142040942Y-123850500D01*
X142040943Y-123850500D01*
X173663331Y-123850500D01*
X173663347Y-123850501D01*
X173670943Y-123850501D01*
X173829054Y-123850501D01*
X173829057Y-123850501D01*
X173981785Y-123809577D01*
X174031904Y-123780639D01*
X174118716Y-123730520D01*
X174230520Y-123618716D01*
X174230520Y-123618714D01*
X174240728Y-123608507D01*
X174240730Y-123608504D01*
X177868713Y-119980521D01*
X177868716Y-119980520D01*
X177980520Y-119868716D01*
X178030639Y-119781904D01*
X178059577Y-119731785D01*
X178100501Y-119579057D01*
X178100501Y-119420943D01*
X178100501Y-119413348D01*
X178100500Y-119413330D01*
X178100500Y-116171153D01*
X180199500Y-116171153D01*
X180199500Y-116328846D01*
X180230261Y-116483489D01*
X180230264Y-116483501D01*
X180290602Y-116629172D01*
X180290609Y-116629185D01*
X180378210Y-116760288D01*
X180378213Y-116760292D01*
X180489707Y-116871786D01*
X180489711Y-116871789D01*
X180620814Y-116959390D01*
X180620827Y-116959397D01*
X180724867Y-117002491D01*
X180766503Y-117019737D01*
X180921153Y-117050499D01*
X180921156Y-117050500D01*
X180921158Y-117050500D01*
X181078844Y-117050500D01*
X181078845Y-117050499D01*
X181233497Y-117019737D01*
X181379179Y-116959394D01*
X181510289Y-116871789D01*
X181621789Y-116760289D01*
X181709394Y-116629179D01*
X181769737Y-116483497D01*
X181800500Y-116328842D01*
X181800500Y-116171158D01*
X181800500Y-116171155D01*
X181800499Y-116171153D01*
X181796304Y-116150062D01*
X181769737Y-116016503D01*
X181763706Y-116001943D01*
X181709397Y-115870827D01*
X181709390Y-115870814D01*
X181621789Y-115739711D01*
X181621786Y-115739707D01*
X181510292Y-115628213D01*
X181510288Y-115628210D01*
X181379185Y-115540609D01*
X181379172Y-115540602D01*
X181233501Y-115480264D01*
X181233489Y-115480261D01*
X181078845Y-115449500D01*
X181078842Y-115449500D01*
X180921158Y-115449500D01*
X180921155Y-115449500D01*
X180766510Y-115480261D01*
X180766498Y-115480264D01*
X180620827Y-115540602D01*
X180620814Y-115540609D01*
X180489711Y-115628210D01*
X180489707Y-115628213D01*
X180378213Y-115739707D01*
X180378210Y-115739711D01*
X180290609Y-115870814D01*
X180290602Y-115870827D01*
X180230264Y-116016498D01*
X180230261Y-116016510D01*
X180199500Y-116171153D01*
X178100500Y-116171153D01*
X178100500Y-114850000D01*
X187575000Y-114850000D01*
X187575503Y-114933955D01*
X187583551Y-115101611D01*
X187599630Y-115268731D01*
X187599631Y-115268745D01*
X187623700Y-115434859D01*
X187623702Y-115434869D01*
X187655716Y-115599683D01*
X187695588Y-115762743D01*
X187743238Y-115923727D01*
X187798549Y-116082232D01*
X187798561Y-116082263D01*
X187861386Y-116237880D01*
X187861398Y-116237910D01*
X187931628Y-116390369D01*
X187931644Y-116390404D01*
X188009109Y-116539331D01*
X188009111Y-116539334D01*
X188088038Y-116674786D01*
X188093625Y-116684373D01*
X188185002Y-116825205D01*
X188185006Y-116825210D01*
X188283025Y-116961492D01*
X188315881Y-117002837D01*
X188379936Y-117083443D01*
X188387478Y-117092933D01*
X188498087Y-117219187D01*
X188498098Y-117219199D01*
X188498100Y-117219201D01*
X188614655Y-117340025D01*
X188690435Y-117411393D01*
X188736870Y-117455125D01*
X188864449Y-117564220D01*
X188864455Y-117564225D01*
X188864459Y-117564228D01*
X188997135Y-117667091D01*
X189134589Y-117763474D01*
X189276507Y-117853156D01*
X189422561Y-117935931D01*
X189422587Y-117935944D01*
X189422598Y-117935950D01*
X189522883Y-117986594D01*
X189572416Y-118011608D01*
X189588450Y-118018762D01*
X189725715Y-118080008D01*
X189725721Y-118080010D01*
X189725727Y-118080013D01*
X189780604Y-118101406D01*
X189882124Y-118140983D01*
X189882135Y-118140986D01*
X189882141Y-118140989D01*
X190041299Y-118194396D01*
X190202834Y-118240111D01*
X190366375Y-118278028D01*
X190531547Y-118308061D01*
X190697968Y-118330140D01*
X190865256Y-118344214D01*
X191033027Y-118350252D01*
X191200894Y-118348239D01*
X191368472Y-118338180D01*
X191535375Y-118320098D01*
X191701219Y-118294035D01*
X191865623Y-118260050D01*
X192028208Y-118218222D01*
X192188600Y-118168647D01*
X192266594Y-118140377D01*
X192346417Y-118111445D01*
X192346451Y-118111431D01*
X192406265Y-118086445D01*
X192501339Y-118046730D01*
X192652965Y-117974668D01*
X192800962Y-117895419D01*
X192944990Y-117809166D01*
X193084716Y-117716106D01*
X193219820Y-117616455D01*
X193349991Y-117510440D01*
X193474929Y-117398307D01*
X193594347Y-117280312D01*
X193707971Y-117156727D01*
X193815538Y-117027837D01*
X193916803Y-116893938D01*
X194011531Y-116755337D01*
X194099505Y-116612355D01*
X194180523Y-116465318D01*
X194254398Y-116314567D01*
X194320960Y-116160447D01*
X194324414Y-116151265D01*
X194380053Y-116003321D01*
X194380056Y-116003313D01*
X194431550Y-115843526D01*
X194432414Y-115840330D01*
X194468285Y-115707520D01*
X194475325Y-115681454D01*
X194511278Y-115517470D01*
X194539328Y-115351950D01*
X194559410Y-115185276D01*
X194571478Y-115017831D01*
X194573738Y-114923641D01*
X194575504Y-114850000D01*
X194575504Y-114849985D01*
X194571479Y-114682206D01*
X194571477Y-114682153D01*
X194566518Y-114613348D01*
X194559410Y-114514724D01*
X194539328Y-114348050D01*
X194511278Y-114182530D01*
X194475325Y-114018546D01*
X194467536Y-113989707D01*
X194431555Y-113856490D01*
X194428224Y-113846155D01*
X194380056Y-113696687D01*
X194378109Y-113691510D01*
X194320966Y-113539567D01*
X194320961Y-113539555D01*
X194305685Y-113504185D01*
X194254398Y-113385433D01*
X194180523Y-113234682D01*
X194099505Y-113087645D01*
X194011531Y-112944663D01*
X193966548Y-112878846D01*
X193916806Y-112806066D01*
X193916797Y-112806054D01*
X193897899Y-112781066D01*
X193815538Y-112672163D01*
X193707971Y-112543273D01*
X193594347Y-112419688D01*
X193594333Y-112419673D01*
X193474940Y-112301704D01*
X193474916Y-112301681D01*
X193350002Y-112189569D01*
X193349989Y-112189558D01*
X193219821Y-112083545D01*
X193151169Y-112032909D01*
X193084716Y-111983894D01*
X193049784Y-111960629D01*
X192945023Y-111890855D01*
X192944982Y-111890829D01*
X192800971Y-111804586D01*
X192800947Y-111804573D01*
X192652960Y-111725329D01*
X192501337Y-111653269D01*
X192501326Y-111653264D01*
X192346451Y-111588568D01*
X192346417Y-111588554D01*
X192188604Y-111531354D01*
X192188598Y-111531352D01*
X192028233Y-111481785D01*
X192028213Y-111481779D01*
X192028208Y-111481778D01*
X192028196Y-111481774D01*
X192028167Y-111481767D01*
X191865649Y-111439956D01*
X191865627Y-111439951D01*
X191865623Y-111439950D01*
X191701219Y-111405965D01*
X191535375Y-111379902D01*
X191396289Y-111364833D01*
X191368473Y-111361820D01*
X191368462Y-111361819D01*
X191200913Y-111351762D01*
X191200878Y-111351760D01*
X191033040Y-111349748D01*
X191033036Y-111349748D01*
X191033027Y-111349748D01*
X190865256Y-111355786D01*
X190697972Y-111369859D01*
X190531538Y-111391940D01*
X190366374Y-111421972D01*
X190202833Y-111459889D01*
X190202822Y-111459892D01*
X190041301Y-111505603D01*
X189882124Y-111559016D01*
X189725733Y-111619984D01*
X189725715Y-111619991D01*
X189572412Y-111688393D01*
X189572388Y-111688405D01*
X189422598Y-111764049D01*
X189422540Y-111764080D01*
X189276522Y-111846835D01*
X189276496Y-111846851D01*
X189134598Y-111936519D01*
X188997122Y-112032918D01*
X188864449Y-112135779D01*
X188736870Y-112244874D01*
X188614660Y-112359970D01*
X188614626Y-112360004D01*
X188498101Y-112480797D01*
X188498087Y-112480812D01*
X188387478Y-112607066D01*
X188283025Y-112738507D01*
X188202983Y-112849795D01*
X188185002Y-112874795D01*
X188110441Y-112989711D01*
X188093613Y-113015646D01*
X188093603Y-113015663D01*
X188009111Y-113160665D01*
X188009109Y-113160668D01*
X187931644Y-113309595D01*
X187931628Y-113309630D01*
X187861398Y-113462089D01*
X187861386Y-113462119D01*
X187798561Y-113617736D01*
X187798549Y-113617767D01*
X187743238Y-113776272D01*
X187695588Y-113937256D01*
X187655716Y-114100316D01*
X187623702Y-114265130D01*
X187623700Y-114265140D01*
X187599631Y-114431254D01*
X187599630Y-114431268D01*
X187591118Y-114519737D01*
X187583738Y-114596447D01*
X187583551Y-114598388D01*
X187575503Y-114766044D01*
X187575000Y-114850000D01*
X178100500Y-114850000D01*
X178100500Y-107671153D01*
X183699500Y-107671153D01*
X183699500Y-107828846D01*
X183730261Y-107983489D01*
X183730264Y-107983501D01*
X183790602Y-108129172D01*
X183790609Y-108129185D01*
X183878210Y-108260288D01*
X183878213Y-108260292D01*
X183989707Y-108371786D01*
X183989711Y-108371789D01*
X184120814Y-108459390D01*
X184120827Y-108459397D01*
X184266498Y-108519735D01*
X184266503Y-108519737D01*
X184421153Y-108550499D01*
X184421156Y-108550500D01*
X184421158Y-108550500D01*
X184578844Y-108550500D01*
X184578845Y-108550499D01*
X184733497Y-108519737D01*
X184879179Y-108459394D01*
X185010289Y-108371789D01*
X185121789Y-108260289D01*
X185209394Y-108129179D01*
X185269737Y-107983497D01*
X185300500Y-107828842D01*
X185300500Y-107671158D01*
X185300500Y-107671155D01*
X185300499Y-107671153D01*
X185273296Y-107534397D01*
X185269737Y-107516503D01*
X185249309Y-107467184D01*
X185209397Y-107370827D01*
X185209390Y-107370814D01*
X185121789Y-107239711D01*
X185121786Y-107239707D01*
X185010292Y-107128213D01*
X185010288Y-107128210D01*
X184879185Y-107040609D01*
X184879172Y-107040602D01*
X184733501Y-106980264D01*
X184733489Y-106980261D01*
X184578845Y-106949500D01*
X184578842Y-106949500D01*
X184421158Y-106949500D01*
X184421155Y-106949500D01*
X184266510Y-106980261D01*
X184266498Y-106980264D01*
X184120827Y-107040602D01*
X184120814Y-107040609D01*
X183989711Y-107128210D01*
X183989707Y-107128213D01*
X183878213Y-107239707D01*
X183878210Y-107239711D01*
X183790609Y-107370814D01*
X183790602Y-107370827D01*
X183730264Y-107516498D01*
X183730261Y-107516510D01*
X183699500Y-107671153D01*
X178100500Y-107671153D01*
X178100500Y-106746153D01*
X189449500Y-106746153D01*
X189449500Y-106903846D01*
X189480261Y-107058489D01*
X189480264Y-107058501D01*
X189540602Y-107204172D01*
X189540609Y-107204185D01*
X189628210Y-107335288D01*
X189628213Y-107335292D01*
X189739707Y-107446786D01*
X189739711Y-107446789D01*
X189870814Y-107534390D01*
X189870827Y-107534397D01*
X190016498Y-107594735D01*
X190016503Y-107594737D01*
X190152487Y-107621786D01*
X190171153Y-107625499D01*
X190171156Y-107625500D01*
X190171158Y-107625500D01*
X190328844Y-107625500D01*
X190328845Y-107625499D01*
X190483497Y-107594737D01*
X190629179Y-107534394D01*
X190760289Y-107446789D01*
X190871789Y-107335289D01*
X190959394Y-107204179D01*
X191019737Y-107058497D01*
X191050500Y-106903842D01*
X191050500Y-106746158D01*
X191050500Y-106746155D01*
X191050499Y-106746153D01*
X191025570Y-106620827D01*
X191019737Y-106591503D01*
X190977572Y-106489707D01*
X190959397Y-106445827D01*
X190959390Y-106445814D01*
X190871789Y-106314711D01*
X190871786Y-106314707D01*
X190760292Y-106203213D01*
X190760288Y-106203210D01*
X190629185Y-106115609D01*
X190629172Y-106115602D01*
X190483501Y-106055264D01*
X190483489Y-106055261D01*
X190328845Y-106024500D01*
X190328842Y-106024500D01*
X190171158Y-106024500D01*
X190171155Y-106024500D01*
X190016510Y-106055261D01*
X190016498Y-106055264D01*
X189870827Y-106115602D01*
X189870814Y-106115609D01*
X189739711Y-106203210D01*
X189739707Y-106203213D01*
X189628213Y-106314707D01*
X189628210Y-106314711D01*
X189540609Y-106445814D01*
X189540602Y-106445827D01*
X189480264Y-106591498D01*
X189480261Y-106591510D01*
X189449500Y-106746153D01*
X178100500Y-106746153D01*
X178100500Y-99670943D01*
X178097454Y-99659577D01*
X178084248Y-99610289D01*
X178059577Y-99518216D01*
X178059573Y-99518209D01*
X177980524Y-99381290D01*
X177980521Y-99381286D01*
X177980520Y-99381284D01*
X177868716Y-99269480D01*
X177868715Y-99269479D01*
X177864385Y-99265149D01*
X177864374Y-99265139D01*
X176145388Y-97546153D01*
X180449500Y-97546153D01*
X180449500Y-97703846D01*
X180480261Y-97858489D01*
X180480264Y-97858501D01*
X180540602Y-98004172D01*
X180540609Y-98004185D01*
X180628210Y-98135288D01*
X180628213Y-98135292D01*
X180739707Y-98246786D01*
X180739711Y-98246789D01*
X180870814Y-98334390D01*
X180870827Y-98334397D01*
X180961101Y-98371789D01*
X181016503Y-98394737D01*
X181122464Y-98415814D01*
X181171153Y-98425499D01*
X181171156Y-98425500D01*
X181171158Y-98425500D01*
X181328844Y-98425500D01*
X181328845Y-98425499D01*
X181483497Y-98394737D01*
X181607685Y-98343297D01*
X181629172Y-98334397D01*
X181629172Y-98334396D01*
X181629179Y-98334394D01*
X181760289Y-98246789D01*
X181871789Y-98135289D01*
X181959394Y-98004179D01*
X182019737Y-97858497D01*
X182050500Y-97703842D01*
X182050500Y-97571153D01*
X189699500Y-97571153D01*
X189699500Y-97728846D01*
X189730261Y-97883489D01*
X189730264Y-97883501D01*
X189790602Y-98029172D01*
X189790609Y-98029185D01*
X189878210Y-98160288D01*
X189878213Y-98160292D01*
X189989707Y-98271786D01*
X189989711Y-98271789D01*
X190120814Y-98359390D01*
X190120827Y-98359397D01*
X190250470Y-98413096D01*
X190266503Y-98419737D01*
X190379165Y-98442147D01*
X190421153Y-98450499D01*
X190421156Y-98450500D01*
X190421158Y-98450500D01*
X190578844Y-98450500D01*
X190578845Y-98450499D01*
X190733497Y-98419737D01*
X190849262Y-98371786D01*
X190879172Y-98359397D01*
X190879172Y-98359396D01*
X190879179Y-98359394D01*
X191010289Y-98271789D01*
X191121789Y-98160289D01*
X191209394Y-98029179D01*
X191269737Y-97883497D01*
X191300500Y-97728842D01*
X191300500Y-97671153D01*
X198699500Y-97671153D01*
X198699500Y-97828846D01*
X198730261Y-97983489D01*
X198730264Y-97983501D01*
X198790602Y-98129172D01*
X198790609Y-98129185D01*
X198878210Y-98260288D01*
X198878213Y-98260292D01*
X198989707Y-98371786D01*
X198989711Y-98371789D01*
X199120814Y-98459390D01*
X199120827Y-98459397D01*
X199228138Y-98503846D01*
X199266503Y-98519737D01*
X199421153Y-98550499D01*
X199421156Y-98550500D01*
X199421158Y-98550500D01*
X199578844Y-98550500D01*
X199578845Y-98550499D01*
X199733497Y-98519737D01*
X199879179Y-98459394D01*
X200010289Y-98371789D01*
X200121789Y-98260289D01*
X200209394Y-98129179D01*
X200269737Y-97983497D01*
X200300500Y-97828842D01*
X200300500Y-97671158D01*
X200300500Y-97671155D01*
X200300499Y-97671153D01*
X200285350Y-97594994D01*
X200269737Y-97516503D01*
X200263117Y-97500520D01*
X200209397Y-97370827D01*
X200209390Y-97370814D01*
X200121789Y-97239711D01*
X200121786Y-97239707D01*
X200010292Y-97128213D01*
X200010288Y-97128210D01*
X199879185Y-97040609D01*
X199879172Y-97040602D01*
X199733501Y-96980264D01*
X199733489Y-96980261D01*
X199578845Y-96949500D01*
X199578842Y-96949500D01*
X199421158Y-96949500D01*
X199421155Y-96949500D01*
X199266510Y-96980261D01*
X199266498Y-96980264D01*
X199120827Y-97040602D01*
X199120814Y-97040609D01*
X198989711Y-97128210D01*
X198989707Y-97128213D01*
X198878213Y-97239707D01*
X198878210Y-97239711D01*
X198790609Y-97370814D01*
X198790602Y-97370827D01*
X198730264Y-97516498D01*
X198730261Y-97516510D01*
X198699500Y-97671153D01*
X191300500Y-97671153D01*
X191300500Y-97571158D01*
X191300500Y-97571155D01*
X191300499Y-97571153D01*
X191295527Y-97546158D01*
X191269737Y-97416503D01*
X191254138Y-97378844D01*
X191209397Y-97270827D01*
X191209390Y-97270814D01*
X191121789Y-97139711D01*
X191121786Y-97139707D01*
X191010292Y-97028213D01*
X191010288Y-97028210D01*
X190879185Y-96940609D01*
X190879172Y-96940602D01*
X190733501Y-96880264D01*
X190733489Y-96880261D01*
X190578845Y-96849500D01*
X190578842Y-96849500D01*
X190421158Y-96849500D01*
X190421155Y-96849500D01*
X190266510Y-96880261D01*
X190266498Y-96880264D01*
X190120827Y-96940602D01*
X190120814Y-96940609D01*
X189989711Y-97028210D01*
X189989707Y-97028213D01*
X189878213Y-97139707D01*
X189878210Y-97139711D01*
X189790609Y-97270814D01*
X189790602Y-97270827D01*
X189730264Y-97416498D01*
X189730261Y-97416510D01*
X189699500Y-97571153D01*
X182050500Y-97571153D01*
X182050500Y-97546158D01*
X182050500Y-97546155D01*
X182050499Y-97546153D01*
X182031034Y-97448296D01*
X182019737Y-97391503D01*
X182011170Y-97370821D01*
X181959397Y-97245827D01*
X181959390Y-97245814D01*
X181871789Y-97114711D01*
X181871786Y-97114707D01*
X181760292Y-97003213D01*
X181760288Y-97003210D01*
X181629185Y-96915609D01*
X181629172Y-96915602D01*
X181483501Y-96855264D01*
X181483489Y-96855261D01*
X181328845Y-96824500D01*
X181328842Y-96824500D01*
X181171158Y-96824500D01*
X181171155Y-96824500D01*
X181016510Y-96855261D01*
X181016498Y-96855264D01*
X180870827Y-96915602D01*
X180870814Y-96915609D01*
X180739711Y-97003210D01*
X180739707Y-97003213D01*
X180628213Y-97114707D01*
X180628210Y-97114711D01*
X180540609Y-97245814D01*
X180540602Y-97245827D01*
X180480264Y-97391498D01*
X180480261Y-97391510D01*
X180449500Y-97546153D01*
X176145388Y-97546153D01*
X171987590Y-93388355D01*
X171987588Y-93388352D01*
X171868717Y-93269481D01*
X171868716Y-93269480D01*
X171781904Y-93219360D01*
X171781904Y-93219359D01*
X171781900Y-93219358D01*
X171731785Y-93190423D01*
X171579057Y-93149499D01*
X171420943Y-93149499D01*
X171413347Y-93149499D01*
X171413331Y-93149500D01*
X165086669Y-93149500D01*
X165086653Y-93149499D01*
X165079057Y-93149499D01*
X164920943Y-93149499D01*
X164813587Y-93178265D01*
X164768210Y-93190424D01*
X164768209Y-93190425D01*
X164718096Y-93219359D01*
X164718095Y-93219360D01*
X164699209Y-93230264D01*
X164631285Y-93269479D01*
X164631282Y-93269481D01*
X164519478Y-93381286D01*
X164284546Y-93616217D01*
X164223223Y-93649702D01*
X164153531Y-93644718D01*
X164097598Y-93602846D01*
X164093763Y-93597427D01*
X164021789Y-93489711D01*
X164021786Y-93489707D01*
X163910292Y-93378213D01*
X163910288Y-93378210D01*
X163779185Y-93290609D01*
X163779172Y-93290602D01*
X163633501Y-93230264D01*
X163633489Y-93230261D01*
X163478845Y-93199500D01*
X163478842Y-93199500D01*
X163321158Y-93199500D01*
X163321155Y-93199500D01*
X163166510Y-93230261D01*
X163166498Y-93230264D01*
X163020827Y-93290602D01*
X163020814Y-93290609D01*
X162889712Y-93378209D01*
X162778205Y-93489717D01*
X162774993Y-93493631D01*
X162717243Y-93532959D01*
X162647398Y-93534822D01*
X162637481Y-93531472D01*
X162633488Y-93530260D01*
X162478845Y-93499500D01*
X162478842Y-93499500D01*
X162321158Y-93499500D01*
X162321155Y-93499500D01*
X162166505Y-93530261D01*
X162166497Y-93530264D01*
X162098682Y-93558353D01*
X162029213Y-93565820D01*
X161966734Y-93534544D01*
X161963551Y-93531472D01*
X161910292Y-93478213D01*
X161910288Y-93478210D01*
X161779185Y-93390609D01*
X161779172Y-93390602D01*
X161633501Y-93330264D01*
X161633489Y-93330261D01*
X161478845Y-93299500D01*
X161478842Y-93299500D01*
X161321158Y-93299500D01*
X161321155Y-93299500D01*
X161166510Y-93330261D01*
X161166498Y-93330264D01*
X161020827Y-93390602D01*
X161020814Y-93390609D01*
X160889125Y-93478602D01*
X160822447Y-93499480D01*
X160820234Y-93499500D01*
X131479766Y-93499500D01*
X131412727Y-93479815D01*
X131410875Y-93478602D01*
X131279185Y-93390609D01*
X131279172Y-93390602D01*
X131133501Y-93330264D01*
X131133489Y-93330261D01*
X130978845Y-93299500D01*
X130978842Y-93299500D01*
X130821158Y-93299500D01*
X130821155Y-93299500D01*
X130666510Y-93330261D01*
X130666498Y-93330264D01*
X130520827Y-93390602D01*
X130520814Y-93390609D01*
X130389711Y-93478210D01*
X130389707Y-93478213D01*
X130278213Y-93589707D01*
X130278210Y-93589711D01*
X130190609Y-93720814D01*
X130190602Y-93720827D01*
X130130264Y-93866498D01*
X130130261Y-93866510D01*
X130099500Y-94021153D01*
X130099500Y-94178846D01*
X130130261Y-94333489D01*
X130130264Y-94333501D01*
X130190602Y-94479172D01*
X130190609Y-94479185D01*
X130278210Y-94610288D01*
X130278213Y-94610292D01*
X130389707Y-94721786D01*
X130389711Y-94721789D01*
X130520814Y-94809390D01*
X130520827Y-94809397D01*
X130645262Y-94860939D01*
X130699666Y-94904779D01*
X130721731Y-94971074D01*
X130704452Y-95038773D01*
X130653315Y-95086384D01*
X130597810Y-95099500D01*
X120375097Y-95099500D01*
X120345656Y-95090855D01*
X120315670Y-95084332D01*
X120310654Y-95080577D01*
X120308058Y-95079815D01*
X120287416Y-95063181D01*
X120234574Y-95010339D01*
X120201089Y-94949016D01*
X120200638Y-94946849D01*
X120173296Y-94809397D01*
X120169737Y-94791503D01*
X120140861Y-94721789D01*
X120109397Y-94645827D01*
X120109390Y-94645814D01*
X120021789Y-94514711D01*
X120021786Y-94514707D01*
X119910292Y-94403213D01*
X119910288Y-94403210D01*
X119779185Y-94315609D01*
X119779172Y-94315602D01*
X119633501Y-94255264D01*
X119633489Y-94255261D01*
X119478845Y-94224500D01*
X119478842Y-94224500D01*
X119321158Y-94224500D01*
X119321155Y-94224500D01*
X119166510Y-94255261D01*
X119166498Y-94255264D01*
X119020827Y-94315602D01*
X119020814Y-94315609D01*
X118889711Y-94403210D01*
X118889707Y-94403213D01*
X118778213Y-94514707D01*
X118778210Y-94514711D01*
X118690609Y-94645814D01*
X118690602Y-94645827D01*
X118630264Y-94791498D01*
X118630261Y-94791510D01*
X118599500Y-94946153D01*
X114303082Y-94946153D01*
X119112416Y-90136819D01*
X119173739Y-90103334D01*
X119200097Y-90100500D01*
X148575500Y-90100500D01*
X148642539Y-90120185D01*
X148688294Y-90172989D01*
X148699500Y-90224500D01*
X148699500Y-90378846D01*
X148730261Y-90533489D01*
X148730264Y-90533501D01*
X148790602Y-90679172D01*
X148790609Y-90679185D01*
X148878210Y-90810288D01*
X148878213Y-90810292D01*
X148989707Y-90921786D01*
X148989711Y-90921789D01*
X149120814Y-91009390D01*
X149120827Y-91009397D01*
X149266498Y-91069735D01*
X149266503Y-91069737D01*
X149421153Y-91100499D01*
X149421156Y-91100500D01*
X149421158Y-91100500D01*
X149578844Y-91100500D01*
X149578845Y-91100499D01*
X149733497Y-91069737D01*
X149879179Y-91009394D01*
X150010289Y-90921789D01*
X150121789Y-90810289D01*
X150209394Y-90679179D01*
X150269737Y-90533497D01*
X150300500Y-90378842D01*
X150300500Y-90224500D01*
X150320185Y-90157461D01*
X150372989Y-90111706D01*
X150424500Y-90100500D01*
X151020234Y-90100500D01*
X151087273Y-90120185D01*
X151089125Y-90121398D01*
X151220814Y-90209390D01*
X151220827Y-90209397D01*
X151366498Y-90269735D01*
X151366503Y-90269737D01*
X151498480Y-90295989D01*
X151521153Y-90300499D01*
X151521156Y-90300500D01*
X151521158Y-90300500D01*
X151678844Y-90300500D01*
X151678845Y-90300499D01*
X151833497Y-90269737D01*
X151979179Y-90209394D01*
X152043313Y-90166540D01*
X152109986Y-90145663D01*
X152177367Y-90164146D01*
X152199883Y-90181962D01*
X152239707Y-90221786D01*
X152239711Y-90221789D01*
X152370814Y-90309390D01*
X152370827Y-90309397D01*
X152516498Y-90369735D01*
X152516503Y-90369737D01*
X152671153Y-90400499D01*
X152671156Y-90400500D01*
X152671158Y-90400500D01*
X152828844Y-90400500D01*
X152828845Y-90400499D01*
X152983497Y-90369737D01*
X153129179Y-90309394D01*
X153260289Y-90221789D01*
X153371789Y-90110289D01*
X153459394Y-89979179D01*
X153519737Y-89833497D01*
X153550500Y-89678842D01*
X153550500Y-89521158D01*
X153550500Y-89521155D01*
X153550499Y-89521153D01*
X153538368Y-89460167D01*
X153519737Y-89366503D01*
X153500812Y-89320813D01*
X153459397Y-89220827D01*
X153459390Y-89220814D01*
X153371398Y-89089125D01*
X153350520Y-89022447D01*
X153350500Y-89020234D01*
X153350500Y-88670943D01*
X153349776Y-88668242D01*
X153349776Y-88668213D01*
X153349769Y-88668216D01*
X153328743Y-88589744D01*
X153309577Y-88518216D01*
X153286845Y-88478842D01*
X153230524Y-88381290D01*
X153230521Y-88381286D01*
X153230520Y-88381284D01*
X153118716Y-88269480D01*
X153118715Y-88269479D01*
X153114385Y-88265149D01*
X153114374Y-88265139D01*
X152861416Y-88012181D01*
X152827931Y-87950858D01*
X152832915Y-87881166D01*
X152874787Y-87825233D01*
X152940251Y-87800816D01*
X152949097Y-87800500D01*
X155327098Y-87800500D01*
X155394137Y-87820185D01*
X155439892Y-87872989D01*
X155449836Y-87942147D01*
X155420811Y-88005703D01*
X155374549Y-88039062D01*
X155370821Y-88040605D01*
X155370814Y-88040609D01*
X155239711Y-88128210D01*
X155239707Y-88128213D01*
X155128213Y-88239707D01*
X155128210Y-88239711D01*
X155040609Y-88370814D01*
X155040602Y-88370827D01*
X154980264Y-88516498D01*
X154980261Y-88516510D01*
X154949500Y-88671153D01*
X154949500Y-88675500D01*
X154929815Y-88742539D01*
X154877011Y-88788294D01*
X154825500Y-88799500D01*
X154821155Y-88799500D01*
X154666510Y-88830261D01*
X154666498Y-88830264D01*
X154520827Y-88890602D01*
X154520814Y-88890609D01*
X154389711Y-88978210D01*
X154389707Y-88978213D01*
X154278213Y-89089707D01*
X154278210Y-89089711D01*
X154190609Y-89220814D01*
X154190602Y-89220827D01*
X154130264Y-89366498D01*
X154130261Y-89366510D01*
X154099500Y-89521153D01*
X154099500Y-89678846D01*
X154130261Y-89833489D01*
X154130264Y-89833501D01*
X154190602Y-89979172D01*
X154190609Y-89979185D01*
X154278210Y-90110288D01*
X154278213Y-90110292D01*
X154389707Y-90221786D01*
X154389711Y-90221789D01*
X154520814Y-90309390D01*
X154520827Y-90309397D01*
X154666498Y-90369735D01*
X154666503Y-90369737D01*
X154821153Y-90400499D01*
X154821156Y-90400500D01*
X154821158Y-90400500D01*
X154978844Y-90400500D01*
X154978845Y-90400499D01*
X155133497Y-90369737D01*
X155279179Y-90309394D01*
X155410289Y-90221789D01*
X155521789Y-90110289D01*
X155566804Y-90042919D01*
X155620414Y-89998116D01*
X155689739Y-89989408D01*
X155752767Y-90019562D01*
X155784465Y-90064355D01*
X155790604Y-90079176D01*
X155790609Y-90079185D01*
X155878210Y-90210288D01*
X155878213Y-90210292D01*
X155989707Y-90321786D01*
X155989711Y-90321789D01*
X156120814Y-90409390D01*
X156120827Y-90409397D01*
X156266498Y-90469735D01*
X156266503Y-90469737D01*
X156421153Y-90500499D01*
X156421156Y-90500500D01*
X156421158Y-90500500D01*
X156578844Y-90500500D01*
X156578845Y-90500499D01*
X156733497Y-90469737D01*
X156879179Y-90409394D01*
X157010289Y-90321789D01*
X157121789Y-90210289D01*
X157209394Y-90079179D01*
X157215534Y-90064355D01*
X157235439Y-90016301D01*
X157279279Y-89961897D01*
X157345573Y-89939832D01*
X157413273Y-89957111D01*
X157460884Y-90008248D01*
X157464561Y-90016301D01*
X157490602Y-90079172D01*
X157490609Y-90079185D01*
X157578210Y-90210288D01*
X157578213Y-90210292D01*
X157689707Y-90321786D01*
X157689711Y-90321789D01*
X157820814Y-90409390D01*
X157820827Y-90409397D01*
X157966498Y-90469735D01*
X157966503Y-90469737D01*
X158121153Y-90500499D01*
X158121156Y-90500500D01*
X158121158Y-90500500D01*
X158278844Y-90500500D01*
X158278845Y-90500499D01*
X158433497Y-90469737D01*
X158579179Y-90409394D01*
X158710289Y-90321789D01*
X158821789Y-90210289D01*
X158909394Y-90079179D01*
X158948962Y-89983653D01*
X177262000Y-89983653D01*
X177262000Y-90141346D01*
X177292761Y-90295989D01*
X177292764Y-90296001D01*
X177353102Y-90441672D01*
X177353109Y-90441685D01*
X177440710Y-90572788D01*
X177440713Y-90572792D01*
X177552207Y-90684286D01*
X177552211Y-90684289D01*
X177683314Y-90771890D01*
X177683327Y-90771897D01*
X177828998Y-90832235D01*
X177829003Y-90832237D01*
X177983653Y-90862999D01*
X177983656Y-90863000D01*
X177983658Y-90863000D01*
X178141344Y-90863000D01*
X178141345Y-90862999D01*
X178295997Y-90832237D01*
X178441679Y-90771894D01*
X178572789Y-90684289D01*
X178684289Y-90572789D01*
X178771894Y-90441679D01*
X178832237Y-90295997D01*
X178863000Y-90141342D01*
X178863000Y-89983658D01*
X178863000Y-89983655D01*
X178862999Y-89983653D01*
X178853021Y-89933489D01*
X178832237Y-89829003D01*
X178832235Y-89828998D01*
X178771897Y-89683327D01*
X178771890Y-89683314D01*
X178684289Y-89552211D01*
X178684286Y-89552207D01*
X178572792Y-89440713D01*
X178572788Y-89440710D01*
X178441685Y-89353109D01*
X178441672Y-89353102D01*
X178296001Y-89292764D01*
X178295989Y-89292761D01*
X178141345Y-89262000D01*
X178141342Y-89262000D01*
X177983658Y-89262000D01*
X177983655Y-89262000D01*
X177829010Y-89292761D01*
X177828998Y-89292764D01*
X177683327Y-89353102D01*
X177683314Y-89353109D01*
X177552211Y-89440710D01*
X177552207Y-89440713D01*
X177440713Y-89552207D01*
X177440710Y-89552211D01*
X177353109Y-89683314D01*
X177353102Y-89683327D01*
X177292764Y-89828998D01*
X177292761Y-89829010D01*
X177262000Y-89983653D01*
X158948962Y-89983653D01*
X158969737Y-89933497D01*
X159000500Y-89778842D01*
X159000500Y-89621158D01*
X159000500Y-89621155D01*
X159000499Y-89621153D01*
X158986445Y-89550500D01*
X158969737Y-89466503D01*
X158961052Y-89445536D01*
X158909397Y-89320827D01*
X158909389Y-89320813D01*
X158897819Y-89303497D01*
X158876940Y-89236820D01*
X158895424Y-89169440D01*
X158947402Y-89122749D01*
X158953458Y-89120047D01*
X158979179Y-89109394D01*
X159110289Y-89021789D01*
X159221789Y-88910289D01*
X159309394Y-88779179D01*
X159369737Y-88633497D01*
X159400500Y-88478842D01*
X159400500Y-88321158D01*
X159400500Y-88321155D01*
X159400499Y-88321153D01*
X159369737Y-88166503D01*
X159351261Y-88121897D01*
X159309397Y-88020827D01*
X159309390Y-88020814D01*
X159221789Y-87889711D01*
X159221786Y-87889707D01*
X159110292Y-87778213D01*
X159110288Y-87778210D01*
X158979185Y-87690609D01*
X158979172Y-87690602D01*
X158833501Y-87630264D01*
X158833491Y-87630261D01*
X158678149Y-87599361D01*
X158616238Y-87566976D01*
X158614660Y-87565425D01*
X158220388Y-87171153D01*
X169049500Y-87171153D01*
X169049500Y-87328846D01*
X169080261Y-87483489D01*
X169080264Y-87483501D01*
X169140602Y-87629172D01*
X169140609Y-87629185D01*
X169228210Y-87760288D01*
X169228213Y-87760292D01*
X169339707Y-87871786D01*
X169339711Y-87871789D01*
X169470814Y-87959390D01*
X169470827Y-87959397D01*
X169598261Y-88012181D01*
X169616503Y-88019737D01*
X169771153Y-88050499D01*
X169771156Y-88050500D01*
X169771158Y-88050500D01*
X169928844Y-88050500D01*
X169928845Y-88050499D01*
X170083497Y-88019737D01*
X170229179Y-87959394D01*
X170360289Y-87871789D01*
X170471789Y-87760289D01*
X170559394Y-87629179D01*
X170619737Y-87483497D01*
X170649543Y-87333653D01*
X174412000Y-87333653D01*
X174412000Y-87491346D01*
X174442761Y-87645989D01*
X174442764Y-87646001D01*
X174503102Y-87791672D01*
X174503109Y-87791685D01*
X174590710Y-87922788D01*
X174590713Y-87922792D01*
X174702207Y-88034286D01*
X174702211Y-88034289D01*
X174833314Y-88121890D01*
X174833327Y-88121897D01*
X174978998Y-88182235D01*
X174979003Y-88182237D01*
X175133653Y-88212999D01*
X175133656Y-88213000D01*
X175133658Y-88213000D01*
X175291344Y-88213000D01*
X175291345Y-88212999D01*
X175445997Y-88182237D01*
X175562008Y-88134184D01*
X175591672Y-88121897D01*
X175591672Y-88121896D01*
X175591679Y-88121894D01*
X175722789Y-88034289D01*
X175834289Y-87922789D01*
X175921894Y-87791679D01*
X175982237Y-87645997D01*
X176013000Y-87491342D01*
X176013000Y-87333658D01*
X176013000Y-87333655D01*
X176012999Y-87333653D01*
X175982238Y-87179010D01*
X175982237Y-87179003D01*
X175978986Y-87171155D01*
X175921897Y-87033327D01*
X175921890Y-87033314D01*
X175834289Y-86902211D01*
X175834286Y-86902207D01*
X175722792Y-86790713D01*
X175722788Y-86790710D01*
X175591685Y-86703109D01*
X175591672Y-86703102D01*
X175446001Y-86642764D01*
X175445989Y-86642761D01*
X175291345Y-86612000D01*
X175291342Y-86612000D01*
X175133658Y-86612000D01*
X175133655Y-86612000D01*
X174979010Y-86642761D01*
X174978998Y-86642764D01*
X174833327Y-86703102D01*
X174833314Y-86703109D01*
X174702211Y-86790710D01*
X174702207Y-86790713D01*
X174590713Y-86902207D01*
X174590710Y-86902211D01*
X174503109Y-87033314D01*
X174503102Y-87033327D01*
X174442764Y-87178998D01*
X174442761Y-87179010D01*
X174412000Y-87333653D01*
X170649543Y-87333653D01*
X170650500Y-87328842D01*
X170650500Y-87171158D01*
X170650500Y-87171155D01*
X170650499Y-87171153D01*
X170627653Y-87056299D01*
X170619737Y-87016503D01*
X170572396Y-86902211D01*
X170559397Y-86870827D01*
X170559390Y-86870814D01*
X170471789Y-86739711D01*
X170471786Y-86739707D01*
X170360292Y-86628213D01*
X170360288Y-86628210D01*
X170229185Y-86540609D01*
X170229172Y-86540602D01*
X170083501Y-86480264D01*
X170083489Y-86480261D01*
X169928845Y-86449500D01*
X169928842Y-86449500D01*
X169771158Y-86449500D01*
X169771155Y-86449500D01*
X169616510Y-86480261D01*
X169616498Y-86480264D01*
X169470827Y-86540602D01*
X169470814Y-86540609D01*
X169339711Y-86628210D01*
X169339707Y-86628213D01*
X169228213Y-86739707D01*
X169228210Y-86739711D01*
X169140609Y-86870814D01*
X169140602Y-86870827D01*
X169080264Y-87016498D01*
X169080261Y-87016510D01*
X169049500Y-87171153D01*
X158220388Y-87171153D01*
X156787590Y-85738355D01*
X156786379Y-85737144D01*
X156775495Y-85717191D01*
X156772097Y-85719457D01*
X156772095Y-85719454D01*
X156775493Y-85717188D01*
X156769458Y-85706124D01*
X156752932Y-85675858D01*
X156752934Y-85675829D01*
X156752921Y-85675806D01*
X156755363Y-85641857D01*
X156757916Y-85606166D01*
X156757933Y-85606143D01*
X156757935Y-85606117D01*
X156778669Y-85578442D01*
X156799788Y-85550233D01*
X156799813Y-85550223D01*
X156799830Y-85550201D01*
X156833145Y-85537791D01*
X156865252Y-85525816D01*
X156865298Y-85525814D01*
X156865305Y-85525812D01*
X156865313Y-85525813D01*
X156874098Y-85525500D01*
X201172898Y-85525500D01*
X201235545Y-85525500D01*
X201242034Y-85525670D01*
X201571969Y-85542960D01*
X201584877Y-85544317D01*
X201622028Y-85550201D01*
X201907990Y-85595492D01*
X201920659Y-85598184D01*
X202236674Y-85682860D01*
X202249007Y-85686867D01*
X202554416Y-85804101D01*
X202566271Y-85809379D01*
X202857759Y-85957900D01*
X202868987Y-85964382D01*
X203143374Y-86142570D01*
X203153842Y-86150176D01*
X203408090Y-86356061D01*
X203417735Y-86364746D01*
X203649048Y-86596058D01*
X203657733Y-86605703D01*
X203863608Y-86859938D01*
X203871237Y-86870438D01*
X204049409Y-87144797D01*
X204055899Y-87156038D01*
X204204415Y-87447518D01*
X204209693Y-87459373D01*
X204235073Y-87525489D01*
X204326928Y-87764780D01*
X204330939Y-87777124D01*
X204415610Y-88093119D01*
X204418308Y-88105815D01*
X204469481Y-88428914D01*
X204470838Y-88441822D01*
X204488120Y-88771567D01*
X204488290Y-88778057D01*
X204488290Y-121271752D01*
X204488120Y-121278242D01*
X204470828Y-121608177D01*
X204469471Y-121621085D01*
X204418298Y-121944183D01*
X204415600Y-121956879D01*
X204330929Y-122272873D01*
X204326918Y-122285216D01*
X204209685Y-122590620D01*
X204204406Y-122602478D01*
X204055887Y-122893961D01*
X204049397Y-122905202D01*
X203871231Y-123179552D01*
X203863602Y-123190052D01*
X203657725Y-123444289D01*
X203649040Y-123453934D01*
X203417727Y-123685246D01*
X203408082Y-123693931D01*
X203153846Y-123899808D01*
X203143355Y-123907430D01*
X202913702Y-124056567D01*
X202868993Y-124085602D01*
X202857753Y-124092091D01*
X202566266Y-124240611D01*
X202554408Y-124245890D01*
X202249008Y-124363121D01*
X202236664Y-124367132D01*
X201920669Y-124451802D01*
X201907973Y-124454500D01*
X201584876Y-124505672D01*
X201571969Y-124507029D01*
X201257152Y-124523527D01*
X201241842Y-124524330D01*
X201235354Y-124524500D01*
X108742038Y-124524500D01*
X108735548Y-124524330D01*
X108405613Y-124507037D01*
X108392705Y-124505680D01*
X108069608Y-124454506D01*
X108056912Y-124451808D01*
X107740918Y-124367137D01*
X107728574Y-124363126D01*
X107423171Y-124245892D01*
X107411314Y-124240613D01*
X107411310Y-124240611D01*
X107119824Y-124092091D01*
X107108605Y-124085614D01*
X106834233Y-123907435D01*
X106823739Y-123899810D01*
X106569503Y-123693933D01*
X106559858Y-123685248D01*
X106328546Y-123453935D01*
X106319861Y-123444290D01*
X106239879Y-123345520D01*
X106113977Y-123190043D01*
X106106362Y-123179562D01*
X105928191Y-122905201D01*
X105921701Y-122893961D01*
X105900012Y-122851394D01*
X105773177Y-122602467D01*
X105767908Y-122590631D01*
X105650666Y-122285205D01*
X105646662Y-122272884D01*
X105561984Y-121956861D01*
X105559293Y-121944196D01*
X105508118Y-121621083D01*
X105506761Y-121608176D01*
X105489460Y-121278049D01*
X105489290Y-121271559D01*
X105489290Y-88778247D01*
X105489460Y-88771757D01*
X105502747Y-88518216D01*
X105506751Y-88441819D01*
X105508108Y-88428913D01*
X105517310Y-88370814D01*
X105559283Y-88105804D01*
X105561976Y-88093129D01*
X105646653Y-87777112D01*
X105650661Y-87764780D01*
X105652385Y-87760289D01*
X105767899Y-87459364D01*
X105773165Y-87447535D01*
X105921695Y-87156026D01*
X105928180Y-87144797D01*
X106106360Y-86870422D01*
X106113962Y-86859959D01*
X106319862Y-86605692D01*
X106328529Y-86596067D01*
X106559862Y-86364734D01*
X106569485Y-86356068D01*
X106823743Y-86150173D01*
X106834224Y-86142559D01*
X107108598Y-85964378D01*
X107119813Y-85957903D01*
X107411328Y-85809367D01*
X107423149Y-85804104D01*
X107728582Y-85686859D01*
X107740904Y-85682855D01*
X108056920Y-85598178D01*
X108069596Y-85595485D01*
X108392706Y-85544308D01*
X108405610Y-85542952D01*
X108735357Y-85525669D01*
X108741847Y-85525500D01*
X108804684Y-85525500D01*
X118025902Y-85525500D01*
X118092941Y-85545185D01*
G37*
%TD.AperFunction*%
%TD*%
M02*
