M48
; DRILL file KiCad 10.0.3 date 2026-08-04T01:15:31
; FORMAT={-:-/ absolute / metric / decimal}
; #@! TF.CreationDate,2026-08-04T01:15:31+07:00
; #@! TF.GenerationSoftware,Kicad,Pcbnew,10.0.3
; #@! TF.FileFunction,Plated,1,4,PTH
FMAT,2
METRIC
; #@! TA.AperFunction,Plated,PTH,ViaDrill
T1C0.300
; #@! TA.AperFunction,Plated,PTH,ComponentDrill
T2C1.000
%
G90
G05
T1
X112.2Y-101.6
X113.0Y-120.0
X113.0Y-121.0
X113.0Y-122.0
X113.0Y-123.0
X114.0Y-103.2
X114.0Y-120.0
X114.0Y-121.0
X114.0Y-122.0
X114.0Y-123.0
X115.0Y-120.0
X115.0Y-121.0
X115.0Y-122.0
X115.0Y-123.0
X115.4Y-101.8
X116.0Y-120.0
X116.0Y-121.0
X116.0Y-122.0
X116.0Y-123.0
X117.0Y-121.0
X117.0Y-122.0
X117.0Y-123.0
X118.0Y-122.0
X118.0Y-123.0
X119.0Y-108.0
X119.0Y-123.0
X120.8Y-106.1
X126.7Y-108.0
X128.8Y-116.4
X128.9Y-97.3
X131.4Y-103.0
X132.6Y-96.7
X132.7Y-112.7
X136.5Y-102.4
X138.5Y-102.4
X140.0Y-114.9
X140.6Y-109.1
X141.8Y-87.2
X142.3Y-112.0
X142.5Y-86.6
X143.2Y-90.9
X144.0Y-109.2
X144.4Y-96.2
X144.9Y-104.0
X145.1Y-87.8
X145.1Y-97.916
X145.2Y-99.0
X146.6Y-103.4
X146.7Y-109.0
X146.9Y-100.1
X147.5Y-109.6
X149.3Y-110.7
X149.3Y-111.9
X149.8Y-107.1
X150.0Y-124.1
X150.45Y-95.65
X150.5Y-96.6
X150.6Y-98.3
X150.8Y-93.5
X151.1Y-88.0
X151.2Y-101.3
X151.4Y-88.9
X151.4Y-100.1
X151.4Y-114.9
X152.8Y-111.9
X153.0Y-93.0
X153.0Y-94.0
X153.0Y-97.351
X153.0Y-107.5
X153.7Y-101.4
X154.4Y-89.7
X155.4Y-89.0
X156.0Y-110.4
X156.6Y-88.9
X156.8Y-97.6
X157.0Y-93.0
X157.0Y-94.0
X157.7Y-87.5
X157.8Y-98.8
X159.0Y-88.7
X159.3Y-112.2
X161.4Y-121.6
X161.525Y-99.025
X162.3Y-95.0
X162.8Y-98.9
X163.0Y-87.0
X163.4Y-94.9
X163.5Y-99.6
X164.0Y-88.0
X164.4Y-95.1
X165.2Y-98.9
X165.5Y-95.2
X165.9Y-104.3
X165.924Y-99.676
X166.0Y-92.0
X167.0Y-92.0
X171.0Y-102.0
X171.0Y-109.0
X172.0Y-103.0
X172.0Y-110.0
X176.0Y-93.0
X176.9Y-93.4
X180.0Y-87.9
X180.0Y-91.0
X181.3Y-109.2
X185.3Y-107.1
X185.6Y-86.8
X188.8Y-105.6
X190.9Y-86.7
X195.6Y-109.3
X196.6Y-86.7
X200.0Y-89.0
X200.0Y-90.0
X200.0Y-91.0
X200.0Y-92.0
X201.0Y-89.0
X201.0Y-90.0
X201.0Y-91.0
X201.0Y-92.0
X202.0Y-89.0
X202.0Y-90.0
X202.0Y-91.0
X202.0Y-92.0
X203.0Y-89.0
X203.0Y-90.0
X203.0Y-91.0
X203.0Y-92.0
T2
X107.35Y-103.095
X107.35Y-105.635
X107.35Y-108.175
X107.35Y-110.715
X107.35Y-113.255
X107.35Y-115.795
X107.35Y-118.335
X107.75Y-92.425
X107.75Y-94.925
X107.75Y-97.425
X133.615Y-117.285
X133.615Y-119.825
X136.155Y-117.285
X136.155Y-119.825
X138.695Y-117.285
X138.695Y-119.825
X141.235Y-117.285
X141.235Y-119.825
X143.775Y-117.285
X143.775Y-119.825
X146.315Y-117.285
X146.315Y-119.825
X148.855Y-117.285
X148.855Y-119.825
X151.395Y-117.285
X151.395Y-119.825
X153.935Y-117.285
X153.935Y-119.825
X156.475Y-117.285
X156.475Y-119.825
X159.015Y-117.285
X159.015Y-119.825
X161.555Y-117.285
X161.555Y-119.825
X164.095Y-117.285
X164.095Y-119.825
X166.635Y-117.285
X166.635Y-119.825
X169.175Y-117.285
X169.175Y-119.825
X171.715Y-117.285
X171.715Y-119.825
M30
