%TF.GenerationSoftware,KiCad,Pcbnew,9.0.3*%
%TF.CreationDate,2026-04-14T05:05:10+07:00*%
%TF.ProjectId,KiCad_PDM,4b694361-645f-4504-944d-2e6b69636164,rev?*%
%TF.SameCoordinates,Original*%
%TF.FileFunction,Legend,Bot*%
%TF.FilePolarity,Positive*%
%FSLAX46Y46*%
G04 Gerber Fmt 4.6, Leading zero omitted, Abs format (unit mm)*
G04 Created by KiCad (PCBNEW 9.0.3) date 2026-04-14 05:05:10*
%MOMM*%
%LPD*%
G01*
G04 APERTURE LIST*
%ADD10C,0.150000*%
%ADD11C,0.120000*%
G04 APERTURE END LIST*
D10*
X94392857Y-117954819D02*
X94726190Y-117478628D01*
X94964285Y-117954819D02*
X94964285Y-116954819D01*
X94964285Y-116954819D02*
X94583333Y-116954819D01*
X94583333Y-116954819D02*
X94488095Y-117002438D01*
X94488095Y-117002438D02*
X94440476Y-117050057D01*
X94440476Y-117050057D02*
X94392857Y-117145295D01*
X94392857Y-117145295D02*
X94392857Y-117288152D01*
X94392857Y-117288152D02*
X94440476Y-117383390D01*
X94440476Y-117383390D02*
X94488095Y-117431009D01*
X94488095Y-117431009D02*
X94583333Y-117478628D01*
X94583333Y-117478628D02*
X94964285Y-117478628D01*
X93488095Y-116954819D02*
X93964285Y-116954819D01*
X93964285Y-116954819D02*
X94011904Y-117431009D01*
X94011904Y-117431009D02*
X93964285Y-117383390D01*
X93964285Y-117383390D02*
X93869047Y-117335771D01*
X93869047Y-117335771D02*
X93630952Y-117335771D01*
X93630952Y-117335771D02*
X93535714Y-117383390D01*
X93535714Y-117383390D02*
X93488095Y-117431009D01*
X93488095Y-117431009D02*
X93440476Y-117526247D01*
X93440476Y-117526247D02*
X93440476Y-117764342D01*
X93440476Y-117764342D02*
X93488095Y-117859580D01*
X93488095Y-117859580D02*
X93535714Y-117907200D01*
X93535714Y-117907200D02*
X93630952Y-117954819D01*
X93630952Y-117954819D02*
X93869047Y-117954819D01*
X93869047Y-117954819D02*
X93964285Y-117907200D01*
X93964285Y-117907200D02*
X94011904Y-117859580D01*
X93059523Y-117050057D02*
X93011904Y-117002438D01*
X93011904Y-117002438D02*
X92916666Y-116954819D01*
X92916666Y-116954819D02*
X92678571Y-116954819D01*
X92678571Y-116954819D02*
X92583333Y-117002438D01*
X92583333Y-117002438D02*
X92535714Y-117050057D01*
X92535714Y-117050057D02*
X92488095Y-117145295D01*
X92488095Y-117145295D02*
X92488095Y-117240533D01*
X92488095Y-117240533D02*
X92535714Y-117383390D01*
X92535714Y-117383390D02*
X93107142Y-117954819D01*
X93107142Y-117954819D02*
X92488095Y-117954819D01*
X106954819Y-87960695D02*
X107764342Y-87960695D01*
X107764342Y-87960695D02*
X107859580Y-88008314D01*
X107859580Y-88008314D02*
X107907200Y-88055933D01*
X107907200Y-88055933D02*
X107954819Y-88151171D01*
X107954819Y-88151171D02*
X107954819Y-88341647D01*
X107954819Y-88341647D02*
X107907200Y-88436885D01*
X107907200Y-88436885D02*
X107859580Y-88484504D01*
X107859580Y-88484504D02*
X107764342Y-88532123D01*
X107764342Y-88532123D02*
X106954819Y-88532123D01*
X107954819Y-89532123D02*
X107954819Y-88960695D01*
X107954819Y-89246409D02*
X106954819Y-89246409D01*
X106954819Y-89246409D02*
X107097676Y-89151171D01*
X107097676Y-89151171D02*
X107192914Y-89055933D01*
X107192914Y-89055933D02*
X107240533Y-88960695D01*
X106954819Y-89865457D02*
X106954819Y-90484504D01*
X106954819Y-90484504D02*
X107335771Y-90151171D01*
X107335771Y-90151171D02*
X107335771Y-90294028D01*
X107335771Y-90294028D02*
X107383390Y-90389266D01*
X107383390Y-90389266D02*
X107431009Y-90436885D01*
X107431009Y-90436885D02*
X107526247Y-90484504D01*
X107526247Y-90484504D02*
X107764342Y-90484504D01*
X107764342Y-90484504D02*
X107859580Y-90436885D01*
X107859580Y-90436885D02*
X107907200Y-90389266D01*
X107907200Y-90389266D02*
X107954819Y-90294028D01*
X107954819Y-90294028D02*
X107954819Y-90008314D01*
X107954819Y-90008314D02*
X107907200Y-89913076D01*
X107907200Y-89913076D02*
X107859580Y-89865457D01*
X106954819Y-37460695D02*
X107764342Y-37460695D01*
X107764342Y-37460695D02*
X107859580Y-37508314D01*
X107859580Y-37508314D02*
X107907200Y-37555933D01*
X107907200Y-37555933D02*
X107954819Y-37651171D01*
X107954819Y-37651171D02*
X107954819Y-37841647D01*
X107954819Y-37841647D02*
X107907200Y-37936885D01*
X107907200Y-37936885D02*
X107859580Y-37984504D01*
X107859580Y-37984504D02*
X107764342Y-38032123D01*
X107764342Y-38032123D02*
X106954819Y-38032123D01*
X106954819Y-38413076D02*
X106954819Y-39032123D01*
X106954819Y-39032123D02*
X107335771Y-38698790D01*
X107335771Y-38698790D02*
X107335771Y-38841647D01*
X107335771Y-38841647D02*
X107383390Y-38936885D01*
X107383390Y-38936885D02*
X107431009Y-38984504D01*
X107431009Y-38984504D02*
X107526247Y-39032123D01*
X107526247Y-39032123D02*
X107764342Y-39032123D01*
X107764342Y-39032123D02*
X107859580Y-38984504D01*
X107859580Y-38984504D02*
X107907200Y-38936885D01*
X107907200Y-38936885D02*
X107954819Y-38841647D01*
X107954819Y-38841647D02*
X107954819Y-38555933D01*
X107954819Y-38555933D02*
X107907200Y-38460695D01*
X107907200Y-38460695D02*
X107859580Y-38413076D01*
X107383390Y-39603552D02*
X107335771Y-39508314D01*
X107335771Y-39508314D02*
X107288152Y-39460695D01*
X107288152Y-39460695D02*
X107192914Y-39413076D01*
X107192914Y-39413076D02*
X107145295Y-39413076D01*
X107145295Y-39413076D02*
X107050057Y-39460695D01*
X107050057Y-39460695D02*
X107002438Y-39508314D01*
X107002438Y-39508314D02*
X106954819Y-39603552D01*
X106954819Y-39603552D02*
X106954819Y-39794028D01*
X106954819Y-39794028D02*
X107002438Y-39889266D01*
X107002438Y-39889266D02*
X107050057Y-39936885D01*
X107050057Y-39936885D02*
X107145295Y-39984504D01*
X107145295Y-39984504D02*
X107192914Y-39984504D01*
X107192914Y-39984504D02*
X107288152Y-39936885D01*
X107288152Y-39936885D02*
X107335771Y-39889266D01*
X107335771Y-39889266D02*
X107383390Y-39794028D01*
X107383390Y-39794028D02*
X107383390Y-39603552D01*
X107383390Y-39603552D02*
X107431009Y-39508314D01*
X107431009Y-39508314D02*
X107478628Y-39460695D01*
X107478628Y-39460695D02*
X107573866Y-39413076D01*
X107573866Y-39413076D02*
X107764342Y-39413076D01*
X107764342Y-39413076D02*
X107859580Y-39460695D01*
X107859580Y-39460695D02*
X107907200Y-39508314D01*
X107907200Y-39508314D02*
X107954819Y-39603552D01*
X107954819Y-39603552D02*
X107954819Y-39794028D01*
X107954819Y-39794028D02*
X107907200Y-39889266D01*
X107907200Y-39889266D02*
X107859580Y-39936885D01*
X107859580Y-39936885D02*
X107764342Y-39984504D01*
X107764342Y-39984504D02*
X107573866Y-39984504D01*
X107573866Y-39984504D02*
X107478628Y-39936885D01*
X107478628Y-39936885D02*
X107431009Y-39889266D01*
X107431009Y-39889266D02*
X107383390Y-39794028D01*
X94392857Y-42204819D02*
X94726190Y-41728628D01*
X94964285Y-42204819D02*
X94964285Y-41204819D01*
X94964285Y-41204819D02*
X94583333Y-41204819D01*
X94583333Y-41204819D02*
X94488095Y-41252438D01*
X94488095Y-41252438D02*
X94440476Y-41300057D01*
X94440476Y-41300057D02*
X94392857Y-41395295D01*
X94392857Y-41395295D02*
X94392857Y-41538152D01*
X94392857Y-41538152D02*
X94440476Y-41633390D01*
X94440476Y-41633390D02*
X94488095Y-41681009D01*
X94488095Y-41681009D02*
X94583333Y-41728628D01*
X94583333Y-41728628D02*
X94964285Y-41728628D01*
X93821428Y-41633390D02*
X93916666Y-41585771D01*
X93916666Y-41585771D02*
X93964285Y-41538152D01*
X93964285Y-41538152D02*
X94011904Y-41442914D01*
X94011904Y-41442914D02*
X94011904Y-41395295D01*
X94011904Y-41395295D02*
X93964285Y-41300057D01*
X93964285Y-41300057D02*
X93916666Y-41252438D01*
X93916666Y-41252438D02*
X93821428Y-41204819D01*
X93821428Y-41204819D02*
X93630952Y-41204819D01*
X93630952Y-41204819D02*
X93535714Y-41252438D01*
X93535714Y-41252438D02*
X93488095Y-41300057D01*
X93488095Y-41300057D02*
X93440476Y-41395295D01*
X93440476Y-41395295D02*
X93440476Y-41442914D01*
X93440476Y-41442914D02*
X93488095Y-41538152D01*
X93488095Y-41538152D02*
X93535714Y-41585771D01*
X93535714Y-41585771D02*
X93630952Y-41633390D01*
X93630952Y-41633390D02*
X93821428Y-41633390D01*
X93821428Y-41633390D02*
X93916666Y-41681009D01*
X93916666Y-41681009D02*
X93964285Y-41728628D01*
X93964285Y-41728628D02*
X94011904Y-41823866D01*
X94011904Y-41823866D02*
X94011904Y-42014342D01*
X94011904Y-42014342D02*
X93964285Y-42109580D01*
X93964285Y-42109580D02*
X93916666Y-42157200D01*
X93916666Y-42157200D02*
X93821428Y-42204819D01*
X93821428Y-42204819D02*
X93630952Y-42204819D01*
X93630952Y-42204819D02*
X93535714Y-42157200D01*
X93535714Y-42157200D02*
X93488095Y-42109580D01*
X93488095Y-42109580D02*
X93440476Y-42014342D01*
X93440476Y-42014342D02*
X93440476Y-41823866D01*
X93440476Y-41823866D02*
X93488095Y-41728628D01*
X93488095Y-41728628D02*
X93535714Y-41681009D01*
X93535714Y-41681009D02*
X93630952Y-41633390D01*
X92869047Y-41633390D02*
X92964285Y-41585771D01*
X92964285Y-41585771D02*
X93011904Y-41538152D01*
X93011904Y-41538152D02*
X93059523Y-41442914D01*
X93059523Y-41442914D02*
X93059523Y-41395295D01*
X93059523Y-41395295D02*
X93011904Y-41300057D01*
X93011904Y-41300057D02*
X92964285Y-41252438D01*
X92964285Y-41252438D02*
X92869047Y-41204819D01*
X92869047Y-41204819D02*
X92678571Y-41204819D01*
X92678571Y-41204819D02*
X92583333Y-41252438D01*
X92583333Y-41252438D02*
X92535714Y-41300057D01*
X92535714Y-41300057D02*
X92488095Y-41395295D01*
X92488095Y-41395295D02*
X92488095Y-41442914D01*
X92488095Y-41442914D02*
X92535714Y-41538152D01*
X92535714Y-41538152D02*
X92583333Y-41585771D01*
X92583333Y-41585771D02*
X92678571Y-41633390D01*
X92678571Y-41633390D02*
X92869047Y-41633390D01*
X92869047Y-41633390D02*
X92964285Y-41681009D01*
X92964285Y-41681009D02*
X93011904Y-41728628D01*
X93011904Y-41728628D02*
X93059523Y-41823866D01*
X93059523Y-41823866D02*
X93059523Y-42014342D01*
X93059523Y-42014342D02*
X93011904Y-42109580D01*
X93011904Y-42109580D02*
X92964285Y-42157200D01*
X92964285Y-42157200D02*
X92869047Y-42204819D01*
X92869047Y-42204819D02*
X92678571Y-42204819D01*
X92678571Y-42204819D02*
X92583333Y-42157200D01*
X92583333Y-42157200D02*
X92535714Y-42109580D01*
X92535714Y-42109580D02*
X92488095Y-42014342D01*
X92488095Y-42014342D02*
X92488095Y-41823866D01*
X92488095Y-41823866D02*
X92535714Y-41728628D01*
X92535714Y-41728628D02*
X92583333Y-41681009D01*
X92583333Y-41681009D02*
X92678571Y-41633390D01*
X106954819Y-163710695D02*
X107764342Y-163710695D01*
X107764342Y-163710695D02*
X107859580Y-163758314D01*
X107859580Y-163758314D02*
X107907200Y-163805933D01*
X107907200Y-163805933D02*
X107954819Y-163901171D01*
X107954819Y-163901171D02*
X107954819Y-164091647D01*
X107954819Y-164091647D02*
X107907200Y-164186885D01*
X107907200Y-164186885D02*
X107859580Y-164234504D01*
X107859580Y-164234504D02*
X107764342Y-164282123D01*
X107764342Y-164282123D02*
X106954819Y-164282123D01*
X107288152Y-165186885D02*
X107954819Y-165186885D01*
X106907200Y-164948790D02*
X107621485Y-164710695D01*
X107621485Y-164710695D02*
X107621485Y-165329742D01*
X106954819Y-165615457D02*
X106954819Y-166234504D01*
X106954819Y-166234504D02*
X107335771Y-165901171D01*
X107335771Y-165901171D02*
X107335771Y-166044028D01*
X107335771Y-166044028D02*
X107383390Y-166139266D01*
X107383390Y-166139266D02*
X107431009Y-166186885D01*
X107431009Y-166186885D02*
X107526247Y-166234504D01*
X107526247Y-166234504D02*
X107764342Y-166234504D01*
X107764342Y-166234504D02*
X107859580Y-166186885D01*
X107859580Y-166186885D02*
X107907200Y-166139266D01*
X107907200Y-166139266D02*
X107954819Y-166044028D01*
X107954819Y-166044028D02*
X107954819Y-165758314D01*
X107954819Y-165758314D02*
X107907200Y-165663076D01*
X107907200Y-165663076D02*
X107859580Y-165615457D01*
X56954819Y-62710695D02*
X57764342Y-62710695D01*
X57764342Y-62710695D02*
X57859580Y-62758314D01*
X57859580Y-62758314D02*
X57907200Y-62805933D01*
X57907200Y-62805933D02*
X57954819Y-62901171D01*
X57954819Y-62901171D02*
X57954819Y-63091647D01*
X57954819Y-63091647D02*
X57907200Y-63186885D01*
X57907200Y-63186885D02*
X57859580Y-63234504D01*
X57859580Y-63234504D02*
X57764342Y-63282123D01*
X57764342Y-63282123D02*
X56954819Y-63282123D01*
X57050057Y-63710695D02*
X57002438Y-63758314D01*
X57002438Y-63758314D02*
X56954819Y-63853552D01*
X56954819Y-63853552D02*
X56954819Y-64091647D01*
X56954819Y-64091647D02*
X57002438Y-64186885D01*
X57002438Y-64186885D02*
X57050057Y-64234504D01*
X57050057Y-64234504D02*
X57145295Y-64282123D01*
X57145295Y-64282123D02*
X57240533Y-64282123D01*
X57240533Y-64282123D02*
X57383390Y-64234504D01*
X57383390Y-64234504D02*
X57954819Y-63663076D01*
X57954819Y-63663076D02*
X57954819Y-64282123D01*
X57383390Y-64853552D02*
X57335771Y-64758314D01*
X57335771Y-64758314D02*
X57288152Y-64710695D01*
X57288152Y-64710695D02*
X57192914Y-64663076D01*
X57192914Y-64663076D02*
X57145295Y-64663076D01*
X57145295Y-64663076D02*
X57050057Y-64710695D01*
X57050057Y-64710695D02*
X57002438Y-64758314D01*
X57002438Y-64758314D02*
X56954819Y-64853552D01*
X56954819Y-64853552D02*
X56954819Y-65044028D01*
X56954819Y-65044028D02*
X57002438Y-65139266D01*
X57002438Y-65139266D02*
X57050057Y-65186885D01*
X57050057Y-65186885D02*
X57145295Y-65234504D01*
X57145295Y-65234504D02*
X57192914Y-65234504D01*
X57192914Y-65234504D02*
X57288152Y-65186885D01*
X57288152Y-65186885D02*
X57335771Y-65139266D01*
X57335771Y-65139266D02*
X57383390Y-65044028D01*
X57383390Y-65044028D02*
X57383390Y-64853552D01*
X57383390Y-64853552D02*
X57431009Y-64758314D01*
X57431009Y-64758314D02*
X57478628Y-64710695D01*
X57478628Y-64710695D02*
X57573866Y-64663076D01*
X57573866Y-64663076D02*
X57764342Y-64663076D01*
X57764342Y-64663076D02*
X57859580Y-64710695D01*
X57859580Y-64710695D02*
X57907200Y-64758314D01*
X57907200Y-64758314D02*
X57954819Y-64853552D01*
X57954819Y-64853552D02*
X57954819Y-65044028D01*
X57954819Y-65044028D02*
X57907200Y-65139266D01*
X57907200Y-65139266D02*
X57859580Y-65186885D01*
X57859580Y-65186885D02*
X57764342Y-65234504D01*
X57764342Y-65234504D02*
X57573866Y-65234504D01*
X57573866Y-65234504D02*
X57478628Y-65186885D01*
X57478628Y-65186885D02*
X57431009Y-65139266D01*
X57431009Y-65139266D02*
X57383390Y-65044028D01*
X106954819Y-138460695D02*
X107764342Y-138460695D01*
X107764342Y-138460695D02*
X107859580Y-138508314D01*
X107859580Y-138508314D02*
X107907200Y-138555933D01*
X107907200Y-138555933D02*
X107954819Y-138651171D01*
X107954819Y-138651171D02*
X107954819Y-138841647D01*
X107954819Y-138841647D02*
X107907200Y-138936885D01*
X107907200Y-138936885D02*
X107859580Y-138984504D01*
X107859580Y-138984504D02*
X107764342Y-139032123D01*
X107764342Y-139032123D02*
X106954819Y-139032123D01*
X107050057Y-139460695D02*
X107002438Y-139508314D01*
X107002438Y-139508314D02*
X106954819Y-139603552D01*
X106954819Y-139603552D02*
X106954819Y-139841647D01*
X106954819Y-139841647D02*
X107002438Y-139936885D01*
X107002438Y-139936885D02*
X107050057Y-139984504D01*
X107050057Y-139984504D02*
X107145295Y-140032123D01*
X107145295Y-140032123D02*
X107240533Y-140032123D01*
X107240533Y-140032123D02*
X107383390Y-139984504D01*
X107383390Y-139984504D02*
X107954819Y-139413076D01*
X107954819Y-139413076D02*
X107954819Y-140032123D01*
X106954819Y-140365457D02*
X106954819Y-140984504D01*
X106954819Y-140984504D02*
X107335771Y-140651171D01*
X107335771Y-140651171D02*
X107335771Y-140794028D01*
X107335771Y-140794028D02*
X107383390Y-140889266D01*
X107383390Y-140889266D02*
X107431009Y-140936885D01*
X107431009Y-140936885D02*
X107526247Y-140984504D01*
X107526247Y-140984504D02*
X107764342Y-140984504D01*
X107764342Y-140984504D02*
X107859580Y-140936885D01*
X107859580Y-140936885D02*
X107907200Y-140889266D01*
X107907200Y-140889266D02*
X107954819Y-140794028D01*
X107954819Y-140794028D02*
X107954819Y-140508314D01*
X107954819Y-140508314D02*
X107907200Y-140413076D01*
X107907200Y-140413076D02*
X107859580Y-140365457D01*
X44392857Y-143204819D02*
X44726190Y-142728628D01*
X44964285Y-143204819D02*
X44964285Y-142204819D01*
X44964285Y-142204819D02*
X44583333Y-142204819D01*
X44583333Y-142204819D02*
X44488095Y-142252438D01*
X44488095Y-142252438D02*
X44440476Y-142300057D01*
X44440476Y-142300057D02*
X44392857Y-142395295D01*
X44392857Y-142395295D02*
X44392857Y-142538152D01*
X44392857Y-142538152D02*
X44440476Y-142633390D01*
X44440476Y-142633390D02*
X44488095Y-142681009D01*
X44488095Y-142681009D02*
X44583333Y-142728628D01*
X44583333Y-142728628D02*
X44964285Y-142728628D01*
X44059523Y-142204819D02*
X43392857Y-142204819D01*
X43392857Y-142204819D02*
X43821428Y-143204819D01*
X42964285Y-143204819D02*
X42773809Y-143204819D01*
X42773809Y-143204819D02*
X42678571Y-143157200D01*
X42678571Y-143157200D02*
X42630952Y-143109580D01*
X42630952Y-143109580D02*
X42535714Y-142966723D01*
X42535714Y-142966723D02*
X42488095Y-142776247D01*
X42488095Y-142776247D02*
X42488095Y-142395295D01*
X42488095Y-142395295D02*
X42535714Y-142300057D01*
X42535714Y-142300057D02*
X42583333Y-142252438D01*
X42583333Y-142252438D02*
X42678571Y-142204819D01*
X42678571Y-142204819D02*
X42869047Y-142204819D01*
X42869047Y-142204819D02*
X42964285Y-142252438D01*
X42964285Y-142252438D02*
X43011904Y-142300057D01*
X43011904Y-142300057D02*
X43059523Y-142395295D01*
X43059523Y-142395295D02*
X43059523Y-142633390D01*
X43059523Y-142633390D02*
X43011904Y-142728628D01*
X43011904Y-142728628D02*
X42964285Y-142776247D01*
X42964285Y-142776247D02*
X42869047Y-142823866D01*
X42869047Y-142823866D02*
X42678571Y-142823866D01*
X42678571Y-142823866D02*
X42583333Y-142776247D01*
X42583333Y-142776247D02*
X42535714Y-142728628D01*
X42535714Y-142728628D02*
X42488095Y-142633390D01*
X56954819Y-138460695D02*
X57764342Y-138460695D01*
X57764342Y-138460695D02*
X57859580Y-138508314D01*
X57859580Y-138508314D02*
X57907200Y-138555933D01*
X57907200Y-138555933D02*
X57954819Y-138651171D01*
X57954819Y-138651171D02*
X57954819Y-138841647D01*
X57954819Y-138841647D02*
X57907200Y-138936885D01*
X57907200Y-138936885D02*
X57859580Y-138984504D01*
X57859580Y-138984504D02*
X57764342Y-139032123D01*
X57764342Y-139032123D02*
X56954819Y-139032123D01*
X56954819Y-139413076D02*
X56954819Y-140032123D01*
X56954819Y-140032123D02*
X57335771Y-139698790D01*
X57335771Y-139698790D02*
X57335771Y-139841647D01*
X57335771Y-139841647D02*
X57383390Y-139936885D01*
X57383390Y-139936885D02*
X57431009Y-139984504D01*
X57431009Y-139984504D02*
X57526247Y-140032123D01*
X57526247Y-140032123D02*
X57764342Y-140032123D01*
X57764342Y-140032123D02*
X57859580Y-139984504D01*
X57859580Y-139984504D02*
X57907200Y-139936885D01*
X57907200Y-139936885D02*
X57954819Y-139841647D01*
X57954819Y-139841647D02*
X57954819Y-139555933D01*
X57954819Y-139555933D02*
X57907200Y-139460695D01*
X57907200Y-139460695D02*
X57859580Y-139413076D01*
X56954819Y-140365457D02*
X56954819Y-140984504D01*
X56954819Y-140984504D02*
X57335771Y-140651171D01*
X57335771Y-140651171D02*
X57335771Y-140794028D01*
X57335771Y-140794028D02*
X57383390Y-140889266D01*
X57383390Y-140889266D02*
X57431009Y-140936885D01*
X57431009Y-140936885D02*
X57526247Y-140984504D01*
X57526247Y-140984504D02*
X57764342Y-140984504D01*
X57764342Y-140984504D02*
X57859580Y-140936885D01*
X57859580Y-140936885D02*
X57907200Y-140889266D01*
X57907200Y-140889266D02*
X57954819Y-140794028D01*
X57954819Y-140794028D02*
X57954819Y-140508314D01*
X57954819Y-140508314D02*
X57907200Y-140413076D01*
X57907200Y-140413076D02*
X57859580Y-140365457D01*
X94392857Y-67454819D02*
X94726190Y-66978628D01*
X94964285Y-67454819D02*
X94964285Y-66454819D01*
X94964285Y-66454819D02*
X94583333Y-66454819D01*
X94583333Y-66454819D02*
X94488095Y-66502438D01*
X94488095Y-66502438D02*
X94440476Y-66550057D01*
X94440476Y-66550057D02*
X94392857Y-66645295D01*
X94392857Y-66645295D02*
X94392857Y-66788152D01*
X94392857Y-66788152D02*
X94440476Y-66883390D01*
X94440476Y-66883390D02*
X94488095Y-66931009D01*
X94488095Y-66931009D02*
X94583333Y-66978628D01*
X94583333Y-66978628D02*
X94964285Y-66978628D01*
X94059523Y-66454819D02*
X93440476Y-66454819D01*
X93440476Y-66454819D02*
X93773809Y-66835771D01*
X93773809Y-66835771D02*
X93630952Y-66835771D01*
X93630952Y-66835771D02*
X93535714Y-66883390D01*
X93535714Y-66883390D02*
X93488095Y-66931009D01*
X93488095Y-66931009D02*
X93440476Y-67026247D01*
X93440476Y-67026247D02*
X93440476Y-67264342D01*
X93440476Y-67264342D02*
X93488095Y-67359580D01*
X93488095Y-67359580D02*
X93535714Y-67407200D01*
X93535714Y-67407200D02*
X93630952Y-67454819D01*
X93630952Y-67454819D02*
X93916666Y-67454819D01*
X93916666Y-67454819D02*
X94011904Y-67407200D01*
X94011904Y-67407200D02*
X94059523Y-67359580D01*
X92583333Y-66788152D02*
X92583333Y-67454819D01*
X92821428Y-66407200D02*
X93059523Y-67121485D01*
X93059523Y-67121485D02*
X92440476Y-67121485D01*
X106954819Y-113210695D02*
X107764342Y-113210695D01*
X107764342Y-113210695D02*
X107859580Y-113258314D01*
X107859580Y-113258314D02*
X107907200Y-113305933D01*
X107907200Y-113305933D02*
X107954819Y-113401171D01*
X107954819Y-113401171D02*
X107954819Y-113591647D01*
X107954819Y-113591647D02*
X107907200Y-113686885D01*
X107907200Y-113686885D02*
X107859580Y-113734504D01*
X107859580Y-113734504D02*
X107764342Y-113782123D01*
X107764342Y-113782123D02*
X106954819Y-113782123D01*
X107954819Y-114782123D02*
X107954819Y-114210695D01*
X107954819Y-114496409D02*
X106954819Y-114496409D01*
X106954819Y-114496409D02*
X107097676Y-114401171D01*
X107097676Y-114401171D02*
X107192914Y-114305933D01*
X107192914Y-114305933D02*
X107240533Y-114210695D01*
X107383390Y-115353552D02*
X107335771Y-115258314D01*
X107335771Y-115258314D02*
X107288152Y-115210695D01*
X107288152Y-115210695D02*
X107192914Y-115163076D01*
X107192914Y-115163076D02*
X107145295Y-115163076D01*
X107145295Y-115163076D02*
X107050057Y-115210695D01*
X107050057Y-115210695D02*
X107002438Y-115258314D01*
X107002438Y-115258314D02*
X106954819Y-115353552D01*
X106954819Y-115353552D02*
X106954819Y-115544028D01*
X106954819Y-115544028D02*
X107002438Y-115639266D01*
X107002438Y-115639266D02*
X107050057Y-115686885D01*
X107050057Y-115686885D02*
X107145295Y-115734504D01*
X107145295Y-115734504D02*
X107192914Y-115734504D01*
X107192914Y-115734504D02*
X107288152Y-115686885D01*
X107288152Y-115686885D02*
X107335771Y-115639266D01*
X107335771Y-115639266D02*
X107383390Y-115544028D01*
X107383390Y-115544028D02*
X107383390Y-115353552D01*
X107383390Y-115353552D02*
X107431009Y-115258314D01*
X107431009Y-115258314D02*
X107478628Y-115210695D01*
X107478628Y-115210695D02*
X107573866Y-115163076D01*
X107573866Y-115163076D02*
X107764342Y-115163076D01*
X107764342Y-115163076D02*
X107859580Y-115210695D01*
X107859580Y-115210695D02*
X107907200Y-115258314D01*
X107907200Y-115258314D02*
X107954819Y-115353552D01*
X107954819Y-115353552D02*
X107954819Y-115544028D01*
X107954819Y-115544028D02*
X107907200Y-115639266D01*
X107907200Y-115639266D02*
X107859580Y-115686885D01*
X107859580Y-115686885D02*
X107764342Y-115734504D01*
X107764342Y-115734504D02*
X107573866Y-115734504D01*
X107573866Y-115734504D02*
X107478628Y-115686885D01*
X107478628Y-115686885D02*
X107431009Y-115639266D01*
X107431009Y-115639266D02*
X107383390Y-115544028D01*
X44392857Y-67454819D02*
X44726190Y-66978628D01*
X44964285Y-67454819D02*
X44964285Y-66454819D01*
X44964285Y-66454819D02*
X44583333Y-66454819D01*
X44583333Y-66454819D02*
X44488095Y-66502438D01*
X44488095Y-66502438D02*
X44440476Y-66550057D01*
X44440476Y-66550057D02*
X44392857Y-66645295D01*
X44392857Y-66645295D02*
X44392857Y-66788152D01*
X44392857Y-66788152D02*
X44440476Y-66883390D01*
X44440476Y-66883390D02*
X44488095Y-66931009D01*
X44488095Y-66931009D02*
X44583333Y-66978628D01*
X44583333Y-66978628D02*
X44964285Y-66978628D01*
X44059523Y-66454819D02*
X43392857Y-66454819D01*
X43392857Y-66454819D02*
X43821428Y-67454819D01*
X42821428Y-66454819D02*
X42726190Y-66454819D01*
X42726190Y-66454819D02*
X42630952Y-66502438D01*
X42630952Y-66502438D02*
X42583333Y-66550057D01*
X42583333Y-66550057D02*
X42535714Y-66645295D01*
X42535714Y-66645295D02*
X42488095Y-66835771D01*
X42488095Y-66835771D02*
X42488095Y-67073866D01*
X42488095Y-67073866D02*
X42535714Y-67264342D01*
X42535714Y-67264342D02*
X42583333Y-67359580D01*
X42583333Y-67359580D02*
X42630952Y-67407200D01*
X42630952Y-67407200D02*
X42726190Y-67454819D01*
X42726190Y-67454819D02*
X42821428Y-67454819D01*
X42821428Y-67454819D02*
X42916666Y-67407200D01*
X42916666Y-67407200D02*
X42964285Y-67359580D01*
X42964285Y-67359580D02*
X43011904Y-67264342D01*
X43011904Y-67264342D02*
X43059523Y-67073866D01*
X43059523Y-67073866D02*
X43059523Y-66835771D01*
X43059523Y-66835771D02*
X43011904Y-66645295D01*
X43011904Y-66645295D02*
X42964285Y-66550057D01*
X42964285Y-66550057D02*
X42916666Y-66502438D01*
X42916666Y-66502438D02*
X42821428Y-66454819D01*
X94392857Y-168454819D02*
X94726190Y-167978628D01*
X94964285Y-168454819D02*
X94964285Y-167454819D01*
X94964285Y-167454819D02*
X94583333Y-167454819D01*
X94583333Y-167454819D02*
X94488095Y-167502438D01*
X94488095Y-167502438D02*
X94440476Y-167550057D01*
X94440476Y-167550057D02*
X94392857Y-167645295D01*
X94392857Y-167645295D02*
X94392857Y-167788152D01*
X94392857Y-167788152D02*
X94440476Y-167883390D01*
X94440476Y-167883390D02*
X94488095Y-167931009D01*
X94488095Y-167931009D02*
X94583333Y-167978628D01*
X94583333Y-167978628D02*
X94964285Y-167978628D01*
X93916666Y-168454819D02*
X93726190Y-168454819D01*
X93726190Y-168454819D02*
X93630952Y-168407200D01*
X93630952Y-168407200D02*
X93583333Y-168359580D01*
X93583333Y-168359580D02*
X93488095Y-168216723D01*
X93488095Y-168216723D02*
X93440476Y-168026247D01*
X93440476Y-168026247D02*
X93440476Y-167645295D01*
X93440476Y-167645295D02*
X93488095Y-167550057D01*
X93488095Y-167550057D02*
X93535714Y-167502438D01*
X93535714Y-167502438D02*
X93630952Y-167454819D01*
X93630952Y-167454819D02*
X93821428Y-167454819D01*
X93821428Y-167454819D02*
X93916666Y-167502438D01*
X93916666Y-167502438D02*
X93964285Y-167550057D01*
X93964285Y-167550057D02*
X94011904Y-167645295D01*
X94011904Y-167645295D02*
X94011904Y-167883390D01*
X94011904Y-167883390D02*
X93964285Y-167978628D01*
X93964285Y-167978628D02*
X93916666Y-168026247D01*
X93916666Y-168026247D02*
X93821428Y-168073866D01*
X93821428Y-168073866D02*
X93630952Y-168073866D01*
X93630952Y-168073866D02*
X93535714Y-168026247D01*
X93535714Y-168026247D02*
X93488095Y-167978628D01*
X93488095Y-167978628D02*
X93440476Y-167883390D01*
X93107142Y-167454819D02*
X92440476Y-167454819D01*
X92440476Y-167454819D02*
X92869047Y-168454819D01*
X106954819Y-63186885D02*
X107764342Y-63186885D01*
X107764342Y-63186885D02*
X107859580Y-63234504D01*
X107859580Y-63234504D02*
X107907200Y-63282123D01*
X107907200Y-63282123D02*
X107954819Y-63377361D01*
X107954819Y-63377361D02*
X107954819Y-63567837D01*
X107954819Y-63567837D02*
X107907200Y-63663075D01*
X107907200Y-63663075D02*
X107859580Y-63710694D01*
X107859580Y-63710694D02*
X107764342Y-63758313D01*
X107764342Y-63758313D02*
X106954819Y-63758313D01*
X107383390Y-64377361D02*
X107335771Y-64282123D01*
X107335771Y-64282123D02*
X107288152Y-64234504D01*
X107288152Y-64234504D02*
X107192914Y-64186885D01*
X107192914Y-64186885D02*
X107145295Y-64186885D01*
X107145295Y-64186885D02*
X107050057Y-64234504D01*
X107050057Y-64234504D02*
X107002438Y-64282123D01*
X107002438Y-64282123D02*
X106954819Y-64377361D01*
X106954819Y-64377361D02*
X106954819Y-64567837D01*
X106954819Y-64567837D02*
X107002438Y-64663075D01*
X107002438Y-64663075D02*
X107050057Y-64710694D01*
X107050057Y-64710694D02*
X107145295Y-64758313D01*
X107145295Y-64758313D02*
X107192914Y-64758313D01*
X107192914Y-64758313D02*
X107288152Y-64710694D01*
X107288152Y-64710694D02*
X107335771Y-64663075D01*
X107335771Y-64663075D02*
X107383390Y-64567837D01*
X107383390Y-64567837D02*
X107383390Y-64377361D01*
X107383390Y-64377361D02*
X107431009Y-64282123D01*
X107431009Y-64282123D02*
X107478628Y-64234504D01*
X107478628Y-64234504D02*
X107573866Y-64186885D01*
X107573866Y-64186885D02*
X107764342Y-64186885D01*
X107764342Y-64186885D02*
X107859580Y-64234504D01*
X107859580Y-64234504D02*
X107907200Y-64282123D01*
X107907200Y-64282123D02*
X107954819Y-64377361D01*
X107954819Y-64377361D02*
X107954819Y-64567837D01*
X107954819Y-64567837D02*
X107907200Y-64663075D01*
X107907200Y-64663075D02*
X107859580Y-64710694D01*
X107859580Y-64710694D02*
X107764342Y-64758313D01*
X107764342Y-64758313D02*
X107573866Y-64758313D01*
X107573866Y-64758313D02*
X107478628Y-64710694D01*
X107478628Y-64710694D02*
X107431009Y-64663075D01*
X107431009Y-64663075D02*
X107383390Y-64567837D01*
X94392857Y-143204819D02*
X94726190Y-142728628D01*
X94964285Y-143204819D02*
X94964285Y-142204819D01*
X94964285Y-142204819D02*
X94583333Y-142204819D01*
X94583333Y-142204819D02*
X94488095Y-142252438D01*
X94488095Y-142252438D02*
X94440476Y-142300057D01*
X94440476Y-142300057D02*
X94392857Y-142395295D01*
X94392857Y-142395295D02*
X94392857Y-142538152D01*
X94392857Y-142538152D02*
X94440476Y-142633390D01*
X94440476Y-142633390D02*
X94488095Y-142681009D01*
X94488095Y-142681009D02*
X94583333Y-142728628D01*
X94583333Y-142728628D02*
X94964285Y-142728628D01*
X93535714Y-142204819D02*
X93726190Y-142204819D01*
X93726190Y-142204819D02*
X93821428Y-142252438D01*
X93821428Y-142252438D02*
X93869047Y-142300057D01*
X93869047Y-142300057D02*
X93964285Y-142442914D01*
X93964285Y-142442914D02*
X94011904Y-142633390D01*
X94011904Y-142633390D02*
X94011904Y-143014342D01*
X94011904Y-143014342D02*
X93964285Y-143109580D01*
X93964285Y-143109580D02*
X93916666Y-143157200D01*
X93916666Y-143157200D02*
X93821428Y-143204819D01*
X93821428Y-143204819D02*
X93630952Y-143204819D01*
X93630952Y-143204819D02*
X93535714Y-143157200D01*
X93535714Y-143157200D02*
X93488095Y-143109580D01*
X93488095Y-143109580D02*
X93440476Y-143014342D01*
X93440476Y-143014342D02*
X93440476Y-142776247D01*
X93440476Y-142776247D02*
X93488095Y-142681009D01*
X93488095Y-142681009D02*
X93535714Y-142633390D01*
X93535714Y-142633390D02*
X93630952Y-142585771D01*
X93630952Y-142585771D02*
X93821428Y-142585771D01*
X93821428Y-142585771D02*
X93916666Y-142633390D01*
X93916666Y-142633390D02*
X93964285Y-142681009D01*
X93964285Y-142681009D02*
X94011904Y-142776247D01*
X92488095Y-143204819D02*
X93059523Y-143204819D01*
X92773809Y-143204819D02*
X92773809Y-142204819D01*
X92773809Y-142204819D02*
X92869047Y-142347676D01*
X92869047Y-142347676D02*
X92964285Y-142442914D01*
X92964285Y-142442914D02*
X93059523Y-142490533D01*
X94392857Y-92704819D02*
X94726190Y-92228628D01*
X94964285Y-92704819D02*
X94964285Y-91704819D01*
X94964285Y-91704819D02*
X94583333Y-91704819D01*
X94583333Y-91704819D02*
X94488095Y-91752438D01*
X94488095Y-91752438D02*
X94440476Y-91800057D01*
X94440476Y-91800057D02*
X94392857Y-91895295D01*
X94392857Y-91895295D02*
X94392857Y-92038152D01*
X94392857Y-92038152D02*
X94440476Y-92133390D01*
X94440476Y-92133390D02*
X94488095Y-92181009D01*
X94488095Y-92181009D02*
X94583333Y-92228628D01*
X94583333Y-92228628D02*
X94964285Y-92228628D01*
X93535714Y-92038152D02*
X93535714Y-92704819D01*
X93773809Y-91657200D02*
X94011904Y-92371485D01*
X94011904Y-92371485D02*
X93392857Y-92371485D01*
X93107142Y-91704819D02*
X92488095Y-91704819D01*
X92488095Y-91704819D02*
X92821428Y-92085771D01*
X92821428Y-92085771D02*
X92678571Y-92085771D01*
X92678571Y-92085771D02*
X92583333Y-92133390D01*
X92583333Y-92133390D02*
X92535714Y-92181009D01*
X92535714Y-92181009D02*
X92488095Y-92276247D01*
X92488095Y-92276247D02*
X92488095Y-92514342D01*
X92488095Y-92514342D02*
X92535714Y-92609580D01*
X92535714Y-92609580D02*
X92583333Y-92657200D01*
X92583333Y-92657200D02*
X92678571Y-92704819D01*
X92678571Y-92704819D02*
X92964285Y-92704819D01*
X92964285Y-92704819D02*
X93059523Y-92657200D01*
X93059523Y-92657200D02*
X93107142Y-92609580D01*
X65704819Y-163710695D02*
X66514342Y-163710695D01*
X66514342Y-163710695D02*
X66609580Y-163758314D01*
X66609580Y-163758314D02*
X66657200Y-163805933D01*
X66657200Y-163805933D02*
X66704819Y-163901171D01*
X66704819Y-163901171D02*
X66704819Y-164091647D01*
X66704819Y-164091647D02*
X66657200Y-164186885D01*
X66657200Y-164186885D02*
X66609580Y-164234504D01*
X66609580Y-164234504D02*
X66514342Y-164282123D01*
X66514342Y-164282123D02*
X65704819Y-164282123D01*
X65704819Y-165234504D02*
X65704819Y-164758314D01*
X65704819Y-164758314D02*
X66181009Y-164710695D01*
X66181009Y-164710695D02*
X66133390Y-164758314D01*
X66133390Y-164758314D02*
X66085771Y-164853552D01*
X66085771Y-164853552D02*
X66085771Y-165091647D01*
X66085771Y-165091647D02*
X66133390Y-165186885D01*
X66133390Y-165186885D02*
X66181009Y-165234504D01*
X66181009Y-165234504D02*
X66276247Y-165282123D01*
X66276247Y-165282123D02*
X66514342Y-165282123D01*
X66514342Y-165282123D02*
X66609580Y-165234504D01*
X66609580Y-165234504D02*
X66657200Y-165186885D01*
X66657200Y-165186885D02*
X66704819Y-165091647D01*
X66704819Y-165091647D02*
X66704819Y-164853552D01*
X66704819Y-164853552D02*
X66657200Y-164758314D01*
X66657200Y-164758314D02*
X66609580Y-164710695D01*
X65704819Y-165615457D02*
X65704819Y-166234504D01*
X65704819Y-166234504D02*
X66085771Y-165901171D01*
X66085771Y-165901171D02*
X66085771Y-166044028D01*
X66085771Y-166044028D02*
X66133390Y-166139266D01*
X66133390Y-166139266D02*
X66181009Y-166186885D01*
X66181009Y-166186885D02*
X66276247Y-166234504D01*
X66276247Y-166234504D02*
X66514342Y-166234504D01*
X66514342Y-166234504D02*
X66609580Y-166186885D01*
X66609580Y-166186885D02*
X66657200Y-166139266D01*
X66657200Y-166139266D02*
X66704819Y-166044028D01*
X66704819Y-166044028D02*
X66704819Y-165758314D01*
X66704819Y-165758314D02*
X66657200Y-165663076D01*
X66657200Y-165663076D02*
X66609580Y-165615457D01*
X65704819Y-37460695D02*
X66514342Y-37460695D01*
X66514342Y-37460695D02*
X66609580Y-37508314D01*
X66609580Y-37508314D02*
X66657200Y-37555933D01*
X66657200Y-37555933D02*
X66704819Y-37651171D01*
X66704819Y-37651171D02*
X66704819Y-37841647D01*
X66704819Y-37841647D02*
X66657200Y-37936885D01*
X66657200Y-37936885D02*
X66609580Y-37984504D01*
X66609580Y-37984504D02*
X66514342Y-38032123D01*
X66514342Y-38032123D02*
X65704819Y-38032123D01*
X66038152Y-38936885D02*
X66704819Y-38936885D01*
X65657200Y-38698790D02*
X66371485Y-38460695D01*
X66371485Y-38460695D02*
X66371485Y-39079742D01*
X66133390Y-39603552D02*
X66085771Y-39508314D01*
X66085771Y-39508314D02*
X66038152Y-39460695D01*
X66038152Y-39460695D02*
X65942914Y-39413076D01*
X65942914Y-39413076D02*
X65895295Y-39413076D01*
X65895295Y-39413076D02*
X65800057Y-39460695D01*
X65800057Y-39460695D02*
X65752438Y-39508314D01*
X65752438Y-39508314D02*
X65704819Y-39603552D01*
X65704819Y-39603552D02*
X65704819Y-39794028D01*
X65704819Y-39794028D02*
X65752438Y-39889266D01*
X65752438Y-39889266D02*
X65800057Y-39936885D01*
X65800057Y-39936885D02*
X65895295Y-39984504D01*
X65895295Y-39984504D02*
X65942914Y-39984504D01*
X65942914Y-39984504D02*
X66038152Y-39936885D01*
X66038152Y-39936885D02*
X66085771Y-39889266D01*
X66085771Y-39889266D02*
X66133390Y-39794028D01*
X66133390Y-39794028D02*
X66133390Y-39603552D01*
X66133390Y-39603552D02*
X66181009Y-39508314D01*
X66181009Y-39508314D02*
X66228628Y-39460695D01*
X66228628Y-39460695D02*
X66323866Y-39413076D01*
X66323866Y-39413076D02*
X66514342Y-39413076D01*
X66514342Y-39413076D02*
X66609580Y-39460695D01*
X66609580Y-39460695D02*
X66657200Y-39508314D01*
X66657200Y-39508314D02*
X66704819Y-39603552D01*
X66704819Y-39603552D02*
X66704819Y-39794028D01*
X66704819Y-39794028D02*
X66657200Y-39889266D01*
X66657200Y-39889266D02*
X66609580Y-39936885D01*
X66609580Y-39936885D02*
X66514342Y-39984504D01*
X66514342Y-39984504D02*
X66323866Y-39984504D01*
X66323866Y-39984504D02*
X66228628Y-39936885D01*
X66228628Y-39936885D02*
X66181009Y-39889266D01*
X66181009Y-39889266D02*
X66133390Y-39794028D01*
D11*
%TO.C,R52*%
X95927064Y-115790000D02*
X91572936Y-115790000D01*
X95927064Y-119210000D02*
X91572936Y-119210000D01*
%TO.C,U13*%
X102780000Y-84028790D02*
X102780000Y-94248790D01*
X102780000Y-84028790D02*
X119330000Y-84028790D01*
X102780000Y-86113790D02*
X100340000Y-86113790D01*
X102780000Y-87083790D02*
X100340000Y-87083790D01*
X102780000Y-88653790D02*
X100340000Y-88653790D01*
X102780000Y-89623790D02*
X100340000Y-89623790D01*
X102780000Y-91193790D02*
X100340000Y-91193790D01*
X102780000Y-92163790D02*
X100340000Y-92163790D01*
X102780000Y-94248790D02*
X119330000Y-94248790D01*
X112250000Y-84028790D02*
X112250000Y-85348790D01*
X112250000Y-85828790D02*
X112250000Y-87148790D01*
X112250000Y-87628790D02*
X112250000Y-88948790D01*
X112250000Y-89428790D02*
X112250000Y-90748790D01*
X112250000Y-91228790D02*
X112250000Y-92548790D01*
X112250000Y-93028790D02*
X112250000Y-94248790D01*
X119330000Y-84028790D02*
X119330000Y-94208790D01*
%TO.C,U38*%
X102780000Y-33528790D02*
X102780000Y-43748790D01*
X102780000Y-33528790D02*
X119330000Y-33528790D01*
X102780000Y-35613790D02*
X100340000Y-35613790D01*
X102780000Y-36583790D02*
X100340000Y-36583790D01*
X102780000Y-38153790D02*
X100340000Y-38153790D01*
X102780000Y-39123790D02*
X100340000Y-39123790D01*
X102780000Y-40693790D02*
X100340000Y-40693790D01*
X102780000Y-41663790D02*
X100340000Y-41663790D01*
X102780000Y-43748790D02*
X119330000Y-43748790D01*
X112250000Y-33528790D02*
X112250000Y-34848790D01*
X112250000Y-35328790D02*
X112250000Y-36648790D01*
X112250000Y-37128790D02*
X112250000Y-38448790D01*
X112250000Y-38928790D02*
X112250000Y-40248790D01*
X112250000Y-40728790D02*
X112250000Y-42048790D01*
X112250000Y-42528790D02*
X112250000Y-43748790D01*
X119330000Y-33528790D02*
X119330000Y-43708790D01*
%TO.C,R88*%
X95927064Y-40040000D02*
X91572936Y-40040000D01*
X95927064Y-43460000D02*
X91572936Y-43460000D01*
%TO.C,U43*%
X102780000Y-159778790D02*
X102780000Y-169998790D01*
X102780000Y-159778790D02*
X119330000Y-159778790D01*
X102780000Y-161863790D02*
X100340000Y-161863790D01*
X102780000Y-162833790D02*
X100340000Y-162833790D01*
X102780000Y-164403790D02*
X100340000Y-164403790D01*
X102780000Y-165373790D02*
X100340000Y-165373790D01*
X102780000Y-166943790D02*
X100340000Y-166943790D01*
X102780000Y-167913790D02*
X100340000Y-167913790D01*
X102780000Y-169998790D02*
X119330000Y-169998790D01*
X112250000Y-159778790D02*
X112250000Y-161098790D01*
X112250000Y-161578790D02*
X112250000Y-162898790D01*
X112250000Y-163378790D02*
X112250000Y-164698790D01*
X112250000Y-165178790D02*
X112250000Y-166498790D01*
X112250000Y-166978790D02*
X112250000Y-168298790D01*
X112250000Y-168778790D02*
X112250000Y-169998790D01*
X119330000Y-159778790D02*
X119330000Y-169958790D01*
%TO.C,U28*%
X52780000Y-58778790D02*
X52780000Y-68998790D01*
X52780000Y-58778790D02*
X69330000Y-58778790D01*
X52780000Y-60863790D02*
X50340000Y-60863790D01*
X52780000Y-61833790D02*
X50340000Y-61833790D01*
X52780000Y-63403790D02*
X50340000Y-63403790D01*
X52780000Y-64373790D02*
X50340000Y-64373790D01*
X52780000Y-65943790D02*
X50340000Y-65943790D01*
X52780000Y-66913790D02*
X50340000Y-66913790D01*
X52780000Y-68998790D02*
X69330000Y-68998790D01*
X62250000Y-58778790D02*
X62250000Y-60098790D01*
X62250000Y-60578790D02*
X62250000Y-61898790D01*
X62250000Y-62378790D02*
X62250000Y-63698790D01*
X62250000Y-64178790D02*
X62250000Y-65498790D01*
X62250000Y-65978790D02*
X62250000Y-67298790D01*
X62250000Y-67778790D02*
X62250000Y-68998790D01*
X69330000Y-58778790D02*
X69330000Y-68958790D01*
%TO.C,U23*%
X102780000Y-134528790D02*
X102780000Y-144748790D01*
X102780000Y-134528790D02*
X119330000Y-134528790D01*
X102780000Y-136613790D02*
X100340000Y-136613790D01*
X102780000Y-137583790D02*
X100340000Y-137583790D01*
X102780000Y-139153790D02*
X100340000Y-139153790D01*
X102780000Y-140123790D02*
X100340000Y-140123790D01*
X102780000Y-141693790D02*
X100340000Y-141693790D01*
X102780000Y-142663790D02*
X100340000Y-142663790D01*
X102780000Y-144748790D02*
X119330000Y-144748790D01*
X112250000Y-134528790D02*
X112250000Y-135848790D01*
X112250000Y-136328790D02*
X112250000Y-137648790D01*
X112250000Y-138128790D02*
X112250000Y-139448790D01*
X112250000Y-139928790D02*
X112250000Y-141248790D01*
X112250000Y-141728790D02*
X112250000Y-143048790D01*
X112250000Y-143528790D02*
X112250000Y-144748790D01*
X119330000Y-134528790D02*
X119330000Y-144708790D01*
%TO.C,R79*%
X45927064Y-141040000D02*
X41572936Y-141040000D01*
X45927064Y-144460000D02*
X41572936Y-144460000D01*
%TO.C,U33*%
X52780000Y-134528790D02*
X52780000Y-144748790D01*
X52780000Y-134528790D02*
X69330000Y-134528790D01*
X52780000Y-136613790D02*
X50340000Y-136613790D01*
X52780000Y-137583790D02*
X50340000Y-137583790D01*
X52780000Y-139153790D02*
X50340000Y-139153790D01*
X52780000Y-140123790D02*
X50340000Y-140123790D01*
X52780000Y-141693790D02*
X50340000Y-141693790D01*
X52780000Y-142663790D02*
X50340000Y-142663790D01*
X52780000Y-144748790D02*
X69330000Y-144748790D01*
X62250000Y-134528790D02*
X62250000Y-135848790D01*
X62250000Y-136328790D02*
X62250000Y-137648790D01*
X62250000Y-138128790D02*
X62250000Y-139448790D01*
X62250000Y-139928790D02*
X62250000Y-141248790D01*
X62250000Y-141728790D02*
X62250000Y-143048790D01*
X62250000Y-143528790D02*
X62250000Y-144748790D01*
X69330000Y-134528790D02*
X69330000Y-144708790D01*
%TO.C,R34*%
X95927064Y-65290000D02*
X91572936Y-65290000D01*
X95927064Y-68710000D02*
X91572936Y-68710000D01*
%TO.C,U18*%
X102780000Y-109278790D02*
X102780000Y-119498790D01*
X102780000Y-109278790D02*
X119330000Y-109278790D01*
X102780000Y-111363790D02*
X100340000Y-111363790D01*
X102780000Y-112333790D02*
X100340000Y-112333790D01*
X102780000Y-113903790D02*
X100340000Y-113903790D01*
X102780000Y-114873790D02*
X100340000Y-114873790D01*
X102780000Y-116443790D02*
X100340000Y-116443790D01*
X102780000Y-117413790D02*
X100340000Y-117413790D01*
X102780000Y-119498790D02*
X119330000Y-119498790D01*
X112250000Y-109278790D02*
X112250000Y-110598790D01*
X112250000Y-111078790D02*
X112250000Y-112398790D01*
X112250000Y-112878790D02*
X112250000Y-114198790D01*
X112250000Y-114678790D02*
X112250000Y-115998790D01*
X112250000Y-116478790D02*
X112250000Y-117798790D01*
X112250000Y-118278790D02*
X112250000Y-119498790D01*
X119330000Y-109278790D02*
X119330000Y-119458790D01*
%TO.C,R70*%
X45927064Y-65290000D02*
X41572936Y-65290000D01*
X45927064Y-68710000D02*
X41572936Y-68710000D01*
%TO.C,R97*%
X95927064Y-166290000D02*
X91572936Y-166290000D01*
X95927064Y-169710000D02*
X91572936Y-169710000D01*
%TO.C,U8*%
X102780000Y-58778790D02*
X102780000Y-68998790D01*
X102780000Y-58778790D02*
X119330000Y-58778790D01*
X102780000Y-60863790D02*
X100340000Y-60863790D01*
X102780000Y-61833790D02*
X100340000Y-61833790D01*
X102780000Y-63403790D02*
X100340000Y-63403790D01*
X102780000Y-64373790D02*
X100340000Y-64373790D01*
X102780000Y-65943790D02*
X100340000Y-65943790D01*
X102780000Y-66913790D02*
X100340000Y-66913790D01*
X102780000Y-68998790D02*
X119330000Y-68998790D01*
X112250000Y-58778790D02*
X112250000Y-60098790D01*
X112250000Y-60578790D02*
X112250000Y-61898790D01*
X112250000Y-62378790D02*
X112250000Y-63698790D01*
X112250000Y-64178790D02*
X112250000Y-65498790D01*
X112250000Y-65978790D02*
X112250000Y-67298790D01*
X112250000Y-67778790D02*
X112250000Y-68998790D01*
X119330000Y-58778790D02*
X119330000Y-68958790D01*
%TO.C,R61*%
X95927064Y-141040000D02*
X91572936Y-141040000D01*
X95927064Y-144460000D02*
X91572936Y-144460000D01*
%TO.C,R43*%
X95927064Y-90540000D02*
X91572936Y-90540000D01*
X95927064Y-93960000D02*
X91572936Y-93960000D01*
%TO.C,U53*%
X61530000Y-159778790D02*
X61530000Y-169998790D01*
X61530000Y-159778790D02*
X78080000Y-159778790D01*
X61530000Y-161863790D02*
X59090000Y-161863790D01*
X61530000Y-162833790D02*
X59090000Y-162833790D01*
X61530000Y-164403790D02*
X59090000Y-164403790D01*
X61530000Y-165373790D02*
X59090000Y-165373790D01*
X61530000Y-166943790D02*
X59090000Y-166943790D01*
X61530000Y-167913790D02*
X59090000Y-167913790D01*
X61530000Y-169998790D02*
X78080000Y-169998790D01*
X71000000Y-159778790D02*
X71000000Y-161098790D01*
X71000000Y-161578790D02*
X71000000Y-162898790D01*
X71000000Y-163378790D02*
X71000000Y-164698790D01*
X71000000Y-165178790D02*
X71000000Y-166498790D01*
X71000000Y-166978790D02*
X71000000Y-168298790D01*
X71000000Y-168778790D02*
X71000000Y-169998790D01*
X78080000Y-159778790D02*
X78080000Y-169958790D01*
%TO.C,U48*%
X61530000Y-33528790D02*
X61530000Y-43748790D01*
X61530000Y-33528790D02*
X78080000Y-33528790D01*
X61530000Y-35613790D02*
X59090000Y-35613790D01*
X61530000Y-36583790D02*
X59090000Y-36583790D01*
X61530000Y-38153790D02*
X59090000Y-38153790D01*
X61530000Y-39123790D02*
X59090000Y-39123790D01*
X61530000Y-40693790D02*
X59090000Y-40693790D01*
X61530000Y-41663790D02*
X59090000Y-41663790D01*
X61530000Y-43748790D02*
X78080000Y-43748790D01*
X71000000Y-33528790D02*
X71000000Y-34848790D01*
X71000000Y-35328790D02*
X71000000Y-36648790D01*
X71000000Y-37128790D02*
X71000000Y-38448790D01*
X71000000Y-38928790D02*
X71000000Y-40248790D01*
X71000000Y-40728790D02*
X71000000Y-42048790D01*
X71000000Y-42528790D02*
X71000000Y-43748790D01*
X78080000Y-33528790D02*
X78080000Y-43708790D01*
%TD*%
M02*
