%TF.GenerationSoftware,KiCad,Pcbnew,9.0.3*%
%TF.CreationDate,2026-04-14T05:05:10+07:00*%
%TF.ProjectId,KiCad_PDM,4b694361-645f-4504-944d-2e6b69636164,rev?*%
%TF.SameCoordinates,Original*%
%TF.FileFunction,Soldermask,Bot*%
%TF.FilePolarity,Negative*%
%FSLAX46Y46*%
G04 Gerber Fmt 4.6, Leading zero omitted, Abs format (unit mm)*
G04 Created by KiCad (PCBNEW 9.0.3) date 2026-04-14 05:05:10*
%MOMM*%
%LPD*%
G01*
G04 APERTURE LIST*
G04 Aperture macros list*
%AMRoundRect*
0 Rectangle with rounded corners*
0 $1 Rounding radius*
0 $2 $3 $4 $5 $6 $7 $8 $9 X,Y pos of 4 corners*
0 Add a 4 corners polygon primitive as box body*
4,1,4,$2,$3,$4,$5,$6,$7,$8,$9,$2,$3,0*
0 Add four circle primitives for the rounded corners*
1,1,$1+$1,$2,$3*
1,1,$1+$1,$4,$5*
1,1,$1+$1,$6,$7*
1,1,$1+$1,$8,$9*
0 Add four rect primitives between the rounded corners*
20,1,$1+$1,$2,$3,$4,$5,0*
20,1,$1+$1,$4,$5,$6,$7,0*
20,1,$1+$1,$6,$7,$8,$9,0*
20,1,$1+$1,$8,$9,$2,$3,0*%
G04 Aperture macros list end*
%ADD10C,3.150000*%
%ADD11O,6.000000X5.500000*%
%ADD12C,3.500000*%
%ADD13C,6.000000*%
%ADD14C,2.250000*%
%ADD15R,1.700000X1.700000*%
%ADD16C,1.700000*%
%ADD17RoundRect,0.249999X0.450001X1.425001X-0.450001X1.425001X-0.450001X-1.425001X0.450001X-1.425001X0*%
%ADD18R,2.000000X1.905000*%
%ADD19O,2.000000X1.905000*%
G04 APERTURE END LIST*
%TO.C,H3*%
D10*
X41325000Y-183750000D02*
G75*
G02*
X38175000Y-183750000I-1575000J0D01*
G01*
X38175000Y-183750000D02*
G75*
G02*
X41325000Y-183750000I1575000J0D01*
G01*
%TO.C,H1*%
X41325000Y-16250000D02*
G75*
G02*
X38175000Y-16250000I-1575000J0D01*
G01*
X38175000Y-16250000D02*
G75*
G02*
X41325000Y-16250000I1575000J0D01*
G01*
%TO.C,H6*%
X127325000Y-139638790D02*
G75*
G02*
X124175000Y-139638790I-1575000J0D01*
G01*
X124175000Y-139638790D02*
G75*
G02*
X127325000Y-139638790I1575000J0D01*
G01*
%TO.C,H5*%
X127325000Y-63888790D02*
G75*
G02*
X124175000Y-63888790I-1575000J0D01*
G01*
X124175000Y-63888790D02*
G75*
G02*
X127325000Y-63888790I1575000J0D01*
G01*
%TO.C,H4*%
X133825000Y-183750000D02*
G75*
G02*
X130675000Y-183750000I-1575000J0D01*
G01*
X130675000Y-183750000D02*
G75*
G02*
X133825000Y-183750000I1575000J0D01*
G01*
%TO.C,H2*%
X133825000Y-16250000D02*
G75*
G02*
X130675000Y-16250000I-1575000J0D01*
G01*
X130675000Y-16250000D02*
G75*
G02*
X133825000Y-16250000I1575000J0D01*
G01*
%TD*%
D11*
%TO.C,J3*%
X68750000Y-93500000D03*
X68750000Y-106500000D03*
X75000000Y-93500000D03*
X75000000Y-106500000D03*
X81250000Y-93500000D03*
X81250000Y-106500000D03*
%TD*%
D12*
%TO.C,H3*%
X39750000Y-183750000D03*
%TD*%
%TO.C,H1*%
X39750000Y-16250000D03*
%TD*%
%TO.C,H6*%
X125750000Y-139638790D03*
%TD*%
%TO.C,H5*%
X125750000Y-63888790D03*
%TD*%
%TO.C,H4*%
X132250000Y-183750000D03*
%TD*%
D13*
%TO.C,J2*%
X41925000Y-80750000D03*
X41925000Y-119250000D03*
D14*
X56425000Y-88000000D03*
X56425000Y-91000000D03*
X56425000Y-94000000D03*
X56425000Y-97000000D03*
X56425000Y-100000000D03*
X56425000Y-103000000D03*
X56425000Y-106000000D03*
X56425000Y-109000000D03*
X56425000Y-112000000D03*
X53925000Y-89500000D03*
X53925000Y-92500000D03*
X53925000Y-95500000D03*
X53925000Y-98500000D03*
X53925000Y-101500000D03*
X53925000Y-104500000D03*
X53925000Y-107500000D03*
X53925000Y-110500000D03*
X50925000Y-89500000D03*
X50925000Y-92500000D03*
X50925000Y-95500000D03*
X50925000Y-98500000D03*
X50925000Y-101500000D03*
X50925000Y-104500000D03*
X50925000Y-107500000D03*
X50925000Y-110500000D03*
X48425000Y-88000000D03*
X48425000Y-91000000D03*
X48425000Y-94000000D03*
X48425000Y-97000000D03*
X48425000Y-100000000D03*
X48425000Y-103000000D03*
X48425000Y-106000000D03*
X48425000Y-109000000D03*
X48425000Y-112000000D03*
%TD*%
D12*
%TO.C,H2*%
X132250000Y-16250000D03*
%TD*%
D15*
%TO.C,J1*%
X129710000Y-119050000D03*
D16*
X132250000Y-119050000D03*
X129710000Y-116510000D03*
X132250000Y-116510000D03*
X129710000Y-113970000D03*
X132250000Y-113970000D03*
X129710000Y-111430000D03*
X132250000Y-111430000D03*
X129710000Y-108890000D03*
X132250000Y-108890000D03*
X129710000Y-106350000D03*
X132250000Y-106350000D03*
X129710000Y-103810000D03*
X132250000Y-103810000D03*
X129710000Y-101270000D03*
X132250000Y-101270000D03*
X129710000Y-98730000D03*
X132250000Y-98730000D03*
X129710000Y-96190000D03*
X132250000Y-96190000D03*
X129710000Y-93650000D03*
X132250000Y-93650000D03*
X129710000Y-91110000D03*
X132250000Y-91110000D03*
X129710000Y-88570000D03*
X132250000Y-88570000D03*
X129710000Y-86030000D03*
X132250000Y-86030000D03*
X129710000Y-83490000D03*
X132250000Y-83490000D03*
X129710000Y-80950000D03*
X132250000Y-80950000D03*
%TD*%
D17*
%TO.C,R52*%
X96800000Y-117500000D03*
X90700000Y-117500000D03*
%TD*%
D13*
%TO.C,U13*%
X115740000Y-89138790D03*
D18*
X99080000Y-86598790D03*
D19*
X99080000Y-89138790D03*
X99080000Y-91678790D03*
%TD*%
D13*
%TO.C,U38*%
X115740000Y-38638790D03*
D18*
X99080000Y-36098790D03*
D19*
X99080000Y-38638790D03*
X99080000Y-41178790D03*
%TD*%
D17*
%TO.C,R88*%
X96800000Y-41750000D03*
X90700000Y-41750000D03*
%TD*%
D13*
%TO.C,U43*%
X115740000Y-164888790D03*
D18*
X99080000Y-162348790D03*
D19*
X99080000Y-164888790D03*
X99080000Y-167428790D03*
%TD*%
D13*
%TO.C,U28*%
X65740000Y-63888790D03*
D18*
X49080000Y-61348790D03*
D19*
X49080000Y-63888790D03*
X49080000Y-66428790D03*
%TD*%
D13*
%TO.C,U23*%
X115740000Y-139638790D03*
D18*
X99080000Y-137098790D03*
D19*
X99080000Y-139638790D03*
X99080000Y-142178790D03*
%TD*%
D17*
%TO.C,R79*%
X46800000Y-142750000D03*
X40700000Y-142750000D03*
%TD*%
D13*
%TO.C,U33*%
X65740000Y-139638790D03*
D18*
X49080000Y-137098790D03*
D19*
X49080000Y-139638790D03*
X49080000Y-142178790D03*
%TD*%
D17*
%TO.C,R34*%
X96800000Y-67000000D03*
X90700000Y-67000000D03*
%TD*%
D13*
%TO.C,U18*%
X115740000Y-114388790D03*
D18*
X99080000Y-111848790D03*
D19*
X99080000Y-114388790D03*
X99080000Y-116928790D03*
%TD*%
D17*
%TO.C,R70*%
X46800000Y-67000000D03*
X40700000Y-67000000D03*
%TD*%
%TO.C,R97*%
X96800000Y-168000000D03*
X90700000Y-168000000D03*
%TD*%
D13*
%TO.C,U8*%
X115740000Y-63888790D03*
D18*
X99080000Y-61348790D03*
D19*
X99080000Y-63888790D03*
X99080000Y-66428790D03*
%TD*%
D17*
%TO.C,R61*%
X96800000Y-142750000D03*
X90700000Y-142750000D03*
%TD*%
%TO.C,R43*%
X96800000Y-92250000D03*
X90700000Y-92250000D03*
%TD*%
D13*
%TO.C,U53*%
X74490000Y-164888790D03*
D18*
X57830000Y-162348790D03*
D19*
X57830000Y-164888790D03*
X57830000Y-167428790D03*
%TD*%
D13*
%TO.C,U48*%
X74490000Y-38638790D03*
D18*
X57830000Y-36098790D03*
D19*
X57830000Y-38638790D03*
X57830000Y-41178790D03*
%TD*%
M02*
