M48
; DRILL file {KiCad 9.0.3} date 2026-04-14T21:09:58+0700
; FORMAT={-:-/ absolute / metric / decimal}
; #@! TF.CreationDate,2026-04-14T21:09:58+07:00
; #@! TF.GenerationSoftware,Kicad,Pcbnew,9.0.3
; #@! TF.FileFunction,Plated,1,4,PTH
FMAT,2
METRIC
; #@! TA.AperFunction,Plated,PTH,ViaDrill
T1C0.300
; #@! TA.AperFunction,Plated,PTH,ComponentDrill
T2C1.000
; #@! TA.AperFunction,Plated,PTH,ComponentDrill
T3C1.100
; #@! TA.AperFunction,Plated,PTH,ComponentDrill
T4C1.500
; #@! TA.AperFunction,Plated,PTH,ComponentDrill
T5C2.750
%
G90
G05
T1
X38.45Y-21.5
X38.45Y-174.8
X39.75Y-149.25
X39.75Y-150.0
X39.75Y-150.75
X40.5Y-35.25
X40.5Y-36.0
X40.5Y-36.75
X40.5Y-149.25
X40.5Y-150.0
X40.5Y-150.75
X41.25Y-35.25
X41.25Y-36.0
X41.25Y-36.75
X41.25Y-149.25
X41.25Y-150.0
X41.25Y-150.75
X42.0Y-35.25
X42.0Y-36.0
X42.0Y-36.75
X42.25Y-178.7
X42.9Y-69.25
X42.9Y-144.95
X42.9Y-149.6
X42.907Y-124.5
X43.0Y-20.5
X43.5Y-27.75
X43.5Y-174.0
X43.75Y-19.75
X43.75Y-20.5
X44.25Y-146.75
X44.5Y-19.0
X44.5Y-19.75
X44.5Y-20.5
X44.75Y-151.5
X44.75Y-152.25
X44.75Y-153.0
X45.25Y-18.25
X45.25Y-19.0
X45.25Y-19.75
X45.25Y-47.0
X45.25Y-47.75
X45.5Y-151.5
X45.5Y-152.25
X45.5Y-153.0
X45.6Y-69.25
X45.6Y-145.0
X45.75Y-35.25
X45.75Y-36.0
X45.75Y-36.75
X46.0Y-46.25
X46.0Y-47.0
X46.0Y-47.75
X46.25Y-151.5
X46.25Y-152.25
X46.25Y-153.0
X46.575Y-72.925
X46.575Y-148.675
X46.69Y-133.25
X46.75Y-60.5
X46.75Y-61.25
X46.75Y-62.0
X47.0Y-57.5
X47.0Y-170.25
X47.25Y-17.25
X47.25Y-177.5
X47.25Y-180.25
X47.25Y-181.75
X47.537Y-46.788
X47.75Y-53.98
X47.75Y-129.73
X49.25Y-129.5
X49.25Y-160.5
X49.25Y-161.25
X49.25Y-162.0
X49.25Y-162.75
X49.25Y-163.5
X49.25Y-164.25
X49.5Y-50.75
X49.5Y-53.75
X49.5Y-126.5
X49.75Y-55.25
X49.75Y-131.0
X50.0Y-160.5
X50.0Y-161.25
X50.0Y-162.0
X50.0Y-162.75
X50.0Y-163.5
X50.0Y-164.25
X50.75Y-15.75
X50.75Y-18.5
X50.75Y-160.5
X50.75Y-161.25
X50.75Y-162.0
X50.75Y-162.75
X50.75Y-163.5
X50.75Y-164.25
X50.75Y-176.25
X50.75Y-181.5
X51.0Y-21.5
X51.157Y-150.25
X51.5Y-126.25
X51.5Y-160.5
X51.5Y-161.25
X51.5Y-162.0
X51.5Y-162.75
X51.5Y-163.5
X51.5Y-164.25
X52.25Y-160.5
X52.25Y-161.25
X52.25Y-162.0
X52.25Y-162.75
X52.25Y-163.5
X52.25Y-164.25
X52.25Y-172.0
X53.0Y-160.5
X53.0Y-161.25
X53.0Y-162.0
X53.0Y-162.75
X53.0Y-163.5
X53.0Y-164.25
X53.5Y-147.75
X54.0Y-35.25
X54.0Y-36.0
X54.0Y-36.75
X54.4Y-173.75
X54.48Y-182.77
X54.5Y-19.77
X54.5Y-22.25
X54.5Y-184.04
X54.75Y-35.25
X54.75Y-36.0
X54.75Y-36.75
X55.5Y-35.25
X55.5Y-36.0
X55.5Y-36.75
X55.5Y-147.75
X55.5Y-185.0
X55.75Y-32.25
X55.75Y-158.5
X56.48Y-154.98
X56.5Y-14.69
X56.5Y-28.73
X56.5Y-126.5
X56.5Y-128.5
X56.5Y-132.5
X56.5Y-177.69
X56.5Y-178.96
X56.52Y-17.23
X56.75Y-57.75
X57.0Y-54.25
X57.75Y-55.0
X58.25Y-25.5
X58.25Y-28.5
X58.25Y-151.5
X58.25Y-154.75
X58.5Y-30.0
X58.5Y-55.75
X58.5Y-156.25
X58.5Y-173.5
X59.25Y-56.5
X59.25Y-72.0
X60.0Y-57.25
X60.25Y-17.75
X60.5Y-151.25
X62.25Y-18.75
X62.25Y-182.75
X62.375Y-46.875
X63.25Y-18.75
X64.0Y-180.0
X64.005Y-177.682
X64.25Y-14.5
X64.75Y-21.0
X64.75Y-21.75
X64.75Y-133.25
X65.25Y-14.5
X65.25Y-152.595
X65.25Y-154.595
X65.25Y-158.595
X65.462Y-126.212
X65.5Y-21.0
X65.5Y-21.75
X65.5Y-32.5
X66.0Y-29.25
X66.25Y-21.0
X66.25Y-21.75
X66.75Y-30.0
X67.0Y-14.5
X67.0Y-57.55
X67.0Y-182.75
X67.25Y-174.5
X67.5Y-30.75
X67.5Y-130.25
X68.0Y-174.5
X68.75Y-174.5
X68.75Y-181.0
X70.25Y-133.3
X70.75Y-184.0
X72.75Y-182.0
X72.75Y-182.75
X72.75Y-183.5
X73.5Y-182.0
X73.5Y-182.75
X73.5Y-183.5
X73.625Y-158.625
X74.212Y-151.5
X74.25Y-182.0
X74.25Y-182.75
X74.25Y-183.5
X74.5Y-23.25
X74.5Y-24.0
X75.0Y-16.25
X75.25Y-23.25
X75.25Y-24.0
X75.5Y-177.25
X75.5Y-178.0
X75.5Y-178.75
X76.0Y-23.25
X76.0Y-24.0
X76.25Y-155.5
X76.25Y-177.25
X76.25Y-178.0
X76.25Y-178.75
X77.0Y-177.25
X77.0Y-178.0
X77.0Y-178.75
X78.25Y-174.5
X78.625Y-184.125
X79.0Y-174.5
X79.75Y-174.5
X80.123Y-157.623
X81.25Y-28.75
X81.75Y-178.25
X81.75Y-179.0
X81.75Y-182.0
X81.75Y-182.75
X81.75Y-183.5
X82.5Y-30.25
X82.5Y-177.5
X82.5Y-178.25
X82.5Y-179.0
X82.5Y-182.0
X82.5Y-182.75
X82.5Y-183.5
X83.25Y-177.5
X83.25Y-178.25
X83.25Y-179.0
X83.25Y-182.0
X83.25Y-182.75
X83.25Y-183.5
X84.25Y-18.5
X84.25Y-19.25
X84.25Y-20.0
X84.25Y-27.75
X84.25Y-28.5
X84.25Y-29.25
X85.0Y-18.5
X85.0Y-19.25
X85.0Y-20.0
X85.0Y-22.75
X85.0Y-24.0
X85.0Y-27.75
X85.0Y-28.5
X85.0Y-29.25
X85.75Y-18.5
X85.75Y-19.25
X85.75Y-20.0
X85.75Y-27.75
X85.75Y-28.5
X85.75Y-29.25
X88.0Y-171.75
X89.5Y-184.75
X89.5Y-185.5
X89.5Y-186.25
X90.25Y-184.75
X90.25Y-185.5
X90.25Y-186.25
X91.0Y-184.75
X91.0Y-185.5
X91.0Y-186.25
X92.15Y-43.15
X92.15Y-69.25
X92.15Y-94.6
X92.15Y-118.9
X92.15Y-144.15
X92.15Y-169.4
X92.5Y-18.5
X92.5Y-19.25
X92.5Y-20.0
X92.845Y-154.345
X93.25Y-18.5
X93.25Y-19.25
X93.25Y-20.0
X93.5Y-172.0
X94.0Y-18.5
X94.0Y-19.25
X94.0Y-20.0
X94.85Y-43.2
X94.85Y-68.45
X94.85Y-93.7
X94.85Y-118.95
X94.85Y-144.2
X94.85Y-169.45
X95.825Y-47.675
X95.825Y-72.925
X95.825Y-98.175
X95.825Y-123.425
X95.825Y-148.675
X95.9Y-174.0
X96.75Y-186.5
X97.0Y-32.25
X97.0Y-82.75
X97.0Y-108.0
X97.0Y-158.5
X97.125Y-133.125
X97.73Y-79.23
X97.73Y-129.73
X97.75Y-28.73
X97.75Y-53.98
X97.75Y-104.48
X98.0Y-57.0
X99.25Y-157.25
X99.5Y-25.5
X99.5Y-28.5
X99.5Y-50.75
X99.5Y-53.46
X99.5Y-76.0
X99.5Y-78.75
X99.5Y-101.0
X99.5Y-104.0
X99.5Y-123.0
X99.5Y-126.5
X99.5Y-129.25
X99.5Y-148.0
X99.5Y-152.0
X99.5Y-173.5
X99.75Y-30.0
X99.75Y-55.25
X99.75Y-72.5
X99.75Y-80.5
X99.75Y-97.75
X99.75Y-105.75
X99.75Y-131.0
X99.975Y-177.5
X99.975Y-181.525
X100.25Y-148.0
X100.5Y-72.5
X100.5Y-97.75
X100.75Y-47.25
X101.2Y-13.3
X101.2Y-18.25
X101.25Y-72.5
X101.25Y-97.75
X101.5Y-47.25
X101.75Y-152.75
X103.0Y-16.0
X103.5Y-123.0
X104.0Y-148.5
X104.25Y-122.25
X104.25Y-123.0
X104.75Y-147.75
X105.0Y-177.5
X106.5Y-179.0
X106.5Y-179.75
X106.75Y-83.5
X106.75Y-129.75
X106.75Y-134.0
X107.0Y-29.0
X107.0Y-33.0
X107.0Y-58.5
X107.0Y-79.5
X107.0Y-104.75
X107.0Y-108.75
X107.0Y-159.5
X107.25Y-155.5
X107.25Y-179.0
X107.25Y-179.75
X107.75Y-29.75
X107.75Y-80.25
X107.75Y-105.5
X107.75Y-148.75
X108.0Y-179.0
X108.0Y-179.75
X108.5Y-30.5
X108.5Y-81.0
X108.5Y-131.75
X108.5Y-148.0
X108.5Y-148.75
X108.75Y-20.5
X108.75Y-177.5
X108.75Y-182.75
X109.0Y-17.25
X109.25Y-31.25
X109.25Y-148.0
X109.25Y-148.75
X109.5Y-172.25
X109.75Y-32.0
X109.75Y-32.75
X109.75Y-83.25
X109.75Y-108.5
X110.0Y-147.25
X110.0Y-148.0
X110.0Y-148.75
X110.25Y-184.25
X110.75Y-147.25
X110.75Y-148.0
X110.75Y-148.75
X111.0Y-98.5
X111.5Y-147.25
X111.5Y-148.0
X111.5Y-148.75
X111.75Y-97.75
X111.75Y-98.5
X111.75Y-184.25
X112.0Y-22.75
X112.25Y-16.0
X112.25Y-147.25
X112.25Y-148.0
X112.25Y-148.75
X112.25Y-176.25
X112.25Y-179.0
X112.5Y-97.0
X112.5Y-97.75
X112.5Y-98.5
X113.0Y-147.25
X113.0Y-148.0
X113.0Y-148.75
X113.25Y-97.0
X113.25Y-97.75
X113.25Y-98.5
X113.5Y-46.25
X113.75Y-147.25
X113.75Y-148.0
X113.75Y-148.75
X114.0Y-97.0
X114.0Y-97.75
X114.0Y-98.5
X114.5Y-148.0
X114.5Y-148.75
X114.5Y-149.5
X114.75Y-97.0
X114.75Y-97.75
X114.75Y-98.5
X115.25Y-148.75
X115.25Y-149.5
X115.25Y-150.25
X115.25Y-171.25
X115.5Y-48.0
X115.5Y-97.0
X115.5Y-97.75
X115.5Y-98.5
X115.75Y-14.25
X115.75Y-23.5
X115.96Y-184.04
X116.0Y-19.5
X116.0Y-149.5
X116.0Y-150.25
X116.0Y-151.0
X116.0Y-171.25
X116.0Y-185.5
X116.25Y-97.0
X116.25Y-97.75
X116.25Y-98.5
X116.75Y-24.75
X116.75Y-150.25
X116.75Y-151.0
X116.75Y-171.25
X117.0Y-82.75
X117.0Y-97.0
X117.0Y-97.75
X117.0Y-98.5
X117.25Y-32.25
X117.25Y-33.0
X117.25Y-57.5
X117.25Y-133.25
X117.5Y-24.75
X117.5Y-129.25
X117.5Y-158.5
X117.5Y-159.25
X117.5Y-160.0
X117.5Y-160.75
X117.5Y-171.25
X117.75Y-97.0
X117.75Y-97.75
X117.75Y-98.5
X118.0Y-15.96
X118.0Y-17.23
X118.0Y-18.5
X118.0Y-32.25
X118.0Y-33.0
X118.0Y-175.25
X118.0Y-178.96
X118.0Y-181.5
X118.0Y-184.04
X118.25Y-24.75
X118.25Y-158.5
X118.25Y-159.25
X118.25Y-160.0
X118.25Y-160.75
X118.25Y-161.5
X118.25Y-168.25
X118.25Y-171.25
X118.5Y-97.0
X118.5Y-97.75
X118.5Y-98.5
X118.517Y-23.267
X118.75Y-32.25
X118.75Y-33.0
X119.0Y-158.5
X119.0Y-159.25
X119.0Y-160.0
X119.0Y-160.75
X119.0Y-161.5
X119.0Y-162.25
X119.0Y-167.5
X119.0Y-168.25
X119.0Y-171.25
X119.25Y-97.0
X119.25Y-97.75
X119.25Y-98.5
X119.475Y-13.775
X119.75Y-158.5
X119.75Y-159.25
X119.75Y-160.0
X119.75Y-160.75
X119.75Y-161.5
X119.75Y-162.25
X119.75Y-163.0
X119.75Y-163.75
X119.75Y-164.5
X119.75Y-165.25
X119.75Y-166.0
X119.75Y-166.75
X119.75Y-167.5
X119.75Y-168.25
X119.75Y-171.25
X120.0Y-97.0
X120.0Y-97.75
X120.0Y-98.5
X120.5Y-157.0
X120.5Y-157.75
X120.5Y-158.5
X120.5Y-159.25
X120.5Y-160.0
X120.5Y-160.75
X120.5Y-161.5
X120.5Y-162.25
X120.5Y-163.0
X120.5Y-163.75
X120.5Y-164.5
X120.5Y-165.25
X120.5Y-166.0
X120.5Y-166.75
X120.5Y-167.5
X120.5Y-168.25
X120.5Y-171.25
X120.75Y-97.0
X120.75Y-97.75
X120.75Y-98.5
X120.75Y-131.5
X121.25Y-150.25
X121.25Y-156.25
X121.25Y-157.0
X121.25Y-157.75
X121.25Y-158.5
X121.25Y-159.25
X121.25Y-160.0
X121.25Y-160.75
X121.25Y-161.5
X121.25Y-162.25
X121.25Y-163.0
X121.25Y-163.75
X121.25Y-164.5
X121.25Y-165.25
X121.25Y-166.0
X121.25Y-166.75
X121.25Y-167.5
X121.25Y-168.25
X121.25Y-171.25
X121.5Y-32.25
X121.5Y-33.0
X121.5Y-33.75
X121.5Y-97.75
X121.5Y-98.5
X122.0Y-144.25
X122.0Y-145.0
X122.0Y-145.75
X122.0Y-146.5
X122.0Y-151.0
X122.0Y-155.5
X122.0Y-157.75
X122.0Y-158.5
X122.0Y-159.25
X122.0Y-160.0
X122.0Y-160.75
X122.0Y-161.5
X122.0Y-162.25
X122.0Y-163.0
X122.0Y-163.75
X122.0Y-164.5
X122.0Y-165.25
X122.0Y-166.0
X122.0Y-166.75
X122.0Y-167.5
X122.0Y-171.25
X122.25Y-32.25
X122.25Y-33.0
X122.25Y-33.75
X122.25Y-98.5
X122.25Y-124.5
X122.5Y-104.5
X122.75Y-144.25
X122.75Y-145.0
X122.75Y-145.75
X122.75Y-146.5
X122.75Y-147.25
X122.75Y-151.75
X122.75Y-155.5
X122.75Y-157.75
X122.75Y-158.5
X122.75Y-159.25
X122.75Y-160.0
X122.75Y-160.75
X122.75Y-161.5
X122.75Y-162.25
X122.75Y-163.0
X122.75Y-163.75
X122.75Y-164.5
X122.75Y-165.25
X122.75Y-166.0
X123.0Y-32.25
X123.0Y-33.0
X123.0Y-33.75
X123.125Y-97.625
X123.5Y-144.25
X123.5Y-145.0
X123.5Y-145.75
X123.5Y-146.5
X123.5Y-147.25
X123.5Y-148.0
X123.5Y-152.5
X123.5Y-156.25
X123.5Y-157.0
X123.5Y-157.75
X123.5Y-158.5
X123.5Y-159.25
X123.5Y-160.0
X123.5Y-160.75
X123.5Y-161.5
X123.5Y-162.25
X123.5Y-163.0
X123.5Y-163.75
X123.5Y-164.5
X123.5Y-165.25
X123.5Y-166.0
X123.75Y-105.5
X123.75Y-185.25
X124.0Y-55.0
X124.0Y-55.75
X124.0Y-56.5
X124.25Y-144.25
X124.25Y-145.0
X124.25Y-145.75
X124.25Y-146.5
X124.25Y-147.25
X124.25Y-148.0
X124.25Y-148.75
X124.25Y-153.25
X124.25Y-157.0
X124.25Y-157.75
X124.25Y-158.5
X124.25Y-159.25
X124.25Y-160.0
X124.25Y-160.75
X124.25Y-161.5
X124.25Y-162.25
X124.25Y-163.0
X124.25Y-163.75
X124.25Y-164.5
X124.25Y-165.25
X124.25Y-166.0
X124.75Y-21.0
X124.75Y-45.0
X124.75Y-55.0
X124.75Y-55.75
X124.75Y-56.5
X125.0Y-144.25
X125.0Y-145.0
X125.0Y-145.75
X125.0Y-146.5
X125.0Y-147.25
X125.0Y-148.0
X125.0Y-148.75
X125.0Y-149.5
X125.0Y-154.0
X125.0Y-157.75
X125.0Y-158.5
X125.0Y-159.25
X125.0Y-160.0
X125.0Y-160.75
X125.0Y-161.5
X125.0Y-162.25
X125.0Y-163.0
X125.0Y-163.75
X125.0Y-164.5
X125.0Y-165.25
X125.0Y-166.0
X125.25Y-175.75
X125.25Y-176.5
X125.25Y-177.5
X125.25Y-182.0
X125.5Y-55.0
X125.5Y-55.75
X125.5Y-56.5
X125.75Y-144.25
X125.75Y-145.0
X125.75Y-145.75
X125.75Y-146.5
X125.75Y-147.25
X125.75Y-148.0
X125.75Y-148.75
X125.75Y-149.5
X125.75Y-150.25
X125.75Y-154.75
X125.75Y-158.5
X125.75Y-159.25
X125.75Y-160.0
X125.75Y-160.75
X125.75Y-161.5
X125.75Y-162.25
X125.75Y-163.0
X125.75Y-163.75
X125.75Y-164.5
X125.75Y-165.25
X125.75Y-166.0
X125.75Y-166.75
X125.75Y-167.5
X126.0Y-175.0
X126.0Y-175.75
X126.0Y-176.5
X126.5Y-13.75
X126.5Y-14.5
X126.5Y-32.25
X126.5Y-33.0
X126.5Y-33.75
X126.5Y-144.25
X126.5Y-145.0
X126.5Y-145.75
X126.5Y-146.5
X126.5Y-147.25
X126.5Y-148.0
X126.5Y-148.75
X126.5Y-149.5
X126.5Y-150.25
X126.5Y-151.0
X126.5Y-155.5
X126.5Y-159.25
X126.5Y-160.0
X126.5Y-160.75
X126.5Y-161.5
X126.5Y-162.25
X126.5Y-163.0
X126.5Y-163.75
X126.5Y-164.5
X126.5Y-165.25
X126.5Y-166.0
X126.75Y-120.0
X126.75Y-174.25
X126.75Y-175.0
X126.75Y-175.75
X127.25Y-13.75
X127.25Y-14.5
X127.25Y-32.25
X127.25Y-33.0
X127.25Y-33.75
X127.25Y-144.25
X127.25Y-145.0
X127.25Y-145.75
X127.25Y-146.5
X127.25Y-147.25
X127.25Y-148.0
X127.25Y-148.75
X127.25Y-149.5
X127.25Y-150.25
X127.25Y-151.0
X127.25Y-151.75
X127.25Y-156.25
X127.25Y-160.0
X127.25Y-160.75
X127.25Y-161.5
X127.25Y-162.25
X127.25Y-163.0
X127.25Y-163.75
X127.25Y-164.5
X127.25Y-165.25
X127.25Y-185.5
X127.25Y-186.25
X127.5Y-174.25
X127.5Y-175.0
X128.0Y-13.75
X128.0Y-14.5
X128.0Y-32.25
X128.0Y-33.0
X128.0Y-33.75
X128.0Y-144.25
X128.0Y-145.0
X128.0Y-145.75
X128.0Y-146.5
X128.0Y-147.25
X128.0Y-148.0
X128.0Y-148.75
X128.0Y-149.5
X128.0Y-150.25
X128.0Y-151.0
X128.0Y-151.75
X128.0Y-152.5
X128.0Y-157.0
X128.0Y-160.75
X128.0Y-161.5
X128.0Y-162.25
X128.0Y-163.0
X128.0Y-163.75
X128.0Y-164.5
X128.0Y-185.5
X128.0Y-186.25
X128.75Y-32.25
X128.75Y-33.0
X128.75Y-33.75
X128.75Y-144.25
X128.75Y-145.0
X128.75Y-145.75
X128.75Y-146.5
X128.75Y-147.25
X128.75Y-148.0
X128.75Y-148.75
X128.75Y-149.5
X128.75Y-150.25
X128.75Y-151.0
X128.75Y-151.75
X128.75Y-152.5
X128.75Y-153.25
X129.5Y-32.25
X129.5Y-33.0
X129.5Y-33.75
X129.5Y-74.0
X129.5Y-144.25
X129.5Y-145.0
X129.5Y-145.75
X129.5Y-146.5
X129.5Y-147.25
X129.5Y-148.0
X129.5Y-148.75
X129.5Y-149.5
X129.5Y-150.25
X129.5Y-151.0
X129.5Y-151.75
X129.5Y-152.5
X129.5Y-153.25
X129.5Y-154.0
X129.725Y-21.525
X129.75Y-125.25
X130.25Y-144.25
X130.25Y-145.0
X130.25Y-145.75
X130.25Y-146.5
X130.25Y-147.25
X130.25Y-148.0
X130.25Y-148.75
X130.25Y-149.5
X130.25Y-150.25
X130.25Y-151.0
X130.25Y-151.75
X130.25Y-152.5
X130.25Y-153.25
X130.25Y-154.0
X130.25Y-154.75
X131.0Y-173.0
X134.5Y-21.75
X134.75Y-177.5
X134.75Y-179.75
T2
X129.71Y-80.95
X129.71Y-83.49
X129.71Y-86.03
X129.71Y-88.57
X129.71Y-91.11
X129.71Y-93.65
X129.71Y-96.19
X129.71Y-98.73
X129.71Y-101.27
X129.71Y-103.81
X129.71Y-106.35
X129.71Y-108.89
X129.71Y-111.43
X129.71Y-113.97
X129.71Y-116.51
X129.71Y-119.05
X132.25Y-80.95
X132.25Y-83.49
X132.25Y-86.03
X132.25Y-88.57
X132.25Y-91.11
X132.25Y-93.65
X132.25Y-96.19
X132.25Y-98.73
X132.25Y-101.27
X132.25Y-103.81
X132.25Y-106.35
X132.25Y-108.89
X132.25Y-111.43
X132.25Y-113.97
X132.25Y-116.51
X132.25Y-119.05
T3
X49.08Y-61.349
X49.08Y-63.889
X49.08Y-66.429
X49.08Y-137.099
X49.08Y-139.639
X49.08Y-142.179
X57.83Y-36.099
X57.83Y-38.639
X57.83Y-41.179
X57.83Y-162.349
X57.83Y-164.889
X57.83Y-167.429
X99.08Y-36.099
X99.08Y-38.639
X99.08Y-41.179
X99.08Y-61.349
X99.08Y-63.889
X99.08Y-66.429
X99.08Y-86.599
X99.08Y-89.139
X99.08Y-91.679
X99.08Y-111.849
X99.08Y-114.389
X99.08Y-116.929
X99.08Y-137.099
X99.08Y-139.639
X99.08Y-142.179
X99.08Y-162.349
X99.08Y-164.889
X99.08Y-167.429
T4
X48.425Y-88.0
X48.425Y-91.0
X48.425Y-94.0
X48.425Y-97.0
X48.425Y-100.0
X48.425Y-103.0
X48.425Y-106.0
X48.425Y-109.0
X48.425Y-112.0
X50.925Y-89.5
X50.925Y-92.5
X50.925Y-95.5
X50.925Y-98.5
X50.925Y-101.5
X50.925Y-104.5
X50.925Y-107.5
X50.925Y-110.5
X53.925Y-89.5
X53.925Y-92.5
X53.925Y-95.5
X53.925Y-98.5
X53.925Y-101.5
X53.925Y-104.5
X53.925Y-107.5
X53.925Y-110.5
X56.425Y-88.0
X56.425Y-91.0
X56.425Y-94.0
X56.425Y-97.0
X56.425Y-100.0
X56.425Y-103.0
X56.425Y-106.0
X56.425Y-109.0
X56.425Y-112.0
T5
G00X68.5Y-93.5
M15
G01X69.0Y-93.5
M16
G05
G00X68.5Y-106.5
M15
G01X69.0Y-106.5
M16
G05
G00X74.75Y-93.5
M15
G01X75.25Y-93.5
M16
G05
G00X74.75Y-106.5
M15
G01X75.25Y-106.5
M16
G05
G00X81.0Y-93.5
M15
G01X81.5Y-93.5
M16
G05
G00X81.0Y-106.5
M15
G01X81.5Y-106.5
M16
G05
M30
